<?xml version="1.0" encoding="utf-8"?>
<!-- Generator: Adobe Illustrator 25.2.1, SVG Export Plug-In . SVG Version: 6.00 Build 0)  -->
<svg version="1.1" id="圖層_1" xmlns="http://www.w3.org/2000/svg" xmlns:xlink="http://www.w3.org/1999/xlink" x="0px" y="0px"
	 viewBox="0 0 240 240" style="enable-background:new 0 0 240 240;" xml:space="preserve">
<style type="text/css">
	.st0{fill:#1B3372;}
</style>
<g id="KN07HP.tif_4_">
	<g>
		<path class="st0" d="M184.7,150.9c-2.9-3.9-6.1-7.6-9.2-11.3c-9.7-11.7-19.4-23.3-29.2-34.9c-0.2-0.3-0.5-0.6-0.8-0.9
			c-1.1,1.2-2.2,2.4-3.4,3.6c-2.5,2.6-4.9,5.3-7.5,7.8c-18.9,18.9-37.9,37.8-56.8,56.8c-3.5,3.5-7,6.9-10.5,10.4
			c-0.7,0.7-1.5,1.3-2.4,1.8c-1.6,0.9-3.3,1.2-5.2,0.4c-3.2-1.4-5-4.2-4.8-7.7c0-0.5,0.3-0.8,0.6-1.2c2.1-3.1,4.6-5.9,7.2-8.5
			c9.8-9.8,19.5-19.6,29.3-29.4c12.5-12.6,25.1-25.2,37.7-37.8c1.7-1.7,3.4-3.3,5.2-4.9c0.5-0.5,0.6-0.7,0-1.2
			c-6.3-5.7-12.6-11.4-19.2-16.8c-9-7.3-17.9-14.7-26.8-22.3c1.8,0.3,3.5,0.5,5.3,0.9c17.9,3.4,33.6,11.3,47.8,22.6
			c1.6,1.3,3.2,2.5,4.7,3.8c0.6,0.5,0.9,0.4,1.4-0.1c1.1-1.3,2.3-2.6,3.5-3.9c0.4-0.4,0.6-0.7,1.1-0.1c3.1,3.3,6.3,6.6,9.4,10
			c-1.2,1-2.7,2.3-4.4,3.5c-0.9,0.6-0.7,1.1-0.1,1.7c3.6,4.2,7,8.5,10.1,13.1c7,10.6,12.2,21.9,15.1,34.2c0.7,3.1,1.3,6.2,1.9,9.2
			C184.9,150.2,185.1,150.6,184.7,150.9L184.7,150.9z M102.3,60.7c-0.1-0.1-0.2-0.2-0.4,0c0.1,0.1,0.2,0.1,0.2,0.2
			c0.1,0.1,0.2,0.3,0.3,0.4c4.2,3.6,8.3,7.2,12.5,10.8c7.3,6.3,14.6,12.6,21.9,19c0.6,0.5,0.9,0.5,1.4,0c2.2-2.1,4.5-4.1,6.7-6.2
			C132.5,73.6,118.2,65.8,102.3,60.7z M62.5,181.7c0.8,0,1.7-0.6,2.5-1.4c1.5-1.4,2.9-2.8,4.4-4.2c11.8-11.7,23.6-23.4,35.4-35.1
			c9-8.9,18-17.8,26.9-26.8c1.4-1.4,2.8-2.7,4.2-4.1c0.4-0.4,0.6-0.6,0.1-1.1c-1.4-1.7-2.8-3.5-4.2-5.2c-0.3-0.4-0.6-0.5-1-0.1
			c-0.8,0.8-1.6,1.5-2.4,2.2c-22.5,22.2-44.6,44.7-66.8,67.2c-0.9,0.9-1.8,1.8-2.5,2.7c-0.9,1.1-1.1,2.3-0.4,3.6
			C59.3,180.7,60.4,181.7,62.5,181.7z M178.8,137.7c0.1,0,0.1-0.1,0.2-0.1c-0.1-0.3-0.1-0.6-0.2-0.9c-1-2.8-2-5.6-3-8.4
			c-4.7-12.2-11.6-22.9-20.1-32.7c-0.4-0.4-0.6-0.5-1,0c-1.7,1.9-3.4,3.7-5.1,5.6c-1.2,1.3-1.2,1.3,0,2.7
			c8.4,9.7,16.9,19.5,25.3,29.2C176.1,134.6,177.4,136.1,178.8,137.7z M152.8,82.2c-2.6,2.4-5.1,4.7-7.7,7c-1.3,1.1-2.1,2.7-3.3,3.8
			c-2.4,2.2-4.8,4.3-7.3,6.4c-0.7,0.6-0.6,1-0.1,1.6c1.2,1.5,2.3,3.1,3.4,4.8c0.5,0.8,0.8,0.8,1.5,0.2c3.2-3.1,6.1-6.6,9.5-9.5
			c3.1-2.7,5.7-5.9,8.5-8.9c0.3-0.3,0.6-0.5,0.1-1C155.7,85,154,83.4,152.8,82.2z"/>
		<path class="st0" d="M184.3,185.1c-26.2,0-52.4,0-78.7,0c1-2.8,2.3-5.5,3.5-8.2c2.1-4.4,4.1-8.8,6.2-13.2c0.6-1.4,1.6-2.4,2.9-3.3
			c8.4-5.3,16.7-10.7,25.1-16.1c1-0.7,1.8-0.7,2.9,0c8.8,5.6,17.6,11.2,26.4,16.7c0.6,0.4,1.1,0.9,1.4,1.5
			c3.4,7.2,6.8,14.5,10.2,21.7C184.2,184.5,184.4,184.7,184.3,185.1z M131.8,181.7C131.8,181.7,131.8,181.7,131.8,181.7
			c4.8,0,9.6,0,14.4,0c1.9,0,3.9,0.2,5.8,0.2c2.6,0,3.8-1.1,4.4-3.6c0.3-1.5,0.4-3,0.8-4.5c0.4-1.7,0.2-3.3-0.8-4.7
			c-4.3-6.7-8.5-13.3-12.7-20c-0.5-0.8-0.9-0.8-1.6-0.3c-7.2,4.7-14.5,9.4-21.8,14.1c-1.1,0.7-1.8,1.5-2.3,2.7
			c-2.3,5-4.7,9.9-7,14.9c-0.6,1.3-0.6,1.3,0.9,1.3C118.6,181.7,125.2,181.7,131.8,181.7z M149.4,150.5c0.1,0.2,0.2,0.4,0.3,0.5
			c3.2,6.2,6.9,12.1,10.5,18c0.7,1.1,0.9,2.3,0.6,3.6c-0.6,3-1.2,6-1.8,9c6.8,0,13.5,0,20.4,0c-0.1-0.3-0.2-0.4-0.2-0.6
			c-2.2-4.7-4.4-9.4-6.6-14.1c-0.8-1.8-2.1-3.3-3.7-4.4C162.6,158.2,156.1,154.3,149.4,150.5z"/>
		<path class="st0" d="M184.7,150.9c0,0,0.1,0,0.1,0c0.1-0.1,0.1-0.1,0.1,0C184.9,150.9,184.8,150.9,184.7,150.9L184.7,150.9z"/>
		<path class="st0" d="M102.1,60.9c-0.1-0.1-0.2-0.1-0.2-0.2c0.1-0.1,0.2-0.1,0.4,0C102.2,60.8,102.2,60.8,102.1,60.9z"/>
		<path class="st0" d="M146.1,91.7c1.5,0,2.1,0.7,2.2,2.1c0,1.2-0.9,0.9-1.5,0.9c-1.2,0.1-1.8-0.8-1.8-2.3
			C145,91.7,145.1,91.7,146.1,91.7z"/>
	</g>
</g>
</svg>
