<?xml version="1.0" encoding="utf-8"?>
<!-- Generator: Adobe Illustrator 25.2.1, SVG Export Plug-In . SVG Version: 6.00 Build 0)  -->
<svg version="1.1" id="圖層_1" xmlns="http://www.w3.org/2000/svg" xmlns:xlink="http://www.w3.org/1999/xlink" x="0px" y="0px"
	 viewBox="0 0 240 240" style="enable-background:new 0 0 240 240;" xml:space="preserve">
<style type="text/css">
	.st0{fill:#1B3372;}
</style>
<path class="st0" d="M87.5,113.5c2.5-4.4,6.2-8.2,10.7-10.9c0.2-0.1,0.3-0.2,0.4-0.2l1.4-0.7c8.9-3.8,23.8-10,28.2-25.6
	c0.4-1.4,1-2.9,1.5-3.9c0.3-0.8,1.2-2.3,1.2-2.3c2.5-4.4,6.3-8.1,10.5-10.6c4.3-2.5,9.3-3.9,14.4-3.9c15.9,0,28.8,12.9,28.8,28.8
	c0,18.6-5.2,34.4-14.4,46.5c4.3,10.3,2.3,22.6-6.1,31c-15.3,15.3-32.8,22.9-50.3,22.9c-17.5,0-34.9-7.6-50.2-22.9
	c-11-11.1-11-29.1,0.1-40.1C69.9,115.3,78.8,112.3,87.5,113.5z M158.4,155.9c7.9-7.9,7.9-20.8,0-28.7c-3.8-3.8-9-5.9-14.3-5.9
	c-1.8,0-3.6,0.2-5.4,0.7c0,0-0.7,0.2-1.4,0.5c-1.1,0.4-2.1,0.8-2.9,1.2c-0.7,0.4-1.4,0.8-2.2,1.1c0.2,8-3.3,14.4-9.8,17.6
	c-2.9,1.5-6.3,2.2-9.7,2.2c-5.8,0-11.5-2.1-15.6-5.9c-4.3-4.1-5.9-9.6-4.6-15.4c-0.8-0.4-1.7-0.7-2.4-1l-1.2-0.5
	c-7-1.8-14.4,0.2-19.4,5.3c-7.9,7.9-7.9,20.8,0,28.7C96.9,183.4,131,183.4,158.4,155.9z M118.8,135.3c2.9-1.4,4.7-4,5.2-7.5
	c-8.6,1.9-16.9,0.5-23.8-1.6c-0.3,2.6,0.5,4.9,2.5,6.8C106.6,136.7,113.8,137.8,118.8,135.3z M130.4,116.7c1.3-0.7,2.7-1.3,3.8-1.7
	c0.8-0.4,2.5-0.8,2.5-0.8c2.4-0.7,4.8-1,7.3-1c4.2,0,8.4,0.9,12.2,2.7c5.4-8.3,8.3-18.9,8.3-31.8c0-2.2,1.8-4,4-4c2.2,0,4,1.8,4,4
	c0,14.3-3.5,26.5-9.8,36.1c0.5,0.4,1,0.8,1.4,1.2c0.6,0.6,1.1,1.2,1.6,1.7c7-10.3,10.9-23.5,10.9-39c0-11.4-9.3-20.7-20.7-20.7
	c-7.4,0-14.2,4-18,10.5c0,0-0.4,0.7-0.7,1.4c-0.5,1-0.9,2.1-1.2,3c-0.1,0.4-0.2,0.8-0.4,1.2c6.9,5.8,9.6,13.1,7.3,20.4
	c-2.8,8.8-12.7,16-22.1,16c-0.1,0-0.2,0-0.2,0c-6.1-0.1-10.9-3.1-13.6-8.3c-1.4,0.6-2.7,1.1-3.8,1.7l-1.2,0.5
	c-2.7,1.6-4.9,3.7-6.6,6.2C104.4,119.5,117.8,123.9,130.4,116.7z M135.3,97.5c1.3-4.1-0.5-7.5-3-10.2c-4.6,7.9-11.5,13.1-17.9,16.7
	c1.4,2.5,3.5,3.8,6.5,3.8C126.7,107.9,133.5,103.1,135.3,97.5z M72.1,130c-3.1,3.1-4.8,7.2-4.8,11.6c0,4.4,1.7,8.5,4.8,11.6
	c12.9,12.9,27.4,19.4,41.8,19.4c14.5,0,28.9-6.5,41.9-19.4c1.6-1.6,1.6-4.1,0-5.7c-1.6-1.6-4.1-1.6-5.7,0c-23,22.9-49.3,23-72.3,0
	c-1.6-1.6-2.5-3.7-2.5-5.9c0-2.3,0.9-4.4,2.5-5.9c1.6-1.6,1.6-4.1,0-5.7C76.2,128.4,73.7,128.4,72.1,130z"/>
</svg>
