<?xml version="1.0" encoding="utf-8"?>
<!-- Generator: Adobe Illustrator 25.2.3, SVG Export Plug-In . SVG Version: 6.00 Build 0)  -->
<svg version="1.1" id="圖層_1" xmlns="http://www.w3.org/2000/svg" xmlns:xlink="http://www.w3.org/1999/xlink" x="0px" y="0px"
	 viewBox="0 0 240 240" style="enable-background:new 0 0 240 240;" xml:space="preserve">
<style type="text/css">
	.st0{fill:#FFFFFF;}
</style>
<path class="st0" d="M70.9,93.2c0.2,4.6,3.8,9.5,10.7,14.7c1.6-5,4.2-9.6,7.4-13.5C80.9,91.3,74.8,90.9,70.9,93.2z M88.8,145.8
	c-4.5,7.3-6.1,13.3-4.6,17.6c4.5,0.7,10-2,16.4-7.8C96.1,153.1,92.1,149.8,88.8,145.8z M94.9,88c0.2,0.1,0.3,0.2,0.5,0.3
	c2.6-2.1,5.5-3.8,8.6-5.1c0-0.2,0-0.3,0-0.5c0.1-0.8,0.2-1.5,0.3-2.3c-4.8-5.3-9.4-8-13.4-8c-1.7,3.4-1.5,8.2,0.6,14.3
	C92.5,87.1,93.7,87.5,94.9,88z M79.6,120.2c0-0.3,0-0.6,0-0.9c-8.2,2.7-13.2,6.2-14.9,10.4c3,3.4,8.9,5.1,17.6,4.8
	C80.6,130,79.6,125.2,79.6,120.2z M151.2,94.6c4.5-7.4,6.1-13.3,4.6-17.6c-4.5-0.7-10,2-16.4,7.8C143.9,87.3,147.9,90.6,151.2,94.6z
	 M157.7,105.9c1.7,4.4,2.7,9.2,2.7,14.3c0,0.3,0,0.6-0.1,0.9c8.2-2.7,13.3-6.2,14.9-10.4C172.2,107.3,166.3,105.7,157.7,105.9z
	 M148.6,153.7c-1.1-0.4-2.3-0.8-3.5-1.3c-0.2-0.1-0.3-0.2-0.5-0.3c-2.6,2-5.5,3.8-8.6,5.1c0,0.2,0.1,0.3,0,0.5
	c-0.1,0.8-0.2,1.6-0.3,2.3c4.8,5.3,9.4,8,13.4,8C150.9,164.7,150.7,159.8,148.6,153.7z M169.1,147.2c-0.2-4.6-3.8-9.5-10.7-14.7
	c-1.6,5-4.2,9.6-7.5,13.5C159,149,165.1,149.5,169.1,147.2z M127.7,80.6c-1.2-8.6-3.8-14.1-7.7-16.5c-3.9,2.4-6.5,7.9-7.8,16.5
	c2.5-0.5,5.1-0.8,7.8-0.8C122.6,79.8,125.2,80.1,127.7,80.6z M112.3,159.8c1.2,8.6,3.8,14.1,7.8,16.5c3.9-2.4,6.5-7.9,7.7-16.5
	c-2.5,0.5-5.1,0.8-7.7,0.8C117.3,160.6,114.8,160.3,112.3,159.8z M87.7,120.2c0,17.8,14.5,32.3,32.3,32.3s32.3-14.5,32.3-32.3
	S137.8,87.9,120,87.9S87.7,102.4,87.7,120.2z M183.6,110.7c-1.5,7.4-7.6,13.1-18.1,17.1c8.6,7.2,12.6,14.6,11.5,22.1
	c-0.1,1-0.6,1.9-1.4,2.5c-3.4,2.8-7.6,4.2-12.7,4.2c-1.7,0-3.4-0.2-5.3-0.5c1.6,7.4,0.7,13.5-2.9,18.1c-0.6,0.8-1.5,1.3-2.5,1.5
	s-2.1,0.3-3.1,0.3c-5.1,0-10.2-2.3-15.4-6.8c-2.5,7.8-6.6,12.9-12.3,15.1c-0.5,0.2-1,0.3-1.4,0.3c-0.5,0-1-0.1-1.5-0.3
	c-7.2-2.8-11.9-10.1-13.9-21.6c-6.8,5.7-13.1,8.6-19,8.6c-1.9,0-3.7-0.3-5.4-0.9c-1-0.3-1.8-1-2.3-1.9c-3.9-6.9-2.7-15.7,3.5-26.2
	c-0.1,0-0.3,0-0.4,0c-12,0-20.1-3.4-24.1-10.1c-0.5-0.9-0.7-1.9-0.5-2.9c1.5-7.4,7.6-13.1,18.2-17C65.9,105.2,62,97.8,63,90.3
	c0.1-1,0.7-1.9,1.4-2.5c4.4-3.8,10.5-5,18-3.8c-1.6-7.4-0.6-13.5,3-18.1c0.6-0.8,1.5-1.3,2.5-1.5c6.1-1.1,12.3,1.1,18.5,6.5
	c2.5-7.8,6.6-13,12.3-15.2c1-0.4,2-0.4,2.9,0c7.2,2.8,11.9,10,13.9,21.6c9-7.6,17.1-10.2,24.5-7.8c0.9,0.3,1.7,1,2.2,1.9
	c3.9,6.9,2.7,15.7-3.5,26.3c12.2-0.1,20.4,3.3,24.5,10.1C183.7,108.7,183.8,109.8,183.6,110.7z M99.8,116.2c0,2.2-1.8,4-4,4
	c-2.3,0-4-1.8-4-4s1.8-4,4-4C98,112.1,99.8,113.9,99.8,116.2z M103.9,128.3c0,2.2-1.8,4-4,4c-2.3,0-4-1.8-4-4s1.8-4,4-4
	C102.1,124.2,103.9,126,103.9,128.3z M107.9,104c0,2.2-1.8,4-4,4c-2.3,0-4-1.8-4-4s1.8-4,4-4S107.9,101.8,107.9,104z M111.9,136.3
	c0,2.2-1.8,4-4,4c-2.3,0-4-1.8-4-4s1.8-4,4-4S111.9,134.1,111.9,136.3z M116,116.2c0,2.2-1.8,4-4,4c-2.3,0-4-1.8-4-4s1.8-4,4-4
	C114.2,112.1,116,113.9,116,116.2z M124,128.3c0,2.2-1.8,4-4,4c-2.3,0-4-1.8-4-4s1.8-4,4-4C122.2,124.2,124,126,124,128.3z
	 M140.2,120.2c0-2.2,1.8-4,4-4s4,1.8,4,4c0,15.6-12.7,28.3-28.3,28.3c-2.3,0-4-1.8-4-4s1.8-4,4-4
	C131.1,140.4,140.2,131.3,140.2,120.2z M136.2,120.2c0,2.2-1.8,4-4,4c-2.3,0-4-1.8-4-4s1.8-4,4-4C134.3,116.2,136.2,118,136.2,120.2
	z M140.2,104c0,2.2-1.8,4-4,4c-2.3,0-4-1.8-4-4s1.8-4,4-4S140.2,101.8,140.2,104z"/>
</svg>
