<?xml version="1.0" encoding="utf-8"?>
<!-- Generator: Adobe Illustrator 25.2.3, SVG Export Plug-In . SVG Version: 6.00 Build 0)  -->
<svg version="1.1" id="圖層_1" xmlns="http://www.w3.org/2000/svg" xmlns:xlink="http://www.w3.org/1999/xlink" x="0px" y="0px"
	 viewBox="0 0 240 240" style="enable-background:new 0 0 240 240;" xml:space="preserve">
<style type="text/css">
	.st0{fill:#FFFFFF;}
</style>
<path class="st0" d="M113.9,75.8c1.2,0,2.5,0.1,3.7,0.2c5.6-9.4,14.3-18.2,21.4-20.4c1.2-0.4,2.5-0.2,3.6,0.6s1.6,2,1.6,3.3v6.1
	c0.6-0.4,1.1-0.9,1.7-1.3c8.4-5.9,19.7-8.8,34.6-8.8c2.2,0,4,1.8,4,4c0,16.3-2.8,27-9,34.8c-0.4,0.5-0.9,1-1.3,1.5h6.2
	c1.2,0,2.5,0.6,3.2,1.6c0.8,1,1,2.4,0.6,3.6c-2.2,7.1-10.9,15.7-20.2,21.3c1.2,15.7-4.6,32.4-17.2,45
	c-11.5,11.5-26.5,17.4-41.1,17.4c-13.2,0-26.2-4.8-35.9-14.6c-20.5-20.4-19.3-54.9,2.8-76.8C84.4,81.7,99.3,75.8,113.9,75.8z
	 M105.9,176.5c12.9,0,25.8-5.5,35.4-15c9.6-9.5,15.1-22.4,15.1-35.3c0-11.6-4.4-22.3-12.2-30.2c-7.9-7.8-18.6-12.2-30.2-12.2
	c-12.9,0-25.8,5.5-35.4,15c-9.6,9.5-15,22.4-15,35.3c0,11.6,4.3,22.3,12.2,30.1C83.6,172.2,94.3,176.5,105.9,176.5z M136.4,72.9
	c-0.1-0.4-0.2-0.9-0.2-1.3v-5.2c-3.4,2.7-6.9,6.7-9.8,11c1.9,0.5,3.7,1,5.4,1.7C133.3,76.8,134.8,74.8,136.4,72.9z M150.7,91.3
	c6.5-4.9,12-11.1,14-16.9c0.7-2.1,2.9-3.3,5.1-2.5c2.1,0.7,3.3,3,2.5,5.1c-2.5,7.5-9,14.9-16.5,20.7c0.8,1.2,1.6,2.5,2.3,3.8
	c3.4-3,7.2-7.1,11.3-12.2c4.5-5.6,6.7-13.6,7.1-25.6c-11.1,0.4-19.7,2.8-25.9,7.2c-4.4,3.2-8.2,7-11.3,11.6
	c3.8,2.1,7.4,4.7,10.6,7.9C150.1,90.7,150.4,91,150.7,91.3z M173.6,103.9h-5.2c-0.4,0-0.7-0.1-1.1-0.2c-2.1,2.1-4,3.8-5.9,5.4
	c0.5,1.5,1,3,1.3,4.5C167,110.6,171,107.1,173.6,103.9z M78.6,155.7c-1.6,1.6-1.6,4.2,0,5.7c7.1,7.1,16.8,11,27.4,11
	c11.9,0,23.7-5.1,32.5-13.8c8.8-8.8,13.8-20.6,13.8-32.4c0-10.5-3.9-20.2-11.1-27.3c-1.5-1.6-4.1-1.6-5.7,0c-1.6,1.6-1.6,4.2,0,5.7
	c5.6,5.6,8.7,13.2,8.7,21.6c0,9.7-4.2,19.5-11.5,26.7c-7.3,7.3-17.1,11.5-26.8,11.5c-8.4,0-16.1-3.1-21.7-8.7
	C82.7,154.2,80.1,154.2,78.6,155.7z M87.7,107.9v-8.1c0-2.3,1.8-4,4-4c2.2,0,4,1.8,4,4v8.1h12.1v-8.1c0-2.3,1.8-4,4-4
	c2.2,0,4,1.8,4,4v8.1h16.1c2.2,0,4,1.8,4,4v16.1c2.2,0,4,1.8,4,4c0,2.2-1.8,4-4,4v4c0,2.2-1.8,4-4,4c-2.3,0-4-1.8-4-4v-4H116v12.1
	h8.1c2.2,0,4,1.8,4,4c0,2.2-1.8,4-4,4H116c0,2.2-1.8,4-4,4c-2.3,0-4-1.8-4-4H91.8c-2.3,0-4-1.8-4-4v-16.2h-8.1c-2.3,0-4-1.8-4-4
	c0-2.3,1.8-4,4-4h8.1V116h-8.1c-2.3,0-4-1.8-4-4c0-2.3,1.8-4,4-4L87.7,107.9L87.7,107.9z M107.9,148.3v-12.1H95.8v12.1H107.9z
	 M107.9,128.1V116H95.8v12.1H107.9z M128.1,128.1V116H116v12.1H128.1z"/>
</svg>
