<?xml version="1.0" encoding="utf-8"?>
<!-- Generator: Adobe Illustrator 25.2.3, SVG Export Plug-In . SVG Version: 6.00 Build 0)  -->
<svg version="1.1" id="圖層_1" xmlns="http://www.w3.org/2000/svg" xmlns:xlink="http://www.w3.org/1999/xlink" x="0px" y="0px"
	 viewBox="0 0 240 240" style="enable-background:new 0 0 240 240;" xml:space="preserve">
<style type="text/css">
	.st0{fill:#FFFFFF;}
</style>
<g>
	<g>
		<g>
			<path class="st0" d="M149.5,184.2H63.5c-0.6,0-1.1-0.5-1.1-1.1v-121c0-0.6,0.5-1.1,1.1-1.1h85.9c0.6,0,1.1,0.5,1.1,1.1v121
				C150.5,183.7,150,184.2,149.5,184.2z M64.6,182.1h83.8V63.2H64.6V182.1z"/>
		</g>
		<g>
			<path class="st0" d="M166.6,182.4c-0.4,0-0.8-0.2-0.9-0.6l-9.6-19.8c-0.1-0.1-0.1-0.3-0.1-0.5V93.2c0-0.6,0.5-1.1,1.1-1.1h19.2
				c0.6,0,1.1,0.5,1.1,1.1v68.3c0,0.2,0,0.3-0.1,0.5l-9.6,19.8C167.4,182.2,167,182.4,166.6,182.4z M158.1,161.3l8.6,17.6l8.6-17.6
				v-67h-17.1V161.3z"/>
		</g>
		<g>
			<path class="st0" d="M166.6,182.4c-0.4,0-0.8-0.2-0.9-0.6l-2.7-5.6c-0.1-0.3-0.1-0.6,0-0.9s0.4-0.5,0.7-0.6
				c1.8-0.4,4.1-0.4,5.9,0c0.3,0.1,0.6,0.3,0.7,0.6c0.1,0.3,0.1,0.6,0,0.9l-2.7,5.6C167.4,182.2,167,182.4,166.6,182.4L166.6,182.4z
				 M165.5,176.6l1.2,2.4l1.2-2.4C167.1,176.5,166.2,176.5,165.5,176.6z"/>
		</g>
		<g>
			<path class="st0" d="M176.5,162.6c-0.2,0-0.4-0.1-0.5-0.1l-3.1-1.8l-2,1.7c-0.4,0.3-0.9,0.3-1.3,0.1l-3.1-2.2l-2.1,2.1
				c-0.2,0.2-0.5,0.3-0.8,0.3l0,0c-0.3,0-0.6-0.1-0.8-0.3l-2.1-2.1l-3.1,2.2c-0.5,0.3-1.1,0.2-1.5-0.2s-0.2-1.1,0.2-1.5l3.8-2.8
				c0.4-0.3,1-0.3,1.4,0.1l2,2l2-2c0.4-0.4,0.9-0.4,1.4-0.1l3.1,2.3l1.9-1.7c0.3-0.3,0.8-0.3,1.2-0.1l3.7,2.2
				c0.5,0.3,0.7,0.9,0.4,1.4C177.2,162.5,176.8,162.6,176.5,162.6z"/>
		</g>
		<g>
			<path class="st0" d="M161.3,160.2c-0.6,0-1.1-0.5-1.1-1.1V93.2c0-0.6,0.5-1.1,1.1-1.1c0.6,0,1.1,0.5,1.1,1.1v65.9
				C162.4,159.7,161.9,160.2,161.3,160.2z"/>
		</g>
		<g>
			<path class="st0" d="M166.3,160.5c-0.6,0-1.1-0.5-1.1-1.1l-0.3-66.2c0-0.6,0.5-1.1,1.1-1.1l0,0c0.6,0,1.1,0.5,1.1,1.1l0.3,66.2
				C167.4,160,166.9,160.5,166.3,160.5L166.3,160.5z"/>
		</g>
		<g>
			<path class="st0" d="M171.3,161.2c-0.6,0-1.1-0.5-1.1-1.1V93.2c0-0.6,0.5-1.1,1.1-1.1c0.6,0,1.1,0.5,1.1,1.1v66.9
				C172.4,160.8,171.9,161.2,171.3,161.2z"/>
		</g>
		<g>
			<path class="st0" d="M176.3,94.3H157c-0.6,0-1.1-0.5-1.1-1.1v-5c0-3.3,2.7-6,6-6h9.2c3.3,0,6,2.7,6,6v5
				C177.3,93.8,176.8,94.3,176.3,94.3z M158.1,92.2h17.1v-3.9c0-2.2-1.8-3.9-3.9-3.9H162c-2.2,0-3.9,1.8-3.9,3.9L158.1,92.2
				L158.1,92.2z"/>
		</g>
		<g>
			<path class="st0" d="M135,95.2H78c-0.6,0-1.1-0.5-1.1-1.1V80.4c0-0.6,0.5-1.1,1.1-1.1h57c0.6,0,1.1,0.5,1.1,1.1v13.8
				C136.1,94.7,135.6,95.2,135,95.2z M79,93.1H134V81.4H79V93.1z"/>
		</g>
		<g>
			<path class="st0" d="M134,104.3H79c-0.6,0-1.1-0.5-1.1-1.1s0.5-1.1,1.1-1.1H134c0.6,0,1.1,0.5,1.1,1.1S134.5,104.3,134,104.3z"/>
		</g>
		<g>
			<path class="st0" d="M134,112.9H79c-0.6,0-1.1-0.5-1.1-1.1c0-0.6,0.5-1.1,1.1-1.1H134c0.6,0,1.1,0.5,1.1,1.1
				C135,112.4,134.5,112.9,134,112.9z"/>
		</g>
		<g>
			<path class="st0" d="M134,121.5H96.1c-0.6,0-1.1-0.5-1.1-1.1s0.5-1.1,1.1-1.1H134c0.6,0,1.1,0.5,1.1,1.1S134.5,121.5,134,121.5z"
				/>
		</g>
		<g>
			<path class="st0" d="M120.2,130.1H79c-0.6,0-1.1-0.5-1.1-1.1s0.5-1.1,1.1-1.1h41.2c0.6,0,1.1,0.5,1.1,1.1
				S120.8,130.1,120.2,130.1z"/>
		</g>
		<g>
			<path class="st0" d="M134,138.8H79c-0.6,0-1.1-0.5-1.1-1.1c0-0.6,0.5-1.1,1.1-1.1H134c0.6,0,1.1,0.5,1.1,1.1
				C135,138.3,134.5,138.8,134,138.8z"/>
		</g>
		<g>
			<path class="st0" d="M134,147.4H90.6c-0.6,0-1.1-0.5-1.1-1.1c0-0.6,0.5-1.1,1.1-1.1H134c0.6,0,1.1,0.5,1.1,1.1
				C135,146.9,134.5,147.4,134,147.4z"/>
		</g>
		<g>
			<path class="st0" d="M134,156H79c-0.6,0-1.1-0.5-1.1-1.1s0.5-1.1,1.1-1.1H134c0.6,0,1.1,0.5,1.1,1.1S134.5,156,134,156z"/>
		</g>
		<g>
			<path class="st0" d="M140.5,68.5c-0.6,0-1.1-0.5-1.1-1.1V56.8c0-0.6,0.5-1.1,1.1-1.1c0.6,0,1.1,0.5,1.1,1.1v10.6
				C141.6,68,141.1,68.5,140.5,68.5z M129.2,68.5c-0.6,0-1.1-0.5-1.1-1.1V56.8c0-0.6,0.5-1.1,1.1-1.1c0.6,0,1.1,0.5,1.1,1.1v10.6
				C130.2,68,129.8,68.5,129.2,68.5z M117.8,68.5c-0.6,0-1.1-0.5-1.1-1.1V56.8c0-0.6,0.5-1.1,1.1-1.1c0.6,0,1.1,0.5,1.1,1.1v10.6
				C118.9,68,118.4,68.5,117.8,68.5z M106.5,68.5c-0.6,0-1.1-0.5-1.1-1.1V56.8c0-0.6,0.5-1.1,1.1-1.1c0.6,0,1.1,0.5,1.1,1.1v10.6
				C107.5,68,107.1,68.5,106.5,68.5z M95.1,68.5c-0.6,0-1.1-0.5-1.1-1.1V56.8c0-0.6,0.5-1.1,1.1-1.1c0.6,0,1.1,0.5,1.1,1.1v10.6
				C96.2,68,95.7,68.5,95.1,68.5z M83.8,68.5c-0.6,0-1.1-0.5-1.1-1.1V56.8c0-0.6,0.5-1.1,1.1-1.1c0.6,0,1.1,0.5,1.1,1.1v10.6
				C84.8,68,84.4,68.5,83.8,68.5z M72.4,68.5c-0.6,0-1.1-0.5-1.1-1.1V56.8c0-0.6,0.5-1.1,1.1-1.1c0.6,0,1.1,0.5,1.1,1.1v10.6
				C73.5,68,73,68.5,72.4,68.5z"/>
		</g>
	</g>
</g>
</svg>
