<?xml version="1.0" encoding="utf-8"?>
<!-- Generator: Adobe Illustrator 25.2.1, SVG Export Plug-In . SVG Version: 6.00 Build 0)  -->
<svg version="1.1" id="圖層_1" xmlns="http://www.w3.org/2000/svg" xmlns:xlink="http://www.w3.org/1999/xlink" x="0px" y="0px"
	 viewBox="0 0 240 240" style="enable-background:new 0 0 240 240;" xml:space="preserve">
<style type="text/css">
	.st0{fill:#1B3372;}
</style>
<g>
	<path class="st0" d="M130.1,103.8h-4c-2.2,0-4-1.8-4-4s1.8-4,4-4h8.1c1.1,0,2.1,0.4,2.9,1.2c0.8,0.8,1.2,1.8,1.2,2.9
		c-0.1,20.2-0.4,36.1-1,48.4c0,7.1-7.3,12.1-17.6,12.1s-17.7-5-17.7-12.1c0-2.2,1.8-4,4-4c2.2,0,4,1.8,4,4c0,2.2,4.4,4,9.6,4
		s9.6-1.8,9.6-4.2c0.4-8.9,0.7-19.5,0.9-32.1h-24.1v-4H130C130,109.3,130,106.6,130.1,103.8z"/>
	<path class="st0" d="M91.9,84.9c-2.1,1.5-2.2,4.2-2.2,6.8c0,4.2,0.1,8.9,0.1,13.8c0.1,3.3,0.1,6.7,0.2,10.1
		c0.2,8.6,0.6,17.6,1,26.1c0.2,3.4,0.4,6.7,0.6,9.9c0.4,6.4,1,12.2,1.5,17c1,8.1,2.3,15.9,8.1,15.9h38.2c0.7,0,1.4-0.1,2-0.4
		c4.1-1.6,5.3-8.5,6.1-15.5c0.6-4.8,1-10.6,1.4-17c0.2-3.2,0.3-6.5,0.4-9.9c0.3-8.5,0.5-17.5,0.6-26.1c0-3.5,0.1-6.8,0.1-10.1
		c0-4.9,0-9.6,0.1-13.8c0-2.3-1.3-4.7-3.1-6.3c16.4-9.2,19.2-25.2,19.2-25.4c0.2-1.2-0.2-2.3-0.9-3.2c-0.8-0.9-1.9-1.4-3.1-1.4H77.6
		c-1.2,0-2.3,0.5-3.1,1.4c-0.8,0.9-1.1,2.1-0.9,3.2C73.7,60.3,76.3,75.7,91.9,84.9z M121.6,91.7h20.5c0.1,0.1,0.1,0.2,0.1,0.2
		c0,15.4-0.1,55.6-2.5,75.7c-0.5,4.3-1.1,7.3-1.7,8.8H103c-0.6-1.5-1.1-4.5-1.7-8.8c-2.2-18.4-3.5-52.9-3.5-76h19
		C116.8,91.7,121.6,91.7,121.6,91.7z M83,63.5h25.2l-5.2,5.2c-1.6,1.6-1.6,4.1,0,5.7c0.8,0.8,1.8,1.2,2.8,1.2s2.1-0.4,2.8-1.2
		l2.8-2.8l6.4-6.4l6.4,6.4l2.8,2.8c1.6,1.6,4.1,1.6,5.7,0s1.6-4.1,0-5.7l-5.2-5.2h29.2c-3,7.2-11.9,20.2-37,20.2
		C94.9,83.7,86,70.7,83,63.5z"/>
</g>
</svg>
