<?xml version="1.0" encoding="utf-8"?>
<!-- Generator: Adobe Illustrator 25.2.3, SVG Export Plug-In . SVG Version: 6.00 Build 0)  -->
<svg version="1.1" id="圖層_1" xmlns="http://www.w3.org/2000/svg" xmlns:xlink="http://www.w3.org/1999/xlink" x="0px" y="0px"
	 viewBox="0 0 240 240" style="enable-background:new 0 0 240 240;" xml:space="preserve">
<style type="text/css">
	.st0{fill:#FFFFFF;}
</style>
<g>
	<g>
		<g>
			<path class="st0" d="M165.7,185H74.3c-0.6,0-1.1-0.5-1.1-1.1v-51.5c0-0.6,0.5-1.1,1.1-1.1h91.5c0.6,0,1.1,0.5,1.1,1.1V184
				C166.8,184.6,166.3,185,165.7,185z M75.3,182.9h89.3v-49.4H75.3V182.9z"/>
		</g>
		<g>
			<path class="st0" d="M165.7,146.9c-8,0-14.4-6.5-14.4-14.4c0-0.6,0.5-1.1,1.1-1.1h13.4c0.6,0,1.1,0.5,1.1,1.1v13.4
				C166.8,146.4,166.3,146.9,165.7,146.9z M153.5,133.5c0.5,5.9,5.2,10.7,11.2,11.2v-11.2H153.5z"/>
		</g>
		<g>
			<path class="st0" d="M74.3,146.9c-0.6,0-1.1-0.5-1.1-1.1v-13.4c0-0.6,0.5-1.1,1.1-1.1h13.4c0.6,0,1.1,0.5,1.1,1.1
				C88.7,140.4,82.2,146.9,74.3,146.9z M75.3,133.5v11.2c5.9-0.5,10.7-5.2,11.2-11.2H75.3z"/>
		</g>
		<g>
			<path class="st0" d="M87.7,185C87.6,185,87.6,185,87.7,185H74.3c-0.6,0-1.1-0.5-1.1-1.1v-13.4c0-0.6,0.5-1.1,1.1-1.1
				c7.9,0,14.3,6.3,14.4,14.2c0,0.1,0,0.2,0,0.3C88.7,184.6,88.3,185,87.7,185z M75.3,182.9h11.2c-0.5-5.9-5.2-10.7-11.2-11.2V182.9
				z"/>
		</g>
		<g>
			<path class="st0" d="M165.7,185h-13.4c-0.6,0-1.1-0.5-1.1-1.1c0-8,6.5-14.4,14.4-14.4c0.6,0,1.1,0.5,1.1,1.1V184
				C166.8,184.6,166.3,185,165.7,185z M153.5,182.9h11.2v-11.2C158.7,172.2,154,177,153.5,182.9z"/>
		</g>
		<g>
			<path class="st0" d="M120,174.6c-9,0-16.4-7.4-16.4-16.4c0-9,7.3-16.4,16.4-16.4c9,0,16.4,7.3,16.4,16.4
				C136.4,167.2,129,174.6,120,174.6z M120,144c-7.8,0-14.2,6.4-14.2,14.2s6.4,14.2,14.2,14.2c7.8,0,14.2-6.4,14.2-14.2
				C134.2,150.3,127.8,144,120,144z"/>
		</g>
		<path class="st0" d="M120.7,163.1c0.5-0.1,0.9-0.4,1.2-0.7c0.3-0.4,0.5-0.8,0.5-1.3c0-0.4-0.1-0.8-0.4-1.1
			c-0.3-0.3-0.7-0.6-1.3-0.8C120.7,159.1,120.7,163.1,120.7,163.1z M119.3,152.4c-0.4,0.1-0.7,0.4-0.9,0.7c-0.2,0.3-0.3,0.7-0.3,1.1
			c0,0.3,0.1,0.7,0.3,1s0.5,0.5,1,0.7L119.3,152.4L119.3,152.4z M119.3,162.9v-4.2c-1.3-0.4-2.3-0.9-2.8-1.7
			c-0.6-0.8-0.9-1.7-0.9-2.8c0-1.1,0.3-2,1-2.7c0.7-0.8,1.6-1.2,2.7-1.3v-1h1.4v1c1.1,0.1,1.9,0.5,2.5,1.1c0.6,0.6,1.1,1.4,1.2,2.4
			l-2.5,0.3c-0.2-0.8-0.6-1.3-1.2-1.6v3.9c1.6,0.4,2.7,1,3.3,1.7c0.6,0.7,0.9,1.6,0.9,2.6c0,1.2-0.4,2.2-1.1,3
			c-0.7,0.8-1.7,1.3-3.1,1.5v1.9h-1.4v-1.8c-1.1-0.1-2.1-0.6-2.8-1.3c-0.7-0.7-1.2-1.7-1.4-3l2.6-0.3c0.1,0.5,0.3,1,0.6,1.4
			C118.6,162.4,118.9,162.7,119.3,162.9z"/>
		<g>
			<path class="st0" d="M133.6,123.9c-3.7,0-7.8-0.4-12-1.3c-0.4-0.1-0.8-0.4-0.8-0.8c-3-15-0.7-26.9,6.7-34.2
				c5.3-5.3,12.7-7.9,22.2-7.9c3.7,0,7.8,0.4,12,1.3c0.4,0.1,0.8,0.4,0.8,0.8c3,15,0.7,26.9-6.6,34.2
				C150.5,121.3,143,123.9,133.6,123.9z M122.6,120.7c3.8,0.7,7.5,1.1,10.9,1.1c8.9,0,15.8-2.4,20.7-7.3c6.7-6.7,8.8-17.6,6.2-31.6
				c-3.9-0.7-7.5-1.1-10.9-1.1c-8.9,0-15.8,2.5-20.6,7.3C122.1,95.8,120,106.7,122.6,120.7z"/>
		</g>
		<g>
			<path class="st0" d="M110.7,124.2L110.7,124.2c-6.6,0-11.8-1.9-15.4-5.5c-5.1-5.1-6.7-13.3-4.7-23.7c0.1-0.4,0.4-0.8,0.8-0.8
				c2.9-0.6,5.7-0.9,8.3-0.9c6.6,0,11.8,1.9,15.4,5.5c5.1,5.1,6.7,13.3,4.6,23.7c-0.1,0.4-0.4,0.8-0.8,0.8
				C116.1,123.9,113.3,124.2,110.7,124.2z M92.6,96.1c-1.7,9.3-0.3,16.6,4.2,21.1c3.2,3.3,7.9,4.9,13.9,4.9l0,0
				c2.2,0,4.6-0.2,7.2-0.7c1.7-9.3,0.3-16.6-4.2-21.1C109.2,95.8,101.9,94.3,92.6,96.1z"/>
		</g>
		<g>
			<path class="st0" d="M121.7,122.7c-0.3,0-0.5-0.1-0.7-0.3c-0.4-0.4-0.4-1.1,0-1.5l26.5-27.7c0.4-0.4,1.1-0.4,1.5,0
				c0.4,0.4,0.4,1.1,0,1.5l-26.5,27.7C122.3,122.6,122,122.7,121.7,122.7z"/>
		</g>
		<g>
			<path class="st0" d="M120,133.5c-0.6,0-1.1-0.5-1.1-1.1V75.2c0-0.6,0.5-1.1,1.1-1.1s1.1,0.5,1.1,1.1v57.2
				C121.1,133,120.6,133.5,120,133.5z"/>
		</g>
		<g>
			<path class="st0" d="M138.2,105.5c-0.6,0-1-0.4-1.1-1l-1.2-15.2c-0.1-0.6,0.4-1.1,1-1.2c0.6-0.1,1.1,0.4,1.2,1l1.2,15.1
				C139.3,105,138.8,105.5,138.2,105.5C138.2,105.5,138.2,105.5,138.2,105.5z"/>
		</g>
		<g>
			<path class="st0" d="M128,116.1c-0.5,0-1-0.4-1.1-0.9c-0.1-0.6,0.3-1.1,0.9-1.2l16.3-2.6c0.6-0.1,1.1,0.3,1.2,0.9
				c0.1,0.6-0.3,1.1-0.9,1.2l-16.3,2.6C128.1,116.1,128.1,116.1,128,116.1z"/>
		</g>
		<g>
			<path class="st0" d="M118.8,123.3c-0.3,0-0.6-0.1-0.8-0.3L99.7,104c-0.4-0.4-0.4-1.1,0-1.5c0.4-0.4,1.1-0.4,1.5,0l18.3,19.1
				c0.4,0.4,0.4,1.1,0,1.5C119.4,123.2,119.1,123.3,118.8,123.3z"/>
		</g>
		<g>
			<path class="st0" d="M98.5,112.3c-0.4,0-0.8-0.3-1-0.7c-0.2-0.6,0.1-1.2,0.6-1.4l6.8-2.6c0.6-0.2,1.2,0.1,1.4,0.6
				c0.2,0.6-0.1,1.2-0.6,1.4l-6.8,2.6C98.8,112.3,98.6,112.3,98.5,112.3z"/>
		</g>
		<g>
			<path class="st0" d="M112.8,117C112.7,117,112.7,117,112.8,117c-0.7,0-1.1-0.6-1.1-1.1l0.7-10.1c0-0.6,0.5-1.1,1.1-1
				c0.6,0,1,0.6,1,1.1l-0.7,10.1C113.8,116.6,113.3,117,112.8,117z"/>
		</g>
		<g>
			<path class="st0" d="M81.5,94.7c-2.7,0-4.9-2.2-4.9-4.9c0-2.7,2.2-4.9,4.9-4.9c2.7,0,4.9,2.2,4.9,4.9
				C86.4,92.5,84.2,94.7,81.5,94.7z M81.5,87.1c-1.5,0-2.8,1.2-2.8,2.8c0,1.5,1.2,2.8,2.8,2.8c1.5,0,2.8-1.2,2.8-2.8
				C84.2,88.3,83,87.1,81.5,87.1z"/>
		</g>
		<g>
			<path class="st0" d="M158.4,67.8c-2.7,0-4.9-2.2-4.9-4.9c0-2.7,2.2-4.9,4.9-4.9s4.9,2.2,4.9,4.9S161.1,67.8,158.4,67.8z
				 M158.4,60.2c-1.5,0-2.8,1.2-2.8,2.8s1.2,2.7,2.8,2.7c1.5,0,2.8-1.2,2.8-2.7C161.1,61.4,159.9,60.2,158.4,60.2z"/>
		</g>
		<g>
			<path class="st0" d="M114.4,77.9L114.4,77.9c-4.8,0-8.7-1.4-11.3-4.1c-3.8-3.8-5-9.8-3.4-17.4c0.1-0.4,0.4-0.8,0.8-0.8
				c7.6-1.5,13.7-0.3,17.4,3.4c3.8,3.8,4.9,9.8,3.4,17.4c-0.1,0.4-0.4,0.8-0.8,0.8C118.3,77.7,116.3,77.9,114.4,77.9z M101.5,57.6
				c-1.2,6.5-0.1,11.6,3,14.8c2.3,2.3,5.6,3.5,9.8,3.5l0,0c1.5,0,3.2-0.2,4.9-0.5c1.2-6.6,0.2-11.7-3-14.8
				C113.2,57.4,108.1,56.4,101.5,57.6z"/>
		</g>
		<g>
			<path class="st0" d="M120.2,77.3c-0.3,0-0.6-0.1-0.8-0.3l-9.2-9.7c-0.4-0.4-0.4-1.1,0-1.5c0.4-0.4,1.1-0.4,1.5,0l9.2,9.7
				c0.4,0.4,0.4,1.1,0,1.5C120.8,77.2,120.5,77.3,120.2,77.3z"/>
		</g>
	</g>
</g>
</svg>
