<?xml version="1.0" encoding="utf-8"?>
<!-- Generator: Adobe Illustrator 25.2.1, SVG Export Plug-In . SVG Version: 6.00 Build 0)  -->
<svg version="1.1" id="圖層_1" xmlns="http://www.w3.org/2000/svg" xmlns:xlink="http://www.w3.org/1999/xlink" x="0px" y="0px"
	 viewBox="0 0 240 240" style="enable-background:new 0 0 240 240;" xml:space="preserve">
<style type="text/css">
	.st0{fill:#1B3372;}
</style>
<g>
	<g>
		<path class="st0" d="M95,174.5H69.9V88.2H48.3v-20L95,64V174.5z M74.1,170.3h16.7V68.6L52.5,72v12h21.6V170.3z"/>
	</g>
	<g>
		<path class="st0" d="M154.4,176c-11.3,0-20.5-3.8-27.3-11.2c-6.8-7.4-10.2-17.5-10.2-30.3v-28.8c0-12.7,3.4-22.9,10.2-30.3
			c6.8-7.5,16-11.2,27.2-11.2c11.2,0,20.3,3.8,27.2,11.2c6.8,7.4,10.3,17.6,10.3,30.3v28.8c0,12.7-3.4,22.9-10.2,30.3
			C174.7,172.2,165.6,176,154.4,176z M154.2,68.4c-10.1,0-18,3.2-24.1,9.9c-6,6.6-9.1,15.8-9.1,27.4v28.8c0,11.6,3.1,20.9,9.1,27.4
			c6.1,6.6,14,9.8,24.2,9.8c10.1,0,18-3.2,24-9.8c6-6.6,9.1-15.8,9.1-27.4v-28.8c0-11.6-3.1-20.8-9.2-27.4
			C172.2,71.7,164.3,68.4,154.2,68.4z M154.4,159.9c-5.4,0-9.6-2.2-12.5-6.4c-2.8-4-4.2-9.7-4.2-17v-32.9c0-7.1,1.4-12.7,4.1-16.8
			c2.9-4.3,7.1-6.4,12.4-6.4c5.3,0,9.4,2.2,12.4,6.4c2.8,4,4.2,9.7,4.2,16.8v32.9c0,7.2-1.4,12.9-4.1,16.9
			C163.8,157.7,159.6,159.9,154.4,159.9z M154.2,84.6c-3.9,0-6.8,1.5-8.9,4.6c-2.3,3.3-3.4,8.2-3.4,14.4v32.9
			c0,6.4,1.2,11.3,3.4,14.6c2.1,3.1,5.1,4.6,9,4.6c3.8,0,6.7-1.5,8.9-4.6c2.3-3.3,3.4-8.2,3.4-14.6v-32.9c0-6.2-1.2-11.1-3.5-14.4
			C161,86.1,158.1,84.6,154.2,84.6z"/>
	</g>
</g>
</svg>
