<?xml version="1.0" encoding="utf-8"?>
<!-- Generator: Adobe Illustrator 25.2.3, SVG Export Plug-In . SVG Version: 6.00 Build 0)  -->
<svg version="1.1" id="圖層_1" xmlns="http://www.w3.org/2000/svg" xmlns:xlink="http://www.w3.org/1999/xlink" x="0px" y="0px"
	 viewBox="0 0 240 240" style="enable-background:new 0 0 240 240;" xml:space="preserve">
<style type="text/css">
	.st0{fill:#FFFFFF;}
</style>
<g>
	<g>
		<g>
			<path class="st0" d="M90.8,191.1c-0.5,0-0.8-0.1-1-0.3c-0.3-0.4-0.3-0.9-0.3-1.1l0-3.8c0-1.5,0-3.2-0.6-4.6
				c-0.3-0.8-0.7-1.1-1.4-1.6c-0.5-0.2-1.2-0.5-1.7-0.5c-0.4,0-0.7-0.2-0.9-0.5c-0.4-0.7,0.3-1.3,0.7-1.6c0.1-0.1,0.1-0.1,0.2-0.1
				c0.2-0.2,0.5-0.5,1-0.6c0.7-0.1,1.2,0.4,1.6,0.8c0.2,0.1,0.3,0.3,0.4,0.4c-0.1-0.7-0.5-2.2-0.6-2.5c-0.2-0.4-0.5-0.8-0.8-1.2
				c-0.2-0.3-0.5-0.7-0.7-1c-0.3-0.5-0.6-1.1-0.8-1.6c-0.2-0.4-0.4-0.8-0.6-1.1c-0.8-1.4-1.8-2.6-3.1-3.6c-0.6-0.5-1.3-0.8-2-1.2
				l-0.3-0.2c-0.6-0.3-1.3-0.6-2-0.8l-0.5-0.2c-0.3-0.1-0.7-0.2-1-0.6c-0.3-0.4-0.3-0.7-0.3-1c0.1-0.4,0.4-0.7,1-1
				c1.1-0.5,1.5-0.3,2.2,0.1c0.1,0.1,0.2,0.1,0.3,0.2c0.1,0,0.1,0.1,0.2,0.2c0.1,0.1,0.2,0.1,0.4,0.2c-0.1-0.3-0.2-0.9-0.8-2
				c-0.5-0.9-1.1-1.8-2-2.8c-0.6-0.7-1.2-1.4-1.9-2.1c-0.4-0.5-1.1-1.2-0.3-2.3c0.3-0.4,0.8-0.7,1.3-0.6c0.4,0.1,0.8,0.4,1,0.6
				l1.4,1.3c0,0,0,0,0.1,0.1c0-0.1,0-0.1,0-0.1c0-0.2,0-0.4,0.1-0.5c0.1-0.5,0.2-0.9,0.3-1.4c0.1-0.3,0.2-0.6,0.2-0.9
				c0.4-1.6,0.1-3.3-0.2-4.5c-0.2-0.6,1-1,1-1c0.2-0.1,0.5-0.1,0.8,0c0.3,0.2,0.3,0.5,0.4,0.8l0,0.1c0.1,0.7,0.3,1.5,0.6,2.3
				c0.3-0.3,0.6-0.7,1-0.8c0.7-0.2,1.1,0.1,1.2,0.3c0.4,0.6,0,1.6-0.3,1.9c-0.5,0.7-1,1.6-1.3,2.5c-1.3,3.9-0.9,7.9,1.2,10.7
				c0.1,0.2,0.6,0.7,1,1c0.1-0.3,0.3-0.8,0.4-1.2c0.1-0.6,0.3-1.5,0.8-2.2c0.3-0.4,1-0.8,1.6-0.5c0.5,0.2,0.8,0.7,0.8,1.3
				c0,0.4-0.1,0.8-0.2,1.1c-0.8,2.5-1,4-0.1,6l0.1,0.2l0,0c0.1,0.1,0.1,0.2,0.2,0.3l1.8,3.2c0.2,0.4,0.5,0.9,0.9,1.3l0.1-0.1
				c0.4-0.6,0.9-1.3,1.2-1.9c0.1-0.2,0.3-0.3,0.4-0.3c0.2-0.1,0.5,0,0.7,0.3c0.5,0.9,0.6,1.8,0.2,2.5c-0.1,0.3-0.3,0.6-0.5,0.9
				c-0.2,0.3-0.4,0.7-0.5,1c-0.2,0.9-0.3,1.8-0.3,2.6c0,1.5,0.2,2.9,0.3,4.4c0.2,2.1,0.5,4.4,0.2,6.6c0,0.1,0,0.3-0.2,0.5
				c-0.2,0.3-0.7,0.5-1.4,0.5C91.1,191.1,90.9,191.1,90.8,191.1z M85.7,178.2C85.7,178.2,85.7,178.2,85.7,178.2
				c0.7,0,1.6,0.4,2.2,0.7c1,0.5,1.4,1,1.9,2c0.7,1.6,0.7,3.4,0.7,5l0,3.8c0,0.1,0,0.4,0.1,0.4c0.2,0.1,1.1,0,1.4-0.2
				c0.2-2.2,0-4.4-0.2-6.4c-0.2-1.4-0.3-2.9-0.3-4.5c0-0.9,0-1.9,0.3-2.8l0,0c0.1-0.5,0.4-0.9,0.6-1.2c0.2-0.3,0.3-0.5,0.4-0.8
				c0.2-0.4,0.1-0.7,0.1-1.1c-0.3,0.5-0.6,0.9-0.9,1.4l-0.6,0.9l-0.4-0.2c-0.8-0.5-1.2-1.3-1.6-1.9l-1.8-3.2c0-0.1-0.1-0.1-0.1-0.2
				c-0.1-0.1-0.1-0.2-0.2-0.4c-1.2-2.4-0.7-4.3,0-6.6l0-0.1c0.1-0.3,0.2-0.5,0.2-0.8c0-0.2-0.1-0.4-0.2-0.4
				c-0.1-0.1-0.3,0.1-0.4,0.2c-0.4,0.5-0.5,1.1-0.7,1.9c0,0.2-0.4,1.7-0.9,2c-0.7,0.5-2.1-1.3-2.2-1.4c-2.3-3.1-2.8-7.4-1.4-11.6
				c0.4-1.1,0.8-2,1.4-2.8c0.2-0.2,0.3-0.7,0.3-0.8c0,0-0.1,0-0.2,0c-0.2,0-0.5,0.4-0.7,0.6c-0.1,0.2-0.3,0.3-0.4,0.4l-0.5,0.4
				l-0.3-0.6c-0.5-1-0.8-2.3-1-3.2l0-0.1c0,0,0,0,0-0.1c-0.1,0-0.2,0.1-0.2,0.1c0.3,1.2,0.5,2.9,0.1,4.6c-0.1,0.3-0.2,0.6-0.2,0.9
				c-0.1,0.4-0.2,0.9-0.3,1.3c0,0.1,0,0.3-0.1,0.4c0,0.5-0.1,1-0.5,1.1c-0.4,0.1-0.8-0.2-1.1-0.5l-1.4-1.3c-0.1-0.1-0.3-0.3-0.4-0.3
				c-0.1,0-0.3,0.1-0.4,0.2c-0.3,0.4-0.3,0.5,0.2,1.1c0.6,0.7,1.2,1.4,1.9,2.1c1,1.1,1.6,2,2.1,3c1.2,2.3,1.1,3.1,0.7,3.4l-0.1,0.1
				c-0.5,0.2-1.1-0.1-1.5-0.4c-0.1-0.1-0.1-0.1-0.2-0.1c-0.1-0.1-0.2-0.1-0.3-0.2c-0.5-0.3-0.6-0.3-1.3,0c-0.4,0.2-0.4,0.3-0.4,0.3
				c0,0,0,0.1,0.1,0.1c0.1,0.1,0.3,0.2,0.5,0.3l0.5,0.2c0.7,0.2,1.5,0.5,2.2,0.8l0.3,0.2c0.7,0.4,1.4,0.7,2.1,1.2
				c1.4,1.1,2.5,2.4,3.4,3.9c0.2,0.4,0.4,0.8,0.6,1.2c0.3,0.5,0.5,1,0.8,1.5c0.2,0.3,0.4,0.6,0.6,0.9c0.3,0.4,0.6,0.9,0.9,1.4
				c0.1,0.2,1,3,0.6,3.7c-0.1,0.2-0.3,0.3-0.5,0.3c-0.6,0-1.1-0.4-1.5-0.8c-0.3-0.3-0.5-0.5-0.7-0.5c-0.1,0-0.3,0.2-0.5,0.3
				c-0.1,0.1-0.1,0.1-0.2,0.2C86,177.9,85.8,178,85.7,178.2z M92.5,172.5L92.5,172.5L92.5,172.5z"/>
		</g>
		<g>
			<path class="st0" d="M66.1,181.9c-0.3,0-0.7,0-1-0.1l-0.6-0.1l0.3-0.6c0.4-0.6,0.8-1.2,1.3-1.8c0.4-0.5,0.8-1,1.1-1.5
				c0.5-0.8,0.9-1.5,1.3-2.3c0.2-0.4,0.4-0.8,0.7-1.2c1.3-2.3,2.8-4.6,5-6.1c2.5-1.8,5.3-1.9,7.7-0.3l0,0c0.7,0.4,1.3,0.9,2.1,1
				c0.1,0,0.2,0,0.3,0c0.6,0.1,1.9,0.3,1.9,1.3c0,0.6-0.6,0.9-1.2,1.2c-0.2,0.1-0.4,0.2-0.5,0.3c-0.4,0.4-0.6,1-0.8,1.6l-0.1,0.2
				c-1,2.5-2.7,4.4-4.9,5.4c-2.3,1.1-4.8,1.5-7.3,2c-0.4,0.1-0.9,0.1-1.3,0.2c-0.3,0.1-0.7,0.1-1.1,0.2
				C68,181.7,67,181.9,66.1,181.9z M66,181c0.8,0,1.8-0.2,2.7-0.4c0.4-0.1,0.8-0.2,1.2-0.2c0.4-0.1,0.9-0.2,1.3-0.2
				c2.4-0.4,4.9-0.8,7-1.9c2.1-1,3.6-2.7,4.5-4.9l0.1-0.2c0.2-0.6,0.5-1.3,1-1.9c0.2-0.2,0.4-0.3,0.7-0.5c0.2-0.1,0.6-0.4,0.7-0.5
				c-0.1-0.1-0.4-0.2-1-0.2c-0.1,0-0.3,0-0.4-0.1c-0.9-0.2-1.7-0.7-2.4-1.1l0,0c-2.2-1.4-4.5-1.3-6.7,0.3c-2,1.5-3.5,3.7-4.7,5.8
				c-0.2,0.4-0.4,0.8-0.6,1.2c-0.4,0.8-0.9,1.6-1.3,2.3c-0.3,0.6-0.8,1.1-1.2,1.6C66.5,180.3,66.3,180.6,66,181z"/>
		</g>
		<g>
			<path class="st0" d="M65.8,181.7l-0.6-0.7c1.3-1.1,2.4-2.3,3.6-3.5c1-1,2-2.1,3-3c2.9-2.6,5.6-4,8.3-4.4c0.7-0.1,1.5-0.1,2.2-0.1
				c0.4,0,0.9-0.1,1.4-0.1c0.5-0.1,1.1-0.1,1.5-0.1l0,0.9c-0.4,0-0.9,0.1-1.4,0.1c-0.5,0.1-1.1,0.1-1.5,0.1c-0.7,0-1.4,0-2.1,0.1
				c-2.5,0.3-5.1,1.7-7.8,4.2c-1,0.9-2,2-3,3C68.3,179.4,67.1,180.6,65.8,181.7z"/>
		</g>
		<g>
			<path class="st0" d="M71.3,154.1c-0.9,0-1.7-0.1-2.4-0.2c-2.1-0.4-4.5-1-6.5-2c-0.9-0.4-1.7-1-2.5-1.6c-0.9-0.6-1.7-1.2-2.6-1.6
				c-0.6-0.3-1.2-0.3-1.9-0.4l-1.2-0.1l0.9-0.8c0.1-0.1,0.2-0.2,0.4-0.3c0.2-0.2,0.4-0.3,0.6-0.5c2.2-1.6,5.2-2.4,8.6-2.5
				c0,0,0,0,0.1,0c3,0,5.5,0.6,7.6,1.9c2.3,1.3,4,4,4.4,6.8l0,0.4l-0.4,0.1C74.9,153.8,73,154.1,71.3,154.1z M56.5,147.5
				c0.4,0.1,0.8,0.2,1.1,0.3c1,0.5,1.9,1.1,2.8,1.7c0.8,0.6,1.6,1.1,2.4,1.5c2,1,4.3,1.5,6.3,1.9c1.9,0.4,4.6,0.2,6.6-0.4
				c-0.5-2.3-1.9-4.5-3.9-5.7c-1.9-1.2-4.4-1.7-7.2-1.7C62.3,145.1,59.1,145.5,56.5,147.5C56.5,147.4,56.5,147.5,56.5,147.5z"/>
		</g>
		<g>
			<path class="st0" d="M49.9,165.9l-0.1-0.7c-0.2-1.2,1.5-4.2,1.5-4.2c2.5-4.1,7.1-6.8,11.6-6.9c0,0,0.1,0,0.1,0
				c3.5,0,7,1.1,10.1,3.2l0.5,0.3c1,0.7,2.1,1.4,3,2.4c1.1,1.2,1.2,2,0.4,3.4c-0.8,1.3-2.9,1.2-4.5,1.2c-0.3,0-0.6,0-0.8,0
				c-2.3,0.1-4.1,0.1-5.8-0.1c-2.4-0.2-5-0.4-7.6-0.5c-2.4-0.1-5.9,0.3-7.9,1.5L49.9,165.9z M63.1,155.1
				C63,155.1,63,155.1,63.1,155.1c-4.3,0-8.6,2.6-10.9,6.4c-0.5,0.8-1.1,2-1.3,2.8c2.2-0.9,5.3-1.3,7.6-1.2c2.6,0.1,5.2,0.3,7.6,0.5
				c1.7,0.1,3.5,0.1,5.7,0.1c0.2,0,0.6,0,0.9,0c1.2,0,3.2,0.1,3.6-0.7c0.6-1.1,0.6-1.4-0.3-2.3c-0.8-0.9-1.9-1.6-2.9-2.2l-0.5-0.3
				C69.7,156.1,66.4,155.1,63.1,155.1z"/>
		</g>
		<g>
			<path class="st0" d="M50.7,165.3l-0.8-0.5c1.2-2.2,2.7-4.5,4.9-5.7c0.9-0.5,1.9-0.8,3-1c2-0.3,4,0,5.8,0.3l0.2,0
				c1.8,0.3,3.6,0.7,5.4,1.2l0.4,0.1c2.4,0.7,5.2,1.6,7.4,2.6l-0.4,0.9c-2.2-0.9-4.9-1.8-7.3-2.5l-0.4-0.1c-1.7-0.5-3.5-0.9-5.3-1.2
				l-0.2,0c-1.8-0.3-3.7-0.6-5.5-0.3c-1,0.2-1.9,0.5-2.7,0.9C53.2,161.1,51.8,163.2,50.7,165.3z"/>
		</g>
		<g>
			<path class="st0" d="M88.5,162.3c-0.7,0-1.2-0.2-1.6-0.6c-0.9-0.9-0.9-2.7,0-5.3c1.1-3.2,2.9-6.6,5.3-9.6
				c0.9-1.1,1.8-2.1,2.7-3.2c0.5-0.5,0.9-1.1,1.4-1.6c0.2-0.2,0.3-0.4,0.5-0.6c1.1-1.3,2.2-2.6,2.5-4.1l0.3-1.7l0.6,1.6
				c1.2,3.1,1.7,6.1,1.3,8.7c-0.3,2.6-0.7,5.4-1.9,8c-0.8,1.7-2.2,3.3-4.2,4.9c-1.5,1.2-3.4,2.6-5.5,3.2
				C89.4,162.2,88.9,162.3,88.5,162.3z M99.8,139c-0.5,1.2-1.5,2.2-2.3,3.2c-0.2,0.2-0.3,0.4-0.5,0.6c-0.5,0.5-0.9,1.1-1.4,1.6
				c-0.9,1-1.8,2.1-2.6,3.1c-2.3,2.9-4.1,6.2-5.1,9.3c-0.7,2.1-0.8,3.7-0.2,4.3c0.3,0.4,1,0.4,2,0.1l0,0c2-0.6,3.7-1.8,5.2-3
				c1.9-1.5,3.2-3,4-4.6c1.2-2.4,1.6-5.1,1.8-7.6C100.9,143.8,100.6,141.4,99.8,139z"/>
		</g>
		<g>
			<path class="st0" d="M75.2,153.5c-1.6-1.4-3.4-2.9-5.4-4.1c-2.1-1.3-4.2-2.1-6.2-2.3c-2.4-0.3-5.1,0-7.7,1l-0.3-0.9
				c2.8-1,5.6-1.4,8.2-1c2.1,0.3,4.4,1.1,6.6,2.5c2,1.2,3.9,2.7,5.6,4.2L75.2,153.5z"/>
		</g>
		<g>
			<path class="st0" d="M80,146.9c0,0-0.1,0-0.1,0l0,0c-1-0.1-1.8-0.8-2.5-1.4l-0.3-0.2c-0.8-0.7-1.5-1.5-2.2-2.3l-0.1-0.1
				c-1.6-2-2.6-4.7-2.8-7.6c-0.2-2.6,0.3-5.8,1.2-8.4l0.3-0.8l0.5,0.6c0.7,0.8,1,1.1,1.2,1.4c0.2,0.2,0.3,0.3,0.5,0.6
				c0.5,0.7,1.2,1.3,1.8,1.9c0.6,0.6,1.1,1.2,1.6,1.8c3.4,4,5.8,9.5,2.6,13.3l-0.1,0.1C81.4,146.2,80.8,146.9,80,146.9z M80,145.9
				c0.3,0,0.8-0.6,1.1-0.8l0.1-0.1c3.7-4.3-1.5-10.8-2.5-12.1c-0.5-0.6-1.1-1.2-1.6-1.7c-0.6-0.6-1.2-1.3-1.8-2
				c-0.2-0.2-0.3-0.3-0.5-0.5c-0.2-0.2-0.4-0.4-0.7-0.8c-0.7,2.4-1.1,5.1-0.9,7.3c0.2,2.7,1.1,5.2,2.5,7l0.1,0.1
				c0.6,0.8,1.3,1.6,2,2.2l0.3,0.2C78.6,145.2,79.3,145.9,80,145.9L80,145.9z"/>
		</g>
		<g>
			<path class="st0" d="M84.3,150.1c-0.6,0-1.2-0.2-1.4-0.8c-0.2-0.5-0.2-1.1-0.2-1.5c0.1-1.7,1.1-3.3,1.9-4.9
				c0.3-0.5,0.5-0.9,0.8-1.4l1.1-2.1c0.7-1.4,1.4-2.8,2.2-4.1c0.9-1.7,1.6-3.4,2.1-4.9l0.2-0.5l0.5,0.2c0.9,0.4,1.3,1.3,1.5,2.1
				c0.9,2.9,1.1,5.3,0.7,7.7c-0.2,0.8-0.4,1.7-0.7,2.8c-0.5,1.5-1.1,3.1-2.1,4.4c-1.1,1.4-2.6,2.3-4.2,2.6c-0.2,0-0.3,0.1-0.6,0.1
				C85.6,149.9,84.9,150.1,84.3,150.1z M91.4,131.2c-0.5,1.4-1.2,2.9-2,4.4c-0.7,1.4-1.4,2.8-2.2,4.1l-1.1,2.1
				c-0.2,0.5-0.5,1-0.8,1.4c-0.8,1.4-1.7,2.9-1.8,4.4c0,0.4-0.1,0.8,0.1,1.1c0.2,0.5,1.2,0.2,2.1-0.1c0.2-0.1,0.5-0.1,0.6-0.2
				c1.3-0.3,2.6-1.1,3.6-2.3c0.9-1.1,1.5-2.6,1.9-4c0.3-1,0.5-1.9,0.7-2.7l0,0c0.4-2.2,0.2-4.5-0.7-7.2
				C91.9,132,91.7,131.5,91.4,131.2z"/>
		</g>
		<g>
			<path class="st0" d="M83.9,149.6l-0.3-0.9c1-0.3,3.3-3.3,4.2-4.8c1.3-2.1,3.2-10.5,3-13.2l1-0.1c0.2,2.6-1.7,11.3-3.2,13.7
				C88.6,144.5,85.8,149.1,83.9,149.6z"/>
		</g>
		<g>
			<path class="st0" d="M87.6,161.7l-0.4-0.9c0.7-0.3,5.2-5.1,5.9-6c5.8-7.3,6.3-14.2,6.3-16.2h0.9c0,2-0.5,9.2-6.5,16.8
				C93.5,155.8,88.5,161.3,87.6,161.7z"/>
		</g>
		<g>
			<g>
				<path class="st0" d="M80.9,196.4c-0.4,0-0.8,0-1.3-0.1c-3.2-0.4-5.8-1.9-7-4.1c-0.6-1.1-0.7-2.1-0.2-2.9
					c0.7-1.4,2.4-1.6,3.9-1.8c0.3,0,0.6-0.1,0.9-0.1c0.8-0.1,1.6-0.4,2.4-0.8c0.4-0.2,0.7-0.4,1.1-0.6c0.5-0.3,1-0.6,1.5-0.9
					c1.6-0.7,3.2-0.9,5.3-0.6c0.4,0.1,0.8,0,1.3,0c0.3,0,0.7-0.1,1-0.1l0.8,0l0,0.5c0,0.4,0,0.7,0,1.1l0,3.8c0,0.1,0,0.4,0.1,0.4
					c0.2,0.1,1.1,0,1.4-0.2c0.2-1.9,0.1-3.6-0.1-5.3l0-0.5l0.7-0.1c0.7-0.1,1.4-0.1,2.1-0.2c0.7,0,1.4,0.1,2,0.1
					c0.6,0.1,1.1,0.1,1.6,0.1c0.7,0.1,1.2,0.2,1.8,0.3c1.3,0.3,2.7,0.5,4.1,0.6l0.4,0c1.6,0.1,3.7,0.1,4.6,1.7l0,0
					c1.1,1.6,0.7,4.3-0.7,5.8c-1.1,1.1-2.6,1.6-3.9,2.1c-3.7,1.3-7.2,1.2-10.9,1.1c-1.4,0-2.8-0.1-4.3,0l-3.5,0.1
					c-0.8,0-1.5,0.1-2.3,0.2C82.8,196.3,81.8,196.4,80.9,196.4z M85.6,185.3c-1.1,0-2.2,0.2-3.1,0.7c-0.5,0.2-0.9,0.5-1.4,0.8
					c-0.4,0.2-0.7,0.5-1.1,0.7c-0.8,0.4-1.7,0.8-2.7,0.9c-0.3,0.1-0.6,0.1-0.9,0.1c-1.3,0.2-2.7,0.3-3.2,1.2c-0.4,0.7,0,1.6,0.2,2
					c1.1,1.9,3.4,3.3,6.3,3.6c1.3,0.1,2.5,0,3.8-0.1c0.8-0.1,1.6-0.2,2.4-0.2l3.5-0.1c1.5,0,2.9,0,4.3,0c3.6,0.1,7,0.2,10.6-1.1
					c1.2-0.4,2.6-0.9,3.5-1.8c1.1-1.2,1.4-3.3,0.6-4.6c-0.7-1.1-2.4-1.2-3.9-1.2l-0.4,0c-1.5-0.1-2.9-0.4-4.3-0.6
					c-0.6-0.1-1.2-0.2-1.7-0.3c-0.5,0-1.1-0.1-1.6-0.1c-0.6-0.1-1.3-0.2-1.9-0.1c-0.6,0-1.2,0.1-1.8,0.1c0.1,1.6,0.2,3.2,0,4.9
					c0,0.1,0,0.3-0.2,0.5c-0.2,0.3-0.7,0.5-1.4,0.5c-0.7,0.1-1.2,0-1.5-0.3c-0.3-0.4-0.3-0.9-0.3-1.1l0-3.8c0-0.2,0-0.4,0-0.6
					c-0.2,0-0.5,0-0.8,0.1c-0.5,0.1-1,0.1-1.5,0C86.6,185.3,86.1,185.3,85.6,185.3z"/>
			</g>
		</g>
		<g>
			<path class="st0" d="M94.4,173.6c-0.4,0-0.9-0.1-1.3-0.3c-1-0.6-0.6-2-0.3-2.8l0-0.1c0.3-0.9,0.7-1.7,1.1-2.4l0,0
				c1.2-2,2.7-4.2,5.1-5.2c1.4-0.6,2.9-0.7,4.4-0.8c0.9-0.1,1.8-0.1,2.7-0.3c1.4-0.3,2.8-0.9,3.9-1.7l0.7-0.5l0.1,0.8
				c0.2,1.9-0.7,3.6-1.4,4.9c-0.6,1-1.1,1.7-1.7,2.4c-1.1,1.3-2.6,2.4-4.4,3.5c-1.4,0.8-2.8,1.4-4,1.8c-1.4,0.4-2.6,0.7-3.9,0.7
				c-0.2,0-0.3,0-0.5,0C94.7,173.6,94.6,173.6,94.4,173.6z M94.7,168.4c-0.4,0.7-0.8,1.4-1.1,2.2l0,0.1c-0.2,0.5-0.5,1.4-0.1,1.7
				c0.4,0.2,0.8,0.2,1.3,0.2c0.2,0,0.4,0,0.6,0c1.2,0,2.3-0.3,3.6-0.6c1.2-0.3,2.5-0.9,3.8-1.7c1.8-1,3.2-2.1,4.2-3.3
				c0.6-0.6,1.1-1.4,1.6-2.3c0.6-1,1.2-2.2,1.3-3.5c-1.1,0.7-2.3,1.1-3.6,1.4c-0.9,0.2-1.9,0.3-2.8,0.3c-1.5,0.1-2.9,0.2-4.2,0.8
				C97.2,164.5,95.8,166.6,94.7,168.4L94.7,168.4z"/>
		</g>
		<g>
			<path class="st0" d="M93.7,172.6l-0.8-0.6c1.5-2.1,3.2-4.4,5.5-5.9c1.6-1,3.3-1.6,5-2.2l0.8-0.3c1.8-0.6,3.8-1.4,5.3-2.9
				c0.1-0.1,0.1-0.1,0.1-0.1c0,0,0,0.1,0,0.2l0.8-0.6c0.3,0.4,0.2,0.8-0.2,1.2c-1.6,1.6-3.8,2.4-5.7,3.1l-0.8,0.3
				c-1.7,0.6-3.4,1.2-4.8,2.1C96.8,168.4,95.2,170.6,93.7,172.6z"/>
		</g>
		<g>
			<path class="st0" d="M84.8,188.5h-1c-0.4,0-0.4,0.4,0,0.4h1C85.2,188.9,85.2,188.5,84.8,188.5z"/>
		</g>
		<g>
			<path class="st0" d="M96.6,192.4h-1c-0.4,0-0.4,0.4,0,0.4h1C97,192.8,97,192.4,96.6,192.4z"/>
		</g>
		<g>
			<path class="st0" d="M83.2,191.5h-5.1c-0.4,0-0.4,0.4,0,0.4h5.1C83.6,191.9,83.6,191.5,83.2,191.5z"/>
		</g>
		<g>
			<path class="st0" d="M102.3,189.4h-4.2c-0.4,0-0.4,0.4,0,0.4h4.2C102.7,189.8,102.7,189.4,102.3,189.4z"/>
		</g>
	</g>
	<g>
		<g>
			<path class="st0" d="M121.9,123.9c-0.2,0-0.4-0.1-0.5-0.2c-0.2-0.2-0.4-0.4-0.4-0.7l-1-6.2c-0.1-0.5,0.2-0.9,0.6-1.1
				c7.5-2.6,15.1-5.5,22.5-8.4l-16.5-8.6c-0.4-0.2-0.6-0.7-0.5-1.1s0.6-0.7,1-0.7c2.9,0.4,7.1-1.8,10.1-4.1
				c6.4-4.8,9.2-12.7,10.4-17c1-3.8,1.3-7.3,0.9-10.4c-0.4-3-1.6-6.5-3.4-7.7l-0.1,0c-0.4-0.3-0.6-0.9-0.3-1.3s0.9-0.6,1.3-0.3
				c0,0,0.1,0,0.1,0.1L175.4,75c0.5,0.3,1.2,0.8,1.9,1.2c4.1,2.6,11,6.8,12.3,11.2l0,0c2.1,7.3-1.7,14.3-4.8,19.9
				c-1.5,2.8-3.9,5.7-6.3,7.7c-2.1,1.8-4.7,4.1-7.6,5.2c-1.8,0.7-3.5,0.9-5.1,0.5c-0.8-0.2-1.5-0.5-2.2-0.8c-0.8-0.4-2-1.2-3.4-2.2
				c-1.7-1.2-5.1-3.7-6-3.5c-0.2,0-0.6,0.2-0.8,0.3c-0.2,0.1-0.4,0.2-0.6,0.2c-1.5,0.5-3,0.9-4.4,1.4c-4.2,1.3-8.5,2.6-12.1,3.6
				c-2.2,0.6-4.4,1.3-6.5,1.9c-2.5,0.8-5.1,1.5-7.6,2.2C122.1,123.9,122,123.9,121.9,123.9z M122,117.4l0.7,4.3
				c2.2-0.6,4.4-1.3,6.6-1.9c2.2-0.7,4.4-1.3,6.5-1.9c3.6-1.1,7.9-2.3,12.1-3.6c1.5-0.4,2.9-0.9,4.4-1.4c0.1-0.1,0.3-0.1,0.5-0.2
				c0.4-0.1,0.8-0.3,1.2-0.4c1.5-0.3,3.9,1.3,7.4,3.8c1.3,0.9,2.5,1.8,3.1,2.1c0.6,0.3,1.2,0.6,1.8,0.7c1.4,0.3,2.9-0.1,3.9-0.4
				c2.5-1,4.9-3.1,7-4.9c2.2-1.9,4.4-4.6,5.8-7.2c2.9-5.3,6.5-12,4.6-18.5l0,0c-1.1-3.7-7.8-7.9-11.5-10.1c-0.8-0.5-1.5-0.9-2-1.3
				l-25.1-16.2c0.8,2.1,1.2,4.2,1.2,4.9c0.4,3.4,0.1,7.1-0.9,11.2c-1.2,4.5-4.2,12.9-11.1,18.1c-1.2,0.9-4.6,3.2-8.1,4.2l14.9,7.8
				c0.4,0.2,0.6,0.7,0.5,1.1l-0.2,0.7c-0.1,0.3-0.3,0.5-0.6,0.6C137.4,111.8,129.7,114.7,122,117.4z"/>
		</g>
		<g>
			<path class="st0" d="M150.4,65.3c-0.2-1.1-1-6.6-3.9-8.8l-0.5-0.3c-0.3-0.2-0.6-0.3-0.8-0.4c-4.7-1.7-10.1,1.1-15.2,8.1
				c-0.6,0.8-1.2,1.7-1.7,2.5c0,0.1,0,0.3,0,0.4c0,0.4,0,0.8,0.1,1.2c0.2,0.3,0.3,0.6,0.3,1v0.2c0.9-1.4,1.8-2.7,2.8-4.2
				c2.3-3.1,6.5-7.8,11-7.8c0.7,0,1.4,0.1,2.1,0.4c0.1,0,0.2,0.1,0.4,0.2l0.1,0.1c1.8,1.1,3,4.7,3.5,7.8c0.4,3.1,0.1,6.6-0.9,10.4
				c-1.1,4.3-4,12.3-10.4,17c-3,2.2-7.2,4.5-10.1,4.1c-1.3-0.2-2.2-0.8-2.9-2.1c-1.6-2.9-1.5-6.8-1.3-9.8c0.1-1.3,0.3-2.5,0.6-3.8
				c-0.3-1.4-0.6-2.8-0.8-4.3c-0.9,2.7-1.4,5.3-1.6,7.9c-0.2,3.3-0.3,7.5,1.5,10.8c0.9,1.8,2.4,2.8,4.3,3.1c0.3,0,0.6,0.1,0.9,0.1
				c4.2,0,9.1-3.4,10.6-4.5c6.8-5.1,9.9-13.5,11.1-18.1C150.6,72.4,150.9,68.6,150.4,65.3z"/>
		</g>
		<g>
			<path class="st0" d="M141.9,83.3c-0.7,0-1.6-0.3-2.8-0.8c-3.4-1.7-11-7.4-9.6-10.4c0.8-1.8,1.9-3.6,3.2-5.5l0,0
				c3.4-5.1,7.1-7.2,10.2-5.9c2.5,1,3.3,5.6,3.4,7c0.3,2.4,0.1,5.2-0.6,8.1c-0.6,2.5-1.4,4.8-2.5,6.8
				C143.1,83,142.6,83.3,141.9,83.3z M133.9,67.3c-1.3,1.9-2.3,3.6-3.1,5.3c-0.2,0.5,0.5,2,2.7,4.1c3.5,3.3,7.8,5.5,8.6,5.1
				c1-1.9,1.8-4.1,2.3-6.5c0.7-2.8,0.9-5.3,0.6-7.6c-0.3-2.4-1.2-5.3-2.6-5.8C139.1,60.5,135.7,64.7,133.9,67.3L133.9,67.3z"/>
		</g>
		<g>
			<path class="st0" d="M125.8,88.7c-0.7,0-1.3-0.1-1.9-0.4c-0.8-0.4-1.3-1-1.4-1.7c-0.8-5.1-1.3-16,0.2-24
				c1.9-10,9.6-17.2,20.2-18.8c9.6-1.4,20.7,6.8,26.2,15.2c2.1,3.2,4.2,7.3,6,11.5c0.2,0.5,0.6,1.5,0.9,2.5c0.4,1.1,1,2.8,1.2,3.1
				l-0.4,0.2l-0.9,1.1c-0.1-0.1-8.4-5.8-8.4-5.8l-0.2-0.1l-0.1-0.2c-1.3-2.3-2.4-4.3-3.6-6.4c-3.8-6.5-9.3-11.2-15.1-12.9
				c-6-1.7-12.2,1-15.7,6.8c-2.5,4.1-3.6,9.4-3.4,15.9l0,0.5c0.1,2.9,0.2,6.4,1.4,8.9c0.7,1.5-1.3,2.9-3.1,3.9
				C127.1,88.5,126.4,88.7,125.8,88.7z M145.1,45.5c-0.7,0-1.3,0.1-1.9,0.1c-7.6,1.1-16.5,6.3-18.6,17.2c-1.5,7.8-1,18.3-0.2,23.3
				l0,0c0,0.1,0.1,0.2,0.4,0.3c0.6,0.3,1.5,0.3,1.9,0.1c1.6-0.9,2.1-1.5,2.2-1.7c-1.2-2.8-1.4-6.5-1.5-9.5l0-0.5
				c-0.2-6.9,1-12.5,3.7-16.9c4-6.6,11.1-9.6,17.9-7.7c6.2,1.8,12.1,6.8,16.2,13.7c1.2,2,2.3,4,3.5,6.2c2.6,1.8,4.4,3,5.7,3.9
				c-0.1-0.2-0.1-0.3-0.2-0.5c-0.4-1-0.7-2-0.9-2.4c-1.7-4.1-3.8-8.1-5.8-11.2C162.6,52.6,153.2,45.5,145.1,45.5z"/>
		</g>
		<g>
			<path class="st0" d="M113.9,135.3c-1.1,0-2.5-0.6-4.4-2.9c-1.7-2.1-3.3-5.1-4.6-8.4c-2.4-6.5-3.2-13.7-0.1-14.9
				c2.6-1,13.3-1.4,16.9,8l0,0c1.4,3.8,1.4,7.4-0.1,10.8c-1.9,4.2-5.5,6.7-7,7.3C114.5,135.2,114.2,135.3,113.9,135.3z M108.6,110.5
				c-1.5,0-2.6,0.2-3,0.3c-1.2,0.5-1.4,5.7,1.2,12.4c1.2,3.2,2.7,5.9,4.2,7.9c1.4,1.8,2.6,2.4,3.1,2.2c1-0.4,4.3-2.6,5.9-6.3
				c1.3-2.9,1.3-6,0.1-9.3l0,0C117.7,111.7,112.1,110.5,108.6,110.5z"/>
		</g>
		<g>
			<path class="st0" d="M113.9,135c-1.2,0-2.7-1-4.2-2.9c-1.7-2.1-3.3-5-4.5-8.3c-2.3-6.2-3.2-13.4-0.2-14.6c3-1.1,7.1,4.9,9.5,11.1
				l0,0c1.2,3.3,2,6.6,2.1,9.2c0.1,2.9-0.5,4.8-1.9,5.3C114.4,135,114.2,135,113.9,135z M105.8,110.6c-0.1,0-0.2,0-0.3,0.1
				c-1.4,0.5-1.6,5.6,1,12.7c1.2,3.2,2.7,6,4.3,7.9c1.6,2,2.8,2.5,3.3,2.3c0.6-0.2,1.1-1.3,1-3.9c-0.1-2.5-0.8-5.6-2-8.8l0,0
				C110.6,114.2,107.3,110.6,105.8,110.6z"/>
		</g>
		<g>
			<g>
				<path class="st0" d="M107.3,113.7c-1.1,0-1.1,1.7,0,1.7C108.4,115.4,108.4,113.7,107.3,113.7z"/>
			</g>
			<g>
				<path class="st0" d="M106.8,117.2c-1.1,0-1.1,1.7,0,1.7C107.9,118.8,107.9,117.2,106.8,117.2z"/>
			</g>
			<g>
				<path class="st0" d="M109.6,116.9c-1.1,0-1.1,1.7,0,1.7C110.7,118.6,110.7,116.9,109.6,116.9z"/>
			</g>
			<g>
				<path class="st0" d="M108.2,120c-1.1,0-1.1,1.7,0,1.7C109.3,121.7,109.3,120,108.2,120z"/>
			</g>
			<g>
				<path class="st0" d="M111,119.8c-1.1,0-1.1,1.7,0,1.7S112.1,119.8,111,119.8z"/>
			</g>
			<g>
				<path class="st0" d="M109.1,123.1c-1.1,0-1.1,1.7,0,1.7C110.1,124.8,110.1,123.1,109.1,123.1z"/>
			</g>
			<g>
				<path class="st0" d="M111.9,122.9c-1.1,0-1.1,1.7,0,1.7C113,124.5,113,122.9,111.9,122.9z"/>
			</g>
			<g>
				<path class="st0" d="M110.2,126.3c-1.1,0-1.1,1.7,0,1.7C111.2,127.9,111.2,126.3,110.2,126.3z"/>
			</g>
			<g>
				<path class="st0" d="M113,126c-1.1,0-1.1,1.7,0,1.7C114,127.7,114,126,113,126z"/>
			</g>
			<g>
				<path class="st0" d="M112.4,129.2c-1.1,0-1.1,1.7,0,1.7C113.4,130.9,113.4,129.2,112.4,129.2z"/>
			</g>
		</g>
	</g>
</g>
</svg>
