<?xml version="1.0" encoding="utf-8"?>
<!-- Generator: Adobe Illustrator 25.2.3, SVG Export Plug-In . SVG Version: 6.00 Build 0)  -->
<svg version="1.1" id="圖層_1" xmlns="http://www.w3.org/2000/svg" xmlns:xlink="http://www.w3.org/1999/xlink" x="0px" y="0px"
	 viewBox="0 0 240 240" style="enable-background:new 0 0 240 240;" xml:space="preserve">
<style type="text/css">
	.st0{fill:#FFFFFF;}
</style>
<path class="st0" d="M107.7,63.1l1.3,0.3c2.2-0.2,4.3-0.4,6.6-0.4c6.8,0,13.4,1.1,19.5,3.2l2.9-9c0.6-1.6,2-2.8,3.7-3
	s3.4,0.7,4.3,2.1l7.9,13.5c5.4-4.1,12-6.9,18.8-6.9c2.4,0,4.4,2,4.4,4.4s-2,4.4-4.4,4.4c-5.1,0-10.2,2.5-14.2,5.7l25.4,17
	c1.6,1,2.3,3.1,1.8,4.9s-2.2,3.1-4.2,3.1H173c2.6,6.8,4.1,14.2,4.1,22c0,1.1-0.1,2.2-0.2,3.2c0.3,0.9,0.2,1.9-0.1,2.7
	c-3,31.1-29.3,55.5-61.2,55.5c-34,0-61.5-27.6-61.5-61.5c0-30,21.4-54.9,49.7-60.4C104.9,63.2,106.3,62.8,107.7,63.1z M115.6,177.2
	c27.1,0,49.4-20.5,52.4-46.8l-4.2-4c-0.4,11.7-5.1,23.3-14.1,32.3c-9.4,9.4-21.8,14.1-34.1,14.1c-12.4,0-24.8-4.7-34.2-14.1
	c-1.7-1.7-1.7-4.5,0-6.2s4.5-1.7,6.2,0c15.4,15.4,40.5,15.4,55.9,0c9.5-9.5,13.2-22.8,10.9-35.2l-1.9-1.8l-15.9,20.6
	c-0.9,1.1-2.1,1.7-3.5,1.7c-0.5,0-1-0.1-1.4-0.2c-1.8-0.6-2.9-2.3-2.9-4.2v-31.3l-31.3-4c-2-0.3-3.6-1.8-3.8-3.8
	c-0.2-2,0.9-3.9,2.7-4.7l18.5-7.6l-9.1-9.4c-24.4,4.6-43,26.1-43,51.8C62.9,153.6,86.5,177.2,115.6,177.2z M137.6,98.2v22.2l11-14.2
	c0.8-1,1.9-1.6,3.2-1.7c0.1,0,0.2,0,0.3,0c1.1,0,2.2,0.4,3.1,1.2l8.9,8.6l-4.3-14.9c-0.3-1.3-0.1-2.7,0.8-3.8
	c0.8-1.1,2.1-1.8,3.5-1.8h3l-14.3-9.5l-0.1-0.1c-1.1,1.9-1.8,3.7-1.8,5.3c0,2.4-2,4.4-4.4,4.4c-2.5,0-4.4-2-4.4-4.4
	c0-4.2,2.1-8.9,5.5-13.1l-4.1-7l-1.9,5.8c-0.7,2.1-2.9,3.4-5.1,2.9l-16.6-3.4l5.9,6.1c1,1.1,1.4,2.5,1.1,4c-0.3,1.4-1.3,2.6-2.6,3.2
	l-9,3.7l18.5,2.3C135.9,94.1,137.6,96,137.6,98.2z"/>
</svg>
