<?xml version="1.0" encoding="utf-8"?>
<!-- Generator: Adobe Illustrator 25.2.1, SVG Export Plug-In . SVG Version: 6.00 Build 0)  -->
<svg version="1.1" id="圖層_1" xmlns="http://www.w3.org/2000/svg" xmlns:xlink="http://www.w3.org/1999/xlink" x="0px" y="0px"
	 viewBox="0 0 240 240" style="enable-background:new 0 0 240 240;" xml:space="preserve">
<style type="text/css">
	.st0{fill:#1B3372;}
</style>
<path class="st0" d="M94,101.8c-1.4,8-2.3,16.2-2.3,22.3c0,14.8,10,26.9,24.2,30.9v6.6c-11.1,4.6-16.1,12.8-16.1,18.9
	c0,2.2,1.8,4,4,4H124h4h20.2c2.2,0,4-1.8,4-4c0-6.1-5.1-14.3-16.2-18.9v-6.7c14.2-4,24.2-16.1,24.2-30.9c0-12-4.2-37-8.4-46.1
	c-0.7-1.4-2.1-2.3-3.7-2.3h-10.2l4.2-10.6l12.2,6.1c2,1,4.4,0.2,5.4-1.8c1-2,0.2-4.4-1.8-5.4L142,55.9c-1-0.5-2.2-0.6-3.2-0.2
	c-1.1,0.4-1.9,1.2-2.3,2.3l-7.1,17.6h-1.7c-1.9-11.4-11.9-20.2-23.8-20.2c-13.3,0-24.2,10.9-24.2,24.2C79.6,89.5,85.5,98,94,101.8z
	 M106.6,83.7h25.5h0h0h13.4c3.2,9.1,6.8,29.6,6.8,40.4c0,12.9-10.5,23.2-24.2,24.1v4.1v4v8.1c0,0.4,0.1,0.9,0.2,1.3
	c0.4,1.2,1.3,2.1,2.6,2.6c6.4,2.1,10,5.5,11.9,8.3h-14.6h-4h-14.6c1.8-2.8,5.5-6.1,11.9-8.3c1.2-0.4,2.2-1.4,2.6-2.6
	c0.1-0.4,0.2-0.8,0.2-1.3v-8.1v-4v-4.1c-13.7-0.9-24.2-11.2-24.2-24.1C99.8,113.1,103.3,92.8,106.6,83.7z M95.6,93.4
	c-4.7-2.8-7.9-7.9-7.9-13.8c0-8.9,7.2-16.1,16.2-16.1c7.5,0,13.8,5.2,15.6,12.1h-15.6c-1.6,0-3,0.9-3.7,2.3
	C98.6,81.3,97,87,95.6,93.4z M124,136.1c8.6,0,16.1-5.7,16.1-12.1c0-6.9-1.1-16.2-2.5-24.2h-29.8v-4h29c-0.2-1.1-0.4-2.2-0.7-3.2
	c-0.5-2.2,0.9-4.3,3.1-4.8c2.2-0.5,4.3,0.9,4.8,3.1c2.5,11.5,4.1,24.5,4.1,33.2c0,10.9-11.1,20.2-24.2,20.2c-2.2,0-4-1.8-4-4
	C120,137.9,121.8,136.1,124,136.1z"/>
</svg>
