<?xml version="1.0" encoding="utf-8"?>
<!-- Generator: Adobe Illustrator 25.2.3, SVG Export Plug-In . SVG Version: 6.00 Build 0)  -->
<svg version="1.1" id="圖層_1" xmlns="http://www.w3.org/2000/svg" xmlns:xlink="http://www.w3.org/1999/xlink" x="0px" y="0px"
	 viewBox="0 0 240 240" style="enable-background:new 0 0 240 240;" xml:space="preserve">
<style type="text/css">
	.st0{fill:#FFFFFF;}
</style>
<g>
	<path class="st0" d="M79.6,131.1v17.2c0,1.1,0.5,2.2,1.3,3c6.8,6.3,10.8,17.2,10.8,29.3c0,2.2,1.8,4,4,4h72.7c2.2,0,4-1.8,4-4
		c0-13.7,2.5-20.3,11-29.6c0.7-0.8,1.1-1.7,1.1-2.7V99.8c0-2.2-1.8-4-4-4h-17.1L184,61.5c1.1-1.9,0.5-4.4-1.4-5.5
		c-1.9-1.1-4.4-0.5-5.5,1.4l-23,38.4h-4.4l10.6-35.2c0.6-2.1-0.6-4.4-2.7-5c-2.1-0.6-4.4,0.6-5,2.7l-11.2,37.5h-21.5
		c-2-15.9-15.6-28.2-32-28.2c-17.8,0-32.3,14.5-32.3,32.3C55.4,114.8,65.7,127.5,79.6,131.1z M87.7,103.9h88.8v42.8
		c-8.3,9.3-11.5,17.1-12,29.8H99.7c-0.8-12.1-5-22.8-12-29.9V103.9z M79.6,99.8v22.8c-9.4-3.3-16.1-12.3-16.1-22.8
		c0-13.4,10.9-24.2,24.2-24.2c12,0,21.9,8.8,23.9,20.2H83.7C81.4,95.8,79.6,97.6,79.6,99.8z"/>
	<path class="st0" d="M95.8,124v19.5c4.8,5.8,8.2,13,10.1,21.1c-1.8,0.4-3.1,1.9-3.1,3.8c0,2.2,1.8,4,4,4h50.3c2,0,3.7-1.5,4-3.4
		c1.3-8.7,4.4-15.5,10.4-22.8c0.6-0.7,0.9-1.6,0.9-2.6v-31.8c0-2.2-1.8-4-4-4h-28.2c-2.2,0-4,1.8-4,4s1.8,4,4,4h24.2v8.1H95.8z
		 M146.2,168.4l-14.1-14.1l14.1-14.1l14.1,14.1L146.2,168.4z M103.9,142.2l14.1-14.1l14.1,14.1L118,156.3L103.9,142.2z"/>
</g>
</svg>
