<?xml version="1.0" encoding="utf-8"?>
<!-- Generator: Adobe Illustrator 25.2.3, SVG Export Plug-In . SVG Version: 6.00 Build 0)  -->
<svg version="1.1" id="圖層_1" xmlns="http://www.w3.org/2000/svg" xmlns:xlink="http://www.w3.org/1999/xlink" x="0px" y="0px"
	 viewBox="0 0 240 240" style="enable-background:new 0 0 240 240;" xml:space="preserve">
<style type="text/css">
	.st0{fill:#FFFFFF;}
</style>
<path class="st0" d="M87.7,128.1v44.6c0,6.6,5.4,11.9,11.9,11.9h40.7c6.6,0,11.9-5.4,11.9-11.9v-44.6c0-17.9-11.2-27.3-16.2-30.5
	V63.8c0-4.6-3.8-8.4-8.4-8.4h-15.5c-4.6,0-8.4,3.8-8.4,8.4v33.7C98.9,100.8,87.7,110.2,87.7,128.1z M95.8,128.1
	c0-17.5,13.8-24.6,13.9-24.6c1.4-0.7,2.2-2.1,2.2-3.6V75.6h16.1v24.2c0,1.5,0.9,2.9,2.2,3.6c0.5,0.3,13.9,7.3,13.9,24.6v44.6
	c0,2.1-1.7,3.9-3.9,3.9H99.6c-2.1,0-3.9-1.7-3.9-3.9V128.1z M128.1,63.8v3.7h-16.1v-3.7c0-0.2,0.1-0.3,0.3-0.3h15.5
	C127.9,63.5,128.1,63.6,128.1,63.8z M132.1,164.4v-36.3c0-9.7-7-13.7-7.2-13.8c-2-1-2.8-3.4-1.8-5.4c1-2,3.4-2.8,5.4-1.8
	c0.1,0.1,11.7,6,11.7,21v40.4c0,2.2-1.8,4-4,4h-32.3c-2.2,0-4-1.8-4-4s1.8-4,4-4L132.1,164.4L132.1,164.4z M111.9,120
	c-2.2,0-4-1.8-4-4s1.8-4,4-4s4,1.8,4,4S114.2,120,111.9,120z M124,128.1c0,2.2-1.8,4-4,4s-4-1.8-4-4c0-2.2,1.8-4,4-4
	C122.2,124,124,125.8,124,128.1z M116,160.4c-2.2,0-4-1.8-4-4c0-2.2,1.8-4,4-4s4,1.8,4,4C120,158.6,118.2,160.4,116,160.4z
	 M109.9,136.1c3.3,0,6,2.7,6,6.1c0,3.3-2.7,6.1-6,6.1c-3.3,0-6.1-2.7-6.1-6.1C103.9,138.9,106.6,136.1,109.9,136.1z"/>
</svg>
