<?xml version="1.0" encoding="utf-8"?>
<!-- Generator: Adobe Illustrator 25.2.1, SVG Export Plug-In . SVG Version: 6.00 Build 0)  -->
<svg version="1.1" id="圖層_1" xmlns="http://www.w3.org/2000/svg" xmlns:xlink="http://www.w3.org/1999/xlink" x="0px" y="0px"
	 viewBox="0 0 240 240" style="enable-background:new 0 0 240 240;" xml:space="preserve">
<style type="text/css">
	.st0{fill:#1B3372;}
</style>
<g>
	<g>
		<g>
			<path class="st0" d="M153.2,178.6c0,0-2.6-2.2-4.4-0.6c-0.2,0.2,0,0.4,0.2,0.4c0.2,0.1,1.7,0.7,2.9,2.4c1.1,1.7,2.1,2,2.5,1.7
				C154.9,182.3,155.5,180.5,153.2,178.6z"/>
			<path class="st0" d="M149.7,183.3c0,0,2.6,2.2,4.4,0.6c0.2-0.2,0-0.4-0.2-0.4c-0.2-0.1-1.7-0.7-2.9-2.4c-1.1-1.7-2.1-2-2.5-1.7
				C148,179.6,147.4,181.4,149.7,183.3z"/>
		</g>
		<g>
			<path class="st0" d="M136.2,173.8c0,0-3.4,0.3-3.5,2.7c0,0.3,0.3,0.3,0.5,0.1c0.2-0.1,1.7-0.7,3.7-0.3c2,0.4,2.8-0.1,3-0.6
				C140.1,175.2,139.2,173.5,136.2,173.8z"/>
			<path class="st0" d="M137.1,179.6c0,0,3.4-0.3,3.5-2.7c0-0.3-0.3-0.3-0.5-0.1c-0.2,0.1-1.7,0.7-3.7,0.4c-2-0.4-2.8,0.1-3,0.6
				C133.3,178.2,134.1,179.9,137.1,179.6z"/>
		</g>
		<g>
			<path class="st0" d="M164.6,159.5c0,0,2.8,2,4.4,0.3c0.2-0.2,0-0.4-0.3-0.4c-0.2-0.1-1.8-0.6-3-2.2s-2.2-1.8-2.6-1.5
				C162.6,155.9,162.2,157.8,164.6,159.5z"/>
			<path class="st0" d="M167.8,154.6c0,0-2.8-2-4.4-0.3c-0.2,0.2,0,0.4,0.3,0.4c0.2,0.1,1.8,0.6,3,2.2s2.2,1.8,2.6,1.5
				C169.7,158.2,170.2,156.3,167.8,154.6z"/>
		</g>
		<g>
			<path class="st0" d="M170.1,151.1c0,0,2.8,2,4.4,0.3c0.2-0.2,0-0.4-0.3-0.4c-0.2-0.1-1.8-0.6-3-2.2c-1.2-1.6-2.2-1.8-2.6-1.5
				C168.1,147.5,167.6,149.4,170.1,151.1z"/>
			<path class="st0" d="M173.2,146.2c0,0-2.8-2-4.4-0.3c-0.2,0.2,0,0.4,0.3,0.4c0.2,0.1,1.8,0.6,3,2.2c1.2,1.6,2.2,1.8,2.6,1.5
				C175.2,149.8,175.6,147.9,173.2,146.2z"/>
		</g>
		<g>
			<path class="st0" d="M156.9,172.6c0,0,3.4-0.1,3.6-2.5c0-0.3-0.2-0.3-0.5-0.2c-0.2,0.1-1.8,0.6-3.7,0.1c-2-0.5-2.8-0.1-3,0.4
				C153.1,171,153.9,172.7,156.9,172.6z"/>
			<path class="st0" d="M156.3,166.7c0,0-3.4,0.1-3.6,2.5c0,0.3,0.2,0.3,0.5,0.2c0.2-0.1,1.8-0.6,3.7-0.1c2,0.5,2.8,0.1,3-0.4
				C160.1,168.3,159.3,166.6,156.3,166.7z"/>
		</g>
		<g>
			<path class="st0" d="M161.3,184.3c0,0,3.4,0.3,3.9-2c0-0.2-0.2-0.3-0.4-0.2c-0.2,0.1-1.8,0.4-3.7-0.3c-1.9-0.7-2.8-0.4-3,0
				C157.7,182.2,158.3,184,161.3,184.3z"/>
			<path class="st0" d="M161.4,178.4c0,0-3.4-0.3-3.9,2c0,0.2,0.2,0.3,0.4,0.2c0.2-0.1,1.8-0.4,3.7,0.3c1.9,0.7,2.8,0.4,3,0
				C164.9,180.5,164.4,178.6,161.4,178.4z"/>
		</g>
		<g>
			<path class="st0" d="M175.8,169.6c0,0,3.4-0.1,3.6-2.5c0-0.3-0.2-0.3-0.5-0.2c-0.2,0.1-1.8,0.6-3.7,0.1c-2-0.5-2.8-0.1-3,0.4
				C172.1,168,172.9,169.8,175.8,169.6z"/>
			<path class="st0" d="M175.3,163.8c0,0-3.4,0.1-3.6,2.5c0,0.3,0.2,0.3,0.5,0.2c0.2-0.1,1.8-0.6,3.7-0.1c2,0.5,2.8,0.1,3-0.4
				C179,165.4,178.2,163.7,175.3,163.8z"/>
		</g>
		<g>
			<path class="st0" d="M133.2,163.9c0,0-2.6-2.2-4.4-0.6c-0.2,0.2,0,0.4,0.2,0.4c0.2,0.1,1.7,0.7,2.9,2.4c1.1,1.7,2.1,2,2.5,1.7
				C134.9,167.7,135.5,165.8,133.2,163.9z"/>
			<path class="st0" d="M129.7,168.7c0,0,2.6,2.2,4.4,0.6c0.2-0.2,0-0.4-0.2-0.4c-0.2-0.1-1.7-0.7-2.9-2.4c-1.1-1.7-2.1-2-2.5-1.7
				C128,165,127.4,166.8,129.7,168.7z"/>
		</g>
		<g>
			<path class="st0" d="M120.2,160.6c0,0-3.4,0.3-3.5,2.7c0,0.3,0.3,0.3,0.5,0.1c0.2-0.1,1.7-0.7,3.7-0.3c2,0.4,2.8-0.1,3-0.6
				C124,162,123.1,160.3,120.2,160.6z"/>
			<path class="st0" d="M121,166.4c0,0,3.4-0.3,3.5-2.7c0-0.3-0.3-0.3-0.5-0.1c-0.2,0.1-1.7,0.7-3.7,0.4c-2-0.4-2.8,0.1-3,0.6
				C117.2,165,118.1,166.6,121,166.4z"/>
		</g>
		<g>
			<path class="st0" d="M154.1,147.4c0,0,2.8,2,4.4,0.3c0.2-0.2,0-0.4-0.3-0.4c-0.2-0.1-1.8-0.6-3-2.2c-1.2-1.6-2.2-1.8-2.6-1.5
				C152.2,143.8,151.7,145.6,154.1,147.4z"/>
			<path class="st0" d="M157.3,142.4c0,0-2.8-2-4.4-0.3c-0.2,0.2,0,0.4,0.3,0.4c0.2,0.1,1.8,0.6,3,2.2c1.2,1.6,2.2,1.8,2.6,1.5
				C159.3,146,159.7,144.2,157.3,142.4z"/>
		</g>
		<g>
			<path class="st0" d="M167.5,138.4c0,0,2.8,2,4.4,0.3c0.2-0.2,0-0.4-0.3-0.4c-0.2-0.1-1.8-0.6-3-2.2s-2.2-1.8-2.6-1.5
				C165.5,134.8,165.1,136.7,167.5,138.4z"/>
			<path class="st0" d="M170.6,133.5c0,0-2.8-2-4.4-0.3c-0.2,0.2,0,0.4,0.3,0.4c0.2,0.1,1.8,0.6,3,2.2c1.2,1.6,2.2,1.8,2.6,1.5
				C172.6,137.1,173.1,135.2,170.6,133.5z"/>
		</g>
		<g>
			<path class="st0" d="M138.8,155.7c0,0,3.4-0.1,3.6-2.5c0-0.3-0.2-0.3-0.5-0.2c-0.2,0.1-1.8,0.6-3.7,0.1c-2-0.5-2.8-0.1-3,0.4
				C135,154.1,135.8,155.8,138.8,155.7z"/>
			<path class="st0" d="M138.2,149.8c0,0-3.4,0.1-3.6,2.5c0,0.3,0.2,0.3,0.5,0.2c0.2-0.1,1.8-0.6,3.7-0.1c2,0.5,2.8,0.1,3-0.4
				C142,151.4,141.2,149.7,138.2,149.8z"/>
		</g>
		<g>
			<path class="st0" d="M146.6,166.7c0,0,3.4,0.3,3.9-2c0-0.2-0.2-0.3-0.4-0.2c-0.2,0.1-1.8,0.4-3.7-0.3c-1.9-0.7-2.8-0.4-3,0
				C143.1,164.6,143.6,166.5,146.6,166.7z"/>
			<path class="st0" d="M146.8,160.8c0,0-3.4-0.3-3.9,2c0,0.2,0.2,0.3,0.4,0.2c0.2-0.1,1.8-0.4,3.7,0.3c1.9,0.7,2.8,0.4,3,0
				C150.3,162.9,149.7,161.1,146.8,160.8z"/>
		</g>
		<g>
			<path class="st0" d="M180.8,135.9c0,0-3.2,1.2-2.6,3.5c0.1,0.2,0.3,0.2,0.5,0c0.2-0.2,1.5-1.2,3.5-1.3c2-0.2,2.7-0.8,2.7-1.3
				C184.8,136.3,183.6,134.9,180.8,135.9z"/>
			<path class="st0" d="M183.2,141.3c0,0,3.2-1.2,2.6-3.5c-0.1-0.2-0.3-0.2-0.5,0c-0.2,0.2-1.5,1.2-3.5,1.3c-2,0.2-2.7,0.8-2.7,1.3
				C179.1,140.9,180.4,142.3,183.2,141.3z"/>
		</g>
		<g>
			<path class="st0" d="M185.7,130.1c0,0,3.4,0.3,3.9-2c0-0.2-0.2-0.3-0.4-0.2c-0.2,0.1-1.8,0.4-3.7-0.3c-1.9-0.7-2.8-0.4-3,0
				C182.1,128,182.7,129.8,185.7,130.1z"/>
			<path class="st0" d="M185.8,124.2c0,0-3.4-0.3-3.9,2c0,0.2,0.2,0.3,0.4,0.2c0.2-0.1,1.8-0.4,3.7,0.3c1.9,0.7,2.8,0.4,3,0
				C189.4,126.3,188.8,124.4,185.8,124.2z"/>
		</g>
		<g>
			<path class="st0" d="M153,157c0,0,3.4-0.1,3.6-2.5c0-0.3-0.2-0.3-0.5-0.2c-0.2,0.1-1.8,0.6-3.7,0.2c-2-0.5-2.8-0.1-3,0.4
				C149.2,155.4,150,157.2,153,157z"/>
			<path class="st0" d="M152.4,151.2c0,0-3.4,0.1-3.6,2.5c0,0.3,0.2,0.3,0.5,0.2c0.2-0.1,1.8-0.6,3.7-0.2c2,0.5,2.8,0.1,3-0.4
				C156.2,152.8,155.4,151.1,152.4,151.2z"/>
		</g>
		<g>
			<path class="st0" d="M152.8,97.2c0,0,2.8,2,4.4,0.3c0.2-0.2,0-0.4-0.3-0.4c-0.2-0.1-1.8-0.6-3-2.2c-1.2-1.6-2.2-1.8-2.6-1.5
				C150.8,93.6,150.4,95.5,152.8,97.2z"/>
			<path class="st0" d="M155.9,92.2c0,0-2.8-2-4.4-0.3c-0.2,0.2,0,0.4,0.3,0.4c0.2,0.1,1.8,0.6,3,2.2c1.2,1.6,2.2,1.8,2.6,1.5
				C157.9,95.8,158.4,94,155.9,92.2z"/>
		</g>
		<g>
			<path class="st0" d="M159.1,92c0,0,2.8,2,4.4,0.3c0.2-0.2,0-0.4-0.3-0.4c-0.2-0.1-1.8-0.6-3-2.2c-1.2-1.6-2.2-1.8-2.6-1.5
				C157.2,88.5,156.7,90.3,159.1,92z"/>
			<path class="st0" d="M162.3,87.1c0,0-2.8-2-4.4-0.3c-0.2,0.2,0,0.4,0.3,0.4c0.2,0.1,1.8,0.6,3,2.2c1.2,1.6,2.2,1.8,2.6,1.5
				C164.2,90.7,164.7,88.8,162.3,87.1z"/>
		</g>
		<g>
			<path class="st0" d="M145.7,105.9c0,0,3.4-0.1,3.6-2.5c0-0.3-0.2-0.3-0.5-0.2c-0.2,0.1-1.8,0.6-3.7,0.2c-2-0.5-2.8-0.1-3,0.4
				C142,104.3,142.8,106,145.7,105.9z"/>
			<path class="st0" d="M145.2,100.1c0,0-3.4,0.1-3.6,2.5c0,0.3,0.2,0.3,0.5,0.2c0.2-0.1,1.8-0.6,3.7-0.2c2,0.5,2.8,0.1,3-0.4
				C148.9,101.7,148.1,99.9,145.2,100.1z"/>
		</g>
		<g>
			<path class="st0" d="M178.9,94c0,0,3.4-0.1,3.6-2.5c0-0.3-0.2-0.3-0.5-0.2c-0.2,0.1-1.8,0.6-3.7,0.2c-2-0.5-2.8-0.1-3,0.4
				C175.2,92.4,175.9,94.1,178.9,94z"/>
			<path class="st0" d="M178.3,88.2c0,0-3.4,0.1-3.6,2.5c0,0.3,0.2,0.3,0.5,0.2c0.2-0.1,1.8-0.6,3.7-0.2c2,0.5,2.8,0.1,3-0.4
				C182.1,89.8,181.3,88,178.3,88.2z"/>
		</g>
		<g>
			<path class="st0" d="M84.9,133.9c0,0-2.6-2.2-4.4-0.6c-0.2,0.2,0,0.4,0.2,0.4c0.2,0.1,1.7,0.7,2.9,2.4c1.1,1.7,2,2,2.5,1.7
				C86.6,137.6,87.1,135.8,84.9,133.9z"/>
			<path class="st0" d="M81.4,138.6c0,0,2.6,2.2,4.4,0.6c0.2-0.2,0-0.4-0.2-0.4c-0.2-0.1-1.7-0.7-2.9-2.4c-1.1-1.7-2-2-2.5-1.7
				C79.7,134.9,79.1,136.7,81.4,138.6z"/>
		</g>
		<g>
			<path class="st0" d="M76.3,148.3c0,0-3.4,0.3-3.5,2.7c0,0.3,0.3,0.3,0.5,0.1c0.2-0.1,1.7-0.7,3.7-0.3s2.8-0.1,3-0.6
				C80.2,149.7,79.3,148,76.3,148.3z"/>
			<path class="st0" d="M77.2,154.1c0,0,3.4-0.3,3.5-2.7c0-0.3-0.3-0.3-0.5-0.2c-0.2,0.1-1.7,0.7-3.7,0.4s-2.8,0.1-3,0.6
				C73.4,152.7,74.2,154.4,77.2,154.1z"/>
		</g>
		<g>
			<path class="st0" d="M103.1,129.7c0,0,3.2-1.2,2.6-3.6c-0.1-0.2-0.3-0.2-0.5,0c-0.2,0.2-1.5,1.2-3.5,1.4c-2,0.2-2.7,0.8-2.7,1.4
				C99.1,129.4,100.4,130.8,103.1,129.7z"/>
			<path class="st0" d="M100.7,124.4c0,0-3.2,1.2-2.6,3.6c0.1,0.2,0.3,0.2,0.5,0c0.2-0.2,1.5-1.2,3.5-1.4c2-0.2,2.7-0.8,2.7-1.4
				C104.7,124.7,103.4,123.3,100.7,124.4z"/>
		</g>
		<g>
			<path class="st0" d="M110.1,123.2c0,0,2.8,2,4.4,0.3c0.2-0.2,0-0.4-0.3-0.4c-0.2-0.1-1.8-0.6-3-2.2c-1.2-1.6-2.2-1.8-2.6-1.5
				C108.1,119.6,107.7,121.5,110.1,123.2z"/>
			<path class="st0" d="M113.2,118.3c0,0-2.8-2-4.4-0.3c-0.2,0.2,0,0.4,0.3,0.4c0.2,0.1,1.8,0.6,3,2.2c1.2,1.6,2.2,1.8,2.6,1.5
				C115.2,121.9,115.6,120,113.2,118.3z"/>
		</g>
		<g>
			<path class="st0" d="M90.4,128.6c0,0,3.4-0.1,3.6-2.5c0-0.3-0.2-0.3-0.5-0.2c-0.2,0.1-1.8,0.6-3.7,0.2c-2-0.5-2.8-0.1-3,0.4
				C86.6,127,87.4,128.7,90.4,128.6z"/>
			<path class="st0" d="M89.8,122.8c0,0-3.4,0.1-3.6,2.5c0,0.3,0.2,0.3,0.5,0.2c0.2-0.1,1.8-0.6,3.7-0.2c2,0.5,2.8,0.1,3-0.4
				C93.6,124.4,92.8,122.7,89.8,122.8z"/>
		</g>
		<g>
			<path class="st0" d="M90.2,148c0,0,3.4,0.3,3.9-2c0-0.2-0.2-0.3-0.5-0.2c-0.2,0.1-1.8,0.4-3.7-0.3s-2.8-0.4-3,0
				C86.7,145.9,87.3,147.7,90.2,148z"/>
			<path class="st0" d="M90.4,142.1c0,0-3.4-0.3-3.9,2c0,0.2,0.2,0.3,0.4,0.2c0.2-0.1,1.8-0.4,3.7,0.3c1.9,0.7,2.8,0.4,3,0
				C93.9,144.1,93.3,142.3,90.4,142.1z"/>
		</g>
		<g>
			<path class="st0" d="M97.1,138.3c0,0,3.4-0.1,3.6-2.5c0-0.3-0.2-0.3-0.5-0.2c-0.2,0.1-1.8,0.6-3.7,0.2c-2-0.5-2.8-0.1-3,0.4
				C93.4,136.7,94.2,138.4,97.1,138.3z"/>
			<path class="st0" d="M96.6,132.5c0,0-3.4,0.1-3.6,2.5c0,0.3,0.2,0.3,0.5,0.2c0.2-0.1,1.8-0.6,3.7-0.2c2,0.5,2.8,0.1,3-0.4
				C100.3,134.1,99.5,132.4,96.6,132.5z"/>
		</g>
	</g>
	<g>
		<g>
			<path class="st0" d="M129.1,120.4c-0.2,0-0.5-0.1-0.7-0.2L51,71.3c-0.4-0.2-0.6-0.7-0.6-1.1V56.8c0-0.5,0.3-0.9,0.7-1.1
				c0.4-0.2,0.9-0.2,1.3,0l88.8,56.2c0.4,0.2,0.6,0.7,0.6,1.2s-0.3,0.9-0.7,1.1l-11.5,6.1C129.5,120.4,129.3,120.4,129.1,120.4z
				 M53,69.5l76.1,48.2l8.8-4.7L53,59.2V69.5z"/>
		</g>
		<g>
			<path class="st0" d="M123,123.7c-0.2,0-0.5-0.1-0.7-0.2L51,78.3c-0.4-0.2-0.6-0.7-0.6-1.1v-7.1c0-0.5,0.3-0.9,0.7-1.1
				c0.4-0.2,0.9-0.2,1.3,0l77.3,49c0.4,0.2,0.6,0.7,0.6,1.2c0,0.5-0.3,0.9-0.7,1.1l-1.3,0.7l0,0c-1.7,0.9-3.2,1.7-4.8,2.6
				C123.5,123.6,123.3,123.7,123,123.7z M53,76.5l70.1,44.4c1.1-0.6,2.2-1.2,3.4-1.8L53,72.6V76.5z"/>
		</g>
		<g>
			<path class="st0" d="M108,150.8C108,150.8,108,150.8,108,150.8c-0.6,0-1-0.4-1.2-0.9c-0.2-0.4-0.6-0.9-1.2-1.4
				c-0.8-0.6-3.4-2.1-4.4-2.5c-0.1-0.1-0.2-0.1-0.2-0.1l0,0c-0.5,0.4-1.2,0.4-1.7,0c-0.5-0.4-0.6-1.2-0.2-1.7
				c1.1-1.7,2.6-2.7,4.1-3.6c1.7-1.1,3.2-2.1,4-4.2c0.3-0.7,0.3-1.7,0.4-2.7c0.2-2,0.3-4.3,2.2-5.6c0.3-0.2,1.2-0.8,12.6-6.9
				c1.5-0.8,3.1-1.7,4.8-2.6l27.2-14.5c3.6-1.9,6.2-3.3,6.8-3.6c3.2-1.8,7.5-3.4,11.5-0.6c1.2,0.8,2.5,0.9,4,0.9
				c2.1,0.1,4.4,0.2,6.4,2.4l0,0c1.6,1.7,2.6,3.9,3.2,5.4c0.2,0.6,0,1.2-0.5,1.5c-0.5,0.3-1.1,0.3-1.6-0.1c-0.3-0.2-0.6-0.4-1.1-0.5
				c-0.9-0.2-2-0.2-3.1-0.2c-1.9,0-4.1,0-5.9-1.3c-2.3-1.6-4.9-1.3-8.8,0.8c-0.7,0.4-3.5,1.8-7.4,3.9c-11.7,6.2-35.9,19-38,20.3
				c-0.9,0.6-1,2.1-1.1,3.6c-0.1,1.2-0.2,2.4-0.6,3.5c-1.1,2.9-3.2,4.3-5,5.5c-1.7,1.1-3.2,2.1-4,4.2
				C109.1,150.5,108.6,150.8,108,150.8z M103,144.1c1.3,0.7,3.4,1.8,4.2,2.4c0.3,0.2,0.5,0.4,0.7,0.6c1.1-1.6,2.6-2.6,4-3.5
				c1.7-1.1,3.2-2.1,4-4.2c0.3-0.7,0.3-1.7,0.4-2.7c0.2-2,0.3-4.3,2.2-5.6c2-1.3,20.8-11.3,38.2-20.5c3.9-2.1,6.7-3.5,7.4-3.9
				c3.2-1.8,7.5-3.4,11.5-0.6c1.2,0.8,2.8,0.8,4.4,0.8c0.8,0,1.7,0,2.5,0.1c-0.4-0.7-0.9-1.3-1.4-1.8l0,0c-1.3-1.4-2.8-1.5-4.7-1.6
				c-1.7-0.1-3.6-0.2-5.3-1.4c-2.3-1.6-4.9-1.3-8.8,0.8c-0.6,0.3-3.1,1.7-6.8,3.6L128.4,121c-1.7,0.9-3.2,1.7-4.8,2.6
				c-9.3,5-11.9,6.5-12.4,6.8c-0.9,0.6-1,2.1-1.1,3.6c-0.1,1.2-0.2,2.4-0.6,3.5c-1.1,2.9-3.2,4.3-5,5.5
				C104,143.3,103.5,143.7,103,144.1z"/>
		</g>
		<g>
			<path class="st0" d="M103,168c-0.2,0-0.3,0-0.5-0.1c-1.2-0.3-3.6-2.2-3.9-2.8c-0.2-0.4-0.5-1.1-0.6-4.2c0-1.1-0.1-2.4,0-3.5
				c0-1.2-0.1-2.4-0.1-3.6c-0.1-1.3-0.2-2.6-0.1-3.9c0-0.8,0.1-1.5,0.1-2.2c0-0.3,0.1-0.9,0.2-1.4l0-0.2c0,0,0.1-0.2,0.1-0.2
				c0.2-0.6,0.5-1.2,0.9-1.6c0.1-0.1,0.1-0.2,0.2-0.2c0.5-0.4,1.5-1,2.9-0.4c1.2,0.5,3.9,2.1,4.9,2.8c1.1,0.8,1.8,1.6,2.1,2.6
				c0.5,1.4,0.1,2.8-0.3,4.2c-0.1,0.4-0.2,0.8-0.3,1.2c-0.2,0.9-0.4,1.7-0.7,2.6l0,0.1c-1.1,4.2-2.2,7.2-3.5,10
				c-0.1,0.2-0.3,0.5-0.6,0.6c-0.1,0-0.2,0.1-0.2,0.1l-0.5-1.2l0.2,1.3c0,0-0.1,0-0.2,0C103.1,168,103.1,168,103,168z M102,166.1
				L102,166.1L102,166.1z M100.9,163.8c0.3,0.3,1,0.9,1.6,1.2c1-2.4,1.9-5,2.9-8.5l0,0l0,0l1.3,0.3l-1.2-0.4
				c0.2-0.9,0.5-1.8,0.7-2.7c0.1-0.5,0.2-0.9,0.4-1.3c0.4-1.2,0.6-2,0.3-2.6c-0.2-0.4-0.6-0.9-1.2-1.4c-0.8-0.6-3.4-2.1-4.4-2.5
				c0,0-0.1,0-0.1,0c-0.2,0.3-0.3,0.6-0.4,0.9c0,0,0,0,0,0l0,0.1c-0.1,0.4-0.2,0.8-0.2,1.1c-0.1,0.6-0.1,1.2-0.1,1.9
				c0,1.2,0.1,2.4,0.1,3.7c0.1,1.2,0.2,2.5,0.1,3.8c0,0.8,0,2.1,0,3.4C100.7,162.8,100.9,163.5,100.9,163.8z M106.6,156.9
				L106.6,156.9L106.6,156.9z"/>
		</g>
		<g>
			<path class="st0" d="M103.2,168c-0.5,0-0.9-0.3-1.2-0.7c-0.2-0.4-0.2-1,0.1-1.4c1.2-2.6,2.2-5.5,3.3-9.4l1.3,0.2l-1.3-0.3
				c0.2-0.9,0.5-1.7,0.7-2.6c0.1-0.5,0.2-0.9,0.4-1.3c0.4-1.2,0.6-2,0.3-2.6c-0.1-0.3-0.1-0.6,0-0.9c1.1-2.9,3.2-4.2,5-5.4
				c1.7-1.1,3.2-2.1,4-4.2c0.3-0.7,0.3-1.7,0.4-2.7c0.2-2,0.3-4.3,2.2-5.6c2-1.3,20.8-11.3,38.2-20.5c3.9-2.1,6.7-3.5,7.4-3.9
				c3.2-1.8,7.5-3.4,11.5-0.6c1.2,0.8,2.8,0.8,4.4,0.8c1.2,0,2.5,0,3.7,0.3c0.8,0.2,1.6,0.6,2.1,1c0.3,0.2,0.5,0.4,0.6,0.7
				c1.3,1.6,0.8,5.9,0.1,9.2c-0.8,3.9-1.2,4.2-1.6,4.4c-1.5,0.9-3.1,1.8-4.6,2.6c-16.8,9.2-33.8,18.7-50.3,27.8l-12.2,6.8
				c-4.6,2.6-9.4,5.2-14,8.1c-0.1,0.1-0.2,0.1-0.4,0.2C103.4,168,103.3,168,103.2,168z M109.4,149.6c0.3,1.2-0.1,2.4-0.5,3.7
				c-0.1,0.4-0.2,0.8-0.3,1.2c-0.2,0.9-0.4,1.7-0.7,2.6l0,0.1c-0.7,2.4-1.3,4.4-2,6.3c3.6-2.1,7.2-4.2,10.7-6.1l12.2-6.8
				c16.5-9.2,33.5-18.6,50.3-27.8c1.4-0.8,2.8-1.6,4.2-2.4c0.6-1.7,1.8-8.8,1-9.9c-0.1-0.1-0.1-0.1-0.2-0.2
				c-0.3-0.2-0.6-0.4-1.1-0.5c-0.9-0.2-2-0.2-3.1-0.2c-1.9,0-4.1,0-5.9-1.3l0,0c-2.3-1.6-4.9-1.3-8.8,0.8c-0.7,0.4-3.5,1.8-7.4,3.9
				c-11.7,6.2-35.9,18.9-38,20.3c-0.9,0.6-1,2.1-1.1,3.6c-0.1,1.2-0.2,2.4-0.6,3.5c-1.1,2.9-3.2,4.3-5,5.5
				C111.7,146.8,110.2,147.7,109.4,149.6z"/>
		</g>
	</g>
</g>
</svg>
