<?xml version="1.0" encoding="utf-8"?>
<!-- Generator: Adobe Illustrator 25.2.1, SVG Export Plug-In . SVG Version: 6.00 Build 0)  -->
<svg version="1.1" id="圖層_1" xmlns="http://www.w3.org/2000/svg" xmlns:xlink="http://www.w3.org/1999/xlink" x="0px" y="0px"
	 viewBox="0 0 240 240" style="enable-background:new 0 0 240 240;" xml:space="preserve">
<style type="text/css">
	.st0{fill:#1B3372;}
</style>
<path class="st0" d="M180.5,120c0,33.4-27.1,60.5-60.5,60.5c-33.5,0-60.5-27.1-60.5-60.5c0-33.5,27.1-60.5,60.5-60.5
	C153.4,59.5,180.5,86.5,180.5,120z M120,172.5c28.9,0,52.5-23.5,52.5-52.5S148.9,67.5,120,67.5S67.5,91.1,67.5,120
	S91.1,172.5,120,172.5z M81.3,103.8c0.5,0,1,0.1,1.5,0.4l27.3,12.5c1.2,0.7,1.9,2,1.9,3.3s-0.7,2.6-1.9,3.2l-27.3,12.5
	c-0.5,0.3-1,0.4-1.5,0.4c-1.3,0-2.6-0.9-3.1-2.3c-1.7-4.4-2.6-8.2-2.6-13.9c0-5.7,0.9-9.5,2.6-13.9C78.7,104.7,80,103.8,81.3,103.8z
	 M84.2,126.2l13.6-6.2l-13.6-6.2c-0.4,1.8-0.6,3.8-0.6,6.2C83.7,122.4,83.9,124.4,84.2,126.2z M111.9,126.6c0.5-0.3,1.1-0.4,1.7-0.4
	c0.8,0,1.4,0.2,2.1,0.6c1.1,0.7,1.8,1.9,1.7,3.3l-4.2,29.7c-0.1,1.7-1.6,2.9-3.3,2.9c-0.3,0-0.5,0-0.8-0.1c-4.6-1-8.4-2.3-13.1-5.3
	s-7.5-5.9-10.3-9.7c-1.2-1.7-0.8-3.9,0.9-4.9L111.9,126.6z M100.3,150.6c2.1,1.3,3.8,2.2,5.6,2.9l2.1-14.7l-12.5,8
	C96.8,148,98.3,149.2,100.3,150.6z M98.2,81.3c4.9-2.8,8.7-3.9,13.4-4.6c0.2,0,0.4,0,0.5,0c1.8,0,3.3,1.4,3.3,3.1l2.5,29.9
	c0,1.4-0.8,2.6-1.9,3.2c-0.6,0.4-1.2,0.5-1.9,0.5s-1.3-0.2-1.9-0.5L88,95.3c-1.7-1.1-2-3.3-0.7-4.9C90.4,86.8,93.3,84.1,98.2,81.3z
	 M107.9,85.8c-1.7,0.5-3.6,1.3-5.7,2.5c-2.1,1.2-3.8,2.3-5.1,3.5l12.1,8.8L107.9,85.8z M124,127c0.6-0.3,1.2-0.5,1.9-0.5
	s1.2,0.2,1.9,0.6l24.3,17.6c1.7,1,2,3.3,0.7,4.9c-3,3.6-5.9,6.3-10.8,9.1c-5,2.8-8.8,3.9-13.4,4.6c-0.2,0-0.4,0-0.6,0
	c-1.8,0-3.3-1.3-3.3-3.1l-2.5-29.9C122,128.8,122.8,127.7,124,127z M137.8,151.6c2.1-1.2,3.8-2.3,5.1-3.6l-12-8.8l1.2,14.9
	C133.9,153.6,135.7,152.9,137.8,151.6z M126.8,80.2c0.2-1.7,1.6-2.9,3.3-2.9c0.2,0,0.5,0,0.8,0.1c4.6,1,8.3,2.3,13.1,5.3
	c4.8,3.1,7.5,5.9,10.3,9.7c1.2,1.7,0.8,4-0.9,4.9l-25.3,16.2c-0.6,0.3-1.1,0.4-1.7,0.4c-0.7,0-1.4-0.2-2.1-0.7
	c-1.1-0.7-1.9-1.9-1.7-3.3L126.8,80.2z M144.5,93.3c-1.3-1.3-2.9-2.5-4.9-3.8c-2.1-1.3-3.8-2.2-5.5-2.9l-2.1,14.7L144.5,93.3z
	 M157.2,104.2c0.4-0.2,1-0.4,1.4-0.4c1.3,0,2.6,0.8,3.1,2.2c1.7,4.4,2.6,8.2,2.6,13.9c0,5.7-0.9,9.5-2.6,13.9
	c-0.6,1.4-1.8,2.3-3.1,2.3c-0.5,0-1-0.1-1.4-0.4l-27.3-12.5c-1.2-0.7-1.9-1.9-1.9-3.2s0.6-2.6,1.9-3.3L157.2,104.2z M156.3,120
	c0-2.5-0.2-4.4-0.6-6.2l-13.5,6.2l13.5,6.2C156.1,124.4,156.3,122.4,156.3,120z"/>
</svg>
