<?xml version="1.0" encoding="utf-8"?>
<!-- Generator: Adobe Illustrator 25.2.3, SVG Export Plug-In . SVG Version: 6.00 Build 0)  -->
<svg version="1.1" id="圖層_1" xmlns="http://www.w3.org/2000/svg" xmlns:xlink="http://www.w3.org/1999/xlink" x="0px" y="0px"
	 viewBox="0 0 240 240" style="enable-background:new 0 0 240 240;" xml:space="preserve">
<style type="text/css">
	.st0{fill:#FFFFFF;}
</style>
<g id="圖層_2_1_">
	<g id="ICON">
		<g id="KN07HP.tif">
			<path class="st0" d="M184.8,150.9c-2.9-3.9-6.1-7.6-9.2-11.3c-9.7-11.6-19.4-23.3-29.2-34.9c-0.2-0.3-0.5-0.6-0.8-0.9
				c-1.1,1.2-2.2,2.4-3.4,3.6c-2.5,2.6-4.9,5.3-7.5,7.8C115.8,134.1,96.9,153,78,171.9c-3.5,3.5-7,6.9-10.5,10.4
				c-0.7,0.7-1.5,1.3-2.3,1.8c-1.6,1-3.5,1.2-5.2,0.5c-3.2-1.2-5.2-4.4-4.8-7.8c0.1-0.4,0.3-0.9,0.6-1.2c2.1-3.1,4.6-5.9,7.2-8.5
				c9.8-9.8,19.6-19.6,29.3-29.4c12.5-12.6,25.1-25.2,37.7-37.8c1.7-1.7,3.4-3.3,5.2-4.9c0.5-0.5,0.6-0.7,0-1.2
				c-6.3-5.7-12.6-11.4-19.2-16.8c-9-7.3-17.9-14.7-26.8-22.3c1.8,0.3,3.5,0.5,5.3,0.9c17.9,3.4,33.6,11.3,47.7,22.6
				c1.6,1.3,3.2,2.5,4.7,3.8c0.6,0.5,0.9,0.4,1.4-0.1c1.1-1.3,2.3-2.6,3.5-3.9c0.4-0.4,0.6-0.7,1.1-0.1c3.1,3.3,6.3,6.6,9.4,10
				c-1.2,1-2.7,2.3-4.4,3.5c-0.9,0.6-0.7,1-0.1,1.7c3.6,4.2,6.9,8.6,10.1,13.1c7,10.4,12.2,22,15.2,34.2c0.7,3.1,1.3,6.2,1.9,9.2
				C184.8,150.2,185.1,150.6,184.8,150.9L184.8,150.9z M102.3,60.7c-0.1-0.1-0.2-0.1-0.4,0l0.2,0.2c0.1,0.1,0.2,0.3,0.3,0.4
				L115,72.1c7.3,6.3,14.6,12.7,21.9,19c0.6,0.5,0.9,0.5,1.4,0c2.2-2.1,4.5-4.1,6.7-6.2C132.7,73.9,118.1,65.6,102.3,60.7z
				 M62.5,181.7c1-0.2,1.9-0.7,2.5-1.4c1.5-1.4,2.9-2.8,4.4-4.2l35.4-35.2l26.9-26.8c1.4-1.4,2.8-2.7,4.2-4.1
				c0.4-0.4,0.6-0.6,0.1-1.1c-1.4-1.7-2.8-3.5-4.2-5.2c-0.3-0.4-0.6-0.5-1-0.1c-0.8,0.8-1.6,1.5-2.4,2.2
				c-22.4,22.2-44.6,44.8-66.8,67.2c-0.9,0.9-1.7,1.8-2.5,2.7c-0.9,1-1.1,2.4-0.4,3.6C59.3,180.9,60.9,181.8,62.5,181.7z
				 M178.8,137.7l0.2-0.1c-0.1-0.3-0.1-0.6-0.2-0.9c-1-2.8-2-5.6-3-8.4c-4.7-12-11.6-23.1-20.1-32.7c-0.4-0.4-0.6-0.5-1,0
				c-1.7,1.9-3.4,3.7-5.1,5.6c-1.2,1.3-1.2,1.3,0,2.7l25.3,29.2C176.1,134.6,177.4,136.1,178.8,137.7L178.8,137.7z M152.9,82.2
				c-2.6,2.4-5.1,4.7-7.7,7c-1.3,1.1-2.1,2.7-3.3,3.8c-2.4,2.2-4.8,4.3-7.3,6.4c-0.7,0.6-0.6,1-0.1,1.6c1.2,1.6,2.3,3.1,3.4,4.8
				c0.5,0.8,0.8,0.8,1.5,0.2c3.2-3.1,6.1-6.6,9.5-9.5c3.1-2.7,5.7-5.9,8.4-8.9c0.3-0.3,0.7-0.5,0.1-1
				C155.7,85,154.1,83.4,152.9,82.2z"/>
			<path class="st0" d="M184.3,185.1h-78.7c1-2.8,2.3-5.5,3.5-8.2c2-4.4,4.1-8.8,6.2-13.2c0.6-1.4,1.6-2.5,2.9-3.3
				c8.4-5.3,16.8-10.7,25.1-16.1c0.8-0.7,2-0.7,2.9,0c8.8,5.6,17.6,11.2,26.4,16.7c0.6,0.4,1.1,0.9,1.4,1.5
				c3.4,7.2,6.8,14.5,10.2,21.7C184.3,184.5,184.4,184.8,184.3,185.1z M131.9,181.7L131.9,181.7c4.8,0,9.6,0,14.4,0
				c2,0,3.9,0.2,5.8,0.2c2.6,0,3.8-1.1,4.4-3.6c0.3-1.5,0.4-3,0.8-4.5c0.4-1.6,0.1-3.3-0.8-4.7c-4.3-6.7-8.5-13.3-12.7-20
				c-0.5-0.8-0.9-0.8-1.6-0.3c-7.2,4.7-14.5,9.4-21.8,14.1c-1,0.6-1.8,1.6-2.3,2.7c-2.3,5-4.7,10-7,14.9c-0.6,1.3-0.6,1.3,0.9,1.3
				L131.9,181.7z M149.5,150.5c0.1,0.2,0.2,0.3,0.3,0.5c3.2,6.2,6.9,12.1,10.5,18c0.7,1.1,0.9,2.3,0.6,3.6c-0.6,3-1.2,6-1.8,9h20.4
				c-0.1-0.3-0.2-0.4-0.2-0.6c-2.2-4.7-4.4-9.4-6.6-14.1c-0.8-1.8-2.1-3.3-3.7-4.4C162.6,158.2,156.1,154.3,149.5,150.5z"/>
			<path class="st0" d="M184.8,150.9c0,0,0.1,0,0.1,0s0.1-0.1,0.1,0C184.9,151,184.8,150.9,184.8,150.9z"/>
			<path class="st0" d="M102.2,60.9l-0.2-0.2c0.1-0.2,0.2-0.1,0.4,0C102.3,60.8,102.2,60.8,102.2,60.9z"/>
			<path class="st0" d="M146.1,91.7c1.5,0,2.1,0.6,2.2,2.1c0,1.2-0.9,0.9-1.5,0.9c-1.2,0.1-1.8-0.8-1.8-2.3
				C145.1,91.7,145.1,91.7,146.1,91.7z"/>
		</g>
	</g>
</g>
</svg>
