<?xml version="1.0" encoding="utf-8"?>
<!-- Generator: Adobe Illustrator 25.2.3, SVG Export Plug-In . SVG Version: 6.00 Build 0)  -->
<svg version="1.1" id="圖層_1" xmlns="http://www.w3.org/2000/svg" xmlns:xlink="http://www.w3.org/1999/xlink" x="0px" y="0px"
	 viewBox="0 0 240 240" style="enable-background:new 0 0 240 240;" xml:space="preserve">
<style type="text/css">
	.st0{fill:#FFFFFF;}
</style>
<path class="st0" d="M69.5,120.6c22.1-13.2,31.9-19.2,43.3-30.3c-0.3-0.4-0.6-0.9-0.8-1.4c-0.5-1.7,0.2-3.6,1.8-4.6l10.7-6.4
	c1-1,1.9-2.2,2.9-3.3l-7.1-5.1c-1.5-1.1-2.1-3-1.4-4.6c0.6-1.7,2.3-2.7,4-2.7l18.8,1.2l2.8-5.7c0.7-1.3,1.9-2.1,3.3-2.2
	c1.4-0.1,2.8,0.5,3.6,1.6l6.9,9.6c5.5-6.2,14-11.3,22.1-11.3c2.3,0,4,1.8,4,4c0,2.3-1.8,4-4,4c-6.2,0-12.6,4.5-16.5,9
	c1.1,0.9,2.1,1.9,3,2.9l15.5,8.8c1.3,0.8,2.1,2.1,2,3.6c0,1.5-0.9,2.8-2.2,3.5L177,94l3.4,17.2c0.4,1.8-0.6,3.7-2.3,4.5
	c-1.7,0.7-3.8,0.2-4.9-1.3l-4.2-5.5c-10.9,26.3-26.5,52.5-59.2,71.8c-0.1,0.1-0.3,0.2-0.4,0.2c-5.8,2.5-11.5,3.7-16.8,3.7
	c-14.2,0-25.9-8.1-31.9-18c-7.9-13-8.4-32.1,8.3-45.7C69.1,120.8,69.3,120.7,69.5,120.6z M106,173.6c30.6-18.2,45.3-43,55.7-67.9
	l-10.3,12.8c0,0,0,0,0,0c-10.4,20.7-24.3,37.8-47.5,51.6c-3.3,1.5-6.7,2.3-10.1,2.3c-12.6,0-22.5-9.7-25.3-18.9
	c-0.7-2.1,0.5-4.4,2.7-5.1c2.1-0.6,4.4,0.5,5,2.7c2,6.3,9.2,13.2,17.6,13.2c2.2,0,4.5-0.5,6.3-1.3c21.3-12.7,34.2-28.6,44-48
	l-3.3-23.3h-18.1c-14,14.5-23.9,20.8-48.8,35.6c-13.5,11.2-11.8,25.9-6.3,35C74.3,173.3,88.8,181,106,173.6z M148.2,87.1l2.7,19
	l10.3-12.9c0.8-1,1.9-1.5,3.2-1.5c0,0,0,0,0.1,0c1.2,0,2.4,0.6,3.1,1.6l1.4,1.9l-0.6-2.7c-0.4-1.8,0.5-3.6,2.2-4.4l1.3-0.7
	l-11.8-6.7c-0.5,1.7-2,3-3.8,3c-2.2,0-4-1.8-4-4c0-1.8,0.5-3.8,1.4-5.7l-4.8-6.7l-1.1,2.1c-0.7,1.4-2.3,2.3-3.9,2.2l-7.2-0.5
	l1.7,1.2c1.1,0.8,1.8,2.1,1.7,3.4c0,1.4-0.8,2.6-1.9,3.3l-7.7,4.6h13.7C146.2,83.7,147.9,85.2,148.2,87.1z"/>
</svg>
