<?xml version="1.0" encoding="utf-8"?>
<!-- Generator: Adobe Illustrator 25.2.3, SVG Export Plug-In . SVG Version: 6.00 Build 0)  -->
<svg version="1.1" id="圖層_1" xmlns="http://www.w3.org/2000/svg" xmlns:xlink="http://www.w3.org/1999/xlink" x="0px" y="0px"
	 viewBox="0 0 240 240" style="enable-background:new 0 0 240 240;" xml:space="preserve">
<style type="text/css">
	.st0{fill:#FFFFFF;}
</style>
<g>
	<g>
		<g>
			<path class="st0" d="M171.8,167.9H68.2c-4.2,0-7.7-3.4-7.7-7.7V85.6c0-4.2,3.5-7.7,7.7-7.7h27.7c0.7,0,1.2,0.5,1.2,1.2v41.4h48.2
				V79.1c0-0.7,0.5-1.2,1.2-1.2h25.3c4.2,0,7.7,3.4,7.7,7.7v74.6C179.5,164.4,176,167.9,171.8,167.9z M68.2,80.3
				c-2.9,0-5.2,2.3-5.2,5.2v74.6c0,2.9,2.3,5.2,5.2,5.2h103.6c2.9,0,5.2-2.4,5.2-5.2V85.6c0-2.9-2.4-5.2-5.2-5.2h-24.1v41.4
				c0,0.7-0.5,1.2-1.2,1.2H95.9c-0.7,0-1.2-0.5-1.2-1.2V80.3H68.2z"/>
		</g>
		<g>
			<path class="st0" d="M138.8,188.9C138.8,188.9,138.8,188.9,138.8,188.9h-37.6c-0.4,0-0.7-0.2-1-0.5c-0.2-0.3-0.3-0.7-0.2-1.1
				l5.5-21c0.1-0.5,0.6-0.9,1.2-0.9h26.5c0.6,0,1,0.4,1.2,0.9l5.5,20.8c0.1,0.2,0.1,0.4,0.1,0.6C140,188.4,139.5,188.9,138.8,188.9z
				 M102.8,186.5h34.4l-4.9-18.6h-24.7L102.8,186.5z"/>
		</g>
		<g>
			<path class="st0" d="M155.4,194H84.6c-0.7,0-1.2-0.5-1.2-1.2v-5.1c0-0.7,0.5-1.2,1.2-1.2h70.8c0.7,0,1.2,0.5,1.2,1.2v5.1
				C156.6,193.5,156.1,194,155.4,194z M85.8,191.6h68.4v-2.7H85.8V191.6z"/>
		</g>
		<g>
			<path class="st0" d="M171.6,147.8H68.1c-0.7,0-1.2-0.5-1.2-1.2V85.7c0-0.7,0.5-1.2,1.2-1.2h27.8c0.7,0,1.2,0.5,1.2,1.2v34.8h48.2
				V85.7c0-0.7,0.5-1.2,1.2-1.2h25.2c0.7,0,1.2,0.5,1.2,1.2v60.9C172.8,147.3,172.3,147.8,171.6,147.8z M69.3,145.4h101.1V86.9
				h-22.8v34.8c0,0.7-0.5,1.2-1.2,1.2H95.9c-0.7,0-1.2-0.5-1.2-1.2V86.9H69.3V145.4z"/>
		</g>
		<g>
			<path class="st0" d="M120,163.6c-2,0-3.7-1.6-3.7-3.7c0-2,1.6-3.6,3.7-3.6c2,0,3.7,1.6,3.7,3.6C123.6,161.9,122,163.6,120,163.6z
				 M120,158.7c-0.7,0-1.2,0.6-1.2,1.2s0.6,1.2,1.2,1.2c0.7,0,1.2-0.5,1.2-1.2C121.2,159.2,120.7,158.7,120,158.7z"/>
		</g>
		<g>
			<path class="st0" d="M153,129.6H89.3c-0.7,0-1.2-0.5-1.2-1.2v-13.5c0-0.7,0.5-1.2,1.2-1.2c0.7,0,1.2,0.5,1.2,1.2v12.2h61.2v-12.2
				c0-0.7,0.5-1.2,1.2-1.2c0.7,0,1.2,0.5,1.2,1.2v13.5C154.2,129.1,153.6,129.6,153,129.6z"/>
		</g>
		<g>
			<path class="st0" d="M146.5,122.9H95.9c-0.7,0-1.2-0.5-1.2-1.2V64.3c0-0.7,0.5-1.2,1.2-1.2h50.6c0.7,0,1.2,0.5,1.2,1.2v57.4
				C147.7,122.4,147.1,122.9,146.5,122.9z M97.1,120.5h48.2V65.6H97.1V120.5z"/>
		</g>
		<g>
			<path class="st0" d="M132.9,76.2c-0.7,0-1.2-0.5-1.2-1.2V58.9c0-5.8-4.7-10.5-10.5-10.5s-10.5,4.7-10.5,10.5V75
				c0,0.7-0.5,1.2-1.2,1.2c-0.7,0-1.2-0.5-1.2-1.2V58.9c0-7.1,5.8-13,12.9-13c7.1,0,12.9,5.8,12.9,13V75
				C134.1,75.7,133.6,76.2,132.9,76.2z"/>
		</g>
		<g>
			<g>
				<path class="st0" d="M132.9,82.6c-2.4,0-4.4-2-4.4-4.4s2-4.4,4.4-4.4s4.4,2,4.4,4.4S135.3,82.6,132.9,82.6z M132.9,76.2
					c-1.1,0-2,0.9-2,2s0.9,2,2,2s2-0.9,2-2C134.8,77.1,134,76.2,132.9,76.2z M109.4,82.6c-2.4,0-4.4-2-4.4-4.4s2-4.4,4.4-4.4
					c2.4,0,4.4,2,4.4,4.4C113.8,80.6,111.9,82.6,109.4,82.6z M109.4,76.2c-1.1,0-2,0.9-2,2s0.9,2,2,2c1.1,0,2-0.9,2-2
					C111.4,77.1,110.5,76.2,109.4,76.2z"/>
			</g>
		</g>
	</g>
</g>
</svg>
