<?xml version="1.0" encoding="utf-8"?>
<!-- Generator: Adobe Illustrator 25.2.1, SVG Export Plug-In . SVG Version: 6.00 Build 0)  -->
<svg version="1.1" id="圖層_1" xmlns="http://www.w3.org/2000/svg" xmlns:xlink="http://www.w3.org/1999/xlink" x="0px" y="0px"
	 viewBox="0 0 240 240" style="enable-background:new 0 0 240 240;" xml:space="preserve">
<style type="text/css">
	.st0{fill:#1B3372;}
</style>
<g>
	<g>
		<path class="st0" d="M161.1,97.9c-3.8-10.6-7-18.7-9-23.3c0,0-0.1,0-0.1,0c0,0-0.1,0-0.1,0c-0.9,0.2-1.8,0.3-2.7,0.4
			c1.9,4.4,5.3,12.7,9.2,23.8c5.4,15.3,3.3,59.3,2.9,66.8l-59.8,12.6l-10.6-7.4L78.1,169c0.3-8,1.7-51.1,3.1-66.2
			c1.1-11.2,5.4-24.1,8.2-31.4c-0.4,0.1-0.8,0.2-1.1,0.3c-0.6,0.1-1.2,0.2-1.8,0.2c-0.1,0-0.2,0-0.3,0c-2.8,7.6-6.8,19.8-7.8,30.6
			c-1.6,16.7-3.2,67.2-3.2,67.7l0,1.3l14.6,2.1l11.1,7.7l63.1-13.2l0.1-1.1C164.1,164.8,167.1,115.1,161.1,97.9z"/>
	</g>
	<g>
		<path class="st0" d="M91.2,172.2l-1.9-0.1c0-0.4,1.6-40.6,2.4-60.9c0.8-20.1-3-40.7-3.1-40.9l1.9-0.4c0,0.2,4,21,3.1,41.4
			C92.8,131.6,91.3,171.8,91.2,172.2z"/>
	</g>
	<g>
		<path class="st0" d="M149.6,76.6L149.6,76.6l-56-1.2l-1.1-3.1L81.8,74l1.9-11.8l7-3.3v-0.1l60.8,4.6l0.4,0.7
			c2.5,4.8,3,8.2,1.6,10.4C152.4,76.1,150.5,76.6,149.6,76.6z M95.6,72.6l54,1.2c0,0,0.9,0,1.3-0.8c0.3-0.6,0.8-2.3-1.4-6.9
			l-57.9-4.4L95.6,72.6z M86.3,64.1l-1,6.4l6.3-1l-2.4-6.8L86.3,64.1z"/>
	</g>
	<g>
		<path class="st0" d="M102.5,179.8l-2.9-0.2c0-0.1,0-0.4,0.1-0.9c1.3-15.4,3.8-53,0-70.1C94.8,87,91.2,74,90.2,70.6l2.8-0.8
			c1,3.5,4.7,16.5,9.6,38.2c4,17.5,1.4,55.5,0.1,71C102.6,179.4,102.6,179.7,102.5,179.8z"/>
	</g>
	<g>
		<path class="st0" d="M122.6,104.8c0,0,3.4,9.8,10.5,8.3c0.8-0.2,0.6-1,0.1-1.5c-0.5-0.6-3.4-4.6-3.8-10.8
			c-0.4-6.2-2.3-8.4-3.8-8.4C124,92.4,119.6,96.2,122.6,104.8z"/>
		<path class="st0" d="M138.2,98.9c0,0-3.4-9.8-10.5-8.3c-0.8,0.2-0.6,1-0.1,1.5s3.4,4.6,3.8,10.8c0.4,6.2,2.3,8.4,3.9,8.4
			C136.9,111.3,141.2,107.5,138.2,98.9z"/>
	</g>
	<g>
		<path class="st0" d="M122,123.2c0.7,0.4,1.1,1,1.3,1.8l-1.3,0.2c-0.2-0.5-0.5-0.9-0.9-1.1c-0.4-0.2-0.9-0.3-1.4-0.2
			c-0.8,0.1-1.5,0.5-1.8,1.1c-0.3,0.6-0.4,1.3-0.3,2.2c0.1,1,0.4,1.7,0.8,2.1c0.5,0.5,1.2,0.7,2.1,0.6c0.6-0.1,1-0.3,1.4-0.6
			c0.3-0.4,0.6-0.9,0.7-1.5l1.3-0.2c-0.1,1-0.4,1.8-1,2.4c-0.6,0.6-1.3,0.9-2.2,1c-1.3,0.2-2.4-0.1-3.2-0.9
			c-0.7-0.7-1.1-1.6-1.2-2.8c-0.2-1.2,0-2.2,0.5-3.1c0.6-0.9,1.5-1.5,2.8-1.6C120.5,122.6,121.3,122.8,122,123.2z"/>
		<path class="st0" d="M129.5,124.7c0.6,0.5,1,1.2,1.1,2.1c0.1,0.9-0.1,1.7-0.5,2.3c-0.5,0.7-1.2,1-2,1.2c-0.9,0.1-1.7-0.1-2.3-0.6
			c-0.6-0.5-0.9-1.2-1.1-2.1c-0.1-0.9,0.1-1.7,0.5-2.3c0.5-0.7,1.2-1,2-1.1C128.1,124,128.9,124.2,129.5,124.7z M126.2,125.9
			c-0.2,0.4-0.3,0.9-0.2,1.5c0.1,0.6,0.2,1,0.5,1.3c0.3,0.4,0.8,0.6,1.3,0.5c0.5-0.1,0.9-0.3,1.2-0.8c0.2-0.4,0.3-0.9,0.2-1.4
			c-0.1-0.6-0.3-1-0.6-1.4c-0.4-0.4-0.8-0.6-1.3-0.5C126.8,125.2,126.4,125.4,126.2,125.9z"/>
		<path class="st0" d="M134.6,121.1l0.1,1.1l-1.1,0.1c-0.2,0-0.3,0.1-0.4,0.2s-0.1,0.2-0.1,0.4l0.1,0.6l2.3-0.3l-0.1-0.6
			c-0.1-0.5,0-0.9,0.3-1.2c0.2-0.3,0.6-0.5,1.1-0.6l1.2-0.2l0.1,1.1l-1.1,0.1c-0.2,0-0.3,0.1-0.4,0.2s-0.1,0.2-0.1,0.4l0.1,0.6
			l1.5-0.2l0.1,1.1l-1.5,0.2l0.6,4.8l-1.3,0.2l-0.6-4.8l-2.3,0.3l0.6,4.8l-1.3,0.2l-0.6-4.8l-1.3,0.2l-0.1-1.1l1.3-0.2l-0.1-0.6
			c-0.1-0.5,0-0.9,0.3-1.2c0.2-0.3,0.6-0.5,1.1-0.6L134.6,121.1z"/>
		<path class="st0" d="M144,123c0.5,0.5,0.9,1.3,1,2.4l-4.4,0.5c0.1,0.5,0.3,0.9,0.6,1.2c0.3,0.2,0.7,0.4,1.1,0.3
			c0.4-0.1,0.7-0.2,0.9-0.4c0.2-0.2,0.3-0.4,0.4-0.8l1.3-0.2c-0.1,0.6-0.3,1.1-0.7,1.5c-0.5,0.5-1.1,0.8-1.9,0.9
			c-0.9,0.1-1.6-0.1-2.2-0.6c-0.6-0.5-1-1.2-1.1-2.2c-0.1-0.9,0.1-1.6,0.5-2.3c0.4-0.7,1.1-1,2-1.2C142.7,122.2,143.4,122.4,144,123
			z M140.9,123.9c-0.2,0.3-0.3,0.6-0.3,1.1l3-0.4c-0.2-0.9-0.8-1.3-1.7-1.2C141.4,123.4,141.1,123.6,140.9,123.9z"/>
		<path class="st0" d="M150.5,122.3c0.5,0.5,0.9,1.3,1,2.4l-4.4,0.5c0.1,0.5,0.3,0.9,0.6,1.2c0.3,0.2,0.7,0.4,1.1,0.3
			c0.4-0.1,0.7-0.2,0.9-0.4c0.2-0.2,0.3-0.4,0.4-0.8l1.3-0.2c-0.1,0.6-0.3,1.1-0.6,1.5c-0.5,0.5-1.1,0.8-1.9,0.9
			c-0.9,0.1-1.6-0.1-2.2-0.6c-0.6-0.5-1-1.2-1.1-2.2c-0.1-0.9,0.1-1.6,0.5-2.3c0.4-0.7,1.1-1,2-1.2
			C149.1,121.4,149.9,121.7,150.5,122.3z M147.3,123.1c-0.2,0.3-0.3,0.6-0.4,1.1l3-0.4c-0.2-0.9-0.8-1.3-1.7-1.2
			C147.9,122.7,147.5,122.8,147.3,123.1z"/>
	</g>
</g>
</svg>
