<?xml version="1.0" encoding="utf-8"?>
<!-- Generator: Adobe Illustrator 25.2.1, SVG Export Plug-In . SVG Version: 6.00 Build 0)  -->
<svg version="1.1" id="圖層_1" xmlns="http://www.w3.org/2000/svg" xmlns:xlink="http://www.w3.org/1999/xlink" x="0px" y="0px"
	 viewBox="0 0 240 240" style="enable-background:new 0 0 240 240;" xml:space="preserve">
<style type="text/css">
	.st0{fill:#1B3372;}
</style>
<g>
	<g id="TwFJ5o.tif_2_">
		<g>
			<path class="st0" d="M96.7,48.5c24.4,0.2,44.2,17.1,48,40.8c1.8,11.3-0.1,22-6,31.9c-0.6,1.1-1.3,2.1-1.9,3.2
				c-1.6,2.9-1.4,4.8,1.1,7.1c6.9,6.3,13.9,12.5,20.9,18.7c10.7,9.6,21.3,19.1,32,28.6c0.8,0.7,0.9,1.2,0.4,2.1
				c-2.6,4-6,7.2-9.8,10.1c-0.9,0.7-1.4,0.5-2.2-0.3c-13.1-14.6-26.2-29.2-39.3-43.8c-2.8-3.1-5.6-6.2-8.3-9.4
				c-2-2.3-5.4-2.3-7.6-0.7c-17.8,12.9-45.5,10.2-60.9-5.6C53,121.1,48.2,109,48.6,94.8C49.3,73,65.9,53.5,87.2,49.5
				C90.5,48.8,93.8,48.6,96.7,48.5z M97,50.9c-25.4,0-46,20.4-46.1,45.7c-0.1,24.8,19.7,46,45.8,46.2c25.5,0.2,46.2-20.5,46.2-46.1
				C142.9,71.5,122.4,51,97,50.9z"/>
			<path class="st0" d="M96.1,118c-6,0-11.5-1.8-16.8-4.3c-7.8-3.8-14.5-9-20.3-15.4c-1.1-1.2-0.9-1.8,0.1-2.9
				c7.3-7.9,15.8-14.2,26-17.6c12.3-4.2,23.6-1.4,34.3,5.1c5.7,3.5,10.7,7.8,15.3,12.6c0.7,0.8,1.3,1.4,0.3,2.5
				c-8.3,8.9-17.8,16-29.9,19C102.2,117.6,99.2,117.9,96.1,118z M96.7,113.5c2.4,0,4.5-0.3,6.6-0.7c10.3-2.2,18.5-8.1,26-15.2
				c0.9-0.9,0.1-1.2-0.3-1.7c-5.5-5.4-11.6-9.8-18.7-12.8c-6.1-2.6-12.4-3.6-19-2.2C80.6,83,72.2,88.8,64.7,96.1
				c-0.8,0.8-0.3,1.2,0.2,1.7c2.3,2.3,4.7,4.4,7.4,6.3C79.7,109.5,87.6,113.3,96.7,113.5z"/>
			<path class="st0" d="M82.4,96.8c0-8.4,6.6-15,14.9-15.1c8.6,0,15.4,6.7,15.3,15.2c-0.1,8.2-6.9,15-15.1,15
				C89.1,111.9,82.4,105.2,82.4,96.8z M97.4,108.5c6.7,0,11.8-5.2,11.8-11.8c0-6.5-5.3-11.8-11.8-11.8c-6.5,0-11.9,5.5-11.9,11.9
				C85.6,103.3,90.9,108.5,97.4,108.5z"/>
			<path class="st0" d="M90.1,97c0,4,3.4,7.2,7.5,7.2c4.1-0.1,7.3-3.4,7.2-7.4c-0.1-4-3.4-7.3-7.4-7.3C93.4,89.4,90,92.8,90.1,97z"
				/>
			<path class="st0" d="M90.1,97c0-4.1,3.3-7.6,7.3-7.6c4,0,7.3,3.3,7.4,7.3c0.1,4-3.2,7.3-7.2,7.4C93.5,104.2,90.1,101,90.1,97z"/>
		</g>
	</g>
</g>
</svg>
