<?xml version="1.0" encoding="utf-8"?>
<!-- Generator: Adobe Illustrator 25.2.1, SVG Export Plug-In . SVG Version: 6.00 Build 0)  -->
<svg version="1.1" id="圖層_1" xmlns="http://www.w3.org/2000/svg" xmlns:xlink="http://www.w3.org/1999/xlink" x="0px" y="0px"
	 viewBox="0 0 240 240" style="enable-background:new 0 0 240 240;" xml:space="preserve">
<style type="text/css">
	.st0{fill:#1B3372;}
</style>
<g>
	<path class="st0" d="M52.9,98.6c1.5,1.9,4.3,2.2,6.2,0.7l17.5-14l6.4,14.9h-9c-1.6,0-3,0.8-3.8,2.2c-4.4,7.5-9.4,17.6-9.4,28.6
		c0,31.5,25.6,57.1,57.1,57.1s57.1-25.6,57.1-57.1c0-11-5-21-9.4-28.6c-0.8-1.4-2.2-2.2-3.8-2.2h-20l7.6-11.9l32,20
		c0.7,0.4,1.5,0.7,2.3,0.7c1,0,2-0.3,2.8-1c1.5-1.2,2-3.2,1.4-4.9l-17.6-48.3c-0.7-1.9-2.5-3-4.5-2.9L113,56.3
		c-1.9,0.2-3.5,1.5-3.9,3.3c-0.4,1.8,0.3,3.8,1.9,4.8l30.8,19.3l-10.5,16.6H92.5L82.3,76.5c-0.5-1.3-1.6-2.2-3-2.5
		c-1.3-0.3-2.7,0-3.8,0.8l-22,17.6C51.7,93.9,51.4,96.7,52.9,98.6z M175.2,94.1L126.9,64l36.2-3L175.2,94.1z M69.5,131
		c0-7.9,3.3-15.4,6.9-22h82.8c3.6,6.5,6.9,14.1,6.9,22c0,26.7-21.7,48.3-48.3,48.3C91.2,179.3,69.5,157.6,69.5,131z"/>
	<path class="st0" d="M84.7,122.2c-1.2,3-2,6-2,8.8c0,13.3,7.4,24.9,18.3,30.9c-1.8-1-3.6-2.2-5.2-3.5c-1.9-1.5-4.7-1.2-6.2,0.6
		c-1.5,1.9-1.2,4.6,0.7,6.2c7.8,6.3,17.6,9.8,27.6,9.8c24.2,0,43.9-19.7,43.9-43.9c0-4.4-1.3-9.4-3.9-15c-1-2.2-3.6-3.2-5.8-2.1
		c-2.2,1-3.1,3.6-2.1,5.8c0.4,0.9,0.8,1.7,1.1,2.5C150.9,122.2,84.7,122.2,84.7,122.2z M148.6,139.8l-13.2,13.2l-13.2-13.2
		l13.2-13.2L148.6,139.8z M151.3,123.3c-0.1-0.2-0.1-0.4-0.2-0.6C151.2,122.9,151.3,123.1,151.3,123.3z M152.2,126.1
		c-0.1-0.3-0.2-0.5-0.2-0.8C152.1,125.6,152.2,125.9,152.2,126.1z M152.8,128.7c0-0.2-0.1-0.5-0.1-0.7
		C152.7,128.2,152.7,128.4,152.8,128.7z M101.4,162c0.8,0.4,1.7,0.9,2.6,1.3C103.1,162.9,102.2,162.5,101.4,162z M114.4,166
		c1.1,0.1,2.2,0.2,3.4,0.2C116.7,166.1,115.5,166.1,114.4,166z M111.1,165.5c0.8,0.2,1.7,0.3,2.5,0.4
		C112.7,165.8,111.9,165.6,111.1,165.5z M107.7,164.6c0.8,0.2,1.7,0.5,2.5,0.6C109.4,165.1,108.6,164.9,107.7,164.6z M104.5,163.5
		c0.8,0.4,1.7,0.7,2.6,0.9C106.2,164.2,105.3,163.8,104.5,163.5z M95.8,148.6l13.2-13.2l13.2,13.2L109,161.7L95.8,148.6z"/>
</g>
</svg>
