<?xml version="1.0" encoding="utf-8"?>
<!-- Generator: Adobe Illustrator 25.2.1, SVG Export Plug-In . SVG Version: 6.00 Build 0)  -->
<svg version="1.1" id="圖層_1" xmlns="http://www.w3.org/2000/svg" xmlns:xlink="http://www.w3.org/1999/xlink" x="0px" y="0px"
	 viewBox="0 0 240 240" style="enable-background:new 0 0 240 240;" xml:space="preserve">
<style type="text/css">
	.st0{fill:#1B3372;}
</style>
<g id="_x36_oNJm9.tif_1_">
	<g>
		<path class="st0" d="M96.6,54.7c10.2,0,20.4,0,30.6,0c1.6,0,3,0.6,4.1,1.9c4.5,5.1,9.1,10.1,13.6,15.2c1.8,2,1.8,2.5,0,4.5
			c-15.5,17.5-31,35-46.6,52.4c-0.3,0.3-0.5,0.6-0.8,0.9c-0.7,0.7-1.4,0.7-2,0c-0.3-0.4-0.7-0.7-1-1.1C79.9,112,65.3,95.6,50.7,79.2
			c-1.2-1.3-2.4-2.6-3.6-3.8c-0.8-0.8-0.8-1.9-0.1-2.8c5-5.4,9.9-10.8,14.9-16.2c1.1-1.2,2.4-1.7,3.9-1.7
			C76.1,54.7,86.3,54.7,96.6,54.7z M99.8,122.4c0.2-0.2,0.4-0.3,0.6-0.6c13.6-15.3,27.2-30.6,40.8-45.9c0.2-0.2,0.6-0.4,0.5-1
			c-0.1,0-0.3,0-0.4,0c-8.3,0-16.5,0-24.8,0.2c-1.1,0-1.9,0.5-2.7,1.3c-0.8,0.8-1.3,1.9-1.6,3c-3,10.2-6,20.4-9.1,30.6
			c-1.2,4.1-2.4,8.2-3.6,12.3c0,0.1-0.1,0.1-0.1,0.2C99.6,122.4,99.7,122.4,99.8,122.4z M94.1,123.9c-0.1,0-0.1,0-0.2,0
			c0,0,0,0.1,0.1,0.1C94,124.1,94.1,124,94.1,123.9c-0.3-0.2-0.3-0.6-0.4-1c-4.3-14.6-8.7-29.1-13-43.7c-0.9-2.9-2.2-4.1-5-4.2
			c-8.2-0.3-16.3,0-24.5-0.1c-0.2,0-0.5-0.1-0.6,0.4c0.2,0.2,0.6,0.5,0.8,0.8c3.4,3.9,6.8,7.7,10.3,11.6
			c10.5,11.8,20.9,23.7,31.4,35.5C93.4,123.6,93.5,124.4,94.1,123.9z M111.6,75.2c-3.3,0.1-6.6,0.1-9.8,0.1
			c-6.3,0.1-12.7-0.1-19-0.2c-1,0-1.2,0.1-0.9,1.3c3.9,13.1,7.8,26.2,11.7,39.4c1,3.2,1.9,6.5,3,10.1
			C101.6,108.8,106.6,92.1,111.6,75.2z M109.5,72.7c-4.1-4.8-8.3-9.7-12.6-14.6c-0.6-0.7-0.8-0.1-1.1,0.3c-2.8,3.2-5.6,6.3-8.3,9.5
			c-1.3,1.5-2.7,3.1-4.1,4.8C92.3,72.7,101,72.7,109.5,72.7z M100.1,57.1c3.8,4.5,7.8,9.2,11.8,14c0.6,0.7,0.8,0.2,1.2-0.2
			c3.9-4.2,7.9-8.3,11.8-12.5c0.4-0.4,0.9-0.7,1.2-1.3C117.2,57.1,108.4,57.1,100.1,57.1z M67.2,57c4.1,4.8,8,9.3,11.9,14
			c0.6,0.7,0.9,0.6,1.6,0c3.9-4.2,7.8-8.4,11.7-12.5c0.4-0.4,0.8-0.9,1.3-1.5C84.7,57,76.1,57,67.2,57z M141.4,72.9
			c-4.1-4.6-8.1-9-12-13.4c-0.6-0.7-0.8-0.2-1.2,0.2c-3.6,4.1-7.3,8.2-10.9,12.2c-0.2,0.3-0.5,0.5-1,1
			C124.8,72.9,132.9,72.9,141.4,72.9z M77,72.9c-0.1-0.2-0.1-0.3-0.2-0.4c-4-4.6-8.1-9.2-12.1-13.8c-0.4-0.5-0.7-0.4-1.1,0.1
			c-4,4.5-7.9,9-11.9,13.4c-0.2,0.2-0.5,0.3-0.2,0.7C59.9,72.9,68.4,72.9,77,72.9z"/>
		<path class="st0" d="M166.7,99.4c-1.5-1.6-1.8-3.1,0.2-4.2c0,0,0.1,0.2,0.1,0.2c1,0.9,1.1,1.8,0.2,2.8c-0.2,0.2-0.5,0.6-0.4,0.9
			c0.2,0.4,0.6,0.2,0.9,0.2c7.4,0,14.7,0.1,22,0.1c1.2,0,2.4,0.3,3.8,0.7c-1.6,0.7-3,0.7-4.4,1c-1.1,0.2-2.2,0.4-3.2,0.6
			c-1.4,0.3-1.8,0.8-1.9,2.4c-0.1,1.1-0.1,2.1-0.1,3.2c-0.1,1.8-0.1,1.8-1.7,1.8c-4.5,0-9,0-13.6,0c-0.9,0-1.3,0.2-1.3,1.4
			c0.1,7.9,0.1,15.8,0.1,23.7c0,1.7,0.5,2.9,1.5,4.1c2.8,3.2,5.6,6.4,8.4,9.6c1.2,1.4,1.8,3,1.8,5c0,10,0,20.1,0,30.1
			c0,0.5,0,1.1-0.1,1.6c-0.1,0.7-0.5,0.6-1,0.7c-0.5,0-0.6-0.3-0.7-0.8c0-0.6-0.1-1.2-0.1-1.9c0-3.1,0-6.3,0-9.4
			c0-0.7-0.2-0.9-0.8-0.9c-6.7,0-13.4,0-20.1,0c-0.6,0-0.7,0.2-0.7,0.9c0,2.9,0,5.9,0,8.8c0,1-0.3,1.9-0.8,2.8
			c-0.1,0.2-0.2,0.5-0.5,0.4c-0.3-0.1-0.4-0.4-0.4-0.7c0-0.3,0-0.7,0-1c0-10.5,0-21,0-31.5c0-1.5,0.4-2.7,1.4-3.8
			c3.1-3.7,6.2-7.4,9.4-11c0.5-0.6,0.8-1.2,0.8-2.1c0-8.3,0-16.5,0-24.8c0-1-0.2-1.3-1.1-1.3c-4.6,0.1-9.2,0-13.8,0.1
			c-1,0-1.2-0.4-1.2-1.4c0-1.9-0.2-3.8-0.2-5.7c0-0.7-0.2-0.8-0.8-0.8c-1.2,0.1-2.4,0.1-3.5,0.1c-0.9,0-1.8,0-2.6-0.2
			c-0.6-0.1-1.3-0.4-1.3-1c0.1-0.6,0.8-0.8,1.4-0.8c7.6,0,15.2,0,22.8,0C165.7,99.4,166,99.4,166.7,99.4z M166.6,159.5
			c3.3,0,6.6,0,9.9,0c0.6,0,0.9-0.1,0.8-0.8c-0.1-2.1,0-4.3,0-6.4c0-0.7-0.2-0.9-0.8-0.9c-6.5,0-13.1,0-19.6,0c-0.7,0-0.8,0.3-0.8,1
			c0,2,0.1,4,0,5.9c0,0.9,0.1,1.2,1.1,1.2C160.3,159.5,163.4,159.5,166.6,159.5z M150,104.4c1.2,0.8,2.3,1.5,3.5,2.3
			c0.5,0.3,1.1,0.4,1.7,0.4c7.6,0,15.3,0,22.9,0c0.7,0,1.3-0.1,1.9-0.5c1.2-0.8,2.3-1.7,3.5-2.6c-1-0.6-2.1-1.2-3-1.8
			c-0.8-0.5-1.6-0.8-2.5-0.8c-7.5-0.1-15.1-0.1-22.6,0c-0.8,0-1.6,0.1-2.3,0.7C152.1,102.8,151.1,103.5,150,104.4z M157.5,149
			c6.2,0,12.2,0,18.4,0c-3-3.1-5.8-6-8.7-9c-0.3-0.3-0.5-0.3-0.8,0C163.5,142.9,160.6,145.9,157.5,149z"/>
		<path class="st0" d="M140.3,92.5c0-0.6,0.2-0.9,0.4-1.2c1.2-1.6,2.5-3.1,4-4.4c0.2-0.2,0.5-0.4,0.8-0.5c0.5-0.2,0.8,0.3,1.1,0.6
			c0.3,0.4,0,0.7-0.3,0.9c-1.7,1.7-3.5,3.3-5.2,5c-0.2,0.2-0.3,0.4-0.5,0.3C140.4,92.9,140.4,92.6,140.3,92.5z"/>
		<path class="st0" d="M145.6,114.1c-0.4,0.1-0.7-0.2-1-0.4c-1.4-1.2-2.6-2.7-3.8-4.2c-0.3-0.4-0.6-0.8-0.5-1.4
			c0.1-0.5,0.3-0.7,0.6-0.9c0.4-0.2,0.5,0.1,0.7,0.4c1.4,1.9,2.8,3.8,4.2,5.7c0.1,0.2,0.4,0.3,0.2,0.6
			C146,114.2,145.8,114,145.6,114.1z"/>
		<path class="st0" d="M99.8,122.4c-0.1,0-0.2,0.1-0.2,0.1c0-0.1,0.1-0.1,0.1-0.2C99.7,122.3,99.7,122.3,99.8,122.4z"/>
		<path class="st0" d="M94.1,123.9c-0.1,0.1-0.1,0.1-0.2,0.2c0,0,0-0.1-0.1-0.1C94,124,94.1,124,94.1,123.9
			C94.1,124,94.1,123.9,94.1,123.9z"/>
	</g>
</g>
</svg>
