<?xml version="1.0" encoding="utf-8"?>
<!-- Generator: Adobe Illustrator 25.2.3, SVG Export Plug-In . SVG Version: 6.00 Build 0)  -->
<svg version="1.1" id="圖層_1" xmlns="http://www.w3.org/2000/svg" xmlns:xlink="http://www.w3.org/1999/xlink" x="0px" y="0px"
	 viewBox="0 0 240 240" style="enable-background:new 0 0 240 240;" xml:space="preserve">
<style type="text/css">
	.st0{fill:#FFFFFF;}
</style>
<g>
	<g>
		<g>
			<g>
				<path class="st0" d="M132.8,164.5h-25.7c-1.1,0-1.9-0.9-1.9-1.9c0-0.4,0.1-0.7,0.3-1c2.1-4.1,3.5-7.9,4.3-11.3
					c0.8-3.6,0.9-6.9,0.3-10c-6.3-1.9-11.9-5.6-16.1-10.8c-4.2-5.1-6.8-11.2-7.5-17.7c-3.7-1.3-7-3.7-9.4-6.8
					c-2.7-3.5-4.1-7.8-4.1-12.2V70.6c0-1.1,0.9-1.9,1.9-1.9h11.4v-8.4c0-1.1,0.9-1.9,1.9-1.9h63.5c1.1,0,1.9,0.9,1.9,1.9v8.4h11.4
					c1.1,0,1.9,0.9,1.9,1.9v22.2c0,4.4-1.4,8.6-4.1,12.2c-2.4,3.1-5.7,5.5-9.4,6.8c-0.7,6.5-3.3,12.6-7.5,17.7
					c-4.3,5.1-9.8,8.9-16.1,10.8c-0.6,3.3-0.5,6.6,0.3,10.2c0.8,3.4,2.1,7,4.4,11.3c0.2,0.4,0.3,1,0.1,1.5c-0.2,0.5-0.5,0.9-0.9,1.1
					C133.4,164.5,133.1,164.5,132.8,164.5z M74.9,70.7L75,92.8c0,4,1.3,7.8,3.7,10.9c2.3,3,5.5,5.2,9,6.3c0.4,0.1,0.7,0.5,0.7,0.9
					c0.6,6.3,3.1,12.3,7.1,17.2c4.1,5,9.6,8.6,15.7,10.3c0.4,0.1,0.6,0.4,0.7,0.8c0.8,3.6,0.7,7.4-0.2,11.5
					c-0.8,3.6-2.3,7.6-4.5,11.9l25.3-0.1c-2.3-4.4-3.7-8.1-4.5-11.6c-0.9-4.1-1-7.9-0.2-11.7c0.1-0.4,0.3-0.7,0.7-0.8
					c6.1-1.8,11.6-5.3,15.7-10.3c4.1-4.9,6.6-10.9,7.1-17.2c0-0.4,0.3-0.8,0.7-0.9c3.6-1.1,6.8-3.3,9-6.3c2.4-3.2,3.7-7,3.7-10.9
					V70.7l-12.3,0.1c-0.6,0-1-0.4-1-1v-9.4l-63.4,0.1l0.1,9.3c0,0.6-0.5,1-1,1H74.9z M152.7,104.3c-0.2,0-0.4-0.1-0.5-0.2
					c-0.3-0.2-0.5-0.5-0.5-0.9V76.9c0-0.6,0.4-1,1-1h6.7c0.6,0,1,0.4,1,1v15.3c0,2.7-0.8,5.3-2.3,7.6c-1.2,1.8-2.9,3.3-4.9,4.3
					C153,104.2,152.9,104.3,152.7,104.3z M153.7,77.9v23.5c1-0.8,1.9-1.7,2.7-2.8c1.3-1.9,2-4.1,2-6.4V77.9H153.7z M87.3,104.3
					c-0.2,0-0.3,0-0.5-0.1c-2-1-3.7-2.5-4.9-4.4c-1.5-2.2-2.3-4.8-2.3-7.6V76.9c0-0.6,0.5-1,1-1h6.7c0.6,0,1,0.4,1,1v26.4
					c0,0.3-0.2,0.7-0.5,0.9C87.7,104.2,87.5,104.3,87.3,104.3z M81.6,77.9v14.3c0,2.3,0.7,4.5,2,6.4c0.7,1.1,1.6,2,2.7,2.8V77.9
					H81.6z"/>
			</g>
		</g>
		<g>
			<path class="st0" d="M145.5,176.8h-51c-0.6,0-1-0.4-1-1v-12.3c0-0.6,0.4-1,1-1h51c0.6,0,1,0.4,1,1v12.3
				C146.5,176.3,146.1,176.8,145.5,176.8z M95.5,174.8h49v-10.2h-49V174.8z"/>
		</g>
		<g>
			<path class="st0" d="M139.8,181.6h-39.6c-0.6,0-1-0.4-1-1v-4.9c0-0.6,0.4-1,1-1h39.6c0.6,0,1,0.4,1,1v4.9
				C140.8,181.2,140.4,181.6,139.8,181.6z M101.2,179.6h37.6v-2.8h-37.6V179.6z"/>
		</g>
		<g>
			<path class="st0" d="M129,116.2c-0.4,0-0.9-0.2-1.2-0.4l-7.8-5.7l-7.9,5.8c-0.8,0.6-2.1,0.4-2.7-0.4c-0.4-0.5-0.5-1.1-0.2-1.7
				l3-9.3l-7.9-5.7c-0.7-0.5-1-1.4-0.7-2.2c0.3-0.8,1-1.3,1.8-1.3l9.8,0l3-9.3c0.2-0.8,1-1.3,1.8-1.3c0.8,0,1.6,0.5,1.8,1.3l3,9.3
				l9.8,0c0.8,0,1.6,0.5,1.8,1.3c0.3,0.8,0,1.7-0.7,2.1l-7.9,5.7l3,9.3c0.2,0.6,0.1,1.2-0.3,1.7C130.2,115.9,129.7,116.2,129,116.2z
				 M120,107.8c0.2,0,0.4,0.1,0.6,0.2l8.3,6.1l-3.2-9.8c-0.1-0.4,0-0.9,0.4-1.1l8.3-6l-10.2,0l0,0c-0.4,0-0.8-0.3-1-0.7l-3.1-9.7
				l-3.1,9.7c-0.1,0.4-0.5,0.8-1,0.7l-10.2,0l8.3,6c0.4,0.3,0.5,0.7,0.4,1.1l-3.2,9.7l8.2-6C119.6,107.9,119.8,107.8,120,107.8z"/>
		</g>
	</g>
</g>
</svg>
