<?xml version="1.0" encoding="utf-8"?>
<!-- Generator: Adobe Illustrator 25.2.3, SVG Export Plug-In . SVG Version: 6.00 Build 0)  -->
<svg version="1.1" id="圖層_1" xmlns="http://www.w3.org/2000/svg" xmlns:xlink="http://www.w3.org/1999/xlink" x="0px" y="0px"
	 viewBox="0 0 240 240" style="enable-background:new 0 0 240 240;" xml:space="preserve">
<style type="text/css">
	.st0{fill:#FFFFFF;}
</style>
<path class="st0" d="M68.5,113.8c1.4-2.6,3-5.3,4.8-7.9c0.8-1.2,1.6-2.3,2.4-3.4c0.8-2.6,11.4-38.1,30.4-46.8c1-0.4,2.1-0.5,3.2-0.1
	c1,0.4,1.8,1.1,2.2,2.1c1.6,3.6,2.9,7.1,4.1,10.6c15.7-8.5,31.9-13,47.1-13c0.2,0,0.4,0,0.5,0c12.2,0.1,21.3,9.3,21.3,21.4
	c0,15.2-5.6,33-15.9,50.6c4.6,1.3,9.1,3,13.6,5.1c1,0.4,1.8,1.3,2.1,2.3c0.4,1,0.3,2.1-0.2,3.1c-8.8,17.5-46.6,29.1-50.9,30.4l0,0
	c-3.8,2.9-7.7,5.4-11.4,7.4c-4,2.1-18.2,9-32.7,9c-8.7,0-17.4-2.4-24.2-9.8c-19.3-20.9-3.7-48,2.2-58.3
	C67.5,115.5,68.1,114.6,68.5,113.8z M99.8,135.1c0.1-0.3,0.1-0.5,0.2-0.8c11.7-23.2,16.4-42.3,5.8-69C94.4,73.8,85.9,96,83.4,104.8
	c-0.1,0.6-0.3,1.2-0.7,1.8c-1,1.2-1.9,2.6-2.7,3.9c-1.6,2.4-3.1,4.8-4.4,7.2c-0.4,0.8-1,1.8-1.6,2.9c-4.8,8.2-13.5,23.5-9.5,37.7
	C76.4,148.4,88.2,140.6,99.8,135.1z M117.8,168.5c3.7-2,7.6-4.5,11.4-7.5c0.7-0.5,1.4-0.7,2.3-0.8c10.1-3.1,33.7-12,42.8-22.4
	c-32.6-13.2-68.4-3.8-106.4,28c0.8,1.2,1.7,2.3,2.8,3.5C85.1,185.1,114.5,170.2,117.8,168.5z M146,123.9
	c12.3-18,18.3-32.5,18.2-44.3c0-2.3,1.8-4.1,4-4.1c2.3,0.1,4.1,1.8,4.1,4c0.1,12.6-5.5,27.4-17.1,45c1.7,0.2,3.4,0.4,5.1,0.8
	c10.3-17,16-34.2,16-48.6c0-7.8-5.5-13.2-13.3-13.3c-14.4,0.1-30,4.3-45.2,12.8h-0.1c0.6,2.5,1.1,5,1.4,7.5c1.3-0.3,2.6,0,3.6,1
	l20.2,20.3c1.6,1.6,1.6,4.2,0,5.7c-0.8,0.8-1.8,1.2-2.9,1.2s-2.1-0.4-2.9-1.2l-17.4-17.4c0,4-0.3,8-0.9,11.9l12,11.9
	c1.6,1.6,1.6,4.2,0,5.7c-0.8,0.8-1.8,1.2-2.9,1.2s-2.1-0.4-2.9-1.2l-8.3-8.4c-1.5,5.3-3.6,10.6-5.9,15.9
	C122.7,126,134.5,123.8,146,123.9z M87.2,164.4c-2.2,0.2-3.9,2.1-3.7,4.4c0.2,2.1,1.9,3.7,4,3.7c0.1,0,0.2,0,0.3,0
	c10.6-0.9,23.8-6.1,41.4-16.3c10.9-1.5,17.9-5.6,29.1-12.6c1.9-1.2,2.5-3.7,1.3-5.6c-1.2-1.9-3.7-2.5-5.6-1.3
	c-10.8,6.7-16.9,10.3-26.6,11.5c-0.6,0-1.1,0.2-1.6,0.5C109,158.8,96.7,163.6,87.2,164.4z M88.7,125.2c-1.6,1.6-1.6,4.2,0,5.7
	c0.8,0.8,1.8,1.2,2.9,1.2c1,0,2.1-0.4,2.9-1.2c5-5,10.9-19.9,13.2-30.3c0.4-2.2-0.9-4.3-3.1-4.8c-2.1-0.5-4.3,0.9-4.8,3.1
	C97.5,109.4,91.8,122.2,88.7,125.2z M133.1,76.8c-1.6,1.6-1.6,4.2,0,5.7l12.1,12.1c0.8,0.8,1.8,1.2,2.9,1.2s2.1-0.4,2.9-1.2
	c1.6-1.6,1.6-4.2,0-5.7l-12.1-12.1C137.3,75.2,134.7,75.2,133.1,76.8z M147.2,70.7c-1.6,1.6-1.6,4.2,0,5.7l4,4
	c0.8,0.8,1.8,1.2,2.9,1.2s2.1-0.4,2.9-1.2c1.6-1.6,1.6-4.2,0-5.7l-4.1-4C151.4,69.1,148.8,69.1,147.2,70.7z"/>
</svg>
