<?xml version="1.0" encoding="utf-8"?>
<!-- Generator: Adobe Illustrator 25.2.3, SVG Export Plug-In . SVG Version: 6.00 Build 0)  -->
<svg version="1.1" id="圖層_1" xmlns="http://www.w3.org/2000/svg" xmlns:xlink="http://www.w3.org/1999/xlink" x="0px" y="0px"
	 viewBox="0 0 240 240" style="enable-background:new 0 0 240 240;" xml:space="preserve">
<style type="text/css">
	.st0{fill:#FFFFFF;}
</style>
<g>
	<g id="kioEHI.tif_1_">
		<g>
			<path class="st0" d="M165.2,108c-0.1,12.1-3.5,23.1-10.5,32.9c-0.9,1.3-1.7,2.7-1.8,4.4c-0.1,1.8,0.6,3.3,1.8,4.6
				c0.4,0.5,0.8,0.9,1.3,1.3c9.2,9.2,18.4,18.5,27.6,27.7c1.6,1.6,3.1,3.2,4.7,4.7c0.2,0.2,0.4,0.5,0.3,0.8c0,0.9,0,1.8,0,2.6
				c0,0.4-0.1,0.6-0.4,0.8c-1.3,1.1-2.2,1.1-3.6,0.1c-0.5-0.4-0.9-0.8-1.4-1.2c-8.5-8.5-17.1-17.1-25.6-25.6
				c-2.3-2.3-4.5-4.6-6.8-6.8c-2.7-2.6-5.7-2.8-8.7-0.6c-2.2,1.6-4.6,3.2-7,4.5c-6.1,3.3-12.5,5.3-19.3,6.2
				c-7.3,1-14.5,0.7-21.5-1.3c-18.6-5.2-31.6-16.8-38.9-34.7c-3-7.3-4.1-14.9-3.7-22.8c0.7-13.9,5.7-26.1,15.1-36.4
				C73.1,62.1,81.1,57,90.3,54c3.5-1.2,7.1-1.8,10.7-2.5c1-0.2,2.1-0.3,3.1-0.3c3.4,0,6.8,0.1,10.2,0c1.6,0,3,0.5,4.4,0.8
				c12.1,2.4,22.4,8,30.9,16.9c7.6,7.9,12.3,17.3,14.4,28C164.8,100.5,165.2,104.3,165.2,108z M108.4,159.2
				c27.9,0.1,50.6-22.8,50.6-51.2c0.1-28.3-22.2-50.8-50.4-50.9C80.3,57,57.5,79.6,57.5,107.9C57.4,136.2,80.2,159.1,108.4,159.2z"
				/>
			<path class="st0" d="M93,89.1c2.7,0,5.3-0.1,7.9,0c2.7,0.1,5.4,0.1,8.1,0.1c9.1-0.2,18.1,0,27.2-0.1c1.1,0,1.8,0.4,2.4,1.4
				c2.6,4.8,5.2,9.5,7.8,14.3c0.6,1,0.5,1.8-0.2,2.7c-7.7,9.9-15.4,19.9-23.1,29.9c-2.9,3.7-5.7,7.4-8.6,11.1
				c-1.1,1.4-2.2,2.9-3.3,4.3c-0.6,0.8-0.7,0.8-1.3,0c-3.6-4.6-7.2-9.3-10.7-13.9c-8.1-10.5-16.2-21-24.3-31.5
				c-0.6-0.8-0.7-1.5-0.2-2.4c2.8-5,5.5-10,8.2-15c0.4-0.7,0.9-0.9,1.6-0.9C87.3,89.1,90.1,89.1,93,89.1L93,89.1z M106.6,144.5
				c0,0.1,0.1,0.1,0.2,0.2c0.1-0.1,0-0.2,0-0.3c0,0,0-0.1,0-0.1c-1.7-5.2-3.3-10.4-5-15.6c-2.1-6.6-4.2-13.2-6.3-19.9
				c-0.3-0.9-0.5-1.1-1.5-1.1c-5,0-9.9,0-14.9,0c-0.2,0-0.5-0.1-0.6,0.1c-0.1,0.2,0.2,0.4,0.3,0.6c6.3,8.2,12.6,16.4,19,24.6
				C100.7,136.8,103.7,140.6,106.6,144.5z M110.5,147.4c0.2-0.1,0.2-0.2,0.2-0.4c4.1-12.8,8.2-25.6,12.2-38.4
				c0.3-0.8,0.2-0.8-0.6-0.8c-7.9,0-15.7,0-23.6,0c-0.9,0-1,0.1-0.7,1c0.8,2.7,1.7,5.3,2.6,8c3.2,10.1,6.4,20.1,9.6,30.2
				C110.3,147,110.3,147.3,110.5,147.4z M114.2,144.5c0.1,0,0.1,0,0.2,0.1c9.4-12.2,18.9-24.5,28.4-36.8c-5.4,0-10.6,0-15.9,0
				c-0.9,0-1.1,0.1-1.3,1c-3.3,10.5-6.7,21-10,31.5C115.1,141.6,114.7,143.1,114.2,144.5z M94,91.4c-2.7,0-5.5,0-8.2,0
				c-0.6,0-1,0.2-1.2,0.7c-2.3,4.2-4.5,8.4-6.8,12.6c-0.4,0.8-0.4,0.8,0.5,0.8c5.4,0,10.7,0,16.1,0c0.7,0,1.2-0.3,1.5-0.9
				c2.2-4.1,4.5-8.2,6.8-12.4c0.4-0.8,0.4-0.9-0.5-0.9C99.4,91.4,96.7,91.4,94,91.4z M127.2,91.4c-2.7,0-5.5,0-8.2,0
				c-0.8,0-0.9,0.1-0.5,0.8c2.2,4.1,4.5,8.2,6.8,12.4c0.4,0.7,0.9,1,1.7,1c5.3,0,10.7,0,16,0c0.9,0,0.9-0.1,0.5-0.9
				c-2.3-4.2-4.5-8.3-6.8-12.5c-0.3-0.6-0.7-0.8-1.4-0.8C132.5,91.4,129.8,91.4,127.2,91.4z M110.4,105.5L110.4,105.5
				c3.8,0,7.6,0,11.5,0c0.9,0,1-0.1,0.5-0.9c-2.2-4.1-4.5-8.2-6.8-12.3c-0.4-0.7-0.8-0.9-1.6-0.9c-2.4,0-4.8,0-7.1,0
				c-0.8,0-1.2,0.3-1.6,1c-2.2,4.2-4.5,8.3-6.8,12.5c-0.1,0.2-0.3,0.4-0.2,0.6c0.1,0.2,0.4,0.2,0.6,0.2
				C102.8,105.5,106.6,105.5,110.4,105.5z"/>
			<path class="st0" d="M140.4,76.4c0.6,1.4,0.8,2.7,1.2,3.9c0.2,0.8,0.7,1.3,1.5,1.5c1.1,0.3,2.1,0.6,3.2,0.9c0.1,0,0.4,0,0.4,0.3
				c0,0.2-0.2,0.3-0.4,0.3c-1.1,0.3-2.2,0.6-3.3,0.9c-0.7,0.2-1.1,0.6-1.3,1.3c-0.3,1.1-0.6,2.2-0.9,3.2c-0.1,0.2-0.1,0.5-0.4,0.5
				c-0.2,0-0.2-0.3-0.3-0.5c-0.3-1-0.6-2-0.8-3c-0.2-0.9-0.8-1.4-1.6-1.6c-1-0.3-2-0.5-3-0.8c-0.2-0.1-0.5,0-0.5-0.3
				c0-0.3,0.3-0.2,0.5-0.3c1.1-0.3,2.1-0.6,3.2-0.9c0.7-0.2,1.1-0.6,1.3-1.3c0.2-0.9,0.5-1.9,0.8-2.8
				C140.1,77.3,140.2,77,140.4,76.4z"/>
			<path class="st0" d="M86.9,84.7c-0.8,0.2-1.6,0.2-2.4,0.1c-0.8-0.1-1.3,0.3-1.7,1c-0.3,0.6-0.7,1.3-1.2,1.8
				c-0.4-0.6-0.3-1.1-0.2-1.7c0.2-1.4,0-1.8-1.3-2.4c-0.3-0.2-0.7-0.4-1-0.6c-0.2-0.1-0.5-0.2-0.4-0.4c0.1-0.3,0.4-0.2,0.6-0.2
				c0.5,0,1,0,1.5,0c0.9,0.1,1.4-0.2,1.8-1c0.2-0.5,0.6-0.9,0.8-1.4c0.1-0.1,0.2-0.3,0.4-0.2c0.2,0.1,0.1,0.3,0.1,0.4
				c0,0.6,0,1.1,0,1.7c0,0.8,0.3,1.3,1,1.7C85.6,83.8,86.3,84.1,86.9,84.7z"/>
			<path class="st0" d="M107.5,86.4c0.1-0.4,0.4-0.7,0.6-1c0.6-0.6,0.6-1.3,0.3-2c-0.2-0.4-0.3-0.7-0.4-1.4c1.2,1.4,2.5,1.9,4.2,0.9
				c-1.3,1.3-1.4,2.6-0.6,4.2c-0.3-0.2-0.5-0.4-0.7-0.5c-0.9-0.7-1.9-0.8-3-0.3C107.8,86.3,107.7,86.5,107.5,86.4L107.5,86.4z"/>
			<path class="st0" d="M107.5,86.4C107.5,86.4,107.5,86.4,107.5,86.4C107.5,86.4,107.5,86.4,107.5,86.4
				C107.5,86.4,107.5,86.4,107.5,86.4C107.5,86.4,107.5,86.4,107.5,86.4z"/>
			<path class="st0" d="M106.8,144.3c0,0.1,0.1,0.2,0,0.3c0-0.1-0.1-0.1-0.2-0.2C106.7,144.4,106.7,144.4,106.8,144.3z"/>
		</g>
	</g>
</g>
</svg>
