<?xml version="1.0" encoding="utf-8"?>
<!-- Generator: Adobe Illustrator 25.2.1, SVG Export Plug-In . SVG Version: 6.00 Build 0)  -->
<svg version="1.1" id="圖層_1" xmlns="http://www.w3.org/2000/svg" xmlns:xlink="http://www.w3.org/1999/xlink" x="0px" y="0px"
	 viewBox="0 0 240 240" style="enable-background:new 0 0 240 240;" xml:space="preserve">
<style type="text/css">
	.st0{fill:#1B3372;}
</style>
<g>
	<g>
		<path class="st0" d="M120.9,175.9c-11.5,0-21-4-28.2-11.9c-7.2-7.8-10.9-18.6-10.9-32.1V110c0-13.8,4.1-25,12.3-33.3
			c8.1-8.3,18.6-12.6,31-12.6c4.2,0,8.1,0.4,11.7,1.2c3.6,0.8,7.2,1.9,10.7,3.4l1.6,0.7l-4.7,19.3l-2.2-0.7c-3.2-1.1-6-1.9-8.5-2.4
			c-2.4-0.5-5.3-0.8-8.5-0.8c-5.5,0-9.8,2-13.2,6.2c-3.3,4.1-5,9.8-5.2,17.2c2.1-1.5,4.5-2.8,7.1-3.8c4.1-1.6,8.7-2.4,13.6-2.4
			c9.6,0,17.2,3.5,22.6,10.3c5.3,6.7,8,15.5,8,26.1c0,11-3.5,20.1-10.4,27C140.9,172.3,131.9,175.9,120.9,175.9z M125.1,68.3
			c-11.3,0-20.7,3.8-28,11.3C89.7,87.2,86,97.4,86,110v21.9c0,12.4,3.3,22.2,9.7,29.2c6.5,7.1,14.7,10.5,25.1,10.5
			c9.9,0,17.9-3.1,24-9.2c6.1-6.1,9.2-14.2,9.2-24.1c0-9.7-2.4-17.6-7.1-23.5c-4.6-5.9-11-8.7-19.3-8.7c-4.5,0-8.5,0.7-12.1,2.1
			c-3.6,1.4-6.7,3.4-9.2,5.9l-3.6,3.5v-8.4c0-8.8,2.1-15.9,6.1-20.9c4.2-5.2,9.7-7.8,16.5-7.8c3.5,0,6.7,0.3,9.4,0.9
			c2.1,0.4,4.3,1.1,6.8,1.8l2.8-11.4c-2.7-1.1-5.5-1.9-8.3-2.5C132.7,68.7,129,68.3,125.1,68.3z M120.9,159.8
			c-5.6,0-10.1-2.5-13.4-7.5c-3.2-4.7-4.8-11.4-4.8-19.8v-6.3l0.4-0.5c1.7-2.5,4.1-4.4,7.1-5.8c2.9-1.3,6.5-2,10.5-2
			c5.1,0,9.2,1.9,12.2,5.7c2.9,3.6,4.4,8.6,4.4,14.8c0,6-1.4,11-4.3,15C130,157.6,125.9,159.8,120.9,159.8z M106.9,127.5v4.9
			c0,7.6,1.4,13.5,4.1,17.5c2.6,3.8,5.8,5.7,9.9,5.7c3.7,0,6.5-1.5,8.7-4.6c2.3-3.3,3.5-7.5,3.5-12.6c0-5.2-1.2-9.3-3.5-12.2
			c-2.2-2.8-5.1-4.1-8.9-4.1c-3.5,0-6.4,0.6-8.8,1.6C109.8,124.6,108.1,125.9,106.9,127.5z"/>
	</g>
</g>
</svg>
