<?xml version="1.0" encoding="utf-8"?>
<!-- Generator: Adobe Illustrator 25.2.1, SVG Export Plug-In . SVG Version: 6.00 Build 0)  -->
<svg version="1.1" id="圖層_1" xmlns="http://www.w3.org/2000/svg" xmlns:xlink="http://www.w3.org/1999/xlink" x="0px" y="0px"
	 viewBox="0 0 240 240" style="enable-background:new 0 0 240 240;" xml:space="preserve">
<style type="text/css">
	.st0{fill:#1B3372;}
</style>
<path class="st0" d="M71.3,140.5c-3.9-8.3-1.3-19.9,7.1-28.3c1.7-1.7,3.6-3.2,5.5-4.4c-4.7-8.3-2.2-20.5,6.6-29.3
	c5.9-5.8,13.3-8.9,20-8.9c5,0,9.6,1.7,13,5c1,1,1.9,2.1,2.5,3.3c4.6-2.8,9.5-4.3,14.2-4.3c5,0,9.6,1.7,13,5c1.9,1.9,3.2,4.1,4,6.6
	c0.4-0.1,0.8-0.2,1.2-0.4c6.5-2.5,12.7-10.1,15-17.5c0.6-2.1,1-4,1-5.9c0-2.2,1.8-4,4-4c2.2,0,4,1.8,4,4c0,9.4-6.2,20.7-14.6,27.1
	c2.1,0.8,3.9,2,5.5,3.6c8,8,6.3,22.8-3.9,33c-1.3,1.3-2.7,2.4-4.1,3.4c7.9,8.1,6.2,22.7-4,32.9c-5.9,5.9-13.3,8.9-20.1,8.9
	c-4.2,0-8.1-1.2-11.2-3.7c-0.8,1-1.6,1.9-2.5,2.8c-5.8,5.9-13.2,8.9-20,8.9c-4.7,0-9.1-1.6-12.4-4.6c-5.8,5.7-13.2,8.8-19.9,8.8
	c-4.9,0-9.6-1.6-13-5.1c-8-8-6.3-22.8,3.9-33C67.9,143,69.6,141.6,71.3,140.5z M75.4,174.5c4.8,0,10.2-2.5,14.3-6.6
	c3.6-3.6,5.9-8.2,6.5-12.5c0.2-2.2,0.2-6.2-2.6-9c-2.2-2.2-5.2-2.7-7.3-2.7c-4.8,0-10.2,2.5-14.3,6.6c-6.9,6.9-8.7,16.8-3.9,21.6
	C70.4,174,73.4,174.5,75.4,174.5z M86.4,135.6c4.1,0,7.9,1.2,11,3.5c1.6-1,3.1-2.1,4.5-3.5c6.9-6.9,8.7-16.8,3.9-21.6
	c-2.2-2.2-5.2-2.7-7.3-2.7c-4.8,0-10.2,2.5-14.3,6.6c-5.8,5.8-8,13.8-5.6,19C81.2,136,83.8,135.6,86.4,135.6z M98.5,103.2
	c3.6,0,7.1,0.9,10,2.7c1-0.6,2-1.2,2.9-1.9c-0.5-6.9,2.4-14.7,8.3-21c-0.4-1-1-2-1.9-2.9c-2.2-2.2-5.2-2.7-7.3-2.7
	c-4.8,0-10.2,2.5-14.3,6.6c-6.3,6.3-8.3,15.1-4.9,20.2C93.8,103.6,96.2,103.2,98.5,103.2z M107.7,170.4c4.8,0,10.2-2.5,14.3-6.6
	c6.9-6.9,8.7-16.8,3.9-21.6c-2.2-2.2-5.2-2.7-7.3-2.7c-4.8,0-10.2,2.5-14.3,6.6c-0.4,0.4-0.7,0.8-1,1.1c2.1,6.1,1,13.6-3.1,20.2
	c0.1,0,0.1,0.2,0.2,0.2C102.7,169.9,105.7,170.4,107.7,170.4z M118.9,131.5c2.1,0,4.2,0.4,6.1,1c4.6-0.3,9.4-2.7,13.2-6.5
	c3.6-3.6,5.9-8.2,6.5-12.6c0.2-2.1,0.2-6.2-2.6-9c-2.2-2.2-5.2-2.7-7.3-2.7c-4.8,0-10.2,2.5-14.3,6.6c-2.1,2.1-3.7,4.5-4.8,7
	c1.2,4,1.1,8.5-0.2,13c0.3,0.5,0.7,1.1,1.2,1.5C117.3,130.6,118.1,131.1,118.9,131.5z M134.8,93.7c5,0,9.6,1.7,13,5
	c0.2,0.2,0.3,0.4,0.5,0.6c1-2,1.6-4,1.9-6c0.3-2.1,0.3-6.2-2.6-9c-2.2-2.2-5.2-2.7-7.3-2.7c-4.8,0-10.2,2.5-14.3,6.6
	c-3.1,3.1-5.1,6.7-6,10.2C124.8,95.3,130,93.7,134.8,93.7z M141.5,162.3c4.9,0,10.2-2.5,14.3-6.6c3.6-3.6,5.9-8.1,6.5-12.5
	c0.3-2.2,0.3-6.2-2.6-9c-2.2-2.2-5.2-2.7-7.3-2.7c-4.8,0-10.2,2.5-14.3,6.6c-1.1,1.1-2.1,2.4-3,3.7c2.3,5.3,2,11.8-0.7,18
	C136.6,161.8,139.4,162.3,141.5,162.3z M157.3,124.1c2.3-1.1,4.6-2.7,6.5-4.6c3.6-3.6,5.9-8.2,6.5-12.5c0.3-2.2,0.3-6.2-2.6-9
	c-2.2-2.2-5.2-2.7-7.3-2.7c-0.8,0-1.7,0.1-2.5,0.2c-0.7,4.3-2.5,8.6-5.5,12.6c0.9,4.9,0,10.4-2.6,15.6c0.8-0.1,1.7-0.2,2.5-0.2
	C154.1,123.4,155.8,123.7,157.3,124.1z"/>
</svg>
