<?xml version="1.0" encoding="utf-8"?>
<!-- Generator: Adobe Illustrator 25.2.1, SVG Export Plug-In . SVG Version: 6.00 Build 0)  -->
<svg version="1.1" id="圖層_1" xmlns="http://www.w3.org/2000/svg" xmlns:xlink="http://www.w3.org/1999/xlink" x="0px" y="0px"
	 viewBox="0 0 240 240" style="enable-background:new 0 0 240 240;" xml:space="preserve">
<style type="text/css">
	.st0{fill:#1B3372;}
</style>
<g>
	<path class="st0" d="M79.7,105.5c0,18.7,2.2,29.7,4.4,40.3c1.9,9.2,3.6,17.9,3.6,31c0,4.3,3.5,7.8,7.7,7.8h49.2
		c4.2,0,7.6-3.5,7.7-7.8c0.2-10.2,1.6-17.3,3.3-25.6c2.2-10.9,4.8-23.3,4.7-45.7c0-14.4-8.5-26.1-20.1-29.1V59.5c0-2.2-1.8-4-4-4
		h-32.3c-2.2,0-4,1.8-4,4v16.9C88.2,79.4,79.7,91.1,79.7,105.5z M95.8,176.5c0-13.8-1.9-22.8-3.8-32.3c-2-9.8-4-19.9-4.2-36.3h52.3
		c-0.2,17.6-2.2,29.1-4.3,39.3c-1.1,5.4-2.2,10.9-2.9,17.2h-25.5c-0.7-8.8-2.2-15.8-3.6-22.7c-0.4-2.2-2.6-3.6-4.8-3.1
		s-3.6,2.6-3.2,4.8c1.5,7.5,3.1,15.2,3.7,25.3c0.1,2.1,1.9,3.8,4,3.8h32.9c2.1,0,3.9-1.6,4-3.7c0.6-7.5,1.8-13.5,3.2-20
		c2.2-10.6,4.2-22.5,4.5-40.9h4c-0.1,20-2.5,31.6-4.5,41.7c-1.7,8.2-3.3,16.1-3.4,26.9L95.8,176.5L95.8,176.5z M107.9,63.5H124v12.1
		h-16.1V63.5z M128.1,63.5h4v12.1h-4V63.5z M151.6,99.8h-7.3c0,0,0,0,0,0H88.4c2-9.4,8.9-16.1,17.4-16.1h28.4
		C142.6,83.7,149.5,90.4,151.6,99.8z"/>
	<rect x="95.8" y="91.7" class="st0" width="48.4" height="4"/>
</g>
</svg>
