<?xml version="1.0" encoding="utf-8"?>
<!-- Generator: Adobe Illustrator 25.2.3, SVG Export Plug-In . SVG Version: 6.00 Build 0)  -->
<svg version="1.1" id="圖層_1" xmlns="http://www.w3.org/2000/svg" xmlns:xlink="http://www.w3.org/1999/xlink" x="0px" y="0px"
	 viewBox="0 0 240 240" style="enable-background:new 0 0 240 240;" xml:space="preserve">
<style type="text/css">
	.st0{fill:#FFFFFF;}
</style>
<g>
	<g>
		<g>
			<g>
				<path class="st0" d="M124,179.9h-8.1c-0.5,0-0.9-0.4-1-0.8l-2.2-14.9c-2.5-0.4-5-1.1-7.3-2L96,173.9c-0.3,0.4-0.8,0.5-1.3,0.2
					l-7-4.1c-0.4-0.2-0.6-0.8-0.4-1.2l5.5-14.1c-1.9-1.6-3.7-3.4-5.3-5.3L73.4,155c-0.4,0.2-1,0-1.2-0.4l-4.1-7
					c-0.2-0.4-0.1-1,0.2-1.3l11.8-9.4c-0.9-2.4-1.5-4.9-2-7.3l-14.9-2.2c-0.5-0.1-0.8-0.5-0.8-1v-8.1c0-0.5,0.4-0.9,0.8-1l14.9-2.2
					c0.4-2.4,1.1-4.9,2-7.3l-11.8-9.4C68,98,67.9,97.5,68.1,97l4.1-7c0.2-0.4,0.8-0.6,1.2-0.4l14.1,5.5c1.6-1.9,3.4-3.7,5.3-5.3
					l-5.5-14.1c-0.2-0.5,0-1,0.4-1.2l7-4.1c0.4-0.2,1-0.1,1.3,0.2l9.4,11.8c2.4-0.9,4.9-1.5,7.3-2l1.3-8.7c0.1-0.5,0.6-0.9,1.1-0.8
					c0.5,0.1,0.9,0.6,0.8,1.1l-1.4,9.4c-0.1,0.4-0.4,0.8-0.8,0.8c-2.8,0.4-5.6,1.2-8.3,2.2c-0.4,0.2-0.8,0-1.1-0.3L95,72.5l-5.6,3.2
					l5.5,13.9c0.2,0.4,0,0.9-0.3,1.1c-2.2,1.8-4.3,3.9-6.1,6.1c-0.3,0.3-0.7,0.5-1.1,0.3l-13.9-5.5l-3.2,5.6l11.7,9.3
					c0.3,0.3,0.5,0.7,0.3,1.1c-1,2.7-1.8,5.5-2.2,8.3c-0.1,0.4-0.4,0.8-0.8,0.8l-14.8,2.2v6.4l14.8,2.2c0.4,0.1,0.8,0.4,0.8,0.8
					c0.4,2.8,1.2,5.6,2.2,8.3c0.2,0.4,0,0.9-0.3,1.1l-11.7,9.3l3.2,5.6l13.9-5.5c0.4-0.2,0.9,0,1.1,0.3c1.8,2.3,3.9,4.3,6.1,6.1
					c0.3,0.3,0.5,0.7,0.3,1.1l-5.5,13.9L95,172l9.3-11.7c0.3-0.3,0.7-0.5,1.1-0.3c2.7,1,5.5,1.8,8.3,2.2c0.4,0.1,0.8,0.4,0.8,0.8
					l2.2,14.8h6.4l2.2-14.8c0.1-0.4,0.4-0.8,0.8-0.8c2.9-0.4,5.7-1.2,8.3-2.2c0.4-0.2,0.9,0,1.1,0.3L145,172l5.6-3.2l-5.5-13.9
					c-0.2-0.4,0-0.9,0.3-1.1c2.2-1.8,4.3-3.8,6.1-6.1c0.3-0.3,0.7-0.5,1.1-0.3l13.9,5.5l3.2-5.6l-11.7-9.3c-0.3-0.3-0.5-0.7-0.3-1.1
					c1-2.7,1.8-5.5,2.2-8.3c0.1-0.4,0.4-0.8,0.8-0.8l14.8-2.2V119l-14.8-2.2c-0.4-0.1-0.8-0.4-0.8-0.8c-0.4-2.8-1.2-5.6-2.2-8.3
					c-0.2-0.4,0-0.8,0.3-1.1l7.1-5.7c0.4-0.3,1-0.3,1.4,0.2c0.3,0.4,0.3,1-0.2,1.4l-6.6,5.2c0.9,2.4,1.5,4.8,1.9,7.3l14.9,2.2
					c0.5,0.1,0.8,0.5,0.8,1v8.1c0,0.5-0.4,0.9-0.8,1l-14.9,2.2c-0.4,2.5-1.1,5-1.9,7.3l11.8,9.4c0.4,0.3,0.5,0.8,0.2,1.3l-4.1,7
					c-0.2,0.4-0.8,0.6-1.2,0.4l-14.1-5.5c-1.6,1.9-3.4,3.8-5.4,5.4l5.5,14.1c0.2,0.5,0,1-0.4,1.2l-7,4.1c-0.4,0.2-1,0.1-1.3-0.2
					l-9.4-11.8c-2.4,0.9-4.8,1.5-7.3,1.9L125,179C124.9,179.5,124.5,179.9,124,179.9z M120,144c-12,0-21.8-9.8-21.8-21.8
					c0-11,8.2-20.3,19.1-21.6c0.5-0.1,1,0.3,1.1,0.9c0.1,0.5-0.3,1-0.9,1.1c-9.9,1.2-17.4,9.7-17.4,19.6c0,10.9,8.9,19.8,19.8,19.8
					c10.9,0,19.8-8.9,19.8-19.8c0-4.4-1.4-8.6-4.2-12.2c-0.3-0.4-0.2-1.1,0.2-1.4c0.4-0.3,1.1-0.2,1.4,0.2c3,3.9,4.6,8.5,4.6,13.4
					C141.8,134.3,132,144,120,144z"/>
			</g>
		</g>
		<g>
			<path class="st0" d="M124.3,118.8c-0.2,0-0.3,0-0.5-0.1c-0.3-0.2-0.5-0.5-0.5-0.9v-15.2H115c-0.5,0-1-0.4-1-1V61.1
				c0-0.5,0.4-1,1-1h60.3c0.5,0,1,0.4,1,1v40.5c0,0.5-0.4,1-1,1H148l-23.1,16C124.7,118.8,124.5,118.8,124.3,118.8z M116,100.7h8.3
				c0.5,0,1,0.4,1,1V116l21.8-15.1c0.2-0.1,0.4-0.2,0.6-0.2h26.7V62.1H116V100.7z"/>
		</g>
		<g>
			<path class="st0" d="M157,71.2H124c-0.5,0-1-0.4-1-1s0.4-1,1-1H157c0.5,0,1,0.4,1,1S157.6,71.2,157,71.2z"/>
		</g>
		<g>
			<path class="st0" d="M166.4,71.2h-5.1c-0.5,0-1-0.4-1-1s0.4-1,1-1h5.1c0.5,0,1,0.4,1,1S166.9,71.2,166.4,71.2z"/>
		</g>
		<g>
			<path class="st0" d="M166.4,76.8h-33.9c-0.5,0-1-0.4-1-1c0-0.5,0.4-1,1-1h33.9c0.5,0,1,0.4,1,1C167.3,76.3,166.9,76.8,166.4,76.8
				z"/>
		</g>
		<g>
			<path class="st0" d="M129,76.8H124c-0.5,0-1-0.4-1-1c0-0.5,0.4-1,1-1h5.1c0.5,0,1,0.4,1,1C130,76.3,129.6,76.8,129,76.8z"/>
		</g>
		<g>
			<path class="st0" d="M154.1,82.3H124c-0.5,0-1-0.4-1-1c0-0.5,0.4-1,1-1h30.2c0.5,0,1,0.4,1,1C155.1,81.9,154.7,82.3,154.1,82.3z"
				/>
		</g>
		<g>
			<path class="st0" d="M166.4,82.3h-5.1c-0.5,0-1-0.4-1-1c0-0.5,0.4-1,1-1h5.1c0.5,0,1,0.4,1,1C167.3,81.9,166.9,82.3,166.4,82.3z"
				/>
		</g>
		<g>
			<path class="st0" d="M166.4,87.8h-34.5c-0.5,0-1-0.4-1-1c0-0.5,0.4-1,1-1h34.5c0.5,0,1,0.4,1,1C167.3,87.4,166.9,87.8,166.4,87.8
				z"/>
		</g>
		<g>
			<path class="st0" d="M129,87.8H124c-0.5,0-1-0.4-1-1c0-0.5,0.4-1,1-1h5.1c0.5,0,1,0.4,1,1C130,87.4,129.6,87.8,129,87.8z"/>
		</g>
		<g>
			<path class="st0" d="M156.6,93.4H124c-0.5,0-1-0.4-1-1s0.4-1,1-1h32.6c0.5,0,1,0.4,1,1S157.1,93.4,156.6,93.4z"/>
		</g>
		<g>
			<path class="st0" d="M166.4,93.4h-5.1c-0.5,0-1-0.4-1-1s0.4-1,1-1h5.1c0.5,0,1,0.4,1,1S166.9,93.4,166.4,93.4z"/>
		</g>
	</g>
</g>
</svg>
