<?xml version="1.0" encoding="utf-8"?>
<!-- Generator: Adobe Illustrator 25.2.1, SVG Export Plug-In . SVG Version: 6.00 Build 0)  -->
<svg version="1.1" id="圖層_1" xmlns="http://www.w3.org/2000/svg" xmlns:xlink="http://www.w3.org/1999/xlink" x="0px" y="0px"
	 viewBox="0 0 240 240" style="enable-background:new 0 0 240 240;" xml:space="preserve">
<style type="text/css">
	.st0{fill:#1B3372;}
</style>
<path class="st0" d="M87.8,96.1c10.9-10.8,22-16.5,32-16.5c0.1,0,0.2,0,0.3,0c3.4,0,7,0.8,10.5,2.1l10.1-20.1c0.5-1,1.4-1.8,2.6-2.1
	c1.1-0.3,2.3-0.1,3.3,0.6l10.1,6.7l8.8-10.1c0.8-0.9,1.8-1.3,2.9-1.4c1.1-0.1,2.2,0.4,3,1.2l12.1,12.1c0.8,0.8,1.2,1.9,1.2,3
	c0,1.1-0.5,2.2-1.4,2.9l-10.1,8.8l6.7,10.1c0.6,1,0.9,2.2,0.5,3.3c-0.3,1.1-1.1,2.1-2.1,2.6l-20.1,10c1.3,3.6,2.1,7.1,2.1,10.5
	c0.1,10-5.6,21.2-16.5,32.2c-18.5,18.7-47.2,32.4-68.2,32.4c-11.5,0-20.2-8.7-20.2-20.2C55.4,143.4,69,114.7,87.8,96.1z
	 M138.1,146.5c9.2-9.3,14.3-18.7,14.2-26.5c-0.1-6.7-4.1-14.5-10.9-21.4c-6.9-6.9-14.7-10.8-21.4-10.9c-0.1,0-0.2,0-0.2,0
	c-7.7,0-17,5-26.3,14.2c-17.1,16.9-30,43.8-30,62.5c0,7.1,5,12.1,12.1,12.1C94.3,176.5,121.2,163.6,138.1,146.5z M139.4,86.5
	L151.2,73l-5.4-3.6l-8,16C138.3,85.8,138.9,86.1,139.4,86.5z M147.1,92.9c0.5,0.5,0.9,0.9,1.3,1.4l26.2-23l-6-6l-23,26.3
	C146.1,92,146.6,92.5,147.1,92.9z M170.6,94.2l-3.6-5.4l-13.5,11.8c0.4,0.6,0.7,1.1,1.1,1.7L170.6,94.2z M75.6,164.4
	c-2.3,0-4,1.8-4,4c0,2.2,1.8,4,4,4c17.5,0,43.7-12.6,59.6-28.8c8.4-8.4,13.1-17,13-23.6c-0.1-5.7-3.6-12.5-9.8-18.6
	c-1.6-1.6-4.1-1.6-5.7,0c-1.6,1.6-1.6,4.2,0,5.7c4.4,4.4,7.3,9.5,7.4,13c0,1.2-0.4,2.9-1.3,5l-8-8c-1.6-1.6-4.1-1.6-5.7,0
	s-1.6,4.1,0,5.7l8.1,8.1c0.4,0.5,1,0.8,1.5,0.9c-1.4,1.9-3.2,4-5.3,6.2c-2.9,3-6.3,5.8-9.9,8.5c-0.2-0.4-0.4-0.8-0.8-1.1l-8.1-8.1
	c-1.6-1.6-4.1-1.6-5.7,0c-1.6,1.6-1.6,4.1,0,5.7l7.9,8c-7.2,4.5-14.9,8.2-22.2,10.6l-3.6-7.1c-1-2-3.4-2.8-5.4-1.8
	c-2,1-2.8,3.4-1.8,5.4l2.7,5.5C80.3,164.1,77.8,164.4,75.6,164.4z M80.8,125.2c-1.6,1.6-1.6,4.1,0,5.7l4,4c0.8,0.8,1.8,1.2,2.9,1.2
	c1,0,2.1-0.4,2.8-1.2c1.6-1.6,1.6-4.1,0-5.7l-4-4C84.9,123.6,82.4,123.6,80.8,125.2z M97,109.1c-1.6,1.6-1.6,4.1,0,5.7l8.1,8.1
	c0.8,0.8,1.8,1.2,2.9,1.2c1,0,2.1-0.4,2.8-1.2c1.6-1.6,1.6-4.1,0-5.7l-8.1-8.1C101.1,107.5,98.5,107.5,97,109.1z M113.1,92.9
	c-1.6,1.6-1.6,4.1,0,5.7l4,4c0.8,0.8,1.8,1.2,2.9,1.2c1,0,2.1-0.4,2.8-1.2c1.6-1.6,1.6-4.1,0-5.7l-4-4
	C117.2,91.3,114.7,91.3,113.1,92.9z"/>
</svg>
