<?xml version="1.0" encoding="utf-8"?>
<!-- Generator: Adobe Illustrator 25.2.3, SVG Export Plug-In . SVG Version: 6.00 Build 0)  -->
<svg version="1.1" id="圖層_1" xmlns="http://www.w3.org/2000/svg" xmlns:xlink="http://www.w3.org/1999/xlink" x="0px" y="0px"
	 viewBox="0 0 240 240" style="enable-background:new 0 0 240 240;" xml:space="preserve">
<style type="text/css">
	.st0{fill:#FFFFFF;}
</style>
<g>
	<path class="st0" d="M67.5,79.6v48.4c0,1.1,0.5,2.2,1.3,3c6.8,6.3,10.8,17.2,10.8,29.3c0,2.2,1.8,4,4,4h72.6c2.2,0,4-1.8,4-4
		c0-13.7,2.5-20.3,11-29.6c0.7-0.7,1.1-1.7,1.1-2.7V79.6c0-2.2-1.8-4-4-4H71.6C69.3,75.6,67.5,77.4,67.5,79.6z M75.6,83.7h88.8v42.8
		c-8.3,9.3-11.5,17.1-12,29.8H87.6c-0.8-12.1-5-22.8-12-30V83.7z"/>
	<path class="st0" d="M159.4,126.1c0.6-0.7,0.9-1.6,0.9-2.6V91.7c0-2.2-1.8-4-4-4h-28.2c-2.2,0-4,1.8-4,4c0,2.2,1.8,4,4,4h24.2v8.1
		H83.7v19.4c4.8,5.8,8.2,13,10.1,21.1c-1.8,0.4-3.1,1.9-3.1,3.9c0,2.2,1.8,4,4,4H145c2,0,3.7-1.5,4-3.4
		C150.3,140.2,153.4,133.4,159.4,126.1z M120,122l-14.1,14.1L91.7,122l14.1-14.1L120,122z M134.1,120l14.1,14.1l-14.1,14.1
		L120,134.1L134.1,120z"/>
</g>
</svg>
