<?xml version="1.0" encoding="utf-8"?>
<!-- Generator: Adobe Illustrator 25.2.1, SVG Export Plug-In . SVG Version: 6.00 Build 0)  -->
<svg version="1.1" id="圖層_1" xmlns="http://www.w3.org/2000/svg" xmlns:xlink="http://www.w3.org/1999/xlink" x="0px" y="0px"
	 viewBox="0 0 240 240" style="enable-background:new 0 0 240 240;" xml:space="preserve">
<style type="text/css">
	.st0{fill:#1B3372;}
</style>
<path class="st0" d="M164,97.6c5.2-3.6,8.1-8.7,8.1-14.2c0-9.7-7.9-17.5-17.5-17.5c-6.4,0-12,1.9-14.7,4.9c-0.4,0.4-0.8,0.8-1.2,1.1
	c-1.3,1-2.9,1.5-4.5,1.5c-1.5,0-3-0.5-4.4-1.4c-2.3-1.6-4.1-2-8.7-2c-7.9,0-15.4,5.6-17.6,13c-0.6,2-1.9,3.7-3.8,4.7
	c-1.1,0.6-2.3,0.9-3.5,0.9c-0.8,0-1.6-0.2-2.4-0.4l-0.2-0.1c-2.8-0.9-4.2-1.4-6-1.4c-12,0-21.7,9.8-21.7,21.7c0,7.2,4.7,12.7,8.7,16
	c2.5,2.1,3.4,5.6,2.2,8.7c-0.8,2-2.4,6-2.4,8.8c0,5.1,1.8,9.7,4.6,13.4c5.1-6.8,10.9-13.9,17-21l-14.4-28.9
	c-0.9-1.9-0.2-4.1,1.7-5.1c1.9-0.9,4.2-0.2,5.1,1.7l13,26.1c5.8-6.6,11.9-13.1,17.8-19.1l-3.8-23.6c-0.3-2.1,1.1-4,3.2-4.4
	c2.1-0.3,4,1.1,4.4,3.2l2.9,18.2c4.3-4.3,8.5-8.2,12.3-11.7v-9.7c0-2.1,1.7-3.8,3.8-3.8c2.1,0,3.8,1.7,3.8,3.8v3.3
	c3.9-3.1,7.2-5.4,9.7-6.7c1.9-0.9,4.2-0.2,5.1,1.7c0.9,1.9,0.2,4.1-1.7,5.1c-3.3,1.7-8.3,5.4-14.1,10.6c-0.1,0.1-0.2,0.2-0.2,0.2
	c-6.1,5.4-13.2,12.3-20.6,20h21.9c2.1,0,3.8,1.7,3.8,3.8c0,2.1-1.7,3.8-3.8,3.8h-28.6c-0.2,0-0.3-0.1-0.4-0.1
	c-3.8,4.1-7.7,8.4-11.5,12.7l22.6,6.5c2,0.6,3.2,2.7,2.6,4.7c-0.5,1.7-2,2.8-3.6,2.8c-0.3,0-0.7-0.1-1.1-0.2l-26-7.5
	c-5.4,6.4-10.5,12.8-15,18.7c3.3,2.1,7.2,3.3,11.4,3.3c0.5,0,1.9-0.5,3.3-1.5c1.4-1,3-1.5,4.5-1.5c0.3,0,0.5,0,0.8,0
	c1.8,0.2,3.5,1,4.8,2.4c3.1,3.3,9.3,8.9,15.9,8.9c11.8,0,21.4-9.4,21.7-21.2c-0.1-0.1-0.1-0.3-0.2-0.5c-0.4-1-0.9-2.2-1.1-3.8
	c-0.3-2,0.2-4,1.4-5.6c1.2-1.6,3-2.7,5-3c7.8-1.2,15.9-7.9,15.9-17c0-4.1-2-8.6-5.2-12.1c-1.5-1.6-2.2-3.8-2-6
	C161,100.8,162.2,98.8,164,97.6z M103.8,168.3c-2.1,1.6-5.2,3-7.8,3c-5.8,0-11.3-1.8-15.8-4.7c-2.8,4-5.2,7.7-7.2,11.1
	c-0.7,1.2-2,1.9-3.3,1.9c-0.6,0-1.3-0.1-1.9-0.5c-1.8-1.1-2.4-3.4-1.4-5.2c2.1-3.8,4.9-7.9,7.9-12.3c-4.7-5.2-7.6-12.1-7.6-19.7
	c0-3.9,1.6-8.3,3-11.7c-6.4-5.4-11.4-12.8-11.4-21.8c0-16.2,13.1-29.3,29.3-29.3c3.3,0,5.7,0.9,8.7,1.9c3-10.5,13.4-18.6,24.8-18.6
	c5.4,0,9,0.5,13.1,3.4c4.6-5.4,12.8-7.6,20.4-7.6c13.8,0,25.1,11.2,25.1,25.1c0,8.6-4.8,15.9-11.4,20.4c4.1,4.5,7.2,10.7,7.2,17.3
	c0,12.6-10.3,22.6-22.4,24.5c0.2,1.5,1.4,3.3,1.4,4.8c0,16.2-13.1,29.3-29.3,29.3C116.8,179.7,109.2,174.1,103.8,168.3z M98.7,151.9
	c6.8-1.8,14.2,0.3,19,5.4c2,2.2,4.7,3.4,7.6,3.4c5.7,0,10.4-4.7,10.4-10.4c0-0.4-0.1-0.9-0.1-1.6c-0.8-5.1,0.4-10.1,3.4-14.2
	c3-4,7.5-6.8,12.4-7.6c3-0.5,5.2-3,5.2-6c0-1.6-0.6-3-1.7-4.1c-3.7-4.1-5.5-9.5-4.9-14.9s3.5-10.4,8-13.5c0.7-0.5,1.4-0.7,2.2-0.7
	c1.2,0,2.4,0.6,3.1,1.7c1.2,1.7,0.8,4.1-0.9,5.3c-2.7,1.9-4.5,4.8-4.9,8.1c-0.3,3.3,0.7,6.5,3,8.9c1.7,1.8,3.7,4.9,3.7,9.3
	c0,6.7-5,12.5-11.7,13.6c-3,0.5-5.7,2.1-7.4,4.5c-1.8,2.5-2.5,5.5-2.1,8.5c0.2,1.1,0.3,2,0.3,2.7c0,9.9-8,17.9-17.9,17.9
	c-5,0-9.7-2.1-13.1-5.8c-1.9-2.1-4.6-3.3-7.4-3.6c-1.3-0.2-2.7,0-3.9,0.3c-1.6,0.5-3.2,0.7-4.8,0.7c-2.1,0-3.8-1.7-3.8-3.8
	c0-2.1,1.7-3.8,3.8-3.8C96.8,152.4,97.7,152.2,98.7,151.9z"/>
</svg>
