<?xml version="1.0" encoding="utf-8"?>
<!-- Generator: Adobe Illustrator 25.2.3, SVG Export Plug-In . SVG Version: 6.00 Build 0)  -->
<svg version="1.1" id="圖層_1" xmlns="http://www.w3.org/2000/svg" xmlns:xlink="http://www.w3.org/1999/xlink" x="0px" y="0px"
	 viewBox="0 0 240 240" style="enable-background:new 0 0 240 240;" xml:space="preserve">
<style type="text/css">
	.st0{fill:#FFFFFF;}
</style>
<path class="st0" d="M142,62.2c2.1,1.3,4.1,2.9,5.9,4.5c22.2,16.6,34.6,40.5,34.6,62.5c0,10.6-2.9,20.8-8.8,29.5
	c-8.9,13-22.8,22.1-38.1,24.9c-3.4,0.6-6.8,0.9-10.1,0.9c-10.2,0-20-2.9-28.1-8.6c-8.7-6.4-16.8-13.4-23.9-20.9
	c-19.1-16.2-21.5-47.7-4.7-72.5C86,57,118.9,48,142,62.2z M78.5,148.7c0.1,0.1,0.2,0.2,0.4,0.4c0.8,0.7,1.7,1.4,2.5,2
	c18.3,12.5,45.6,4.6,62.2-18.2c9-12.2,12.6-26.8,10.1-40c-2-10.2-7.7-18.7-15.9-23.8c-6.1-3.8-13.1-5.6-20.3-5.6
	c-15.5,0-31.8,8.5-42,23.5c-14.2,21-12.9,47.4,2.5,61.2C78.1,148.3,78.4,148.5,78.5,148.7z M134.1,175.7
	c13.2-2.4,25.2-10.2,32.9-21.5c11.9-17.4,9.1-41.6-5.3-61.9c2.7,15.1-1.5,31.6-11.5,45.4c-12.9,17.6-31.6,27.4-49.1,27.4
	c-1.7,0-3.5-0.1-5.2-0.3c2,1.6,4.1,3.2,6.2,4.7C111,175.6,122.4,177.8,134.1,175.7z M117.4,67.6c6.7,0,13,1.7,18.2,5
	c9.4,5.8,12.9,14.7,14.1,21.1c2.3,12.1-1.1,25.5-9.3,36.8c-10.1,13.8-25.2,22.4-39.4,22.4c-6.5,0-12.3-1.8-17.4-5.2
	c-16.4-11.3-18.7-38-4.9-58.4C87.9,75.9,102.7,67.6,117.4,67.6z M101,144.8c11.6,0,24.2-7.3,32.8-19.1c7-9.5,9.8-20.6,7.9-30.5
	c-0.9-4.8-3.5-11.5-10.4-15.8c-4-2.5-8.8-3.8-14-3.8c-12.1,0-24.3,6.9-31.9,18.2c-11.3,16.7-10,38.3,2.8,47.1
	C92,143.5,96.2,144.8,101,144.8z"/>
</svg>
