<?xml version="1.0" encoding="utf-8"?>
<!-- Generator: Adobe Illustrator 25.2.1, SVG Export Plug-In . SVG Version: 6.00 Build 0)  -->
<svg version="1.1" id="圖層_1" xmlns="http://www.w3.org/2000/svg" xmlns:xlink="http://www.w3.org/1999/xlink" x="0px" y="0px"
	 viewBox="0 0 240 240" style="enable-background:new 0 0 240 240;" xml:space="preserve">
<style type="text/css">
	.st0{fill:#1B3372;}
</style>
<g>
	<path class="st0" d="M113.9,184.6h60.5c2.2,0,4-1.8,4-4v-68.6c0-2.2-1.8-4-4-4h-20.2v-5.5c19.8-5.2,20.2-22.5,20.2-22.8
		c0-2.2-1.8-4-4-4h-12.2c-0.7-11.5-7.4-20.2-16-20.2s-15.3,8.7-16,20.2h-12.2c-2.2,0-4,1.8-4,4c0,0.2,0.3,17.6,20.2,22.8v5.5H118
		v8.1h16.2c2.2,0,4-1.8,4-4v-8.3c1.3,0.1,2.6,0.2,4,0.2s2.7-0.1,4-0.2v8.3c0,2.2,1.8,4,4,4h20.2v60.5h-56.5V184.6z M150.1,75.6
		h-15.9c0.6-7.2,4.4-12.1,7.9-12.1C145.7,63.5,149.5,68.4,150.1,75.6z M165.6,83.7c-1.7,4.8-7,12.1-23.4,12.1
		c-16.5,0-21.7-7.3-23.4-12.1h15.3h16.1H165.6z"/>
	<path class="st0" d="M158.3,132.1v-4h-8.1c-2.2,0-4-1.8-4-4s1.8-4,4-4h12.1c2.2,0,4,1.8,4,4v44.4c0,2.2-1.8,4-4,4H122
		c-2.2,0-4-1.8-4-4s1.8-4,4-4h36.3v-28.2H118v-4L158.3,132.1L158.3,132.1z"/>
	<path class="st0" d="M89.7,148.3c0-2.2,1.8-4,4-4c2.2,0,4,1.8,4,4v4v4v12.1c0,2.2-1.8,4-4,4H81.7c-2.2,0-4-1.8-4-4s1.8-4,4-4h8.1
		v-8.1H77.6v-4h12.1V148.3z"/>
	<path class="st0" d="M61.5,116c0,4.5,1.6,11.1,6.2,16.3c-1.2,0.3-2.2,1.4-2.2,2.7v44c0,3.1,2.5,5.6,5.6,5.6h33.2
		c3.1,0,5.6-2.5,5.6-5.6v-44c0-0.4-0.1-0.8-0.2-1.1c-0.3-0.8-1.1-1.4-2-1.6c4.6-5.2,6.2-11.8,6.2-16.3c0-2.2-1.8-4-4-4H65.5
		C63.3,111.9,61.5,113.7,61.5,116z M70.1,120h35.2c-1.3,4.8-5.2,12.1-17.6,12.1C75.4,132.1,71.4,124.8,70.1,120z M73.6,140.2h28.3
		v36.3H73.6V140.2z"/>
</g>
</svg>
