<?xml version="1.0" encoding="utf-8"?>
<!-- Generator: Adobe Illustrator 25.2.1, SVG Export Plug-In . SVG Version: 6.00 Build 0)  -->
<svg version="1.1" id="圖層_1" xmlns="http://www.w3.org/2000/svg" xmlns:xlink="http://www.w3.org/1999/xlink" x="0px" y="0px"
	 viewBox="0 0 240 240" style="enable-background:new 0 0 240 240;" xml:space="preserve">
<style type="text/css">
	.st0{fill:#1B3372;}
</style>
<g>
	<g>
		<g>
			<path class="st0" d="M184.7,158.6h-30.3c-0.6,0-1.1-0.5-1.1-1.1s0.5-1.1,1.1-1.1h29.2V61.9H56.3v94.6h29.2c0.6,0,1.1,0.5,1.1,1.1
				s-0.5,1.1-1.1,1.1H55.3c-0.6,0-1.1-0.5-1.1-1.1V60.8c0-0.6,0.5-1.1,1.1-1.1h129.5c0.6,0,1.1,0.5,1.1,1.1v96.7
				C185.8,158.1,185.3,158.6,184.7,158.6z"/>
		</g>
		<g>
			<path class="st0" d="M183.9,83.2H106c-0.2,0-0.4-0.1-0.6-0.2L96,77H56.4c-0.6,0-1.1-0.5-1.1-1.1c0-0.6,0.5-1.1,1.1-1.1h39.9
				c0.2,0,0.4,0.1,0.6,0.2l9.4,6.1h77.5c0.6,0,1.1,0.5,1.1,1.1C184.9,82.8,184.5,83.2,183.9,83.2z"/>
		</g>
		<g>
			<path class="st0" d="M164.7,73.2h-4.3c-0.6,0-1.1-0.5-1.1-1.1c0-0.6,0.5-1.1,1.1-1.1h4.3c0.6,0,1.1,0.5,1.1,1.1
				C165.7,72.7,165.2,73.2,164.7,73.2z"/>
		</g>
		<g>
			<path class="st0" d="M171.8,73.2h-4.3c-0.6,0-1.1-0.5-1.1-1.1c0-0.6,0.5-1.1,1.1-1.1h4.3c0.6,0,1.1,0.5,1.1,1.1
				C172.9,72.7,172.4,73.2,171.8,73.2z"/>
		</g>
		<g>
			<path class="st0" d="M179,73.2h-4.3c-0.6,0-1.1-0.5-1.1-1.1c0-0.6,0.5-1.1,1.1-1.1h4.3c0.6,0,1.1,0.5,1.1,1.1
				C180.1,72.7,179.6,73.2,179,73.2z"/>
		</g>
		<g>
			<g>
				<path class="st0" d="M122.7,180.3h-5.5c-0.5,0-1-0.4-1.1-0.9l-1.5-9.8c-1.5-0.3-3-0.7-4.4-1.2l-6.2,7.7
					c-0.3,0.4-0.9,0.5-1.4,0.3l-4.7-2.7c-0.5-0.3-0.7-0.8-0.5-1.3l3.6-9.2c-1.1-1-2.2-2.1-3.2-3.2l-9.2,3.6c-0.5,0.2-1.1,0-1.3-0.5
					l-2.7-4.8c-0.3-0.5-0.2-1.1,0.3-1.4l7.7-6.1c-0.5-1.5-0.9-2.9-1.2-4.4l-9.8-1.5c-0.5-0.1-0.9-0.5-0.9-1.1v-2.7
					c0-0.6,0.5-1.1,1.1-1.1s1.1,0.5,1.1,1.1v1.8l9.6,1.5c0.5,0.1,0.8,0.4,0.9,0.9c0.3,1.9,0.8,3.7,1.5,5.5c0.2,0.4,0,0.9-0.3,1.2
					l-7.6,6l1.8,3.1l9.1-3.6c0.4-0.2,0.9,0,1.2,0.3c1.2,1.5,2.6,2.9,4,4.1c0.4,0.3,0.5,0.8,0.3,1.2l-3.6,9.1l3.1,1.8l6.1-7.6
					c0.3-0.4,0.8-0.5,1.2-0.3c1.8,0.7,3.7,1.2,5.5,1.5c0.5,0.1,0.8,0.4,0.9,0.9l1.4,9.6h3.6l1.4-9.6c0.1-0.5,0.4-0.8,0.9-0.9
					c1.9-0.3,3.7-0.8,5.5-1.5c0.4-0.2,0.9,0,1.2,0.3l6.1,7.6l3.1-1.8l-3.6-9.1c-0.2-0.4,0-0.9,0.3-1.2c1.4-1.2,2.8-2.5,4.1-4.1
					c0.3-0.4,0.8-0.5,1.2-0.3l9.1,3.6l1.8-3.1l-7.6-6.1c-0.4-0.3-0.5-0.8-0.3-1.2c0.7-1.8,1.2-3.6,1.5-5.5c0.1-0.5,0.4-0.8,0.9-0.9
					l9.6-1.5v-1.8c0-0.6,0.5-1.1,1.1-1.1c0.6,0,1.1,0.5,1.1,1.1v2.7c0,0.5-0.4,1-0.9,1.1l-9.8,1.5c-0.3,1.5-0.7,3-1.2,4.4l7.7,6.1
					c0.4,0.3,0.5,0.9,0.3,1.4l-2.7,4.8c-0.3,0.5-0.8,0.7-1.3,0.5l-9.2-3.6c-1,1.2-2.1,2.3-3.2,3.2l3.6,9.2c0.2,0.5,0,1.1-0.5,1.3
					l-4.7,2.7c-0.5,0.3-1.1,0.2-1.4-0.3l-6.2-7.7c-1.4,0.5-2.9,0.9-4.4,1.2l-1.5,9.8C123.7,179.9,123.3,180.3,122.7,180.3z
					 M120,156.2c-8.3,0-15.1-6.8-15.1-15.1c0-0.6,0.5-1.1,1.1-1.1s1.1,0.5,1.1,1.1c0,7.1,5.8,12.9,12.9,12.9s12.9-5.8,12.9-12.9
					c0-0.6,0.5-1.1,1.1-1.1c0.6,0,1.1,0.5,1.1,1.1C135.1,149.4,128.3,156.2,120,156.2z"/>
			</g>
		</g>
		<g>
			<path class="st0" d="M170,142.2H70c-0.6,0-1.1-0.5-1.1-1.1c0-0.6,0.5-1.1,1.1-1.1h100c0.6,0,1.1,0.5,1.1,1.1
				C171.1,141.7,170.6,142.2,170,142.2z"/>
		</g>
		<g>
			<path class="st0" d="M138.9,96.3H86c-0.6,0-1.1-0.5-1.1-1.1s0.5-1.1,1.1-1.1h52.9c0.6,0,1.1,0.5,1.1,1.1
				C139.9,95.8,139.5,96.3,138.9,96.3z"/>
		</g>
		<g>
			<path class="st0" d="M154,96.3h-8.6c-0.6,0-1.1-0.5-1.1-1.1s0.5-1.1,1.1-1.1h8.6c0.6,0,1.1,0.5,1.1,1.1
				C155.1,95.8,154.6,96.3,154,96.3z"/>
		</g>
		<g>
			<path class="st0" d="M127.6,104.8H86c-0.6,0-1.1-0.5-1.1-1.1s0.5-1.1,1.1-1.1h41.7c0.6,0,1.1,0.5,1.1,1.1
				S128.2,104.8,127.6,104.8z"/>
		</g>
		<g>
			<path class="st0" d="M154,104.8h-8.6c-0.6,0-1.1-0.5-1.1-1.1s0.5-1.1,1.1-1.1h8.6c0.6,0,1.1,0.5,1.1,1.1S154.6,104.8,154,104.8z"
				/>
		</g>
		<g>
			<path class="st0" d="M139.1,104.8h-6c-0.6,0-1.1-0.5-1.1-1.1s0.5-1.1,1.1-1.1h6c0.6,0,1.1,0.5,1.1,1.1S139.7,104.8,139.1,104.8z"
				/>
		</g>
		<g>
			<path class="st0" d="M154,112.5h-41.7c-0.6,0-1.1-0.5-1.1-1.1s0.5-1.1,1.1-1.1H154c0.6,0,1.1,0.5,1.1,1.1
				C155.1,112,154.6,112.5,154,112.5z"/>
		</g>
		<g>
			<path class="st0" d="M94.6,112.5H86c-0.6,0-1.1-0.5-1.1-1.1s0.5-1.1,1.1-1.1h8.6c0.6,0,1.1,0.5,1.1,1.1
				C95.7,112,95.2,112.5,94.6,112.5z"/>
		</g>
		<g>
			<path class="st0" d="M106.9,112.5h-6c-0.6,0-1.1-0.5-1.1-1.1s0.5-1.1,1.1-1.1h6c0.6,0,1.1,0.5,1.1,1.1
				C108,112,107.5,112.5,106.9,112.5z"/>
		</g>
		<g>
			<path class="st0" d="M154,120.9h-52.1c-0.6,0-1.1-0.5-1.1-1.1s0.5-1.1,1.1-1.1H154c0.6,0,1.1,0.5,1.1,1.1S154.6,120.9,154,120.9z
				"/>
		</g>
		<g>
			<path class="st0" d="M94.6,120.9H86c-0.6,0-1.1-0.5-1.1-1.1s0.5-1.1,1.1-1.1h8.6c0.6,0,1.1,0.5,1.1,1.1S95.2,120.9,94.6,120.9z"
				/>
		</g>
		<g>
			<path class="st0" d="M127.6,129.1H86c-0.6,0-1.1-0.5-1.1-1.1s0.5-1.1,1.1-1.1h41.7c0.6,0,1.1,0.5,1.1,1.1
				C128.7,128.6,128.2,129.1,127.6,129.1z"/>
		</g>
		<g>
			<path class="st0" d="M154,129.1h-8.6c-0.6,0-1.1-0.5-1.1-1.1s0.5-1.1,1.1-1.1h8.6c0.6,0,1.1,0.5,1.1,1.1
				C155.1,128.6,154.6,129.1,154,129.1z"/>
		</g>
		<g>
			<path class="st0" d="M139.1,129.1h-6c-0.6,0-1.1-0.5-1.1-1.1s0.5-1.1,1.1-1.1h6c0.6,0,1.1,0.5,1.1,1.1
				C140.2,128.6,139.7,129.1,139.1,129.1z"/>
		</g>
	</g>
</g>
</svg>
