<?xml version="1.0" encoding="utf-8"?>
<!-- Generator: Adobe Illustrator 25.2.1, SVG Export Plug-In . SVG Version: 6.00 Build 0)  -->
<svg version="1.1" id="圖層_1" xmlns="http://www.w3.org/2000/svg" xmlns:xlink="http://www.w3.org/1999/xlink" x="0px" y="0px"
	 viewBox="0 0 240 240" style="enable-background:new 0 0 240 240;" xml:space="preserve">
<style type="text/css">
	.st0{fill:#1B3372;}
</style>
<path class="st0" d="M136.6,141.7c0,0,0-0.1,0-0.1c0.1-9,8.2-21.2,12.6-25.7c5.9-8.4,2.2-17.1-2.7-22.2c-5.5-5.6-14.7-8.6-22.9-2.8
	c-0.5,0.3-1.2,0.8-1.9,1.4c-7.6,5.3-16.2,10.9-23.3,10.9c-9.8,0.4-18.5,4.7-24.7,11.3c-6.3,6.6-10.1,15.5-10.1,25.3
	c0,20.2,16.4,36.6,36.6,36.6C119.6,176.4,135.6,161.2,136.6,141.7z M170.7,97.9c3.2-2.3,5.2-5.5,5.7-8.8c-3.4-3.5-7.4-5.4-11.6-5.5
	c-4-0.2-8.2,1.7-11.9,5.2c3,3.2,5.4,7.3,6.6,11.7C163.3,101.2,167.4,100.3,170.7,97.9z M117,85.7c0.8-0.6,1.6-1.1,2.1-1.4
	c8.8-6.2,18.4-5.5,26-1.5c1.4-4.5,4.4-9.2,9-13.8c6.7-6.7,17.4-13.5,26.2-13.5c0,0,0,0,0.1,0c2.2,0,4,1.8,4,4c0,2.2-1.8,4-4,4h0
	c-5.4,0-14.1,4.7-20.5,11.1c-0.6,0.6-1.2,1.2-1.7,1.8c2.6-0.8,4.9-1,6.9-1c6.9,0.1,13.6,3.5,18.6,9.5c0.6,0.8,1,1.7,1,2.7
	c0,6.4-3.5,12.7-9.2,16.8c-4,2.9-8.7,4.4-13.4,4.4c-0.6,0-1.2-0.1-1.8-0.2c-0.4,4-1.7,8.2-4.6,12.2c-0.2,0.2-0.3,0.4-0.4,0.5
	c-3.6,3.6-10.4,14.3-10.4,20.4c0,0.1,0,0.1,0,0.2c-1.1,23.8-20.7,42.5-44.6,42.5c-24.6,0-44.7-20.1-44.7-44.7
	c0-23.9,18.7-43.5,42.7-44.6C103.5,95.2,112.9,88.5,117,85.7z M75.6,139.8c0,13.5,11,24.5,24.5,24.5c13,0,23.8-10.2,24.5-23
	c0.2-12.9,9.8-26.9,15.1-32.8c0.5-0.9,0.8-2.1-0.1-4c-1-2-0.2-4.4,1.7-5.5s4.4-0.2,5.4,1.7c2.1,4.2,2,8.5-0.4,12.3
	c-0.1,0.2-0.3,0.4-0.4,0.6c-5.1,5.5-13.1,17.9-13.2,28c-0.9,17.3-15.2,30.8-32.5,30.8c-18,0-32.6-14.6-32.6-32.6c0-2.2,1.8-4,4-4
	C73.8,135.8,75.6,137.6,75.6,139.8z"/>
</svg>
