<?xml version="1.0" encoding="utf-8"?>
<!-- Generator: Adobe Illustrator 25.2.1, SVG Export Plug-In . SVG Version: 6.00 Build 0)  -->
<svg version="1.1" id="圖層_1" xmlns="http://www.w3.org/2000/svg" xmlns:xlink="http://www.w3.org/1999/xlink" x="0px" y="0px"
	 viewBox="0 0 240 240" style="enable-background:new 0 0 240 240;" xml:space="preserve">
<style type="text/css">
	.st0{fill:#1B3372;}
</style>
<g>
	<path class="st0" d="M59.5,79.6c0,13.3,10.9,24.2,24.2,24.2c0.1,0,0.2,0,0.4,0c3.4,6.9,8.7,10.9,16,11.9
		c1.6,11.3,10.4,18.5,19.9,20.1v25.8c-11.1,4.6-16.1,12.8-16.1,18.9c0,2.2,1.8,4,4,4h44.4c2.2,0,4-1.8,4-4c0-6.1-5.1-14.3-16.1-18.9
		v-25.8c9.5-1.6,18.3-8.8,19.9-20.1c13.6-1.8,20.4-13.9,20.4-36.1c0-2.2-1.8-4-4-4h-69c-1.9-11.4-11.9-20.2-23.8-20.2
		C70.3,55.4,59.5,66.3,59.5,79.6z M87.8,83.7h84.6c-0.4,12-3.2,24.2-16.1,24.2c-2.2,0-4,1.8-4,4c0,10.1-8.2,16.1-16.1,16.1
		c-2.2,0-4,1.8-4,4v32.3c0,1.7,1.1,3.3,2.8,3.8c6.4,2.1,10.1,5.5,11.9,8.3h-33.3c1.8-2.8,5.5-6.1,11.9-8.3c1.7-0.6,2.8-2.1,2.8-3.8
		v-32.3c0-2.2-1.8-4-4-4c-7.9,0-16.2-6-16.2-16.1c0-2.2-1.8-4-4-4C91,107.9,88.2,95.7,87.8,83.7z M79.6,79.6
		c0,6.1,0.5,11.3,1.6,15.9c-7.7-1.2-13.7-7.8-13.7-15.9c0-8.9,7.2-16.2,16.2-16.2c7.5,0,13.8,5.2,15.6,12.1H83.7
		C81.4,75.6,79.6,77.4,79.6,79.6z"/>
	<circle class="st0" cx="103.9" cy="95.8" r="4"/>
	<path class="st0" d="M120,103.8c0-2.2,1.8-4,4-4s4,1.8,4,4s-1.8,4-4,4S120,106.1,120,103.8z"/>
	<path class="st0" d="M120,111.9c2.2,0,4,1.8,4,4s-1.8,4-4,4s-4-1.8-4-4C116,113.7,117.8,111.9,120,111.9z"/>
	<path class="st0" d="M164.4,87.9c2.1,0.5,3.4,2.6,3,4.7c-2.1,10.1-7.3,11.3-11.1,11.3c-4.4,0-8.1,3.6-8.1,8.1
		c0,7.6-6.2,12.1-12.1,12.1c-2.2,0-4-1.8-4-4s1.8-4,4-4c1.4,0,4-0.8,4-4c0-8.9,7.2-16.2,16.1-16.2c1.1,0,2.1,0,3-4h-47.4v-4h52.5
		V87.9z"/>
</g>
</svg>
