<?xml version="1.0" encoding="utf-8"?>
<!-- Generator: Adobe Illustrator 25.2.1, SVG Export Plug-In . SVG Version: 6.00 Build 0)  -->
<svg version="1.1" id="圖層_1" xmlns="http://www.w3.org/2000/svg" xmlns:xlink="http://www.w3.org/1999/xlink" x="0px" y="0px"
	 viewBox="0 0 240 240" style="enable-background:new 0 0 240 240;" xml:space="preserve">
<style type="text/css">
	.st0{fill:#1B3372;}
</style>
<path class="st0" d="M81.8,184.6c-9.7,0-17.7-5.3-22.1-12.2c-6.8-10.6-6.8-27.4,9.4-39.1c2.7-2.4,5.1-4.6,7.5-6.7
	c-0.6-0.7-1-1.5-1-2.5c0-2.3,1.8-4,4-4c1.2,0,2.2,0.5,2.9,1.2c3.3-2.9,6.4-5.6,9.2-8.1c3-2.6,5.8-5.1,8.6-7.5
	c-0.3-0.6-0.5-1.2-0.5-1.9c0-2.3,1.8-4,4-4c0.8,0,1.6,0.3,2.2,0.7c6-5.4,11.9-11.1,18.9-18.4c-0.6-0.7-0.9-1.5-0.9-2.5
	c0-2.3,1.8-4,4-4c0.8,0,1.6,0.3,2.3,0.8c2.1-2.3,4.3-4.7,6.7-7.3c13-16.5,27.7-15.6,36.2-9.8c10.1,6.9,15.9,22.7,6.8,38.5
	c-3.6,6.6-7.1,12.7-10.7,18.4c1.8,0.4,3.2,1.9,3.2,3.9c0,2.2-1.8,4-4,4c-1.3,0-2.4-0.7-3.2-1.7c-5.8,8.6-11.9,16.1-18.4,22.9
	c0.9,0.7,1.4,1.8,1.4,3c0,2.2-1.8,4-4,4c-1.2,0-2.3-0.6-3.1-1.5c-7.7,7.1-16.2,13.4-25.9,19.4c0.4,0.6,0.8,1.4,0.8,2.3
	c0,2.2-1.8,4-4,4c-1.6,0-2.9-0.9-3.5-2.3c-3.4,1.9-6.9,3.8-10.6,5.8C92.2,183.2,86.8,184.6,81.8,184.6z M74.3,139.4
	c-0.1,0.1-0.2,0.2-0.3,0.3c-12.1,8.8-12.5,20.5-7.5,28.4c4.8,7.5,15.1,11.9,27.4,4.9c37.7-19.4,57.7-39.3,79-79.1c0,0,0-0.1,0.1-0.1
	c6.7-11.5,2.8-22.9-4.3-27.8c-2.2-1.5-4.9-2.4-7.9-2.4c-5.2,0-11.5,2.9-17.6,10.7c-20,22.2-31,31.8-46.1,45
	C90.7,124.8,83.4,131.1,74.3,139.4z M71.5,148.2c-2.2,0-4,1.8-4,4c0,2.2,1.8,4,4,4s4-1.8,4-4C75.6,150,73.8,148.2,71.5,148.2z
	 M79.6,164.4c-2.2,0-4,1.8-4,4c0,2.2,1.8,4,4,4c2.9,0,8.6-0.9,12.2-3l0.4-0.2c37.2-19.2,56.1-37.9,77.2-77.3l0.2-0.3
	c2.5-4.2,3.5-8.6,2.9-12.6c-0.3-2.2-2.4-3.8-4.6-3.4c-2.2,0.3-3.7,2.4-3.4,4.6c0.3,2.1-0.3,4.8-1.9,7.4l-0.2,0.4
	c-20.3,37.8-38.3,55.7-73.9,74.1l-0.6,0.3C85.7,163.6,81.6,164.4,79.6,164.4z M91.7,144.2c-2.2,0-4,1.8-4,4c0,2.2,1.8,4,4,4
	s4-1.8,4-4C95.8,146,93.9,144.2,91.7,144.2z M95.8,128.1c-2.2,0-4,1.8-4,4c0,2.2,1.8,4,4,4s4-1.8,4-4
	C99.8,129.8,98,128.1,95.8,128.1z M115.9,128.1c-2.2,0-4,1.8-4,4c0,2.2,1.8,4,4,4s4-1.8,4-4C120,129.8,118.2,128.1,115.9,128.1z
	 M120,107.9c-2.2,0-4,1.8-4,4c0,2.2,1.8,4,4,4s4-1.8,4-4C124,109.7,122.2,107.9,120,107.9z M140.2,103.8c-2.2,0-4,1.8-4,4
	c0,2.2,1.8,4,4,4s4-1.8,4-4C144.2,105.6,142.4,103.8,140.2,103.8z M144.2,83.7c-2.2,0-4,1.8-4,4c0,2.2,1.8,4,4,4s4-1.8,4-4
	C148.2,85.4,146.4,83.7,144.2,83.7z"/>
</svg>
