<?xml version="1.0" encoding="utf-8"?>
<!-- Generator: Adobe Illustrator 25.2.1, SVG Export Plug-In . SVG Version: 6.00 Build 0)  -->
<svg version="1.1" id="圖層_1" xmlns="http://www.w3.org/2000/svg" xmlns:xlink="http://www.w3.org/1999/xlink" x="0px" y="0px"
	 viewBox="0 0 240 240" style="enable-background:new 0 0 240 240;" xml:space="preserve">
<style type="text/css">
	.st0{fill:#1B3372;}
</style>
<g>
	<g id="PDPLib.tif_1_">
		<g>
			<path class="st0" d="M128.5,182.1c-5.5,0.1-10.9-0.4-16.2-1.4c-2.8-0.5-5.6-0.8-8.4-1.1c-4.3-0.5-8.6-0.9-12.8-2.3
				c-6.6-2.1-11.4-6.3-14.7-12.4c-2-3.7-4.2-7.2-7-10.4c-1.5-1.7-3.1-3.2-4.6-4.9c-2.5-3-4-6.5-5.1-10.3c-0.7-2.3-1-4.7-1.2-7
				c-0.4-3.1-0.5-6.2-0.5-9.4c0.1-7.6,1.3-15.1,4.2-22.1c2.1-5.1,5.2-9.7,8.8-13.8c10.1-11.7,22.5-19.9,37.2-24.7
				c3.3-1.1,6.7-1.7,10.1-2.4c3.4-0.8,6.9-1.5,10.4-1.8c5.7-0.5,11.3-0.2,16.6,2.4c3.3,1.6,6,4,8.4,6.8c1.3,1.5,2.7,2.9,4.1,4.4
				c4,4.1,8.1,8,11.9,12.2c3.6,4,6.9,8.1,9.2,13c2.2,4.5,3.2,9.3,3,14.4c-0.3,5.1-0.6,10.2-1.4,15.3c-1,6.4-2.4,12.7-5.1,18.5
				c-1.1,2.4-2.5,4.5-4.2,6.5c-2.5,2.8-4.4,6.1-6.3,9.3c-2.3,3.9-4.6,7.8-6.8,11.7c-2.4,4.2-6,6.5-10.6,7.6
				c-4.7,1.1-9.5,1.7-14.3,1.9C131.6,182.2,130,182.1,128.5,182.1z M128.2,179.1c2.8,0,5.1-0.1,7.5-0.3c3.8-0.3,7.5-0.8,11.1-1.8
				c3.2-0.8,6.2-2.1,7.9-5.2c0.1-0.2,0.2-0.4,0.4-0.6c2.5-3.9,4.7-8,7.1-12c2-3.4,4-6.9,6.7-9.8c1.8-2,3.2-4.3,4.2-6.8
				c2.6-6,3.8-12.3,4.7-18.7c0.6-4.1,0.9-8.1,1.1-12.2c0.1-2.8,0.1-5.6-0.6-8.3c-1.1-4.3-3.3-8.2-5.9-11.7
				c-2.8-3.8-5.9-7.2-9.2-10.5c-4.2-4.2-8.5-8.4-12.5-12.9c-4.1-4.7-9.4-7-15.6-7.4c-3.3-0.2-6.5,0.1-9.8,0.6
				c-5.4,0.9-10.8,1.9-15.9,3.6C94.9,69.9,82.8,78,73,89.4c-7.5,8.7-11.2,19-11.7,30.4c-0.2,3.9-0.1,7.8,0.3,11.7
				c0.2,2.1,0.5,4.3,1,6.4c1.1,4.4,2.9,8.4,6.2,11.6c4.3,4.1,7.7,8.9,10.5,14.2c3,5.6,7.6,9.4,13.8,11.1c3.5,1,7.1,1.4,10.7,1.8
				c3.1,0.3,6.3,0.6,9.4,1.2C118.2,178.7,123.3,179.2,128.2,179.1z"/>
			<path class="st0" d="M120,89.8c-0.2,1-0.3,2.1-0.5,3.1c-0.2,0.9-0.3,1.9-0.4,2.8c-0.1,0.8-0.2,1.6-0.3,2.4
				c-0.2,1.2-0.3,2.5-0.5,3.8c-0.1,1.1-0.3,2.2-0.4,3.3c-0.2,1.3-0.3,2.6-0.5,3.8c-0.2,1.2-0.3,2.3-0.4,3.5c-0.2,1.8-0.4,3.5-1,5.2
				c-0.4,1.1-1.2,1.8-2.2,2.4c2.6,0.3,3.5,2.1,4,4.2c1.9,9.1,3.8,18.1,5.9,27.1c1,4.5,2,9,2.9,13.5c0.2,1.1,0.2,2.1-0.5,3
				c-0.7,1-1.7,1.3-2.8,1.3c-3.9-0.1-7.7-0.3-11.6-0.5c-4.3-0.2-8.6-0.8-12.7-2.2c-2-0.7-3.7-1.9-4.8-3.8c-2.1-3.5-4.9-6.4-7.9-9.2
				c-2.3-2.1-4.6-4.2-6.9-6.3c-3.4-3.2-6.3-6.8-7.9-11.2c-1-2.8-1.5-5.7-1.2-8.7c0.1-0.8,0-1.6,0.1-2.4c0.3-2.3,0.7-3.1,2.6-4.4
				c-0.8-0.3-1.4-0.9-1.7-1.7c-0.3-0.8-0.2-1.6-0.1-2.4c0.6-3,1.6-5.8,2.7-8.6c0.8-2,1.8-3.9,2.8-5.8c1.5-2.8,3.3-5.5,5.3-7.9
				c1.2-1.4,2.4-2.8,3.7-4.1c1.3-1.2,2.7-2.4,4.2-3.6c2.8-2.2,5.8-4,9-5.6c3.7-1.8,7.5-3.1,11.5-4c1.9-0.5,3.8-0.9,5.7-1.1
				c1.2-0.2,2.5-0.3,3.8-0.3c1.3,0,2.6-0.2,3.9-0.1c1.8,0.1,3.7,0.1,5.5,0.2c2.2,0.2,4.4,0.4,6.7,0.6c2.8,0.3,5.2,1.4,7.2,3.3
				c6.5,6.1,12.4,12.8,17.5,20.2c3.3,4.7,6.2,9.7,8.7,14.8c0.5,1.1,1,2.1,1,3.4c-0.1,1.1-0.5,1.8-1.6,2.3c-0.8,0.3-1.6,0.4-2.4,0.4
				c-4.6,0-9.3,0-13.9,0c-8.9,0-17.8,0-26.8,0.1c-1,0-2,0-3-0.4c-1.3-0.5-2.2-1.9-2.2-3.3c-0.6-9-0.1-17.9-0.2-26.9
				C120.1,90,120.1,89.9,120,89.8C120.1,89.8,120,89.8,120,89.8z M165,118.3c0.4,0.1,0.8,0.1,1.2,0c0.4-0.1,0.8-0.1,1.2-0.2
				c0.4,0,0.6-0.2,0.5-0.7c-0.2-0.8-0.5-1.5-0.9-2.2c-4.8-10.1-11.3-19.1-18.9-27.3c-2.2-2.3-4.2-4.7-6.7-6.8
				c-1.6-1.3-3.3-2.4-5.3-2.6c-1.9-0.2-3.9-0.4-5.8-0.5c-2-0.2-4.1-0.3-6.1-0.3c-1.5,0-2.9,0-4.4,0.1c-1.3,0.1-2.6,0.2-3.9,0.3
				c-3.4,0.4-6.7,1.3-9.9,2.5c-7.8,2.7-14.7,6.8-20.4,12.9c-0.9,1-1.8,1.9-2.5,2.9c-1.5,2-2.9,4.1-4.2,6.4
				c-2.5,4.6-4.3,9.5-5.6,14.6c-0.1,0.5,0.2,1,0.7,1.1c0.7,0.2,1.4,0.1,2.2,0.1c4.6,0,9.2-0.1,13.8-0.1c6.3,0,12.6,0,18.8,0
				c0.9,0,1.8,0,2.7-0.1c1.4-0.2,2.3-0.9,2.6-2.3c0.5-2,0.6-4.1,0.9-6.2c0.2-1.5,0.3-3.1,0.5-4.6c0.2-1.9,0.5-3.7,0.7-5.6
				c0.2-1.8,0.4-3.6,0.6-5.4c0.3-1.9,0.7-3.9,1-5.8c0.4-2.6,0.9-5.1,1.4-7.7c0.1-0.4,0.2-0.5,0.6-0.4c0.6,0.1,1.3,0.3,1.9,0.3
				c0.5,0,0.6,0.2,0.6,0.7c0,5.7,0,11.4,0,17.1c0,2.6,0,5.2,0,7.8c0,3.1-0.2,6.1,0.1,9.2c0.1,0.7,0,1.3,0.2,1.9
				c0.1,0.4,0.3,0.6,0.7,0.7c0.7,0.2,1.3,0.2,2,0.2c6.2,0,12.5-0.1,18.7-0.1C151.2,118.3,158.1,118.3,165,118.3z M94.3,123.1
				L94.3,123.1c-5.4,0-10.7,0-16.1,0c-1.2,0-2.4,0-3.6,0.2c-0.5,0.1-0.8,0.4-1,0.9c-0.2,0.8-0.2,1.5-0.3,2.3
				c-0.2,2.6-0.1,5.1,0.8,7.6c1.4,4.4,4.2,7.8,7.4,10.8c2,1.9,4.2,3.8,6.2,5.6c3.5,3.2,6.7,6.5,9.2,10.6c0.7,1.2,1.7,1.9,2.9,2.3
				c3.2,1.1,6.4,1.7,9.8,2c4.4,0.4,8.9,0.3,13.3,0.6c0.5,0,0.7-0.1,0.6-0.6c-0.6-2.8-1.1-5.6-1.7-8.4c-2.5-10.8-4.8-21.7-7.2-32.5
				c-0.3-1.3-0.5-1.5-1.8-1.5C106.6,123.1,100.5,123.1,94.3,123.1z"/>
			<path class="st0" d="M124,137.5c-0.1-3.6,1-6.5,3-9.2c1.4-1.9,3.2-3.4,5.3-4.4c6.2-3.1,13.2-1.5,17.4,4.3c1.9,2.6,2.8,5.6,3,8.8
				c0.2,2.9-0.6,5.5-1.9,8.1c-3,6.2-6,12.3-9,18.5c-0.5,0.9-0.9,1.9-1.4,2.8c-0.6,1-1.5,1.2-2.6,1c-0.9-0.2-1.4-0.8-1.7-1.7
				c-0.6-1.6-1.4-3.2-2.2-4.7c-0.5-1-1-2-1.5-3c-1.3-2.7-2.7-5.4-3.9-8.2c-1.2-2.5-2.4-5-3.6-7.6C124.3,140.6,123.9,139,124,137.5z
				 M138.5,163.3c0.1-0.3,0.2-0.4,0.3-0.6c3.1-6.5,6.3-13.1,9.5-19.5c2-4,1.8-8-0.2-11.9c-2.1-4.2-6.6-6.5-10.9-5.9
				c-7.1,1-12.8,9.2-8.9,16.8c2.6,5.1,5,10.4,7.5,15.6C136.6,159.6,137.5,161.3,138.5,163.3z"/>
		</g>
	</g>
</g>
</svg>
