<?xml version="1.0" encoding="utf-8"?>
<!-- Generator: Adobe Illustrator 25.2.3, SVG Export Plug-In . SVG Version: 6.00 Build 0)  -->
<svg version="1.1" id="圖層_1" xmlns="http://www.w3.org/2000/svg" xmlns:xlink="http://www.w3.org/1999/xlink" x="0px" y="0px"
	 viewBox="0 0 240 240" style="enable-background:new 0 0 240 240;" xml:space="preserve">
<style type="text/css">
	.st0{fill:#FFFFFF;}
</style>
<path class="st0" d="M58.4,87.9l121.1-32.3c1.3-0.4,2.8,0,3.8,1s1.4,2.4,1.1,3.8l-28.2,121.1c-0.2,1.1-0.9,2-1.9,2.5
	c-0.6,0.4-1.4,0.6-2.1,0.6c-0.3,0-0.7,0-1-0.1c-18.2-4.7-37.6-16.6-57.8-35.4C74.9,131.7,61,111.3,55.6,93c-0.3-1.1-0.2-2.2,0.3-3.2
	C56.5,88.9,57.3,88.2,58.4,87.9z M99,143.2c17.6,16.5,34.5,27.4,50.3,32.4l2.8-12.2c-2.6-0.8-5.2-1.8-7.8-2.9c0,0-0.1,0-0.2,0
	c-0.3,0-0.7,0-1-0.1c-0.9-0.2-1.6-0.8-2.1-1.4c-27-13.4-54-43.3-64.3-67.5l-12.1,3.2C70.4,110.4,83,128.3,99,143.2z M141.7,150.1
	l18.8-71.4c0.6-2.1,2.7-3.4,4.9-2.9c2.1,0.6,3.4,2.8,2.9,4.9l-19.2,72.9c1.6,0.7,3.3,1.3,4.9,1.8l21.1-90.3L84.7,89.3
	C94.2,110.6,118,137.2,141.7,150.1z M98,92.2c-2,1-2.8,3.4-1.8,5.4c0.7,1.4,2.1,2.2,3.6,2.2c0.6,0,1.2-0.1,1.8-0.4l8.1-4
	c2-1,2.8-3.4,1.8-5.4s-3.4-2.8-5.4-1.8L98,92.2z M110.1,108.4c-2,1-2.8,3.4-1.8,5.4c0.7,1.4,2.1,2.2,3.6,2.2c0.6,0,1.2-0.1,1.8-0.4
	l8.1-4c2-1,2.8-3.4,1.8-5.4s-3.4-2.8-5.4-1.8L110.1,108.4z M122.2,88.2c-2,1-2.8,3.4-1.8,5.4c0.7,1.4,2.1,2.2,3.6,2.2
	c0.6,0,1.2-0.1,1.8-0.4l8.1-4c2-1,2.8-3.4,1.8-5.4s-3.4-2.8-5.4-1.8L122.2,88.2z M126.3,124.5c-2,1-2.8,3.4-1.8,5.4
	c0.7,1.4,2.1,2.2,3.6,2.2c0.6,0,1.2-0.1,1.8-0.4l8.1-4c2-1,2.8-3.4,1.8-5.4s-3.4-2.8-5.4-1.8L126.3,124.5z M134.4,104.4
	c-2,1-2.8,3.4-1.8,5.4c0.7,1.4,2.1,2.2,3.6,2.2c0.6,0,1.2-0.1,1.8-0.4l8.1-4c2-1,2.8-3.4,1.8-5.4s-3.4-2.8-5.4-1.8L134.4,104.4z
	 M142.4,80.1c-2,1-2.8,3.4-1.8,5.4c0.7,1.4,2.1,2.2,3.6,2.2c0.6,0,1.2-0.1,1.8-0.4l8.1-4c2-1,2.8-3.4,1.8-5.4s-3.4-2.8-5.4-1.8
	L142.4,80.1z"/>
</svg>
