<?xml version="1.0" encoding="utf-8"?>
<!-- Generator: Adobe Illustrator 25.2.3, SVG Export Plug-In . SVG Version: 6.00 Build 0)  -->
<svg version="1.1" id="圖層_1" xmlns="http://www.w3.org/2000/svg" xmlns:xlink="http://www.w3.org/1999/xlink" x="0px" y="0px"
	 viewBox="0 0 240 240" style="enable-background:new 0 0 240 240;" xml:space="preserve">
<style type="text/css">
	.st0{fill:#FFFFFF;}
</style>
<g>
	<path class="st0" d="M71.9,55.3l21.6,73.6l-12.9,56c-0.3,1.3,0,2.7,0.8,3.7c0.8,1.1,2.1,1.7,3.4,1.7h70.3c1.3,0,2.6-0.6,3.4-1.7
		c0.8-1.1,1.1-2.4,0.8-3.7l-12.9-56l21.6-73.6c0.4-1.3,0.1-2.8-0.7-3.9s-2.1-1.8-3.5-1.8H76.1c-1.4,0-2.7,0.6-3.5,1.8
		C71.7,52.6,71.5,54,71.9,55.3z M90.4,181.5l11.2-48.3h36.9l11.2,48.3H90.4z M81.9,58.5h76.1l-19.4,65.9h-37.4L81.9,58.5z"/>
	<path class="st0" d="M149.9,64.6c-0.8-1.1-2.1-1.7-3.5-1.7h-35.2c-2.4,0-4.4,2-4.4,4.4s2,4.4,4.4,4.4h4.4v39.5h-8.8
		c-2.4,0-4.4,2-4.4,4.4s2,4.4,4.4,4.4h8.8h8.8h8.8c2,0,3.7-1.3,4.2-3.2l13.2-48.3C151,67.1,150.7,65.7,149.9,64.6z M140.6,71.7
		l-10.8,39.5h-4l6.6-39.5H140.6z"/>
	<path class="st0" d="M102.4,168.3c-2.4,0-4.4,2-4.4,4.4s2,4.4,4.4,4.4h35.1c1.3,0,2.5-0.6,3.3-1.5c0.8-1,1.2-2.2,1-3.5l-4.4-30.8
		c-0.3-2.2-2.2-3.8-4.4-3.8h-8.8h-8.8h-4.4c-2.4,0-4.4,2-4.4,4.4c0,2.4,2,4.4,4.4,4.4h4.4v22H102.4z M132.5,168.3h-4.3l-2.7-22h3.9
		L132.5,168.3z"/>
</g>
</svg>
