<?xml version="1.0" encoding="utf-8"?>
<!-- Generator: Adobe Illustrator 25.2.1, SVG Export Plug-In . SVG Version: 6.00 Build 0)  -->
<svg version="1.1" id="圖層_1" xmlns="http://www.w3.org/2000/svg" xmlns:xlink="http://www.w3.org/1999/xlink" x="0px" y="0px"
	 viewBox="0 0 240 240" style="enable-background:new 0 0 240 240;" xml:space="preserve">
<style type="text/css">
	.st0{fill:#1B3372;}
</style>
<path class="st0" d="M172.5,150.3c0-13.4-10.9-24.2-24.2-24.2S124,136.9,124,150.3s10.9,24.2,24.2,24.2S172.5,163.6,172.5,150.3z
	 M60.9,92.2c1-3,2.3-5.8,4.1-8.4c1.7-2.6,3.8-4.9,6.2-6.9c5.6-4.6,12.8-7.3,20.5-7.3s14.9,2.7,20.5,7.3c2.4,2,4.5,4.3,6.2,6.9
	c1.4,2.1,2.6,4.5,3.5,6.9c9-2.9,16.9-7.5,24.1-13c7.1-5.6,13.4-12.1,19.3-18.8c1-1.1,2.5-1.6,4-1.2c1.4,0.4,2.6,1.5,2.9,3
	c6.4,27.1,5.3,47.9-3.3,65.1c7,5.9,11.5,14.8,11.5,24.7c0,17.8-14.4,32.3-32.3,32.3s-32.3-14.4-32.3-32.3s14.4-32.3,32.3-32.3
	c5,0,9.8,1.2,14,3.2c6.7-13.8,7.9-30,3.9-51.2c-11.2,11.9-24.7,23.1-42.3,28.5c0.1,1.1,0.2,2.2,0.2,3.3c0,17.8-14.4,32.2-32.2,32.2
	c-17.8,0-32.3-14.4-32.3-32.2C59.5,98.4,60,95.2,60.9,92.2z M91.8,113.9c6.6,0,12.1-5.4,12.1-12.1c-2.2,0-4-1.7-4-3.9
	c-0.1-2.2,1.7-4.1,3.9-4.2c3.7-0.1,7.1-0.5,10.5-1.1c-3.6-8.8-12.3-15-22.4-15c-13.4,0-24.2,10.9-24.2,24.2S78.4,126,91.8,126
	c13.3,0,24.2-10.9,24.2-24.2c0-0.4,0-0.9-0.1-1.3c-1.3,0.3-2.7,0.5-4.1,0.7c0,0.2,0.2,0.4,0.2,0.7c0,11.1-9,20.1-20.1,20.1
	c-11.1,0-20.2-9-20.2-20.1c0-2.2,1.8-4,4-4c2.3,0,4,1.8,4,4C79.7,108.5,85.1,113.9,91.8,113.9z M136.1,150.3
	c0,6.7,5.4,12.1,12.1,12.1c6.7,0,12.1-5.4,12.1-12.1c0-2.2,1.8-4,4-4c2.2,0,4,1.8,4,4c0,11.1-9.1,20.2-20.2,20.2
	c-11.1,0-20.2-9-20.2-20.2c0-2.2,1.8-4,4-4C134.3,146.2,136.1,148.1,136.1,150.3z"/>
</svg>
