<?xml version="1.0" encoding="utf-8"?>
<!-- Generator: Adobe Illustrator 25.2.3, SVG Export Plug-In . SVG Version: 6.00 Build 0)  -->
<svg version="1.1" id="圖層_1" xmlns="http://www.w3.org/2000/svg" xmlns:xlink="http://www.w3.org/1999/xlink" x="0px" y="0px"
	 viewBox="0 0 240 240" style="enable-background:new 0 0 240 240;" xml:space="preserve">
<style type="text/css">
	.st0{fill:#FFFFFF;}
</style>
<path class="st0" d="M79.3,86.1c0.3,1.8-0.8,3.6-2.5,4.2c-0.4,0.1-8.7,3.2-8.7,22.6c0,10.9,4.7,17.6,9,21.4
	c-0.9-3.3-1.4-6.8-1.4-10.5c0-3,0.3-5.9,0.9-8.7c-0.3-0.4-0.6-0.8-0.7-1.3l-3.7-11.1c-0.7-1.9,0.4-4,2.3-4.7c2-0.7,4,0.4,4.7,2.3
	l1.3,4.1c2.4-4.5,5.7-8.6,9.7-11.8L87.1,80c-0.5-2,0.7-4,2.7-4.5c2-0.5,4,0.7,4.5,2.7l2.4,9.8c2.7-1.5,5.5-2.6,8.5-3.5
	c-0.7-4.3-3.6-12.8-14.7-12.8c-4,0-7,1.1-8.8,3.2C78.2,79.1,79.3,86,79.3,86.1z M82,157.7c3.9,4,9.3,6.2,15.6,6.6
	c-2.1-3.1-3-5.6-3.1-5.8c-0.1-0.2-0.1-0.4-0.1-0.6c-0.9-0.6-1.8-1.2-2.6-1.9c0,0-0.1,0-0.1-0.1c-3.7-2.8-6.8-6.3-9.4-10.1
	c-0.2,0-0.3,0-0.5-0.1c-0.3-0.1-2.8-1.1-6-3.2C76,148.6,78.1,153.8,82,157.7z M125.8,134.4c-1.4-0.8-2.1-2.3-1.8-3.9
	c0.2-1.5,1.4-2.7,3-3c3.9-0.7,8-5.1,8-11.7c0-3.6-2.6-7.5-6.1-9.4c-4.2-2.2-9.1-1.6-13.9,1.8c-1,0.7-2.4,0.8-3.6,0.3
	c-1.2-0.5-2-1.6-2.2-2.9c-0.1-0.8-0.5-3.4-4.9-4.1c-6.1-0.9-15,2.7-17.7,8.8c-0.3,0.6-0.7,1-1.2,1.4c-1.4,3.7-2.2,7.7-2.2,11.9
	c0,8.6,3.3,16.5,8.7,22.4c1.9-5.8,5.8-12.1,10-17.4c0,0,0-0.1,0-0.1l-3.7-11.1c-0.7-1.9,0.4-4,2.3-4.7c2-0.7,4,0.4,4.7,2.3l2.4,7.2
	c2.7-2.6,5.2-4.7,7.3-5.7c1.8-0.9,4-0.2,5,1.7c0.9,1.8,0.2,4-1.7,5c-3.1,1.6-8.2,6.7-12.5,12.6l8.3,2.8c2,0.6,3,2.7,2.4,4.7
	c-0.5,1.6-2,2.6-3.5,2.6c-0.4,0-0.8-0.1-1.2-0.2l-10-3.4c-1.7,3.2-3,6.4-3.4,9.1c5.3,3.5,11.5,5.6,18.4,5.6c1.2,0,2.4-0.1,3.7-0.2
	c5.7-2,10.5-7.5,11.1-12.9C131.7,139.9,129.9,136.7,125.8,134.4z M149.8,90.2c-2,0-3.7-1.7-3.6-3.8c0.1-2,1.8-3.7,3.8-3.5
	c1.1,0,2.1,0.2,3.2,0.3c-1.2-5.9-5.3-10.7-11.8-13.2c-8.4-3.3-21.5-2.7-31.3,6.1c1.2,2.4,2,4.9,2.4,7.2c1.3-0.1,2.6-0.2,3.9-0.2
	c22.5,0,40.7,18.2,40.7,40.7c0,1.3-0.1,2.6-0.2,3.9c3,0.5,6.3,1.7,9.4,3.6c6-8,7.3-18.7,3.2-27.7C165.8,95.4,158.6,90.5,149.8,90.2z
	 M139.8,160.9c2,0.6,3,2.7,2.4,4.7c-0.5,1.6-2,2.6-3.5,2.6c-0.4,0-0.8-0.1-1.2-0.2l-11.1-3.7c-0.5-0.2-0.9-0.4-1.3-0.8
	c-1,0.2-2.1,0.4-3.2,0.6c-0.3,0.1-0.5,0.2-0.8,0.3c-0.3,0.1-0.7,0.1-1,0.1c-0.3,0-0.6-0.1-0.9-0.1c-0.9,0.1-1.8,0.1-2.8,0.1
	c-3.6,0-7.2-0.5-10.5-1.4c3.9,4.3,10.6,9,21.5,9c19.3,0,22.4-8.3,22.5-8.6c0.5-1.8,2.3-3,4.2-2.6c0,0,7,1.1,11.1-2.3
	c2.2-1.8,3.3-4.7,3.3-8.8c0-11.1-8.6-14-12.9-14.7c-0.9,3.1-2.1,6-3.6,8.7l9.8,2.4c2,0.5,3.2,2.5,2.7,4.5c-0.4,1.7-1.9,2.8-3.6,2.8
	c-0.3,0-0.6,0-0.9-0.1l-12.5-3.1c-3.3,3.8-7.2,7.1-11.7,9.5L139.8,160.9z M138.6,144.8c-0.2,1.7-0.7,3.3-1.3,4.9
	c7.6-6.2,12.5-15.5,12.5-26c0-18.4-15-33.3-33.3-33.3c-5.6,0-10.7,1.4-15.3,3.7c1.4-0.1,2.8,0,4.1,0.2c4.3,0.6,7.6,2.6,9.4,5.6
	c6-2.7,12.1-2.7,17.6,0.1c6,3.2,10.1,9.6,10.1,15.9c0,7.3-3.4,12.9-7.7,16.1C137.7,135.5,139.2,139.9,138.6,144.8z M169.9,164.1
	c-4.7,3.9-10.8,4.3-14.4,4.2c-2.7,4.1-9.9,11.1-28.2,11.1c-10.8,0-18.2-3.7-23.4-8c-1.6,0.2-3.2,0.3-4.7,0.3c-9,0-16.9-3-22.7-8.9
	c-6.5-6.7-9.3-16.1-8-26.8c-4.3-5.1-7.9-12.6-7.9-23.3c0-18.3,7-25.6,11-28.2c-0.1-3.5,0.3-9.7,4.3-14.3c3.3-3.9,8.2-5.9,14.5-5.9
	c6.9,0,11.8,2.4,15.2,5.7c12.1-10.5,27.7-11.3,38.4-7c10.1,4,16.2,12.3,16.7,22.2c6.7,2.8,12.1,8.1,15.4,15.2
	c5.3,11.7,3.5,25.6-4.5,35.8c2.4,3.3,4.1,7.6,4.1,13.3C175.8,155.9,173.8,160.8,169.9,164.1z"/>
</svg>
