<?xml version="1.0" encoding="utf-8"?>
<!-- Generator: Adobe Illustrator 25.2.3, SVG Export Plug-In . SVG Version: 6.00 Build 0)  -->
<svg version="1.1" id="圖層_1" xmlns="http://www.w3.org/2000/svg" xmlns:xlink="http://www.w3.org/1999/xlink" x="0px" y="0px"
	 viewBox="0 0 240 240" style="enable-background:new 0 0 240 240;" xml:space="preserve">
<style type="text/css">
	.st0{fill:#FFFFFF;}
</style>
<path class="st0" d="M147.8,98.5l26.9-26.9l-6.4-6.4L141,92.5c-0.8-0.6-1.7-1.2-2.5-1.7c-0.9-0.6-1.7-1.1-2.5-1.5
	c0.9,0.5,1.7,1,2.5,1.5s1.6,1.1,2.5,1.7l0,0C143.5,94.2,145.7,96.2,147.8,98.5L147.8,98.5c0.2,0.4,0.6,0.7,0.9,1.1
	C148.4,99.1,148.1,98.8,147.8,98.5z M155.4,109.5c0.2,0.4,0.4,0.8,0.6,1.2C155.8,110.3,155.6,109.9,155.4,109.5l19.8-11.3l-5.3-10.4
	l-17.1,17.1C153.8,106.4,154.7,107.9,155.4,109.5z M160.2,130.1c0,25.6-20.8,46.4-46.4,46.4c-0.5,0-1.1-0.1-1.6-0.1
	c-0.1,0-0.2,0.1-0.4,0.1c-2.1,0-4.4-0.1-7-0.2c-13-0.3-32.7-0.9-42.9,7.4c-0.7,0.6-1.6,0.9-2.5,0.9c-1,0-2.1-0.4-2.8-1.2
	c-1.5-1.4-1.6-3.8-0.3-5.4c7.5-9.3,11.2-24.7,11.2-45.9c0-0.2,0.1-0.3,0.1-0.4c0-0.5-0.1-1.1-0.1-1.6c0-4.8,0.8-9.4,2.1-13.8
	c0.4-1.4,1-2.9,1.6-4.3c0.8-1.9,1.8-3.8,2.8-5.5c2-3.4,4.4-6.5,7.1-9.3c1-1,2.2-2,3.3-3c1.9-1.5,3.9-2.9,5.9-4.1
	c1.8-1,3.6-2,5.5-2.8c1.4-0.6,2.8-1.1,4.3-1.6c4.3-1.3,9-2.1,13.8-2.1c2.5,0,5,0.2,7.4,0.6l15.4-26.8c1.1-1.9,3.4-2.6,5.3-1.6
	l16.1,8.1c0,0,0,0,0.1,0.1l7.4-7.4c1.6-1.6,4.1-1.6,5.7,0l12.1,12.1c1.6,1.6,1.6,4.1,0,5.7l-7.4,7.4c0,0,0.1,0,0.1,0.1l8.1,16.1
	c1,1.9,0.2,4.2-1.6,5.3l-24.1,13.8C159.6,121.2,160.2,125.5,160.2,130.1z M105,168.3c0.9,0,1.8,0,2.7,0.1c0,0,3.8,0.1,6.1,0.1
	c21.2,0,38.3-17.2,38.3-38.3c0-21.2-17.2-38.3-38.3-38.3s-38.3,17.2-38.3,38.3c0,2.3,0,6,0,6c-0.3,14.2-2.3,25.8-6.1,35
	C80.8,167.6,94.3,168,105,168.3z M133.8,88.2L152.1,70l-10.4-5.2l-12.4,21.6C130.9,86.9,132.4,87.6,133.8,88.2z M90.4,113.1l8.1,8.1
	c1.6,1.6,1.6,4.1,0,5.7c-0.8,0.8-1.8,1.2-2.9,1.2c-1,0-2.1-0.4-2.8-1.2l-8.1-8.1c-1.6-1.6-1.6-4.1,0-5.7
	C86.3,111.5,88.9,111.5,90.4,113.1z M113.8,156.3c14.5,0,26.2-11.8,26.2-26.2c0-2.3,1.8-4,4-4c2.3,0,4,1.8,4,4
	c0,18.9-15.4,34.3-34.3,34.3H91.6c-2.2,0-4-1.8-4-4c0-2.3,1.8-4,4-4L113.8,156.3L113.8,156.3z M98.5,101l12.1,12.1
	c1.6,1.6,1.6,4.1,0,5.7c-0.8,0.8-1.8,1.2-2.9,1.2c-1,0-2.1-0.4-2.8-1.2l-12.1-12.1c-1.6-1.6-1.6-4.1,0-5.7S96.9,99.4,98.5,101z
	 M114.7,97l8.1,8.1c1.6,1.6,1.6,4.1,0,5.7c-0.8,0.8-1.8,1.2-2.9,1.2c-1,0-2.1-0.4-2.8-1.2l-8.1-8.1c-1.6-1.6-1.6-4.1,0-5.7
	C110.5,95.4,113.1,95.4,114.7,97z M138.5,90.8c-0.9-0.5-1.7-1-2.5-1.5C136.8,89.7,137.7,90.2,138.5,90.8z M141,92.4L141,92.4
	c-0.9-0.6-1.7-1.1-2.5-1.7C139.4,91.3,140.2,91.8,141,92.4z M147.8,98.5c0.3,0.3,0.6,0.7,0.9,1.1C148.4,99.2,148.1,98.8,147.8,98.5
	L147.8,98.5z M155.4,109.5c0.2,0.4,0.4,0.8,0.6,1.2C155.8,110.3,155.6,109.9,155.4,109.5L155.4,109.5z"/>
</svg>
