<?xml version="1.0" encoding="utf-8"?>
<!-- Generator: Adobe Illustrator 25.2.3, SVG Export Plug-In . SVG Version: 6.00 Build 0)  -->
<svg version="1.1" id="圖層_1" xmlns="http://www.w3.org/2000/svg" xmlns:xlink="http://www.w3.org/1999/xlink" x="0px" y="0px"
	 viewBox="0 0 240 240" style="enable-background:new 0 0 240 240;" xml:space="preserve">
<style type="text/css">
	.st0{fill:#FFFFFF;}
</style>
<g>
	<path class="st0" d="M115.9,108.5c3.4,0.1,6.9,0.2,10.2-0.7c2.1-0.6,4.1-1.5,6.1-2.2c4.2-1.3,8.9-1.2,13,0.3
		c2.6,0.9,6.7,2.3,8.3,4.5c2.9,3.8,1.4,9,1.2,13.9c-0.6,16.5-2.9,32.9-5.9,49.2c-0.3,1.8-0.8,3.7-2.2,4.9c-1,0.8-2.3,1.1-3.6,1.3
		c-15.4,2.9-33.1,2.3-48.3-1.6c-0.8-0.2-1.5-0.4-2.1-1c-0.5-0.5-0.7-1.3-0.9-2c-4.2-17.8-6-36.4-6.8-54.6
		c-0.2-5.2-1.7-10.3,3.9-12.2C96.1,105.9,108.5,108.3,115.9,108.5z"/>
	<g>
		<g>
			<g>
				<path class="st0" d="M114.6,89c0,0-0.1,0-0.1,0c-0.5,0-1-0.4-1.2-0.8c0,0,0,0,0-0.1c-0.4-1-9.4-20.6-11.3-24.5
					c-0.2-0.4-0.5-1.1-0.3-1.9c0.2-0.8,0.7-1.2,1-1.4c1-0.9,2.2-1.6,3.4-2.2c0.3-0.1,1.1-0.5,1.9-0.2c0.8,0.3,1.2,1,1.4,1.3l4.3,7.7
					c0.4,0.7,0.2,1.6-0.5,1.9c-0.7,0.4-1.6,0.2-1.9-0.5l-4.2-7.4c-0.9,0.4-1.7,0.9-2.4,1.5c1,2.1,4,8.7,6.4,13.8
					c1.3,2.8,2.5,5.5,3.4,7.5c0.7,1.5,1.1,2.4,1.3,3c0.1,0.1,0.1,0.2,0.1,0.2l0,0l0,0l0,0l0,0c0.3,0.8,0.2,1-0.1,1.4
					C115.5,88.7,115.1,89,114.6,89z M107.4,60.6L107.4,60.6L107.4,60.6z"/>
			</g>
			<g>
				<path class="st0" d="M126.4,89c-0.2,0-0.4,0-0.6-0.1c-0.7-0.3-1-1.2-0.7-1.9c2.3-4.8,9.6-18.9,13.9-26.9c-0.8-0.8-1.7-1.6-2.7-2
					c-1-0.5-2.4-0.8-3.4-0.2c-0.4,0.2-0.8,0.6-1.2,1c-0.2,0.2-0.5,0.4-0.7,0.6c-2.1,1.7-4.8,2.5-7.5,2.1c-1.3-0.2-2.4-0.5-3.5-0.9
					c-0.6-0.2-1.2-0.4-1.8-0.6c-1.2-0.3-2.8-0.5-4,0.2c-0.3,0.2-0.7,0.6-1.1,0.9c-0.9,0.9-2,2-3.7,2c-0.8,0-1.4-0.7-1.4-1.5
					c0-0.8,0.7-1.4,1.5-1.4c0.4,0,0.9-0.4,1.6-1.1c0.4-0.4,0.9-0.9,1.5-1.3c1.6-1.1,3.8-1.3,6.3-0.6c0.7,0.2,1.3,0.4,1.9,0.6
					c1,0.4,2,0.7,3,0.8c1.9,0.2,3.9-0.3,5.3-1.5c0.2-0.2,0.4-0.4,0.6-0.5c0.5-0.5,1.1-1,1.8-1.3c1.7-0.9,4-0.9,6.1,0.2
					c1.7,0.8,3,2.2,4.2,3.3c0.5,0.5,0.6,1.1,0.2,1.7c-4.3,7.7-12,22.8-14.4,27.7C127.4,88.7,126.9,89,126.4,89z"/>
			</g>
			<g>
				<path class="st0" d="M117.8,83.3c0,0-0.1,0-0.1,0c-0.8-0.1-1.4-0.7-1.3-1.5c0.5-7.6,0.7-15.3,0.6-22.9c0-0.8,0.6-1.4,1.4-1.5
					c0,0,0,0,0,0c0.8,0,1.4,0.6,1.4,1.4c0.1,7.5-0.1,15.1-0.6,22.6c0,0.1,0,0.1,0,0.2l0,0.4C119.2,82.7,118.5,83.3,117.8,83.3z"/>
			</g>
			<g>
				<path class="st0" d="M121.7,87.6c-0.1,0-0.3,0-0.4-0.1c-0.8-0.2-1.2-1-0.9-1.8l8.9-27.9c0.2-0.8,1.1-1.2,1.8-0.9
					c0.8,0.2,1.2,1,0.9,1.8l-8.9,27.9C122.9,87.2,122.3,87.6,121.7,87.6z"/>
			</g>
			<g>
				<path class="st0" d="M116.2,185.4c-8.1-0.3-14.4-0.6-23.5-2.5c-1.2-0.3-2.5-0.6-3.4-1.6c-0.7-0.8-0.9-1.7-1.1-2.4
					c-3.2-13.3-5.2-28.2-6.4-46.8c-0.1-1.9-0.4-4-0.7-6.3c-0.7-5.4-1.4-11.5-0.1-16.5c2.8-10.6,12.1-13.9,22.2-16.5
					c2.8-0.7,5.6-1.5,8.6-1.8c0.8-0.1,1.5,0.5,1.6,1.2s-0.5,1.5-1.2,1.6c-2.8,0.3-5.5,1.1-8.2,1.8c-9.6,2.5-17.8,5.4-20.2,14.5
					c-1.2,4.4-0.5,10,0.2,15.4c0.3,2.3,0.5,4.4,0.7,6.5c1.1,18.4,3.1,33.1,6.3,46.3c0.1,0.5,0.2,0.9,0.4,1.1
					c0.4,0.4,1.4,0.6,1.9,0.8c8.8,1.9,14.8,2.1,23,2.5c2.4,0.1,4.8,0.1,7.3,0c8.2-0.3,14.2-0.6,23-2.5c0.4-0.1,1.5-0.3,1.9-0.7
					c0.2-0.2,0.3-0.6,0.4-1.1c3.2-13.2,5.2-27.9,6.3-46.3c0.1-2,0.4-4.2,0.7-6.5c0.7-5.4,1.4-11,0.2-15.4
					c-2.4-9.1-10.6-12-20.2-14.5c-2.7-0.7-5.4-1.4-8.2-1.8c-0.8-0.1-1.3-0.8-1.2-1.6c0.1-0.8,0.8-1.3,1.6-1.2
					c2.9,0.4,5.8,1.1,8.6,1.8c10.1,2.7,19.5,5.9,22.2,16.5c1.3,5,0.5,11.1-0.1,16.5c-0.3,2.2-0.5,4.3-0.7,6.3
					c-1.1,18.5-3.1,33.4-6.4,46.8c-0.2,0.6-0.4,1.6-1.1,2.4c-0.9,1-2.1,1.3-3.4,1.6c-9.1,2-15.5,2.2-23.5,2.5
					C123,185.4,118,185.5,116.2,185.4z"/>
			</g>
		</g>
		<g>
			<path class="st0" d="M112.6,84.3c-0.8-0.1-2.4-0.5-3.2-0.1c-0.8,0.3,0.4,2.6,0.7,3.1c0.5,1.3,0.9,2.5,1.3,3.8H130
				c0.1-1.2,0.3-2.9,0.5-4.2c0-0.2,0-0.4-0.1-0.5c-0.1-0.1-0.3-0.1-0.4-0.2C125.2,85.2,112.6,84.3,112.6,84.3z"/>
			<path class="st0" d="M129.2,87.7c0.9-0.1,3.9-0.7,3.8,0.5c-0.1,0.9-2.2,6.3-2.4,6.3h-21.1c-0.2-1.2-0.3-2.4-0.5-3.7
				c0-0.2,0-0.4,0.1-0.5c0.1-0.1,0.3-0.1,0.5-0.2C114.9,89.2,129.2,87.7,129.2,87.7z"/>
		</g>
	</g>
</g>
</svg>
