<?xml version="1.0" encoding="utf-8"?>
<!-- Generator: Adobe Illustrator 25.2.1, SVG Export Plug-In . SVG Version: 6.00 Build 0)  -->
<svg version="1.1" id="圖層_1" xmlns="http://www.w3.org/2000/svg" xmlns:xlink="http://www.w3.org/1999/xlink" x="0px" y="0px"
	 viewBox="0 0 240 240" style="enable-background:new 0 0 240 240;" xml:space="preserve">
<style type="text/css">
	.st0{fill:#1B3372;}
</style>
<path class="st0" d="M149.4,56.6c1.6-1.6,4.1-1.6,5.7,0c1.6,1.6,1.6,4.1,0,5.7l-20.2,20.2c-0.8,0.8-1.8,1.2-2.8,1.2
	c-1.1,0-2.1-0.4-2.9-1.2c-1.6-1.6-1.6-4.1,0-5.7L149.4,56.6z M104.4,129.8c-5.9-9.3-6.1-17-0.4-24.1c0.3,5.2,2.2,11.2,6.7,17.9
	L104.4,129.8z M110,160.2c-7.1,5.6-14.8,5.5-24.1-0.4l6.3-6.3C98.8,158.1,104.8,160,110,160.2z M92.3,142c-5.9-9.3-6.1-17-0.4-24.1
	c0.2,5.2,2.2,11.2,6.7,17.9L92.3,142z M80.2,154.1c-5.9-9.3-6.1-17-0.4-24.1c0.2,5.2,2.2,11.2,6.7,17.9L80.2,154.1z M134.3,136
	c-7.1,5.6-14.8,5.5-24.1-0.4l6.3-6.3C123,133.8,129,135.8,134.3,136z M104.3,141.4c6.7,4.6,12.6,6.5,17.9,6.7
	c-7.1,5.6-14.8,5.5-24.1-0.4L104.3,141.4z M115.9,93.8c5.6,8.1,4.1,17.2,0.3,23.5C110.6,108.3,110.4,100.8,115.9,93.8z M144.1,95.9
	c-0.8,12-5.3,15.3-15.9,15.9C128.7,101.2,132.1,96.7,144.1,95.9z M132.9,120.5c3.5-0.3,8.4,0.2,13.2,3.6c-7,5.4-14.4,5.3-23.4-0.3
	C125.8,121.9,129.3,120.8,132.9,120.5z M143.1,138.9c1.1-1.2,1.4-2.9,0.8-4.4c4.6-1.7,8.3-4.6,11.3-7.7c1.5-1.6,1.5-4.1,0-5.7
	c-3.4-3.4-6.9-5.5-10.3-6.8c4.8-4.2,7.5-11.2,7.5-22.6c0-2.3-1.8-4-4-4c-11.5,0-18.4,2.7-22.6,7.4c-1.4-3.6-3.7-7.1-6.9-10.3
	c-1.5-1.6-4.1-1.6-5.7,0c-3.1,3-6,6.8-7.7,11.3c-1.4-0.7-3.2-0.4-4.4,0.8c-3.1,3-6,6.8-7.7,11.3c-1.4-0.7-3.2-0.4-4.4,0.8
	c-3.1,3-6,6.8-7.7,11.3c-1.4-0.7-3.2-0.4-4.4,0.8c-8.1,7.8-14.7,20.7-2.5,38.8l-17.8,17.8c-1.6,1.6-1.6,4.1,0,5.7
	c0.8,0.8,1.8,1.2,2.9,1.2c1,0,2.1-0.4,2.8-1.2l17.8-17.8c7.2,4.9,13.5,6.8,19.1,6.8c8.4,0,15-4.4,19.7-9.2c1.1-1.2,1.4-2.9,0.8-4.4
	c4.6-1.7,8.3-4.6,11.3-7.7c1.1-1.2,1.4-2.9,0.8-4.4C136.3,144.9,140.1,142,143.1,138.9z M157.5,76.8c-1.6,1.6-1.6,4.1,0,5.7
	c0.8,0.8,1.8,1.2,2.9,1.2c1,0,2.1-0.4,2.8-1.2l20.2-20.2c1.6-1.6,1.6-4.1,0-5.7s-4.1-1.6-5.7,0L157.5,76.8z M157.5,105
	c-1.6,1.6-1.6,4.1,0,5.7c0.8,0.8,1.8,1.2,2.9,1.2c1,0,2.1-0.4,2.8-1.2l20.2-20.2c1.6-1.6,1.6-4.1,0-5.7s-4.1-1.6-5.7,0L157.5,105z"
	/>
</svg>
