<?xml version="1.0" encoding="utf-8"?>
<!-- Generator: Adobe Illustrator 25.2.1, SVG Export Plug-In . SVG Version: 6.00 Build 0)  -->
<svg version="1.1" id="圖層_1" xmlns="http://www.w3.org/2000/svg" xmlns:xlink="http://www.w3.org/1999/xlink" x="0px" y="0px"
	 viewBox="0 0 240 240" style="enable-background:new 0 0 240 240;" xml:space="preserve">
<style type="text/css">
	.st0{fill:#1B3372;}
</style>
<path class="st0" d="M192.1,179.5c-1.7-0.1-3.4-0.1-5.1,0c-1.1,0-2.2,0-3.2,0c-4.8-0.1-9.7-0.8-14.4-1.4c-1.8-0.3-4.2-0.5-6.7-0.7
	c-6.4-0.6-14.4-1.4-18.6-3.3c-2.6-1.2-3.6-4.5-4.3-7.2c1.7,1.1,3.4,2.3,5.4,3.1c1.9,0.8,4.2,1,6.4,1c1.4,0,2.8-0.1,4-0.2
	c0.7,0,1.2-0.6,1.1-1.3c0-0.7-0.6-1.2-1.3-1.1c-2.7,0.2-6.7,0.4-9.3-0.7c-1.7-0.8-3.4-1.9-5-2.9c-0.9-0.6-1.8-1.2-2.6-1.7
	c-1.6-0.9-3.3-2-4.1-3.3c-0.4-0.7-0.9-3.4-1.2-5.3c2.9,1.3,5.8,2.6,8.8,3.9c1.9,0.8,3.8,1.6,5.7,2.5c1.2,0.5,2.3,0.7,3.4,0.7
	c0.8,0,1.5-0.1,2.3-0.1c0.3,0,0.7-0.1,1.1-0.1c0.7-0.1,1.2-0.6,1.1-1.3c-0.1-0.7-0.6-1.1-1.3-1.1c-0.4,0-0.8,0.1-1.1,0.1
	c-1.7,0.2-3.1,0.3-4.5-0.3c-1.9-0.9-3.8-1.7-5.7-2.5c-4.5-2-8.8-3.8-13.2-6c-2.6-1.2-4.6-6-4.5-8.9c0.6,0.7,1.3,1.4,2.1,2
	c3.1,2.6,7.4,4,11.5,5.3c1.5,0.5,2.9,0.9,4.2,1.4c0.1,0.1,0.3,0.1,0.4,0.1c0.5,0,0.9-0.3,1.1-0.8c0.2-0.6-0.1-1.3-0.7-1.6
	c-1.4-0.5-2.8-1-4.4-1.5c-3.9-1.2-7.9-2.5-10.7-4.8c-2.8-2.3-4.6-5.3-5.3-8.3c-0.6-3.1-0.8-7.3,0.7-8.8c0.2-0.2,0.8-0.8,2.4-0.5
	c1.5,0.3,1.9,1.8,2.4,4.1c0.4,1.8,0.8,3.7,2.2,4.9c2.7,2.4,6.2,3.4,9.6,4.4c0.9,0.2,1.7,0.5,2.5,0.7c1,0.3,1.8,0.6,2.6,0.9
	c2.7,0.9,4.2,1.4,8.3,1.5c4.7,0.1,7.5-1.1,8.3-3.5c0.7-2.2-0.8-4.2-2.5-5.3c-1.1-0.7-2.4-1.1-3.5-1.6c-0.8-0.3-1.5-0.6-2.2-0.9
	c-3.2-1.5-5.9-2.5-8.6-3.2c-3.1-0.8-7.1-2.2-7.1-5.3c0-0.7,0.2-1.2,0.8-1.7c1.2-1.1,3.7-1.5,5.4-1.3c2.2,0.2,4.6,0.9,6.9,1.6
	c1.5,0.4,3,0.8,4.5,1.2c11.8,2.5,20,7.1,25,14.1c3,4.2,6.3,8.5,10.4,12.1c0.5,0.4,1.3,0.4,1.7-0.1c0.4-0.5,0.4-1.3-0.1-1.7
	c-3.9-3.4-7.1-7.6-10-11.6c-5.4-7.5-14-12.5-26.5-15.1c-1.4-0.3-2.8-0.7-4.3-1.1c-2.4-0.7-4.8-1.4-7.2-1.6c-1.5-0.2-3.4,0-5.1,0.6
	c0.3-0.2,0.6-0.5,0.9-0.8c1.2-1.4,1.7-3.2,1.3-5.2c-0.6-3.4-3.2-6.8-6.2-8.2c-0.5-0.2-1-0.4-1.5-0.6c0.2-0.4,0.4-0.8,0.6-1.2
	c1.1-2.6,1.4-6.5-0.2-9.2c-1-1.6-2.6-2.6-4.7-2.8c-4.2-0.4-7.7,2.2-9.6,4.8c-0.3-1.4-0.8-2.8-1.6-3.9c-1.5-2.2-4.2-4.4-7.1-4.5
	c-1.8-0.1-3.3,0.7-4.6,2.2c-1.3,1.7-1.9,3.6-2,5.4c-0.3-0.2-0.6-0.3-0.9-0.4c-2.4-1-4.9-1.2-7.1-0.6c-1.1,0.3-2.1,0.8-2.9,1.5
	c-2.2-0.9-4.5-2.2-6.7-3.7l1.6-1.7c1.4,0.2,6.1,0.5,13.1-3.8c10.3-6.2,11-23.3,11.1-24l0-1.1l-1.1,0.4c-0.7,0.2-17.8,5.9-23.9,12.3
	c-5.6,5.8-2.4,13.3-1.5,15.2l-0.8,1.7c-12.9-9.2-25.1-25.5-25.2-25.7c-0.2-0.3-0.6-0.4-1-0.2L55,64.1c-0.2,0.1-0.4,0.3-0.4,0.5
	c-0.1,0.2,0,0.5,0.1,0.7c19.4,27.1,36.3,32.7,37,33c0,0,0,0,0.1,0c0.1,0.9,0.4,1.8,0.9,2.7c0.2,0.3,0.3,0.5,0.5,0.8
	c-3.1-0.4-8-1.5-11.4-4.7c-5.2-5.1-12.4-7.7-15.8-8.1c-0.5-0.1-0.8,0.2-0.9,0.7s0.2,0.8,0.7,0.9c2.5,0.3,7.3,2,11.7,5.1l-3.9,1.2
	c-1.3-1.2-5.8-4.9-11.3-2.3c-6.2,2.9-14.6,14-14.9,14.5l-0.7,0.9l1.1,0.3c0.3,0.1,5.1,1.4,10.5,1.4c4,0,8.3-0.8,11.4-3.3
	c4.6-3.9,5.3-7.2,5.4-8.5l4.6-2.6c0.4,0.3,0.7,0.6,1,1c4,3.9,10.1,5,13.2,5.3c-2,0.6-4.8,1.9-7,4.9c-3.8,5.2-4.6,13.3-2.5,24.2
	l0.2,0.9l0.9-0.3c0.4-0.1,9.9-3.5,15.3-15.8l0,0c1,0.8,2.2,1.2,3.5,1.2c0.6,0,1.2-0.1,1.8-0.2c0.4-0.1,0.8-0.2,1.2-0.4
	c-0.3,1.9-0.2,3.8,0.3,5.6c0.7,2.4,2.3,4.3,4.3,5.1c0.7,0.3,1.4,0.4,2.1,0.4c1.2,0,2.4-0.4,3.5-1c1.5-0.9,2.8-2.3,3.9-3.9
	c-1.5,3-0.8,7.6-0.4,9.7c0.4,1.9,1.2,3.7,2.3,5.4c-0.3,0.2-0.5,0.4-0.6,0.8c-0.8,3.8,1.8,10.6,5.8,12.5c0.7,0.3,1.4,0.6,2,1
	c0,0.1,0,0.1,0,0.2c0.1,0.9,0.7,5.9,1.7,7.5c1,1.6,2.9,2.8,4.5,3.8c0.1,0.5,0.3,1,0.4,1.7c0.8,3.1,1.9,7.8,5.8,9.6
	c4.6,2.1,12.8,2.9,19.4,3.5c2.5,0.2,4.8,0.4,6.6,0.7c4.8,0.7,9.8,1.4,14.8,1.4c1.1,0,2.2,0,3.3,0c1.6,0,3.3-0.1,4.9,0c0,0,0,0,0.1,0
	c0.6,0,1.2-0.5,1.2-1.1C193.3,180.1,192.7,179.5,192.1,179.5z M63.1,95.9c5.1-2.4,9,1.4,9.7,2.1c-2.3,0.2-10.8,1.4-20.4,7.4
	C55.4,102,59.7,97.5,63.1,95.9z M68.7,107.1c-5.2,4.3-15,2.8-18.8,1.9c12-8.9,23.4-9.4,23.5-9.4h0.1
	C73.5,100.4,73.1,103.4,68.7,107.1z M122.6,113.3c0-0.5,0.1-1,0.3-1.4c0.1-0.5,0.3-0.9,0.6-1.4c0.3-0.6,0.7-1,1.1-1.4
	c0.4-0.4,0.9-0.6,1.5-0.7c0.1,0,0.2,0,0.3-0.1c0,0,0,0,0.1,0c0.2,0,0.4-0.1,0.7-0.1c2.1,0,4.4,1.3,5.8,2.7c1.2,1.2,2.1,3,2.6,4.8
	c0.1,0.5,0.2,1.1,0.3,1.6c0.1,0.7,0.1,1.4,0,2c-0.2,1.5-0.9,2.7-2.1,3.3c-1.1,0.6-2.5,0.8-3.9,0.4c-0.6-0.8-1.5-1.4-2.7-1.7
	c-0.2,0-0.4-0.1-0.6-0.1c-0.9-0.7-1.7-1.6-2.3-2.6c-0.2-0.4-0.4-0.8-0.6-1.2C122.8,116.3,122.5,114.8,122.6,113.3z M122,109.7
	c-0.2,0.4-0.3,0.7-0.5,1.1c-0.1,0.1-0.2,0.1-0.2,0.2c-0.5,0.3-0.9,0.6-1.4,0.8c-0.5,0.2-0.9,0.4-1.4,0.5c-1.7,0.4-3.2,0.2-4.3-0.7
	c-0.1-0.1-0.2-0.2-0.3-0.3c-0.4-0.4-0.7-0.8-1-1.3c-0.5-1-0.8-2.1-0.8-3.4c0-1.2,0.2-2.4,0.6-3.5c0.6,0.2,1.2,0.2,1.8,0.2
	c0.7,0,1.3-0.1,2-0.3c0.6-0.2,1.2-0.5,1.7-1c0.4,1.8,1.3,3.4,2.6,4.4c0.9,0.7,2,1.1,3.2,1.2C123.1,108.1,122.5,108.8,122,109.7z
	 M144.8,128.3c2.5,0.7,5.1,1.6,8.2,3.1c0.8,0.4,1.6,0.7,2.4,0.9c1.1,0.4,2.2,0.8,3.1,1.4c0.9,0.6,1.7,1.6,1.4,2.4
	c-0.4,1.2-2.6,1.9-6,1.8c-3.7-0.1-4.9-0.5-7.5-1.4c-0.8-0.3-1.6-0.6-2.6-0.9c-0.8-0.3-1.7-0.5-2.6-0.8c-3.1-0.9-6.4-1.8-8.6-3.8
	c-0.8-0.7-1.1-2.2-1.4-3.7c-0.2-0.8-0.4-1.7-0.7-2.6c0.2,0,0.4,0,0.6,0c1.1,0,2.2-0.3,3.2-0.8c0.8-0.4,1.4-1,1.9-1.8
	C137.3,126.4,142.7,127.8,144.8,128.3z M137.5,117.3c-0.1,0.1-0.2,0.2-0.3,0.2c0-0.1,0-0.2,0-0.4c0.3-0.1,0.5-0.1,0.7-0.2
	C137.8,117,137.6,117.1,137.5,117.3z M135,103.2c2.6,1.3,4.8,4.2,5.3,7.1c0.3,1.5,0,2.8-0.9,3.8c-0.6,0.7-1.5,1.2-2.4,1.4
	c-0.5-2.2-1.6-4.3-3-5.7c-1.4-1.4-3.6-2.7-5.8-3.1c2-0.9,3.8-2.4,5.2-4.2C133.9,102.7,134.5,102.9,135,103.2z M120.2,96.1
	c0.1-0.2,0.2-0.4,0.3-0.7c0.2-0.4,0.4-0.7,0.6-1c0.1-0.2,0.2-0.4,0.4-0.6c1.5-2.1,4.2-4.2,7.5-4.2c0.2,0,0.5,0,0.7,0
	c1.6,0.2,2.7,0.8,3.5,2c1.3,2.2,1,5.5,0.1,7.8c-0.2,0.4-0.4,0.9-0.7,1.3c-0.3,0.5-0.7,1-1.1,1.5c-1.1,1.2-2.4,2.3-3.8,3
	c-0.6,0.3-1.2,0.5-1.8,0.7c0,0,0,0,0,0c-0.1,0-0.1,0-0.2,0c-0.5,0.1-1,0.2-1.5,0.2c-1,0-1.9-0.3-2.7-0.9c-1.3-1-2.1-2.8-2.2-4.8
	c0-0.1,0-0.1,0-0.2C119.4,98.8,119.7,97.4,120.2,96.1z M108.2,87.5c0.9-1.1,2-1.6,3.2-1.6c2.3,0.1,4.7,2.1,5.9,3.8
	c0.9,1.4,1.5,3.2,1.6,5c0,0.1,0,0.2,0,0.3c-0.2,0.5-0.4,1-0.6,1.6c-0.3,1-0.5,2.1-0.5,3.2c-0.5,0.8-1.2,1.3-2.1,1.6
	c-0.8,0.3-1.7,0.3-2.6,0.1c-0.5-0.1-1-0.3-1.5-0.5c-0.2-0.1-0.4-0.2-0.6-0.4c0,0-0.1,0-0.1-0.1c-0.7-0.5-1.3-1-1.8-1.6
	c-0.8-0.9-1.5-2-1.9-3.1c0-0.1-0.1-0.2-0.1-0.3c-0.3-0.8-0.5-1.7-0.5-2.6C106.5,91.1,106.9,89.1,108.2,87.5z M97.5,92.5
	c1.8-0.5,4-0.3,6,0.5c0.5,0.2,1.1,0.5,1.6,0.9c0.1,0.9,0.3,1.8,0.6,2.5c0.6,1.5,1.5,2.9,2.6,4.1c-3.5,0.1-6.3,2.3-7.9,4.5
	c-0.1,0.1-0.2,0.2-0.2,0.3c-2.4-0.9-4.7-2.9-6-5.2c-0.9-1.5-1.1-3.1-0.5-4.5C94.3,94.2,95.6,93,97.5,92.5z M99.4,106.7L99.4,106.7
	L99.4,106.7L99.4,106.7z M101.3,82c-7,4.2-11.4,3.7-12.2,3.6c3.2-5.3,10.5-16,22.3-24.2C110.9,66,108.8,77.4,101.3,82z M89.4,71.9
	c4-4.2,13.3-8.1,18.8-10.3c-10.8,8.2-17.4,18-20.3,23C86.9,82.3,85,76.5,89.4,71.9z M56.6,65.1l3.2-1.6c1.3,1.7,5.4,6.9,10.9,12.7
	C79,85.1,86.5,90.9,93,93.7c-0.3,0.4-0.6,0.9-0.8,1.4c-0.2,0.5-0.3,1-0.4,1.5C88.9,95.5,73.6,88.7,56.6,65.1z M88.3,109.3
	c2.6-3.6,6-4.4,7.7-4.7c0.6,0.5,1.3,1,2,1.4c-2.2,1.6-8.8,7.6-12.6,22.3C84.2,119.9,85.2,113.5,88.3,109.3z M86.4,131.1
	c3.7-16.6,11.3-22.9,12.8-24c-0.6,1.4-1,3-1,4.5c0,1.7,0.5,3.3,1.4,4.5C95.7,125.5,89.2,129.7,86.4,131.1z M105.7,116.8
	c-1.5,0.4-2.8,0.2-3.9-0.6c-1.2-1-2-2.6-2-4.5c0-2,0.7-4.1,1.9-5.7c1.5-2,4.2-4.1,7.5-3.8c0.7,0.1,1.3,0.2,1.8,0.6
	c-0.4,1.3-0.7,2.6-0.7,3.9c0,1.6,0.4,3.1,1.1,4.3c-1.7,1.4-2.9,3.2-3.5,5C107.2,116.3,106.4,116.6,105.7,116.8z M116.7,126.6
	c-1.4,0.9-2.8,1-4.2,0.5c-1.6-0.6-2.8-2.1-3.4-4c-0.6-2-0.5-4.2,0.1-6.2c0-0.1,0.1-0.2,0.1-0.2c0.5-1.6,1.6-3.3,3.1-4.5
	c0.2,0.2,0.5,0.5,0.7,0.7c0,0,0,0,0.1,0c1.1,0.8,2.3,1.2,3.7,1.2c0.6,0,1.3-0.1,1.9-0.3c0.6-0.2,1.3-0.4,1.9-0.7
	c0.1,0.2,0.2,0.3,0.2,0.5c-0.1,1.5,0.3,3,0.8,4.4c0,0.2,0,0.4,0,0.7C121.5,121.6,119.3,124.9,116.7,126.6z M121.9,123.2
	c0.5-0.9,0.9-1.9,1.2-2.9c0.3,0.5,0.7,0.9,1.1,1.3c-0.8,0.2-1.4,0.7-1.8,1.1C122.2,122.9,122,123,121.9,123.2z"/>
</svg>
