<?xml version="1.0" encoding="utf-8"?>
<!-- Generator: Adobe Illustrator 25.2.1, SVG Export Plug-In . SVG Version: 6.00 Build 0)  -->
<svg version="1.1" id="圖層_1" xmlns="http://www.w3.org/2000/svg" xmlns:xlink="http://www.w3.org/1999/xlink" x="0px" y="0px"
	 viewBox="0 0 240 240" style="enable-background:new 0 0 240 240;" xml:space="preserve">
<style type="text/css">
	.st0{fill:#1B3372;}
</style>
<g>
	<g>
		<g>
			<g>
				<path class="st0" d="M106.7,184.7h-6.1c-0.5,0-1-0.4-1.1-0.9l-1.7-11c-1.7-0.3-3.4-0.8-5.1-1.4l-6.9,8.7
					c-0.3,0.4-0.9,0.5-1.4,0.3l-5.3-3c-0.5-0.3-0.7-0.8-0.5-1.3l4.1-10.3c-1.3-1.1-2.6-2.4-3.7-3.7L68.8,166c-0.5,0.2-1,0-1.3-0.5
					l-3.1-5.3c-0.3-0.5-0.2-1,0.3-1.4l8.7-6.9c-0.6-1.6-1.1-3.4-1.4-5.1l-11-1.7c-0.5-0.1-0.9-0.5-0.9-1.1v-6.1c0-0.5,0.4-1,0.9-1.1
					l11-1.6c0.3-1.8,0.8-3.5,1.4-5.1l-8.7-6.9c-0.4-0.3-0.5-0.9-0.3-1.4l3-5.3c0.3-0.5,0.8-0.7,1.3-0.5l10.3,4.1
					c1.1-1.3,2.4-2.6,3.7-3.7l-4.1-10.3c-0.2-0.5,0-1.1,0.5-1.3l5.3-3.1c0.5-0.3,1-0.2,1.4,0.3l6.9,8.7c1.7-0.6,3.4-1.1,5.1-1.4
					l1.7-11c0.1-0.5,0.5-0.9,1-0.9h6.1c0.5,0,1,0.4,1,0.9l1.7,11c1.7,0.3,3.5,0.8,5.1,1.4l6.9-8.7c0.3-0.4,0.9-0.5,1.4-0.3l5.3,3.1
					c0.5,0.3,0.7,0.8,0.5,1.3l-4.1,10.3c1.4,1.2,2.6,2.4,3.7,3.7l10.3-4.1c0.5-0.2,1.1,0,1.3,0.5l3,5.3c0.3,0.5,0.1,1-0.3,1.4
					l-8.7,6.9c0.6,1.7,1.1,3.4,1.4,5.1l11,1.6c0.5,0.1,0.9,0.5,0.9,1.1v6.1c0,0.5-0.4,1-0.9,1.1l-11,1.6c-0.3,1.7-0.8,3.4-1.4,5.1
					l8.7,6.9c0.4,0.3,0.5,0.9,0.3,1.4l-3,5.3c-0.3,0.5-0.8,0.6-1.3,0.5l-10.3-4.1c-1.1,1.3-2.4,2.6-3.7,3.7l4.1,10.4
					c0.2,0.5,0,1.1-0.5,1.3l-5.3,3c-0.4,0.3-1,0.1-1.4-0.3l-6.9-8.7c-1.7,0.6-3.4,1.1-5.1,1.4l-1.7,11
					C107.7,184.3,107.2,184.7,106.7,184.7z M101.5,182.6h4.3l1.6-10.8c0.1-0.5,0.4-0.8,0.9-0.9c2.1-0.3,4.2-0.9,6.2-1.6
					c0.4-0.2,0.9,0,1.2,0.3l6.8,8.6l3.7-2.1l-4-10.2c-0.2-0.4,0-0.9,0.3-1.2c1.7-1.4,3.2-2.9,4.5-4.5c0.3-0.4,0.8-0.5,1.2-0.3
					l10.2,4l2.1-3.7l-8.6-6.8c-0.4-0.3-0.5-0.8-0.3-1.2c0.8-2,1.3-4.1,1.7-6.2c0.1-0.5,0.4-0.8,0.9-0.9l10.8-1.6V139l-10.8-1.6
					c-0.5-0.1-0.8-0.4-0.9-0.9c-0.3-2.1-0.9-4.1-1.7-6.2c-0.2-0.4,0-0.9,0.3-1.2l8.6-6.8l-2.1-3.7l-10.2,4c-0.4,0.2-0.9,0-1.2-0.3
					c-1.3-1.6-2.8-3.2-4.5-4.5c-0.4-0.3-0.5-0.8-0.3-1.2l4-10.2l-3.7-2.1l-6.8,8.6c-0.3,0.4-0.8,0.5-1.2,0.3c-2-0.8-4.1-1.3-6.2-1.7
					c-0.5-0.1-0.8-0.4-0.9-0.9l-1.6-10.8h-4.3l-1.6,10.8c-0.1,0.5-0.4,0.8-0.9,0.9c-2.1,0.3-4.2,0.9-6.2,1.7c-0.4,0.2-0.9,0-1.2-0.3
					l-6.8-8.6l-3.7,2.1l4,10.2c0.2,0.4,0,0.9-0.3,1.2c-1.7,1.3-3.2,2.8-4.5,4.5c-0.3,0.4-0.8,0.5-1.2,0.3l-10.2-4l-2.1,3.7l8.6,6.8
					c0.4,0.3,0.5,0.8,0.3,1.2c-0.8,2-1.3,4-1.7,6.2c-0.1,0.5-0.4,0.8-0.9,0.9L62.2,139v4.3l10.8,1.6c0.5,0.1,0.8,0.4,0.9,0.9
					c0.3,2.1,0.9,4.2,1.7,6.2c0.2,0.4,0,0.9-0.3,1.2l-8.6,6.8l2.1,3.7l10.2-4c0.4-0.2,0.9,0,1.2,0.3c1.3,1.7,2.8,3.2,4.5,4.5
					c0.4,0.3,0.5,0.8,0.3,1.2l-4,10.2l3.7,2.1l6.8-8.6c0.3-0.4,0.8-0.5,1.2-0.3c2,0.8,4.1,1.3,6.2,1.6c0.5,0.1,0.8,0.4,0.9,0.9
					L101.5,182.6z M103.6,157.8c-9.2,0-16.7-7.5-16.7-16.7c0-9.2,7.5-16.7,16.7-16.7c9.2,0,16.7,7.5,16.7,16.7
					C120.3,150.3,112.8,157.8,103.6,157.8z M103.6,126.6c-8,0-14.5,6.5-14.5,14.5c0,8,6.5,14.5,14.5,14.5c8,0,14.5-6.5,14.5-14.5
					C118.2,133.1,111.6,126.6,103.6,126.6z"/>
			</g>
		</g>
		<g>
			<path class="st0" d="M103.6,120.3c-1.5,0-2.7-1.2-2.7-2.7c0-1.5,1.2-2.7,2.7-2.7c1.5,0,2.7,1.2,2.7,2.7
				C106.3,119.1,105.1,120.3,103.6,120.3z M103.6,117.1c-0.3,0-0.5,0.2-0.5,0.5c0,0.3,0.2,0.5,0.5,0.5c0.3,0,0.5-0.2,0.5-0.5
				C104.2,117.3,103.9,117.1,103.6,117.1z"/>
		</g>
		<g>
			<path class="st0" d="M115.4,123.4c-0.5,0-0.9-0.1-1.3-0.4c-0.6-0.4-1.1-0.9-1.2-1.6s-0.1-1.4,0.3-2c0.7-1.2,2.4-1.7,3.6-1
				c0.6,0.3,1.1,0.9,1.2,1.6c0.2,0.7,0.1,1.4-0.3,2C117.2,122.9,116.3,123.4,115.4,123.4z M115.4,120.2c-0.2,0-0.3,0.1-0.4,0.3
				c-0.1,0.1-0.1,0.3-0.1,0.4c0,0.1,0.1,0.2,0.2,0.3c0.2,0.1,0.6,0.1,0.7-0.2c0.1-0.2,0.1-0.3,0.1-0.4s-0.1-0.2-0.2-0.3
				C115.6,120.3,115.5,120.2,115.4,120.2z"/>
		</g>
		<g>
			<path class="st0" d="M124,132c-0.9,0-1.8-0.5-2.3-1.3c-0.3-0.6-0.4-1.3-0.3-2c0.2-0.7,0.6-1.2,1.2-1.6c1.2-0.7,2.9-0.2,3.6,1
				c0.3,0.6,0.4,1.3,0.3,2c-0.2,0.7-0.6,1.3-1.2,1.6C124.9,131.9,124.5,132,124,132z M124,128.8c-0.1,0-0.2,0-0.3,0.1
				c-0.2,0.1-0.2,0.2-0.2,0.3c0,0.1,0,0.2,0.1,0.4c0.2,0.3,0.5,0.3,0.7,0.2c0.1-0.1,0.2-0.2,0.3-0.3c0-0.1,0-0.2-0.1-0.4
				C124.4,128.9,124.2,128.8,124,128.8z"/>
		</g>
		<g>
			<path class="st0" d="M127.2,143.8c-1.5,0-2.7-1.2-2.7-2.7c0-1.5,1.2-2.7,2.7-2.7c1.5,0,2.7,1.2,2.7,2.7
				C129.8,142.6,128.6,143.8,127.2,143.8z M127.2,140.6c-0.3,0-0.5,0.2-0.5,0.5c0,0.3,0.2,0.5,0.5,0.5c0.3,0,0.5-0.2,0.5-0.5
				C127.7,140.8,127.5,140.6,127.2,140.6z"/>
		</g>
		<g>
			<path class="st0" d="M124,155.6c-0.5,0-0.9-0.1-1.3-0.4c-1.3-0.7-1.7-2.4-1-3.6c0.7-1.2,2.4-1.7,3.6-1c0.6,0.3,1.1,0.9,1.2,1.6
				c0.2,0.7,0.1,1.4-0.3,2C125.8,155.1,125,155.6,124,155.6z M124,152.4c-0.2,0-0.3,0.1-0.4,0.2c-0.2,0.3-0.1,0.6,0.2,0.7
				s0.6,0.1,0.7-0.2c0.1-0.2,0.1-0.3,0.1-0.4c0-0.1-0.1-0.2-0.2-0.3C124.2,152.4,124.1,152.4,124,152.4z"/>
		</g>
		<g>
			<path class="st0" d="M115.4,164.2c-0.9,0-1.8-0.5-2.3-1.3c-0.7-1.3-0.3-2.9,1-3.6c1.2-0.7,2.9-0.3,3.6,1c0.3,0.6,0.4,1.3,0.3,2
				s-0.6,1.3-1.2,1.6C116.3,164.1,115.9,164.2,115.4,164.2z M115.4,161c-0.1,0-0.2,0-0.3,0.1c-0.2,0.2-0.3,0.5-0.2,0.7
				c0.2,0.2,0.5,0.4,0.7,0.2c0.1-0.1,0.2-0.2,0.3-0.3c0-0.1,0-0.2-0.1-0.4C115.8,161.1,115.6,161,115.4,161z"/>
		</g>
		<g>
			<path class="st0" d="M103.6,167.3c-1.5,0-2.7-1.2-2.7-2.7c0-1.5,1.2-2.7,2.7-2.7c1.5,0,2.7,1.2,2.7,2.7
				C106.3,166.1,105.1,167.3,103.6,167.3z M103.6,164.1c-0.3,0-0.5,0.2-0.5,0.5c0,0.3,0.2,0.5,0.5,0.5c0.3,0,0.5-0.2,0.5-0.5
				C104.2,164.4,103.9,164.1,103.6,164.1z"/>
		</g>
		<g>
			<path class="st0" d="M91.9,164.2c-0.5,0-0.9-0.1-1.3-0.4c-0.6-0.4-1-0.9-1.2-1.6c-0.2-0.7-0.1-1.4,0.3-2c0.7-1.2,2.4-1.7,3.6-1
				c0.6,0.4,1.1,0.9,1.2,1.6c0.2,0.7,0.1,1.4-0.3,2C93.7,163.7,92.8,164.2,91.9,164.2z M91.9,161c-0.2,0-0.3,0.1-0.4,0.3
				c-0.1,0.1-0.1,0.3-0.1,0.4c0,0.1,0.1,0.2,0.2,0.3c0.2,0.1,0.6,0.1,0.7-0.2c0.1-0.1,0.1-0.3,0.1-0.4c0-0.1-0.1-0.3-0.3-0.3
				C92,161,92,161,91.9,161z"/>
		</g>
		<g>
			<path class="st0" d="M83.3,155.6c-0.9,0-1.8-0.5-2.3-1.3c-0.4-0.6-0.5-1.3-0.3-2c0.2-0.7,0.6-1.2,1.2-1.6c1.2-0.7,2.9-0.2,3.6,1
				c0.7,1.3,0.3,2.9-1,3.6C84.2,155.4,83.7,155.6,83.3,155.6z M83.3,152.4c-0.1,0-0.2,0-0.3,0.1c-0.2,0.1-0.2,0.2-0.2,0.3
				c0,0.1,0,0.2,0,0.4c0.2,0.3,0.5,0.3,0.7,0.2c0.3-0.1,0.3-0.5,0.2-0.7C83.6,152.5,83.5,152.4,83.3,152.4z"/>
		</g>
		<g>
			<path class="st0" d="M80.1,143.8c-1.5,0-2.7-1.2-2.7-2.7c0-1.5,1.2-2.7,2.7-2.7s2.7,1.2,2.7,2.7
				C82.8,142.6,81.6,143.8,80.1,143.8z M80.1,140.6c-0.3,0-0.5,0.2-0.5,0.5c0,0.3,0.2,0.5,0.5,0.5c0.3,0,0.5-0.2,0.5-0.5
				C80.6,140.8,80.4,140.6,80.1,140.6z"/>
		</g>
		<g>
			<path class="st0" d="M83.2,132c-0.5,0-0.9-0.1-1.3-0.4c-0.6-0.3-1.1-0.9-1.2-1.6c-0.2-0.7-0.1-1.4,0.3-2c0.7-1.2,2.4-1.7,3.6-1
				c0.6,0.3,1.1,0.9,1.2,1.6c0.2,0.7,0.1,1.4-0.3,2C85.1,131.5,84.2,132,83.2,132z M83.3,128.8c-0.2,0-0.3,0.1-0.4,0.3
				c-0.1,0.1-0.1,0.3-0.1,0.4c0,0.1,0.1,0.2,0.2,0.3c0.3,0.2,0.6,0.1,0.7-0.2c0.1-0.2,0.1-0.3,0-0.4c0-0.1-0.1-0.2-0.2-0.3
				C83.4,128.9,83.3,128.8,83.3,128.8z"/>
		</g>
		<g>
			<path class="st0" d="M91.9,123.4c-0.9,0-1.8-0.5-2.3-1.3c-0.4-0.6-0.5-1.3-0.3-2c0.2-0.7,0.6-1.2,1.2-1.6c1.2-0.7,2.9-0.2,3.6,1
				c0.3,0.6,0.5,1.3,0.3,2c-0.2,0.7-0.6,1.3-1.2,1.6C92.8,123.3,92.3,123.4,91.9,123.4z M91.9,120.2c-0.1,0-0.2,0-0.3,0.1
				c-0.2,0.1-0.2,0.2-0.2,0.3c0,0.1,0,0.2,0.1,0.4c0.2,0.3,0.5,0.3,0.7,0.2c0.1-0.1,0.2-0.2,0.3-0.3c0-0.1,0-0.2,0-0.4
				C92.2,120.3,92.1,120.2,91.9,120.2z"/>
		</g>
		<g>
			<g>
				<path class="st0" d="M153.1,113h-4c-0.5,0-1-0.4-1.1-0.9l-1-6.9c-1-0.2-1.9-0.4-2.9-0.8l-4.4,5.5c-0.3,0.4-0.9,0.5-1.4,0.3
					l-3.5-2c-0.5-0.3-0.7-0.8-0.5-1.3l2.6-6.5c-0.7-0.6-1.4-1.3-2.1-2.1l-6.5,2.6c-0.5,0.2-1,0-1.3-0.5l-2-3.4
					c-0.3-0.5-0.2-1,0.3-1.4l5.5-4.3c-0.3-0.9-0.6-1.9-0.8-2.9l-6.9-1c-0.5-0.1-0.9-0.5-0.9-1.1v-4c0-0.5,0.4-1,0.9-1.1l6.9-1
					c0.2-1,0.4-2,0.8-2.9l-5.5-4.3c-0.4-0.3-0.5-0.9-0.3-1.4l2-3.4c0.3-0.5,0.8-0.6,1.3-0.5l6.5,2.6c0.7-0.8,1.4-1.5,2.1-2.1
					l-2.6-6.5c-0.2-0.5,0-1,0.5-1.3l3.5-2c0.5-0.3,1-0.2,1.4,0.3l4.4,5.5c0.9-0.3,1.9-0.6,2.9-0.8l1-6.9c0.1-0.5,0.5-0.9,1.1-0.9h4
					c0.5,0,1,0.4,1.1,0.9l1,6.9c1,0.2,1.9,0.5,2.9,0.8l4.4-5.5c0.3-0.4,0.9-0.5,1.4-0.3l3.4,2c0.4,0.3,0.7,0.8,0.5,1.3l-2.6,6.5
					c0.7,0.7,1.4,1.4,2.1,2.1l6.5-2.6c0.5-0.2,1,0,1.3,0.5l2,3.4c0.3,0.5,0.1,1-0.3,1.4l-5.5,4.3c0.3,0.9,0.6,1.9,0.8,2.9l6.9,1
					c0.5,0.1,0.9,0.5,0.9,1.1v4c0,0.5-0.4,1-0.9,1.1l-6.9,1c-0.2,1-0.4,2-0.8,2.9l5.5,4.3c0.4,0.3,0.5,0.9,0.3,1.4l-2,3.4
					c-0.3,0.4-0.8,0.7-1.3,0.5l-6.5-2.6c-0.7,0.8-1.4,1.5-2.1,2.1l2.6,6.5c0.2,0.5,0,1.1-0.5,1.3l-3.4,2c-0.5,0.3-1,0.2-1.4-0.3
					l-4.4-5.5c-0.9,0.3-1.9,0.6-2.9,0.8l-1,6.9C154.1,112.6,153.6,113,153.1,113z M150,110.8h2.2l1-6.8c0.1-0.5,0.4-0.8,0.9-0.9
					c1.3-0.2,2.7-0.6,4-1.1c0.4-0.2,0.9,0,1.2,0.3l4.3,5.3l1.9-1.1l-2.5-6.4c-0.2-0.4,0-0.9,0.3-1.2c1-0.8,2-1.8,2.9-2.9
					c0.3-0.4,0.8-0.5,1.2-0.3l6.4,2.5l1.1-1.9l-5.3-4.3c-0.4-0.3-0.5-0.8-0.3-1.2c0.5-1.2,0.8-2.6,1.1-4c0.1-0.5,0.4-0.8,0.9-0.9
					l6.8-1V83l-6.8-1c-0.5-0.1-0.8-0.4-0.9-0.9c-0.2-1.4-0.6-2.7-1.1-4c-0.2-0.4,0-0.9,0.3-1.2l5.3-4.3l-1.1-1.9l-6.4,2.5
					c-0.4,0.2-0.9,0-1.2-0.3c-0.9-1.1-1.9-2.1-2.9-2.9c-0.4-0.3-0.5-0.8-0.3-1.2l2.5-6.4l-1.9-1.1l-4.3,5.3
					c-0.3,0.4-0.8,0.5-1.2,0.3c-1.3-0.5-2.6-0.8-4-1.1c-0.5-0.1-0.8-0.4-0.9-0.9l-1-6.8H150l-1,6.8c-0.1,0.5-0.4,0.8-0.9,0.9
					c-1.4,0.2-2.7,0.6-4,1.1c-0.4,0.2-0.9,0-1.2-0.3l-4.2-5.3l-1.9,1.1l2.5,6.4c0.2,0.4,0,0.9-0.3,1.2c-1,0.8-2,1.8-2.9,2.9
					c-0.3,0.4-0.8,0.5-1.2,0.3l-6.4-2.5l-1.1,1.9l5.3,4.3c0.4,0.3,0.5,0.8,0.3,1.2c-0.5,1.2-0.8,2.6-1.1,4c-0.1,0.5-0.4,0.8-0.9,0.9
					l-6.8,1v2.2l6.8,1c0.5,0.1,0.8,0.4,0.9,0.9c0.2,1.4,0.6,2.7,1.1,4c0.2,0.4,0,0.9-0.3,1.2l-5.3,4.3l1.1,1.9l6.4-2.5
					c0.4-0.2,0.9,0,1.2,0.3c0.9,1.1,1.9,2.1,2.9,2.9c0.4,0.3,0.5,0.8,0.3,1.2l-2.5,6.4l1.9,1.1l4.2-5.3c0.3-0.4,0.8-0.5,1.2-0.3
					c1.3,0.5,2.6,0.8,4,1.1c0.5,0.1,0.8,0.4,0.9,0.9L150,110.8z M151.1,95.4c-6.2,0-11.2-5-11.2-11.2c0-6.2,5.1-11.2,11.2-11.2
					c6.2,0,11.2,5,11.2,11.2C162.3,90.3,157.3,95.4,151.1,95.4z M151.1,75c-5,0-9.1,4.1-9.1,9.1c0,5,4.1,9.1,9.1,9.1
					c5,0,9.1-4.1,9.1-9.1C160.2,79.1,156.1,75,151.1,75z"/>
			</g>
		</g>
	</g>
</g>
</svg>
