<?xml version="1.0" encoding="utf-8"?>
<!-- Generator: Adobe Illustrator 25.2.1, SVG Export Plug-In . SVG Version: 6.00 Build 0)  -->
<svg version="1.1" id="圖層_1" xmlns="http://www.w3.org/2000/svg" xmlns:xlink="http://www.w3.org/1999/xlink" x="0px" y="0px"
	 viewBox="0 0 240 240" style="enable-background:new 0 0 240 240;" xml:space="preserve">
<style type="text/css">
	.st0{fill:#1B3372;}
</style>
<g>
	<g>
		<g>
			<path class="st0" d="M141.1,163.4h-39.2c-0.6,0-1.1-0.5-1.1-1.1v-25.7c-9.3-6.7-14.8-17.4-14.8-28.9c0-19.6,15.9-35.5,35.5-35.5
				c19.6,0,35.5,15.9,35.5,35.5c0,11.4-5.5,22.2-14.9,28.9v25.8C142.2,162.9,141.7,163.4,141.1,163.4z M103,161.3h37.1v-25.2
				c0-0.3,0.2-0.7,0.5-0.9c9-6.3,14.4-16.5,14.4-27.5c0-18.4-15-33.4-33.4-33.4s-33.4,15-33.4,33.4c0,10.9,5.4,21.2,14.4,27.4
				c0.3,0.2,0.5,0.5,0.5,0.9C103,136.1,103,161.3,103,161.3z"/>
		</g>
		<g>
			<path class="st0" d="M119.5,68.8c-0.6,0-1.1-0.5-1.1-1.1V56c0-0.6,0.5-1.1,1.1-1.1s1.1,0.5,1.1,1.1v11.7
				C120.5,68.3,120,68.8,119.5,68.8z"/>
		</g>
		<g>
			<path class="st0" d="M133.4,70.1c-0.1,0-0.2,0-0.3,0c-0.6-0.2-0.9-0.7-0.8-1.3l3-11.3c0.1-0.6,0.8-0.9,1.3-0.8
				c0.6,0.2,0.9,0.7,0.8,1.3l-3,11.3C134.3,69.8,133.9,70.1,133.4,70.1z"/>
		</g>
		<g>
			<path class="st0" d="M146.6,75c-0.2,0-0.4-0.1-0.5-0.1c-0.5-0.3-0.7-1-0.4-1.5l5.8-10.1c0.3-0.5,0.9-0.7,1.5-0.4
				c0.5,0.3,0.7,1,0.4,1.5l-5.8,10.1C147.3,74.8,146.9,75,146.6,75z"/>
		</g>
		<g>
			<path class="st0" d="M158,83.2c-0.3,0-0.6-0.1-0.8-0.3c-0.4-0.4-0.4-1.1,0-1.5l8.2-8.2c0.4-0.4,1.1-0.4,1.5,0s0.4,1.1,0,1.5
				l-8.2,8.2C158.6,83.1,158.3,83.2,158,83.2z"/>
		</g>
		<g>
			<path class="st0" d="M82,85.9c-0.3,0-0.5-0.1-0.8-0.3L73,77.3c-0.4-0.4-0.4-1.1,0-1.5c0.4-0.4,1.1-0.4,1.5,0l8.2,8.2
				c0.4,0.4,0.4,1.1,0,1.5C82.5,85.8,82.3,85.9,82,85.9z"/>
		</g>
		<g>
			<path class="st0" d="M92.8,76.9c-0.4,0-0.7-0.2-0.9-0.5l-5.8-10.1c-0.3-0.5-0.1-1.2,0.4-1.5c0.5-0.3,1.2-0.1,1.5,0.4l5.8,10.1
				c0.3,0.5,0.1,1.2-0.4,1.5C93.2,76.9,93,76.9,92.8,76.9z"/>
		</g>
		<g>
			<path class="st0" d="M105.6,71.1c-0.5,0-0.9-0.3-1-0.8l-3-11.3c-0.2-0.6,0.2-1.2,0.8-1.3c0.6-0.1,1.2,0.2,1.3,0.8l3,11.3
				c0.2,0.6-0.2,1.2-0.8,1.3C105.8,71.1,105.7,71.1,105.6,71.1z"/>
		</g>
		<g>
			<path class="st0" d="M99.1,125.6c-0.4,0-0.7-0.2-0.9-0.5l-2-3.4c-0.3-0.5-0.2-1,0.3-1.4l5.3-4.2c-0.3-0.9-0.6-1.8-0.7-2.8l-6.7-1
				c-0.5-0.1-0.9-0.5-0.9-1.1v-3.9c0-0.5,0.4-1,0.9-1.1l6.7-1c0.2-1,0.4-1.9,0.7-2.8l-5.3-4.2c-0.4-0.3-0.5-0.9-0.3-1.4l2-3.4
				c0.3-0.5,0.8-0.7,1.3-0.5l6.3,2.5c0.6-0.7,1.3-1.4,2-2l-2.5-6.3c-0.2-0.5,0-1,0.5-1.3l3.4-1.9c0.5-0.3,1-0.2,1.4,0.3l4.2,5.3
				c0.9-0.3,1.8-0.5,2.8-0.7l1-6.7c0.1-0.5,0.5-0.9,1.1-0.9h3.9c0.5,0,1,0.4,1.1,0.9l1,6.7c1,0.2,1.9,0.4,2.8,0.7l4.2-5.3
				c0.3-0.4,0.9-0.5,1.4-0.3l3.4,1.9c0.5,0.3,0.7,0.8,0.5,1.3l-2.5,6.3c0.7,0.6,1.4,1.3,2,2l6.3-2.5c0.5-0.2,1.1,0,1.3,0.5l1.9,3.4
				c0.3,0.5,0.1,1-0.3,1.4l-5.3,4.2c0.3,0.9,0.6,1.8,0.7,2.8l6.7,1c0.5,0.1,0.9,0.5,0.9,1.1v3.9c0,0.5-0.4,1-0.9,1.1l-6.7,1
				c-0.2,0.9-0.4,1.9-0.7,2.8l5.3,4.2c0.4,0.3,0.5,0.9,0.3,1.4L145,125c-0.3,0.5-0.8,0.7-1.3,0.5l-7.1-2.8c-0.6-0.2-0.8-0.8-0.6-1.4
				c0.2-0.6,0.8-0.8,1.4-0.6l6.2,2.4l1-1.8l-5.2-4.1c-0.4-0.3-0.5-0.8-0.3-1.2c0.5-1.3,0.8-2.6,1-3.8c0.1-0.5,0.4-0.8,0.9-0.9l6.6-1
				v-2l-6.6-1c-0.5-0.1-0.8-0.4-0.9-0.9c-0.2-1.3-0.5-2.6-1-3.8c-0.2-0.4,0-0.9,0.3-1.2l5.2-4.1l-1-1.8l-6.2,2.4
				c-0.4,0.2-0.9,0-1.2-0.3c-0.8-1-1.8-2-2.8-2.8c-0.4-0.3-0.5-0.8-0.3-1.2l2.4-6.2l-1.8-1l-4.1,5.2c-0.3,0.4-0.8,0.5-1.2,0.3
				c-1.2-0.5-2.5-0.8-3.8-1c-0.5-0.1-0.8-0.4-0.9-0.9l-1-6.6h-2.1l-1,6.6c-0.1,0.5-0.4,0.8-0.9,0.9c-1.4,0.2-2.7,0.6-3.8,1
				c-0.4,0.2-0.9,0-1.2-0.3l-4.2-5.2l-1.8,1l2.4,6.2c0.2,0.4,0,0.9-0.3,1.2c-1.1,0.9-2,1.8-2.8,2.8c-0.3,0.4-0.8,0.5-1.2,0.3
				l-6.2-2.4l-1,1.8l5.2,4.1c0.4,0.3,0.5,0.8,0.3,1.2c-0.5,1.2-0.8,2.5-1,3.9c-0.1,0.5-0.4,0.8-0.9,0.9l-6.6,1v2l6.6,1
				c0.5,0.1,0.8,0.4,0.9,0.9c0.2,1.3,0.6,2.7,1,3.9c0.2,0.4,0,0.9-0.3,1.2l-5.2,4.1l1,1.8l6.2-2.4c0.5-0.2,1.2,0.1,1.4,0.6
				c0.2,0.6-0.1,1.2-0.6,1.4l-7.1,2.8C99.3,125.5,99.2,125.6,99.1,125.6z"/>
		</g>
		<g>
			<path class="st0" d="M146.2,143.3H96.9c-0.6,0-1.1-0.5-1.1-1.1s0.5-1.1,1.1-1.1h49.3c0.6,0,1.1,0.5,1.1,1.1
				S146.8,143.3,146.2,143.3z"/>
		</g>
		<g>
			<path class="st0" d="M146.2,150.5H96.9c-0.6,0-1.1-0.5-1.1-1.1s0.5-1.1,1.1-1.1h49.3c0.6,0,1.1,0.5,1.1,1.1
				S146.8,150.5,146.2,150.5z"/>
		</g>
		<g>
			<path class="st0" d="M146.2,157.1H96.9c-0.6,0-1.1-0.5-1.1-1.1s0.5-1.1,1.1-1.1h49.3c0.6,0,1.1,0.5,1.1,1.1
				S146.8,157.1,146.2,157.1z"/>
		</g>
		<g>
			<path class="st0" d="M134.3,175h-25.5c-0.6,0-1.1-0.5-1.1-1.1v-11.6c0-0.6,0.5-1.1,1.1-1.1h25.5c0.6,0,1.1,0.5,1.1,1.1v11.6
				C135.4,174.5,134.9,175,134.3,175z M109.8,172.9h23.4v-9.4h-23.4V172.9z"/>
		</g>
		<g>
			<path class="st0" d="M125.6,185h-8.2c-0.6,0-1.1-0.5-1.1-1.1v-10c0-0.6,0.5-1.1,1.1-1.1h8.2c0.6,0,1.1,0.5,1.1,1.1v10
				C126.7,184.6,126.2,185,125.6,185z M118.5,182.9h6.1V175h-6.1V182.9z"/>
		</g>
		<path class="st0" d="M122.4,118.6c1-0.1,1.9-0.6,2.6-1.4c0.7-0.8,1-1.8,1-2.9c0-1-0.2-1.8-0.7-2.4c-0.5-0.6-1.5-1.1-2.9-1.5
			C122.4,110.5,122.4,118.6,122.4,118.6z M120.8,99.9c-1.1,0.2-1.9,0.6-2.5,1.3c-0.6,0.7-0.9,1.5-0.9,2.4s0.2,1.7,0.8,2.3
			c0.5,0.6,1.4,1.1,2.6,1.4V99.9z M120.8,123.6v-2.7c-1.3-0.2-2.4-0.5-3.3-0.9c-0.8-0.4-1.6-1.2-2.2-2.1c-0.6-1-1-2.2-1.1-3.6
			l2.7-0.5c0.2,1.5,0.6,2.5,1.1,3.2c0.8,1,1.7,1.5,2.7,1.6v-8.5c-1.1-0.3-2.2-0.8-3.4-1.4c-0.8-0.5-1.5-1.1-2-2
			c-0.4-0.9-0.7-1.8-0.7-2.9c0-1.9,0.7-3.5,2-4.7c0.9-0.8,2.3-1.3,4.1-1.5v-1.3h1.6v1.3c1.6,0.2,2.8,0.6,3.7,1.4
			c1.2,1,1.9,2.3,2.1,4.1l-2.8,0.4c-0.2-1.1-0.5-1.9-1-2.5c-0.5-0.6-1.2-1-2.1-1.1v7.8c1.3,0.3,2.2,0.6,2.7,0.8
			c0.8,0.4,1.5,0.8,2.1,1.4c0.5,0.5,0.9,1.2,1.2,1.9c0.3,0.7,0.4,1.5,0.4,2.4c0,1.9-0.6,3.4-1.8,4.7c-1.2,1.2-2.7,1.9-4.6,2v2.7
			L120.8,123.6L120.8,123.6z"/>
	</g>
</g>
</svg>
