<?xml version="1.0" encoding="utf-8"?>
<!-- Generator: Adobe Illustrator 25.2.1, SVG Export Plug-In . SVG Version: 6.00 Build 0)  -->
<svg version="1.1" id="圖層_1" xmlns="http://www.w3.org/2000/svg" xmlns:xlink="http://www.w3.org/1999/xlink" x="0px" y="0px"
	 viewBox="0 0 240 240" style="enable-background:new 0 0 240 240;" xml:space="preserve">
<style type="text/css">
	.st0{fill:#1B3372;}
</style>
<g id="vKQv8c_2_">
	<g>
		<path class="st0" d="M118.5,56.5c-19.1,0-37.6,0-56.4,0c0,39.5,0,79,0,119c1.2,0,2.4,0,3.7,0c17,0,34,0,51,0
			c1.1,0,2.4-0.3,3.2,0.1c1,0.5,2.1,1.6,2.3,2.6c0.1,0.6-1.4,1.6-2.3,2.2c-0.5,0.3-1.4,0.1-2.2,0.1c-18.8,0-37.7-0.1-56.5,0.1
			c-3.5,0-4.8-1.1-4.8-4.6c0.1-40.1,0.1-80.2,0-120.3c0-3.2,1.2-4.4,4.5-4.4c19.3,0.1,38.6,0,58,0.1c1.7,0,3.8,0.9,5.1,2.1
			c9.4,8.8,18.7,17.8,28,26.8c0.6,0.6,1.7,1.2,1.7,1.8c0.2,5.9,0.2,11.8,0.1,17.7c0,0.4-1.8,1.3-2.3,1.1c-0.9-0.5-1.9-1.6-2-2.5
			c-0.2-3.2-0.2-6.4-0.1-9.6c0.1-2.3-0.7-3.1-3.1-3.1c-7.8,0.1-15.7-0.1-23.5,0.1c-3.3,0.1-4.6-1-4.5-4.3
			C118.6,73.4,118.5,65.2,118.5,56.5z M145.1,80.8c-3.8-3.8-7.2-7.2-10.6-10.5c-3.4-3.4-6.9-6.7-10.8-10.4c0,7.5,0,14.1,0,20.9
			C130.7,80.8,137.6,80.8,145.1,80.8z"/>
		<path class="st0" d="M128.5,171.7c0-1.8-0.1-3.6,0-5.4c0.2-5.7-0.6-10.8-3.8-16.1c-7.7-12.8-3.4-29.4,8.8-38.2
			c12.3-8.9,29.3-7.8,40.3,2.4c11.1,10.4,12.6,27,3.9,39.5c-1.1,1.6-1.8,3.8-1.9,5.8c-0.2,8.4,0,16.9-0.1,25.3
			c0,1.2-0.5,3.1-1.2,3.3c-1.1,0.4-2.8-0.1-3.9-0.8c-5.4-3.6-10.9-7.3-16.1-11.2c-2.3-1.8-3.8-1.5-5.9,0.2
			c-4.6,3.7-9.4,7.1-14.3,10.5c-1.2,0.9-3,1-4.5,1.5c-0.5-1.5-1.2-3-1.3-4.5C128.4,180,128.5,175.8,128.5,171.7z M126.1,136.2
			c0,14.1,11.5,25.5,25.9,25.6c14.1,0.2,26.2-11.5,26.3-25.4c0-13.9-11.8-25.5-26-25.6C137.9,110.8,126.2,122.2,126.1,136.2z
			 M134,161.2c0,6.7,0,13.2,0,20.1c5.2-3.8,10-7.2,14.7-10.9c2.1-1.6,3.8-1.6,5.9-0.1c4.2,3.1,8.5,6,12.8,8.9c1,0.7,2.1,1.3,3.3,2.1
			c0-7,0-13.5,0-20.3C158.2,168.5,146.1,168.5,134,161.2z"/>
		<path class="st0" d="M100.8,101.9c-5.9,0-11.7,0-17.6,0c-1.9,0-3.9-0.2-3.9-2.7c0.1-2.4,2-2.3,3.7-2.3c11.9,0,23.7,0,35.6,0
			c1.9,0,4.2,0.1,3.8,2.5c-0.2,1-2.6,2.3-4,2.4C112.5,102.1,106.6,101.9,100.8,101.9z"/>
		<path class="st0" d="M100.8,120c-6,0-12,0-18,0c-1.8,0-3.9-0.2-3.4-2.5c0.2-1,2.1-2.3,3.3-2.4c12.1-0.2,24.2-0.2,36.3,0
			c1.2,0,2.4,1.6,3.7,2.5c-1.3,0.8-2.6,2.2-3.9,2.2C112.8,120.1,106.8,120,100.8,120z"/>
		<path class="st0" d="M93.5,133.4c3.5,0,7.1-0.2,10.6,0.1c1.1,0.1,2.1,1.4,3.2,2.1c-1,0.9-2.1,2.6-3.1,2.6
			c-7.3,0.2-14.6,0.2-21.9,0c-1,0-2-1.6-2.9-2.4c1.1-0.8,2.1-2.2,3.3-2.3C86.1,133.2,89.8,133.4,93.5,133.4z"/>
		<path class="st0" d="M149.7,140.8c3.1-4.4,6.1-8.6,9-12.8c1-1.5,2.1-3.4,4.3-2.1c2.4,1.4,1.1,3.2-0.1,4.9
			c-3.3,4.7-6.7,9.4-9.9,14.1c-1.7,2.5-3.4,2.8-5.6,0.7c-2-1.9-4.3-3.6-6.1-5.7c-0.7-0.8-0.5-2.5-0.7-3.7c1.3,0.1,2.9-0.3,3.9,0.2
			C146.4,137.6,147.8,139.2,149.7,140.8z"/>
	</g>
</g>
</svg>
