<?xml version="1.0" encoding="utf-8"?>
<!-- Generator: Adobe Illustrator 25.2.1, SVG Export Plug-In . SVG Version: 6.00 Build 0)  -->
<svg version="1.1" id="圖層_1" xmlns="http://www.w3.org/2000/svg" xmlns:xlink="http://www.w3.org/1999/xlink" x="0px" y="0px"
	 viewBox="0 0 240 240" style="enable-background:new 0 0 240 240;" xml:space="preserve">
<style type="text/css">
	.st0{fill:#1B3372;}
</style>
<g>
	<g>
		<path class="st0" d="M94.5,175.2H69.4V88.9H47.8v-20l46.7-4.1V175.2z M73.6,171h16.7V69.4L52,72.7v12h21.6V171z"/>
	</g>
	<g>
		<path class="st0" d="M192.2,175.2h-74.3v-16.6l32.9-37.2c4.7-5.5,8.1-10.2,10-14c1.9-3.6,2.8-7,2.8-9.9c0-3.8-0.9-6.8-2.7-9
			c-1.8-2.1-4.4-3.1-8.1-3.1c-3.9,0-6.8,1.3-8.9,4.1c-2.2,2.9-3.3,6.7-3.3,11.3v2.1h-24l-0.7-2.2l0-0.3c-0.3-9.8,3-18.3,9.8-25.1
			c6.7-6.8,15.9-10.3,27.1-10.3c11.2,0,20.1,3,26.4,8.8c6.4,5.9,9.6,13.8,9.6,23.6c0,6.6-1.8,12.8-5.3,18.3
			c-3.4,5.2-9.2,12.5-17.4,21.7l-14.6,17.5h40.8V175.2z M122.1,171H188v-11.9h-42l-1.1-2.8l18-21.6c8.1-9.1,13.8-16.2,17-21.3
			c3.1-4.8,4.7-10.2,4.7-16c0-8.7-2.7-15.4-8.2-20.5c-5.5-5.1-13.4-7.7-23.6-7.7c-10.1,0-18.2,3-24.1,9c-5.6,5.7-8.4,12.4-8.6,20.4
			h16.4c0.3-4.6,1.7-8.5,4.1-11.7c2.9-3.8,7-5.8,12.2-5.8c4.9,0,8.7,1.6,11.3,4.6c2.5,3,3.7,6.9,3.7,11.7c0,3.6-1.1,7.6-3.3,11.8
			c-2.1,4.1-5.7,9.1-10.6,14.9l-31.9,36V171z"/>
	</g>
</g>
</svg>
