<?xml version="1.0" encoding="utf-8"?>
<!-- Generator: Adobe Illustrator 25.2.1, SVG Export Plug-In . SVG Version: 6.00 Build 0)  -->
<svg version="1.1" id="圖層_1" xmlns="http://www.w3.org/2000/svg" xmlns:xlink="http://www.w3.org/1999/xlink" x="0px" y="0px"
	 viewBox="0 0 240 240" style="enable-background:new 0 0 240 240;" xml:space="preserve">
<style type="text/css">
	.st0{fill:#1B3372;}
</style>
<g>
	<g>
		<g>
			<path class="st0" d="M151.7,167.5H88.3c-0.2,0-0.4-0.1-0.5-0.2c-16.4-10.9-26.3-29.1-26.3-48.8C61.5,86.2,87.7,60,120,60
				c32.3,0,58.5,26.2,58.5,58.5c0,19.7-9.8,37.9-26.3,48.8C152.1,167.4,151.9,167.5,151.7,167.5z M88.6,165.5h62.8
				c15.8-10.5,25.1-28.1,25.1-47c0-31.2-25.4-56.5-56.5-56.5c-31.2,0-56.5,25.4-56.5,56.5C63.5,137.4,72.9,155,88.6,165.5z"/>
		</g>
		<g>
			<path class="st0" d="M155.4,157.8H84.6c-0.5,0-1-0.4-1-1v-26c0-0.4,0.2-0.8,0.6-0.9l24.3-9.6c0.4-0.2,0.8-0.1,1,0.2l10,9.6
				l10.8-9.7c0.3-0.2,0.7-0.3,1-0.2l24.3,9.6c0.4,0.1,0.6,0.5,0.6,0.9v26C156.4,157.4,155.9,157.8,155.4,157.8z M85.6,155.9h68.8
				v-24.4l-23.2-9.1l-11,9.9c-0.4,0.3-1,0.3-1.3,0l-10.2-9.8l-23.1,9.1V155.9z"/>
		</g>
		<g>
			<path class="st0" d="M143.5,157.8H96.5c-0.5,0-1-0.4-1-1v-16.3c0-0.6,0.4-1,1-1c0.5,0,1,0.4,1,1v15.3h44.9v-15.3c0-0.6,0.4-1,1-1
				c0.6,0,1,0.4,1,1v16.3C144.4,157.4,144,157.8,143.5,157.8z"/>
		</g>
		<g>
			<path class="st0" d="M131.7,134.7h-23.4c-0.5,0-1-0.4-1-1v-12.5c0-0.6,0.4-1,1-1c0.5,0,1,0.4,1,1v11.5h21.4v-11.5
				c0-0.6,0.4-1,1-1c0.5,0,1,0.4,1,1v12.5C132.7,134.3,132.2,134.7,131.7,134.7z"/>
		</g>
		<g>
			<path class="st0" d="M123.5,142.9h-7c-0.5,0-1-0.4-1-1v-8.2c0-0.6,0.4-1,1-1h7c0.5,0,1,0.4,1,1v8.2
				C124.5,142.5,124.1,142.9,123.5,142.9z M117.5,140.9h5.1v-6.2h-5.1V140.9z"/>
		</g>
		<g>
			<path class="st0" d="M126.4,157.8h-13.5c-0.3,0-0.6-0.1-0.8-0.4c-0.2-0.2-0.3-0.6-0.2-0.8l3.6-14.9c0.1-0.4,0.5-0.8,1-0.8h7
				c0.5,0,0.9,0.3,1,0.8l2.9,14.9c0.1,0.3,0,0.6-0.2,0.8C127,157.7,126.7,157.8,126.4,157.8z M114.1,155.9h11.1l-2.5-13h-5.4
				L114.1,155.9z"/>
		</g>
		<g>
			<path class="st0" d="M120.3,116.2c-10.2,0-18.5-8.3-18.5-18.5c0-10.2,8.3-18.5,18.5-18.5s18.5,8.3,18.5,18.5
				C138.8,107.9,130.5,116.2,120.3,116.2z M120.3,81.1c-9.1,0-16.6,7.4-16.6,16.5c0,9.1,7.4,16.6,16.6,16.6s16.6-7.4,16.6-16.6
				C136.9,88.5,129.4,81.1,120.3,81.1z"/>
		</g>
		<g>
			<path class="st0" d="M133.6,94.6c-4.5,0-9-1.4-12.1-3.8c-0.4-0.3-0.5-0.9-0.2-1.4s0.9-0.5,1.4-0.2c3.6,2.8,9.2,4,14.4,3.1
				c0.5-0.1,1.1,0.3,1.1,0.8c0.1,0.5-0.3,1-0.8,1.1C136.2,94.5,134.9,94.6,133.6,94.6z"/>
		</g>
		<g>
			<path class="st0" d="M111.1,94.3c-2.7,0-5.3-0.5-7.7-1.4c-0.5-0.2-0.8-0.8-0.6-1.3c0.2-0.5,0.8-0.8,1.3-0.6
				c2.2,0.8,4.6,1.2,7,1.2c8.1,0,14.7-4.6,14.7-10.2c0-0.6,0.4-1,1-1c0.5,0,1,0.4,1,1C127.7,88.8,120.2,94.3,111.1,94.3z"/>
		</g>
		<g>
			<path class="st0" d="M172.4,174.2H67.6c-0.5,0-1-0.4-1-1s0.4-1,1-1h104.8c0.5,0,1,0.4,1,1S172.9,174.2,172.4,174.2z"/>
		</g>
		<g>
			<path class="st0" d="M172.4,180H67.6c-0.5,0-1-0.4-1-1s0.4-1,1-1h104.8c0.5,0,1,0.4,1,1C173.4,179.6,172.9,180,172.4,180z"/>
		</g>
		<path class="st0" d="M157.5,90.8h-2.2l0,22.1c0,0.6,0.5,1.1,1.1,1.1l2.1,0l-5.3,4.2l-5.3-4.2h2.1c0.6,0,1.1-0.5,1.1-1.1V96.5h-2.2
			v15.3h-4.1c-0.3,0-0.6,0.1-0.9,0.4c-0.4,0.5-0.3,1.2,0.2,1.5l8.4,6.8c0.4,0.3,1,0.3,1.4,0l8.3-6.7c0.3-0.2,0.5-0.5,0.5-0.9
			c0-0.6-0.5-1.1-1.1-1.1h-4.2L157.5,90.8z M91.1,120.8h-2.2l0-22.1c0-0.6,0.5-1.1,1.1-1.1l2.1,0l-5.3-4.2l-5.3,4.2h2.1
			c0.6,0,1.1,0.5,1.1,1.1v16.4h-2.2V99.8h-4.1c-0.3,0-0.6-0.1-0.9-0.4c-0.4-0.5-0.3-1.2,0.2-1.5l8.4-6.8c0.4-0.3,1-0.3,1.4,0
			l8.3,6.7c0.3,0.2,0.5,0.5,0.5,0.9c0,0.6-0.5,1.1-1.1,1.1H91L91.1,120.8z"/>
	</g>
</g>
</svg>
