<?xml version="1.0" encoding="utf-8"?>
<!-- Generator: Adobe Illustrator 25.2.1, SVG Export Plug-In . SVG Version: 6.00 Build 0)  -->
<svg version="1.1" id="圖層_1" xmlns="http://www.w3.org/2000/svg" xmlns:xlink="http://www.w3.org/1999/xlink" x="0px" y="0px"
	 viewBox="0 0 240 240" style="enable-background:new 0 0 240 240;" xml:space="preserve">
<style type="text/css">
	.st0{fill:#1B3372;}
</style>
<path class="st0" d="M74.6,127.1c11.3-4,19.6-8.4,25.7-14.1c-1.8-2.3-4-3.8-6.4-4.2c-4.4-0.9-10.2,1.5-16.5,6.8
	c-1.2,1-2.9,1.2-4.3,0.6c-1.4-0.7-2.3-2.1-2.3-3.7c0-29.2,25-53,55.7-53c29.9,0,54.2,24.3,54.2,54.2c0,30.6-23.8,55.6-53,55.6
	c-1.6,0-3.1-0.9-3.7-2.4c-0.7-1.5-0.4-3.2,0.8-4.4c3.3-3.5,7.1-8.8,6.6-14.2c-0.3-2.7-1.6-5.3-4.1-7.8c-6.1,9-10.7,16.7-14.2,25.5
	c-2.3,5.9-7.1,10.7-12.8,13.1c-2.5,1.1-5,1.5-7.6,1.5c-2.6,0-5.1-0.5-7.4-1.5c-10.2-4.5-20.4-14.7-24.3-24.2
	c-2-4.9-1.9-10.5,0.5-15.6C63.9,133.5,68.7,129.1,74.6,127.1z M88.4,171.7c3.4,1.5,6.6,0.8,8.7-0.1c3.8-1.5,6.9-4.7,8.4-8.6
	c4.2-10.7,9.8-19.7,17.6-30.8c0.6-0.9,1.5-1.4,2.6-1.7c0.2,0,0.4,0,0.7,0c0.8,0,1.6,0.2,2.3,0.7c6.4,4.6,9.9,10.1,10.5,16.2
	c0.4,4.2-0.7,8.5-3,12.8c20.7-4.3,36.3-23.5,36.3-46.6c0-25.4-20.7-46.1-46.1-46.1c-23.2,0-42.6,15.8-46.8,36.7
	c5.7-3.2,10.9-4.3,15.8-3.3c5.6,1.1,10.2,4.8,13.6,10.9c0.8,1.5,0.6,3.4-0.6,4.7c-7.3,7.6-17.2,13.4-31.2,18.3
	c-3.7,1.3-6.9,4.2-8.6,7.9c-1.4,3.1-1.5,6.4-0.4,9.2C71.4,159.4,80.1,167.9,88.4,171.7z M73.2,146.4c-2.1,0.8-3,3.2-2.2,5.3
	c3,7.4,11.8,14,18.7,17c0.9,0.4,1.9,0.6,2.8,0.6c4,0,8.2-3.2,9.9-7.4c4.3-11,10.1-20.2,18-31.5l4.2-6l5.9,4.3
	c9,6.4,11.4,13.6,11.9,18.5c0.1,0.4,0.1,0.9,0.1,1.4c0,1.5,0.8,2.7,2.1,3.4c1.2,0.7,2.8,0.6,4-0.2c12.7-7.9,20.5-22.6,20.5-38.1
	c0-2.2-1.8-4-4-4s-4,1.8-4,4c0,10.6-4.4,20.6-11.7,27.4c-1.7-5.9-5.6-12.8-14.2-19l-6.5-4.6c-1.7-1.2-3.6-1.6-5.6-1.3
	c-2,0.4-3.7,1.4-4.9,3.1l-4.6,6.5c-8.2,11.8-14.3,21.4-18.9,33.2c-0.5,1.3-1.7,2.1-2.2,2.3c-6.3-2.8-12.5-8.3-14.2-12.6
	C77.7,146.6,75.3,145.6,73.2,146.4z M87.8,93.2c0,2.2,1.8,4,4,4c0,0,0.1,0,0.1,0c8.3,0,15.3,4.6,19.9,12.8c0.7,1.3,2.1,2.1,3.5,2.1
	c0.7,0,1.3-0.2,1.9-0.5c2-1.1,2.7-3.5,1.6-5.4c-6.1-11-15.6-17.1-26.9-17.1C89.8,89.2,87.8,91,87.8,93.2z"/>
</svg>
