<?xml version="1.0" encoding="utf-8"?>
<!-- Generator: Adobe Illustrator 25.2.1, SVG Export Plug-In . SVG Version: 6.00 Build 0)  -->
<svg version="1.1" id="圖層_1" xmlns="http://www.w3.org/2000/svg" xmlns:xlink="http://www.w3.org/1999/xlink" x="0px" y="0px"
	 viewBox="0 0 240 240" style="enable-background:new 0 0 240 240;" xml:space="preserve">
<style type="text/css">
	.st0{fill:#1B3372;}
</style>
<path class="st0" d="M103.9,70.2c-0.2-0.9,0-1.8,0.4-2.6c0.8-1.6,2.6-2.4,4.3-2l24.5,5.1l3.4-10.4c0.5-1.5,1.8-2.6,3.4-2.7
	c1.6-0.2,3.1,0.6,3.9,1.9l7.4,12.5c4.9-3.8,11-6.4,17.2-6.4c2.2,0,4,1.8,4,4s-1.8,4-4,4c-4.7,0-9.4,2.3-13.1,5.3l23.4,15.6
	c1.4,1,2.1,2.8,1.6,4.5c-0.5,1.7-2.1,2.9-3.9,2.9h-10.8l6.6,23.1c0.5,1.7-0.2,3.6-1.8,4.6c-0.7,0.4-1.4,0.5-2.1,0.5
	c0,13.2-5.9,26-16.7,34.2c-15.9,12.2-39.1,18.3-69,18.3c-1.1,0-2.3,0-3.4,0c-9.4-0.1-17.3-7.3-18.5-16.6
	C57,135.5,61.4,110,73.9,90.3C81,79.1,92,72.1,103.9,70.2z M79.4,174.4c29.7,0.4,52.3-5.1,67.4-16.6c10.6-8,15.3-21.5,13-34.6
	l-5.8-5.6c5.3,13.3,1.5,28.5-9.6,37c-13.8,10.5-34.5,15.8-61.6,15.8c-1.1,0-2.2,0-3.3,0c-2.2,0-4-1.9-4-4.1s1.9-4,4-4c0,0,0,0,0.1,0
	c26.8,0.5,47-4.4,59.9-14.1c8.6-6.6,11.3-18.9,6.3-29.2l-10.5,13.6c-0.8,1-2,1.6-3.2,1.6c-0.4,0-0.9-0.1-1.3-0.2
	c-1.6-0.6-2.7-2.1-2.7-3.8v-28.7l-28.7-3.6c-1.8-0.2-3.3-1.7-3.5-3.5s0.8-3.6,2.5-4.3l17-6.9l-5.2-5.4c-11.5,0.2-22.6,6.3-29.4,16.9
	c-11.5,18.1-15.5,41.8-11.9,70.3C69.5,170.3,74,174.3,79.4,174.4z M136.2,97.8v20.4l10.1-13.1c0.7-0.9,1.8-1.5,2.9-1.6
	c0.1,0,0.2,0,0.3,0c1,0,2,0.4,2.8,1.1l8.2,7.9l-3.9-13.7c-0.4-1.2-0.1-2.5,0.6-3.5c0.8-1,2-1.6,3.2-1.6h2.8L150.1,85
	c-0.1,0-0.1-0.1-0.1-0.1c-1.1,1.7-1.7,3.4-1.7,4.8c0,2.2-1.8,4-4,4s-4-1.8-4-4c0-3.8,1.9-8.2,5.1-12.1l-3.8-6.4l-1.7,5.3
	c-0.6,1.9-2.7,3.1-4.6,2.7l-15.2-3.2l5.4,5.6c0.9,1,1.3,2.3,1.1,3.6s-1.2,2.4-2.4,2.9l-8.3,3.4l17,2.1
	C134.7,94,136.2,95.8,136.2,97.8z M72.7,131.2c-1.6,1.6-1.6,4.2,0,5.7c0.8,0.8,1.9,1.2,2.9,1.2c1,0,2.1-0.4,2.9-1.2l4-4
	c1.6-1.6,1.6-4.2,0-5.7c-1.6-1.6-4.2-1.6-5.7,0L72.7,131.2z M84.9,107c-1.6,1.6-1.6,4.2,0,5.7c0.8,0.8,1.9,1.2,2.9,1.2
	c1,0,2.1-0.4,2.9-1.2l4-4c1.6-1.6,1.6-4.2,0-5.7s-4.2-1.6-5.7,0L84.9,107z M84.9,147.4c-1.6,1.6-1.6,4.2,0,5.7
	c0.8,0.8,1.9,1.2,2.9,1.2c1,0,2.1-0.4,2.9-1.2l4-4c1.6-1.6,1.6-4.2,0-5.7s-4.2-1.6-5.7,0L84.9,147.4z M92.9,127.2
	c-1.6,1.6-1.6,4.2,0,5.7c0.8,0.8,1.9,1.2,2.9,1.2c1,0,2.1-0.4,2.9-1.2l4-4c1.6-1.6,1.6-4.2,0-5.7s-4.2-1.6-5.7,0L92.9,127.2z
	 M109.1,111.1c-1.6,1.6-1.6,4.2,0,5.7c0.8,0.8,1.9,1.2,2.9,1.2c1.1,0,2.1-0.4,2.9-1.2l4-4c1.6-1.6,1.6-4.2,0-5.7s-4.2-1.6-5.7,0
	L109.1,111.1z M109.1,139.3c-1.6,1.6-1.6,4.2,0,5.7c0.8,0.8,1.9,1.2,2.9,1.2c1.1,0,2.1-0.4,2.9-1.2l4-4c1.6-1.6,1.6-4.2,0-5.7
	c-1.6-1.6-4.2-1.6-5.7,0L109.1,139.3z"/>
</svg>
