<?xml version="1.0" encoding="utf-8"?>
<!-- Generator: Adobe Illustrator 25.2.1, SVG Export Plug-In . SVG Version: 6.00 Build 0)  -->
<svg version="1.1" id="圖層_1" xmlns="http://www.w3.org/2000/svg" xmlns:xlink="http://www.w3.org/1999/xlink" x="0px" y="0px"
	 viewBox="0 0 240 240" style="enable-background:new 0 0 240 240;" xml:space="preserve">
<style type="text/css">
	.st0{fill:#1B3372;}
</style>
<g>
	<g>
		<g>
			<path class="st0" d="M62.8,140.2c-0.2,0-0.4-0.1-0.5-0.1c-0.2-0.1-0.4-0.4-0.5-0.7l-7.3-27.4c-0.2-0.6,0.2-1.2,0.8-1.3l11.3-3
				c0.3-0.1,0.6,0,0.8,0.1c0.2,0.1,0.4,0.4,0.5,0.7l7.3,27.4c0.2,0.6-0.2,1.2-0.8,1.3l-11.3,3C63,140.2,62.9,140.2,62.8,140.2z
				 M56.8,112.4l6.8,25.4l9.2-2.5L66,110L56.8,112.4z"/>
		</g>
		<g>
			<path class="st0" d="M130.9,135.9C130.9,135.9,130.9,135.9,130.9,135.9C130.9,135.9,130.9,135.9,130.9,135.9l-57.6-1.5
				c-0.5,0-0.9-0.3-1-0.8l-5.9-22.1c-0.1-0.5,0.1-0.9,0.5-1.2l49.1-30c0.3-0.2,0.8-0.2,1.1,0c0.3,0.2,0.5,0.6,0.5,1
				c-0.8,8.1,0.2,17.9,2.8,27.6c2.6,9.6,6.6,18.5,11.2,25.1c0.2,0.2,0.4,0.5,0.4,0.8C132,135.5,131.5,135.9,130.9,135.9z
				 M74.2,132.3l54.6,1.4c-4.4-6.6-8.1-15.1-10.5-24.2c-2.4-9.1-3.5-18.3-3-26.2l-46.6,28.5L74.2,132.3z"/>
		</g>
		<g>
			<path class="st0" d="M147.1,147.1L147.1,147.1c-10.4,0-22.6-16.2-28.4-37.7c-6.4-23.9-2.8-44.9,8.1-47.9c0.8-0.2,1.7-0.3,2.6-0.3
				c10.4,0,22.6,16.2,28.4,37.7c6.4,23.9,2.8,44.9-8.1,47.9C148.9,147,148,147.1,147.1,147.1z M129.4,63.4c-0.7,0-1.4,0.1-2,0.3
				c-9.5,2.5-12.5,23.2-6.6,45.2c5.4,20.3,17,36.1,26.3,36.1l0,0c0.7,0,1.4-0.1,2-0.3c9.5-2.6,12.5-23.2,6.6-45.2
				C150.3,79.2,138.8,63.4,129.4,63.4z"/>
		</g>
		<g>
			<path class="st0" d="M154.5,143.5c-0.1,0-0.2,0-0.4-0.1c-9.5-3.5-19.3-18.4-24.2-36.9c-5-18.6-4-36.3,2.5-44.1
				c0.3-0.3,0.8-0.5,1.2-0.3c9.5,3.5,19.3,18.4,24.2,37c5,18.6,4,36.3-2.5,44.1C155.1,143.3,154.8,143.5,154.5,143.5z M133.6,64.3
				c-5.5,7.5-6.2,24.4-1.6,41.6c4.6,17.2,13.6,31.4,22.2,35.2c5.5-7.5,6.2-24.4,1.6-41.6C151.1,82.3,142.1,68,133.6,64.3z"/>
		</g>
		<g>
			<path class="st0" d="M132.3,112.1c-0.5,0-0.9-0.3-1-0.8c-0.6-1.8-1.1-3.4-1.5-4.9c-0.4-1.6-0.8-3.2-1.2-5c-0.1-0.5,0.2-1,0.6-1.2
				c1.3-0.6,2.6-1.1,4-1.4c2.1-0.6,4.3-0.9,6.3-0.9c4.3,0,7.3,1.4,7.9,3.8c0.5,1.8-0.5,3.9-2.7,5.7c-2,1.7-4.9,3.1-8.1,3.9
				c-1.5,0.4-2.9,0.6-4.2,0.8C132.4,112.1,132.4,112.1,132.3,112.1z M130.9,101.8c0.3,1.4,0.6,2.7,1,4.1c0.3,1.2,0.7,2.6,1.2,4
				c0.9-0.1,1.9-0.3,3-0.6c2.9-0.8,5.5-2,7.3-3.5c1.5-1.3,2.3-2.5,2-3.5c-0.4-1.3-2.7-2.2-5.9-2.2c-1.8,0-3.8,0.3-5.7,0.8
				C132.8,101.1,131.9,101.5,130.9,101.8z"/>
		</g>
		<g>
			<path class="st0" d="M100.9,172.5c-0.4,0-0.8-0.2-0.9-0.6l-20.9-37.9c-0.2-0.3-0.2-0.8,0-1.1s0.6-0.5,1-0.5l12.8,0.6
				c0.4,0,0.7,0.2,0.9,0.6l18.3,32.9c0.2,0.3,0.2,0.6,0.1,0.9s-0.3,0.5-0.6,0.6l-10.2,4.4C101.2,172.5,101.1,172.5,100.9,172.5z
				 M81.9,134.7l19.5,35.3l8.2-3.5l-17.4-31.3L81.9,134.7z"/>
		</g>
		<g>
			<path class="st0" d="M79.6,121c-0.5,0-0.9-0.3-1-0.8c-0.2-0.6,0.2-1.2,0.8-1.3l33.8-9.1c0.6-0.2,1.2,0.2,1.3,0.8
				c0.2,0.6-0.2,1.2-0.8,1.3L79.9,121C79.8,121,79.7,121,79.6,121z"/>
		</g>
		<g>
			<path class="st0" d="M170.7,94c-0.5,0-0.9-0.3-1-0.8c-0.1-0.6,0.2-1.2,0.8-1.3l11.2-3c0.6-0.2,1.2,0.2,1.3,0.8
				c0.1,0.6-0.2,1.2-0.8,1.3L171,94C170.9,94,170.8,94,170.7,94z"/>
		</g>
		<g>
			<path class="st0" d="M184.5,107.8H173c-0.6,0-1.1-0.5-1.1-1.1s0.5-1.1,1.1-1.1h11.5c0.6,0,1.1,0.5,1.1,1.1
				S185.1,107.8,184.5,107.8z"/>
		</g>
		<g>
			<path class="st0" d="M182.8,124.6c-0.1,0-0.2,0-0.3,0l-11.2-3c-0.6-0.2-0.9-0.8-0.8-1.3c0.2-0.6,0.8-0.9,1.3-0.8l11.2,3
				c0.6,0.2,0.9,0.8,0.8,1.3C183.7,124.3,183.3,124.6,182.8,124.6z"/>
		</g>
		<g>
			<path class="st0" d="M156.1,70.7c-0.3,0-0.6-0.1-0.8-0.3c-0.4-0.4-0.4-1.1,0-1.5l8.2-8.2c0.4-0.4,1.1-0.4,1.5,0
				c0.4,0.4,0.4,1.1,0,1.5l-8.2,8.2C156.6,70.6,156.4,70.7,156.1,70.7z"/>
		</g>
		<g>
			<path class="st0" d="M164.9,81.4c-0.4,0-0.7-0.2-0.9-0.5c-0.3-0.5-0.1-1.2,0.4-1.5l10-5.8c0.5-0.3,1.2-0.1,1.5,0.4
				c0.3,0.5,0.1,1.2-0.4,1.5l-10,5.8C165.3,81.4,165.1,81.4,164.9,81.4z"/>
		</g>
		<g>
			<path class="st0" d="M153,173.9H60.6c-0.6,0-1.1-0.5-1.1-1.1s0.5-1.1,1.1-1.1H153c0.6,0,1.1,0.5,1.1,1.1
				C154.1,173.5,153.6,173.9,153,173.9z"/>
		</g>
		<g>
			<path class="st0" d="M173.2,179.6H80.8c-0.6,0-1.1-0.5-1.1-1.1s0.5-1.1,1.1-1.1h92.4c0.6,0,1.1,0.5,1.1,1.1
				C174.3,179.2,173.8,179.6,173.2,179.6z"/>
		</g>
	</g>
</g>
</svg>
