<?xml version="1.0" encoding="utf-8"?>
<!-- Generator: Adobe Illustrator 25.2.1, SVG Export Plug-In . SVG Version: 6.00 Build 0)  -->
<svg version="1.1" id="圖層_1" xmlns="http://www.w3.org/2000/svg" xmlns:xlink="http://www.w3.org/1999/xlink" x="0px" y="0px"
	 viewBox="0 0 240 240" style="enable-background:new 0 0 240 240;" xml:space="preserve">
<style type="text/css">
	.st0{fill:#1B3372;}
</style>
<g>
	<path class="st0" d="M83.7,111.9v68.6c0,2.2,1.8,4,4,4h64.6c2.2,0,4-1.8,4-4v-68.6c0-2.2-1.8-4-4-4h-20.2v-5.5
		c19.8-5.2,20.2-22.5,20.2-22.8c0-2.2-1.8-4-4-4H136c-0.7-11.5-7.4-20.2-16-20.2s-15.3,8.7-16,20.2H91.7c-2.2,0-4,1.8-4,4
		c0,0.2,0.3,17.6,20.2,22.8v5.5H87.7C85.5,107.9,83.7,109.7,83.7,111.9z M91.7,116h20.2c2.2,0,4-1.8,4-4v-8.3c1.3,0.1,2.6,0.2,4,0.2
		c1.4,0,2.7-0.1,4-0.2v8.3c0,2.2,1.8,4,4,4h20.2v60.5H91.7V116z M127.9,75.6H112c0.6-7.2,4.4-12.1,7.9-12.1
		C123.5,63.5,127.3,68.4,127.9,75.6z M143.4,83.7c-1.7,4.8-7,12.1-23.4,12.1c-16.5,0-21.7-7.3-23.4-12.1h15.3h16.2H143.4z"/>
	<path class="st0" d="M136.1,132.1v-4h-8.1c-2.2,0-4-1.8-4-4s1.8-4,4-4h12.1c2.2,0,4,1.8,4,4v44.4c0,2.2-1.8,4-4,4H99.8
		c-2.2,0-4-1.8-4-4s1.8-4,4-4h36.3v-28.2H95.8v-4H136.1z"/>
</g>
</svg>
