<?xml version="1.0" encoding="utf-8"?>
<!-- Generator: Adobe Illustrator 25.2.3, SVG Export Plug-In . SVG Version: 6.00 Build 0)  -->
<svg version="1.1" id="圖層_1" xmlns="http://www.w3.org/2000/svg" xmlns:xlink="http://www.w3.org/1999/xlink" x="0px" y="0px"
	 viewBox="0 0 240 240" style="enable-background:new 0 0 240 240;" xml:space="preserve">
<style type="text/css">
	.st0{fill:#FFFFFF;}
</style>
<path class="st0" d="M137,59.5c12.2,0,23.2,4,31.4,12.1c20.1,20.1,14.6,58-12.1,84.8c-15.9,15.9-35.6,24.2-53.3,24.2
	c-12.2,0-23.3-4-31.4-12.1c-20.1-20.1-14.7-58,12.1-84.8C99.5,67.8,119.3,59.5,137,59.5z M103,172.5c16.1,0,33.9-8.2,47.6-21.9
	c23.6-23.5,29-56.4,12.1-73.3c-6.4-6.4-15.3-9.7-25.7-9.7c-16.1,0-34,8.2-47.6,21.8c-23.5,23.6-29,56.5-12.1,73.3
	C83.6,169.1,92.6,172.5,103,172.5z M71.6,137c-0.2,9.7,2.7,18,8.6,23.8c7.1,7.1,16.3,8.6,22.9,8.6c15.1,0,31.8-7.8,44.8-20.7
	c12.6-12.6,20.3-28.9,20.7-43.7c0-2.2-1.7-4.1-4-4.2c-2,0.1-4.1,1.7-4.1,4c-0.3,12.8-7.2,27-18.3,38.1c-11.5,11.5-26.1,18.3-39,18.3
	c-5,0-12.1-1.1-17.2-6.2c-4.2-4.2-6.4-10.4-6.2-17.9c0-2.2-1.7-4.1-4-4.1c0,0-0.1,0-0.1,0C73.4,133,71.6,134.8,71.6,137z M80.8,114
	c-1.6,1.6-1.6,4.2,0,5.7l4,4c0.8,0.8,1.8,1.2,2.9,1.2c1,0,2.1-0.4,2.9-1.2c1.6-1.6,1.6-4.2,0-5.7l-4-4C85,112.4,82.4,112.4,80.8,114
	z M92.9,93.8c-1.6,1.6-1.6,4.2,0,5.7l4,4c0.8,0.8,1.8,1.2,2.9,1.2c1,0,2.1-0.4,2.9-1.2c1.6-1.6,1.6-4.2,0-5.7l-4-4
	C97.1,92.3,94.5,92.3,92.9,93.8z M92.9,138.2c-1.6,1.6-1.6,4.2,0,5.7l4,4c0.8,0.8,1.8,1.2,2.9,1.2c1,0,2.1-0.4,2.9-1.2
	c1.6-1.6,1.6-4.2,0-5.7l-4-4C97.1,136.7,94.5,136.7,92.9,138.2z M101,118.1c-1.6,1.6-1.6,4.2,0,5.7l8.1,8.1c0.8,0.8,1.8,1.2,2.9,1.2
	c1,0,2.1-0.4,2.9-1.2c1.6-1.6,1.6-4.2,0-5.7l-8.1-8.1C105.1,116.5,102.6,116.5,101,118.1z M113.1,81.7c-1.6,1.6-1.6,4.2,0,5.7l4,4
	c0.8,0.8,1.8,1.2,2.9,1.2c1,0,2.1-0.4,2.9-1.2c1.6-1.6,1.6-4.2,0-5.7l-4-4C117.3,80.2,114.7,80.2,113.1,81.7z M117.1,101.9
	c-1.6,1.6-1.6,4.2,0,5.7l8.1,8.1c0.8,0.8,1.8,1.2,2.9,1.2c1,0,2.1-0.4,2.9-1.2c1.6-1.6,1.6-4.2,0-5.7l-8.1-8.1
	C121.3,100.3,118.7,100.3,117.1,101.9z M117.1,138.2c-1.6,1.6-1.6,4.2,0,5.7l4,4c0.8,0.8,1.8,1.2,2.9,1.2c1,0,2.1-0.4,2.9-1.2
	c1.6-1.6,1.6-4.2,0-5.7l-4-4C121.3,136.7,118.7,136.7,117.1,138.2z M133.3,122.1c-1.6,1.6-1.6,4.2,0,5.7l4,4
	c0.8,0.8,1.8,1.2,2.9,1.2c1,0,2.1-0.4,2.9-1.2c1.6-1.6,1.6-4.2,0-5.7l-4-4C137.4,120.5,134.9,120.5,133.3,122.1z M137.3,77.7
	c-1.6,1.6-1.6,4.2,0,5.7l4,4c0.8,0.8,1.8,1.2,2.9,1.2c1,0,2.1-0.4,2.9-1.2c1.6-1.6,1.6-4.2,0-5.7l-4-4
	C141.5,76.1,138.9,76.1,137.3,77.7z M141.3,97.9c-1.6,1.6-1.6,4.2,0,5.7l4,4c0.8,0.8,1.8,1.2,2.9,1.2c1,0,2.1-0.4,2.9-1.2
	c1.6-1.6,1.6-4.2,0-5.7l-4-4C145.5,96.3,142.9,96.3,141.3,97.9z"/>
</svg>
