<?xml version="1.0" encoding="utf-8"?>
<!-- Generator: Adobe Illustrator 25.2.3, SVG Export Plug-In . SVG Version: 6.00 Build 0)  -->
<svg version="1.1" id="圖層_1" xmlns="http://www.w3.org/2000/svg" xmlns:xlink="http://www.w3.org/1999/xlink" x="0px" y="0px"
	 viewBox="0 0 240 240" style="enable-background:new 0 0 240 240;" xml:space="preserve">
<style type="text/css">
	.st0{fill:#FFFFFF;}
</style>
<path class="st0" d="M185.9,89.2c-2.4,0-4.4-2-4.4-4.4V54.1c0-2.4,2-4.4,4.4-4.4s4.4,2,4.4,4.4v30.8
	C190.3,87.3,188.3,89.2,185.9,89.2z M168.3,89.2h-22c-2.4,0-4.4-2-4.4-4.4V54.1c0-2.4,2-4.4,4.4-4.4h22c2.4,0,4.4,2,4.4,4.4v30.8
	C172.7,87.3,170.8,89.2,168.3,89.2z M163.9,58.5h-13.2v22h13.2V58.5z M133.2,84.9V54.1c0-2.4-2-4.4-4.4-4.4c-2.4,0-4.4,2-4.4,4.4
	v30.8c0,2.4,2,4.4,4.4,4.4C131.2,89.2,133.2,87.3,133.2,84.9z M76.1,84.9V54.1c0-2.4-2-4.4-4.4-4.4s-4.4,2-4.4,4.4v30.8
	c0,2.4,2,4.4,4.4,4.4C74.1,89.2,76.1,87.3,76.1,84.9z M111.2,89.2h-22c-2.4,0-4.4-2-4.4-4.4V54.1c0-2.4,2-4.4,4.4-4.4h22
	c2.4,0,4.4,2,4.4,4.4v30.8C115.6,87.3,113.7,89.2,111.2,89.2z M106.8,58.5H93.7v22h13.2V58.5z M181.5,150.8v30.8
	c0,2.4,2,4.4,4.4,4.4s4.4-2,4.4-4.4v-30.8c0-2.4-2-4.4-4.4-4.4C183.5,146.4,181.5,148.3,181.5,150.8z M146.4,146.4h22
	c2.4,0,4.4,2,4.4,4.4v30.8c0,2.4-2,4.4-4.4,4.4h-22c-2.4,0-4.4-2-4.4-4.4v-30.8C142,148.3,143.9,146.4,146.4,146.4z M150.8,177.1
	h13.2v-22h-13.2V177.1z M124.4,172.7v8.8c0,2.4,2,4.4,4.4,4.4c2.4,0,4.4-2,4.4-4.4v-8.8H124.4z M142,102.4v30.8c0,2.4,2,4.4,4.4,4.4
	c2.4,0,4.4-2,4.4-4.4v-30.8c0-2.4-2-4.4-4.4-4.4C143.9,98,142,100,142,102.4z M185.9,137.6h-22c-2.4,0-4.4-2-4.4-4.4v-30.8
	c0-2.4,2-4.4,4.4-4.4h22c2.4,0,4.4,2,4.4,4.4v30.8C190.3,135.6,188.3,137.6,185.9,137.6z M181.5,106.8h-13.2v22h13.2V106.8z
	 M133.2,111.2v-8.8c0-2.4-2-4.4-4.4-4.4c-2.4,0-4.4,2-4.4,4.4v8.8H133.2z M67.3,106.8h8.8v-4.4c0-2.4-2-4.4-4.4-4.4s-4.4,2-4.4,4.4
	L67.3,106.8L67.3,106.8z M115.6,146.4c2.4,0,4.4-2,4.4-4.4c0-12.1-9.9-22-22-22c-2.4,0-4.4,2-4.4,4.4c0,2.4,2,4.4,4.4,4.4
	c7.3,0,13.2,5.9,13.2,13.2C111.2,144.4,113.2,146.4,115.6,146.4z M70.3,163.5c-4.6-5.9-7.4-13.4-7.4-21.5
	c0-19.4,15.8-35.2,35.2-35.2s35.2,15.8,35.2,35.2s-15.8,35.2-35.2,35.2c-8.1,0-15.6-2.8-21.5-7.4L57.2,189c-0.9,0.9-2,1.3-3.1,1.3
	c-1.1,0-2.2-0.4-3.1-1.3c-1.7-1.7-1.7-4.5,0-6.2L70.3,163.5z M98,168.3c14.5,0,26.4-11.8,26.4-26.4s-11.8-26.4-26.4-26.4
	S71.7,127.4,71.7,142C71.7,156.5,83.5,168.3,98,168.3z"/>
</svg>
