<?xml version="1.0" encoding="utf-8"?>
<!-- Generator: Adobe Illustrator 25.2.1, SVG Export Plug-In . SVG Version: 6.00 Build 0)  -->
<svg version="1.1" id="圖層_1" xmlns="http://www.w3.org/2000/svg" xmlns:xlink="http://www.w3.org/1999/xlink" x="0px" y="0px"
	 viewBox="0 0 240 240" style="enable-background:new 0 0 240 240;" xml:space="preserve">
<style type="text/css">
	.st0{fill:#1B3372;}
</style>
<g>
	<path class="st0" d="M75.6,124v56.5c0,2.2,1.8,4,4,4h80.7c2.2,0,4-1.8,4-4V124c0-6.7-5.4-12.1-12.1-12.1h-20.2V99.8h4
		c2.2,0,4-1.8,4-4c0-2.2-1.8-4-4-4h-4v-4h8.1c2.2,0,4-1.8,4-4V59.5c0-2.2-1.8-4-4-4H99.8c-2.2,0-4,1.8-4,4v24.2c0,2.2,1.8,4,4,4h8.1
		v4h-4c-2.2,0-4,1.8-4,4c0,2.2,1.8,4,4,4h4v12.1H87.7C81,111.9,75.6,117.4,75.6,124z M156.3,176.5H83.7V124c0-2.2,1.8-4,4-4h24.2
		c2.2,0,4-1.8,4-4V99.8h8.1V116c0,2.2,1.8,4,4,4h24.2c2.2,0,4,1.8,4,4L156.3,176.5L156.3,176.5z M136.1,79.6h-8.1h-16.1h-8.1V63.5
		h32.3V79.6z M124,87.7v4H116v-4H124z"/>
	<path class="st0" d="M91.7,164.4h52.5v-32.3h-12.1c-2.2,0-4-1.8-4-4c0-2.2,1.8-4,4-4h16.1c2.2,0,4,1.8,4,4v40.4c0,2.2-1.8,4-4,4
		H91.7c-2.2,0-4-1.8-4-4C87.7,166.2,89.5,164.4,91.7,164.4z"/>
	<rect x="95.8" y="136.1" class="st0" width="44.4" height="24.2"/>
	<polygon class="st0" points="107.9,75.6 107.9,71.6 128.1,71.6 128.1,67.5 132.1,67.5 132.1,71.6 132.1,75.6 128.1,75.6 	"/>
</g>
</svg>
