<?xml version="1.0" encoding="utf-8"?>
<!-- Generator: Adobe Illustrator 25.2.1, SVG Export Plug-In . SVG Version: 6.00 Build 0)  -->
<svg version="1.1" id="圖層_1" xmlns="http://www.w3.org/2000/svg" xmlns:xlink="http://www.w3.org/1999/xlink" x="0px" y="0px"
	 viewBox="0 0 240 240" style="enable-background:new 0 0 240 240;" xml:space="preserve">
<style type="text/css">
	.st0{fill:#1B3372;}
</style>
<path class="st0" d="M147.9,98.5l26.9-26.9l-6.4-6.4l-27.3,27.3c-0.8-0.6-1.7-1.2-2.5-1.7c-0.9-0.6-1.7-1.1-2.5-1.5
	c0.9,0.5,1.7,1,2.5,1.5c0.8,0.5,1.6,1.1,2.5,1.7l0,0C143.6,94.2,145.8,96.2,147.9,98.5L147.9,98.5c0.2,0.4,0.6,0.7,0.9,1.1
	C148.5,99.1,148.2,98.8,147.9,98.5z M155.5,109.5c0.2,0.4,0.4,0.8,0.6,1.2C155.9,110.3,155.7,109.9,155.5,109.5l19.8-11.3L170,87.8
	l-17.1,17.1C153.9,106.4,154.8,107.9,155.5,109.5z M160.3,130.1c0,25.6-20.8,46.4-46.4,46.4c-0.5,0-1.1-0.1-1.6-0.1
	c-0.1,0-0.2,0.1-0.4,0.1c-2.1,0-4.4-0.1-7-0.2c-13-0.3-32.7-0.9-42.9,7.4c-0.7,0.6-1.6,0.9-2.5,0.9c-1,0-2.1-0.4-2.8-1.2
	c-1.5-1.4-1.6-3.8-0.3-5.4c7.5-9.3,11.2-24.7,11.2-45.9c0-0.2,0.1-0.3,0.1-0.4c0-0.5-0.1-1.1-0.1-1.6c0-4.8,0.8-9.4,2.1-13.8
	c0.4-1.4,1-2.9,1.6-4.3c0.8-1.9,1.8-3.8,2.8-5.5c2-3.4,4.4-6.5,7.1-9.3c1-1,2.2-2,3.3-3c1.9-1.5,3.9-2.9,5.9-4.1
	c1.8-1,3.6-2,5.5-2.8c1.4-0.6,2.8-1.1,4.3-1.6c4.3-1.3,9-2.1,13.8-2.1c2.5,0,5,0.2,7.4,0.6l15.4-26.8c1.1-1.9,3.4-2.6,5.3-1.6
	l16.1,8.1c0,0,0,0,0.1,0.1l7.4-7.4c1.6-1.6,4.1-1.6,5.7,0l12.1,12.1c1.6,1.6,1.6,4.1,0,5.7l-7.4,7.4c0,0,0.1,0,0.1,0.1l8.1,16.1
	c1,1.9,0.2,4.2-1.6,5.3l-24.1,13.8C159.7,121.2,160.3,125.5,160.3,130.1z M105.1,168.3c0.9,0,1.8,0,2.7,0.1c0,0,3.8,0.1,6.1,0.1
	c21.2,0,38.3-17.2,38.3-38.3c0-21.2-17.2-38.3-38.3-38.3c-21.1,0-38.3,17.2-38.3,38.3c0,2.3,0,6,0,6c-0.3,14.2-2.3,25.8-6.1,35
	C80.9,167.6,94.4,168,105.1,168.3z M133.9,88.2L152.2,70l-10.4-5.2l-12.4,21.6C131,86.9,132.5,87.6,133.9,88.2z M90.5,113.1l8.1,8.1
	c1.6,1.6,1.6,4.1,0,5.7c-0.8,0.8-1.8,1.2-2.9,1.2c-1,0-2.1-0.4-2.8-1.2l-8.1-8.1c-1.6-1.6-1.6-4.1,0-5.7
	C86.4,111.5,89,111.5,90.5,113.1z M113.9,156.3c14.5,0,26.2-11.8,26.2-26.2c0-2.3,1.8-4,4-4c2.3,0,4,1.8,4,4
	c0,18.9-15.4,34.3-34.3,34.3H91.7c-2.2,0-4-1.8-4-4c0-2.3,1.8-4,4-4L113.9,156.3L113.9,156.3z M98.6,101l12.1,12.1
	c1.6,1.6,1.6,4.1,0,5.7c-0.8,0.8-1.8,1.2-2.9,1.2c-1,0-2.1-0.4-2.8-1.2l-12.1-12.1c-1.6-1.6-1.6-4.1,0-5.7S97,99.4,98.6,101z
	 M114.8,97l8.1,8.1c1.6,1.6,1.6,4.1,0,5.7c-0.8,0.8-1.8,1.2-2.9,1.2c-1,0-2.1-0.4-2.8-1.2l-8.1-8.1c-1.6-1.6-1.6-4.1,0-5.7
	C110.6,95.4,113.2,95.4,114.8,97z M138.6,90.8c-0.9-0.5-1.7-1-2.5-1.5C136.9,89.7,137.8,90.2,138.6,90.8z M141.1,92.4L141.1,92.4
	c-0.9-0.6-1.7-1.1-2.5-1.7C139.5,91.3,140.3,91.8,141.1,92.4z M147.9,98.5c0.3,0.3,0.6,0.7,0.9,1.1
	C148.5,99.2,148.2,98.8,147.9,98.5L147.9,98.5z M155.5,109.5c0.2,0.4,0.4,0.8,0.6,1.2C155.9,110.3,155.7,109.9,155.5,109.5
	L155.5,109.5z"/>
</svg>
