<?xml version="1.0" encoding="utf-8"?>
<!-- Generator: Adobe Illustrator 25.2.3, SVG Export Plug-In . SVG Version: 6.00 Build 0)  -->
<svg version="1.1" id="圖層_1" xmlns="http://www.w3.org/2000/svg" xmlns:xlink="http://www.w3.org/1999/xlink" x="0px" y="0px"
	 viewBox="0 0 240 240" style="enable-background:new 0 0 240 240;" xml:space="preserve">
<style type="text/css">
	.st0{fill:#FFFFFF;}
</style>
<g>
	<g>
		<path class="st0" d="M119.7,175.1c-10,0-18.8-2.7-25.9-8.1c-7.4-5.5-11-13.2-10.8-22.7l0-0.4l0.8-2l23.7-1.1v2.2
			c0,3.8,1.1,6.6,3.3,8.7c2.2,2.1,5.2,3.1,8.9,3.1c4.3,0,7.3-1.3,9.2-4c2-2.9,3-7.2,3-12.7c0-5.6-1.1-10-3.4-13.2
			c-2.1-3-5.1-4.4-9.3-4.4c-3.6,0-6.3,0.6-8,1.8c-1.8,1.2-3,2.9-3.8,5l-0.5,1.5l-22.2-1.5l6.4-62.5h62.3v21H112l-2.2,18.4
			c1.3-0.6,2.7-1.1,4.2-1.6c3.1-1,6.6-1.5,10.3-1.6c10.3-0.2,18.5,3.1,24.2,9.7c5.7,6.5,8.5,15.7,8.5,27.3c0,10.7-3.1,19.7-9.2,26.6
			C141.6,171.6,132.2,175.1,119.7,175.1z M87.2,146c0.2,7.5,3.2,13.3,9.1,17.7c6.4,4.8,14.3,7.2,23.4,7.2c11.2,0,19.6-3.1,25-9.1
			c5.4-6.1,8.2-14.1,8.2-23.8c0-10.5-2.5-18.8-7.5-24.5c-5-5.7-11.9-8.4-21-8.3c-3.3,0.1-6.3,0.6-9.1,1.4c-2.7,0.9-5,2-6.8,3.2
			l-3.9,2.8l3.7-31h40.9V69.1H94.9l-5.6,54.4l14.8,1c1.1-2.3,2.7-4.1,4.7-5.6c2.5-1.7,6-2.6,10.4-2.6c5.6,0,9.9,2.1,12.8,6.2
			c2.7,3.9,4.1,9.2,4.1,15.6c0,6.4-1.3,11.5-3.8,15.1c-2.7,3.8-6.9,5.8-12.6,5.8c-4.8,0-8.7-1.4-11.8-4.2c-2.6-2.4-4.1-5.6-4.5-9.5
			L87.2,146z"/>
	</g>
</g>
</svg>
