<?xml version="1.0" encoding="utf-8"?>
<!-- Generator: Adobe Illustrator 25.2.1, SVG Export Plug-In . SVG Version: 6.00 Build 0)  -->
<svg version="1.1" id="圖層_1" xmlns="http://www.w3.org/2000/svg" xmlns:xlink="http://www.w3.org/1999/xlink" x="0px" y="0px"
	 viewBox="0 0 240 240" style="enable-background:new 0 0 240 240;" xml:space="preserve">
<style type="text/css">
	.st0{fill:#1B3372;}
</style>
<path class="st0" d="M70.9,93c0.2,4.6,3.8,9.5,10.7,14.7c1.6-5,4.2-9.6,7.4-13.5C80.9,91.1,74.8,90.7,70.9,93z M88.8,145.6
	c-4.5,7.3-6.1,13.3-4.6,17.6c4.5,0.7,10-2,16.4-7.8C96.1,152.9,92.1,149.6,88.8,145.6z M94.9,87.8c0.2,0.1,0.3,0.2,0.5,0.3
	c2.6-2.1,5.5-3.8,8.6-5.1c0-0.2,0-0.3,0-0.5c0.1-0.8,0.2-1.5,0.3-2.3c-4.8-5.3-9.4-8-13.4-8c-1.7,3.4-1.5,8.2,0.6,14.3
	C92.5,86.9,93.7,87.3,94.9,87.8z M79.6,120c0-0.3,0-0.6,0-0.9c-8.2,2.7-13.2,6.2-14.9,10.4c3,3.4,8.9,5.1,17.6,4.8
	C80.6,129.8,79.6,125,79.6,120z M151.2,94.4c4.5-7.4,6.1-13.3,4.6-17.6c-4.5-0.7-10,2-16.4,7.8C143.9,87.1,147.9,90.4,151.2,94.4z
	 M157.7,105.7c1.7,4.4,2.7,9.2,2.7,14.3c0,0.3,0,0.6-0.1,0.9c8.2-2.7,13.3-6.2,14.9-10.4C172.2,107.1,166.3,105.5,157.7,105.7z
	 M148.6,153.5c-1.1-0.4-2.3-0.8-3.5-1.3c-0.2-0.1-0.3-0.2-0.5-0.3c-2.6,2-5.5,3.8-8.6,5.1c0,0.2,0.1,0.3,0,0.5
	c-0.1,0.8-0.2,1.6-0.3,2.3c4.8,5.3,9.4,8,13.4,8C150.9,164.5,150.7,159.6,148.6,153.5z M169.1,147c-0.2-4.6-3.8-9.5-10.7-14.7
	c-1.6,5-4.2,9.6-7.5,13.5C159,148.8,165.1,149.3,169.1,147z M127.7,80.4c-1.2-8.6-3.8-14.1-7.7-16.5c-3.9,2.4-6.5,7.9-7.8,16.5
	c2.5-0.5,5.1-0.8,7.8-0.8C122.6,79.6,125.2,79.9,127.7,80.4z M112.3,159.6c1.2,8.6,3.8,14.1,7.8,16.5c3.9-2.4,6.5-7.9,7.7-16.5
	c-2.5,0.5-5.1,0.8-7.7,0.8C117.3,160.4,114.8,160.1,112.3,159.6z M87.7,120c0,17.8,14.5,32.3,32.3,32.3c17.8,0,32.3-14.5,32.3-32.3
	S137.8,87.7,120,87.7C102.2,87.7,87.7,102.2,87.7,120z M183.6,110.5c-1.5,7.4-7.6,13.1-18.1,17.1c8.6,7.2,12.6,14.6,11.5,22.1
	c-0.1,1-0.6,1.9-1.4,2.5c-3.4,2.8-7.6,4.2-12.7,4.2c-1.7,0-3.4-0.2-5.3-0.5c1.6,7.4,0.7,13.5-2.9,18.1c-0.6,0.8-1.5,1.3-2.5,1.5
	c-1,0.2-2.1,0.3-3.1,0.3c-5.1,0-10.2-2.3-15.4-6.8c-2.5,7.8-6.6,12.9-12.3,15.1c-0.5,0.2-1,0.3-1.4,0.3c-0.5,0-1-0.1-1.5-0.3
	c-7.2-2.8-11.9-10.1-13.9-21.6c-6.8,5.7-13.1,8.6-19,8.6c-1.9,0-3.7-0.3-5.4-0.9c-1-0.3-1.8-1-2.3-1.9c-3.9-6.9-2.7-15.7,3.5-26.2
	c-0.1,0-0.3,0-0.4,0c-12,0-20.1-3.4-24.1-10.1c-0.5-0.9-0.7-1.9-0.5-2.9c1.5-7.4,7.6-13.1,18.2-17c-8.7-7.2-12.6-14.6-11.6-22.1
	c0.1-1,0.7-1.9,1.4-2.5c4.4-3.8,10.5-5,18-3.8c-1.6-7.4-0.6-13.5,3-18.1c0.6-0.8,1.5-1.3,2.5-1.5c6.1-1.1,12.3,1.1,18.5,6.5
	c2.5-7.8,6.6-13,12.3-15.2c1-0.4,2-0.4,2.9,0c7.2,2.8,11.9,10,13.9,21.6c9-7.6,17.1-10.2,24.5-7.8c0.9,0.3,1.7,1,2.2,1.9
	c3.9,6.9,2.7,15.7-3.5,26.3c12.2-0.1,20.4,3.3,24.5,10.1C183.7,108.5,183.8,109.6,183.6,110.5z M99.8,116c0,2.2-1.8,4-4,4
	c-2.3,0-4-1.8-4-4s1.8-4,4-4C98,111.9,99.8,113.7,99.8,116z M103.9,128.1c0,2.2-1.8,4-4,4c-2.3,0-4-1.8-4-4s1.8-4,4-4
	C102.1,124,103.9,125.8,103.9,128.1z M107.9,103.8c0,2.2-1.8,4-4,4c-2.3,0-4-1.8-4-4s1.8-4,4-4C106.1,99.8,107.9,101.6,107.9,103.8z
	 M111.9,136.1c0,2.2-1.8,4-4,4c-2.3,0-4-1.8-4-4s1.8-4,4-4C110.1,132.1,111.9,133.9,111.9,136.1z M116,116c0,2.2-1.8,4-4,4
	c-2.3,0-4-1.8-4-4s1.8-4,4-4C114.2,111.9,116,113.7,116,116z M124,128.1c0,2.2-1.8,4-4,4c-2.3,0-4-1.8-4-4s1.8-4,4-4
	C122.2,124,124,125.8,124,128.1z M140.2,120c0-2.2,1.8-4,4-4c2.2,0,4,1.8,4,4c0,15.6-12.7,28.3-28.3,28.3c-2.3,0-4-1.8-4-4
	s1.8-4,4-4C131.1,140.2,140.2,131.1,140.2,120z M136.2,120c0,2.2-1.8,4-4,4c-2.3,0-4-1.8-4-4s1.8-4,4-4
	C134.3,116,136.2,117.8,136.2,120z M140.2,103.8c0,2.2-1.8,4-4,4c-2.3,0-4-1.8-4-4s1.8-4,4-4C138.4,99.8,140.2,101.6,140.2,103.8z"
	/>
</svg>
