<?xml version="1.0" encoding="utf-8"?>
<!-- Generator: Adobe Illustrator 25.2.1, SVG Export Plug-In . SVG Version: 6.00 Build 0)  -->
<svg version="1.1" id="圖層_1" xmlns="http://www.w3.org/2000/svg" xmlns:xlink="http://www.w3.org/1999/xlink" x="0px" y="0px"
	 viewBox="0 0 240 240" style="enable-background:new 0 0 240 240;" xml:space="preserve">
<style type="text/css">
	.st0{fill:#1B3372;}
</style>
<path class="st0" d="M137.6,168.3v-8.8H176c3,0,5.5-1.8,5.5-4V78c0-1.9-1.9-3.4-4.4-3.8v71c0,5.6-4.7,10-10.4,10H142v-8.8h24.7
	c1,0,1.7-0.7,1.7-1.2V59.8c0-0.6-0.7-1.3-1.7-1.3h-42.8c-0.5,0-0.9,0.2-1.2,0.5l-6.3,12.3c-1.5,2.9-4.5,4.8-7.8,4.8H73.3
	c-1,0-1.6,0.7-1.6,1.2v29.5h-8.8V77.3c0-5.5,4.7-10,10.4-10h35.2l6.7-13.1c1.9-2.8,5.2-4.5,8.7-4.5h42.8c5.8,0,10.4,4.5,10.4,10v5.5
	c7.4,0.5,13.2,6,13.2,12.7v77.6c0,7.1-6.4,12.8-14.3,12.8L137.6,168.3L137.6,168.3z M155.1,133.2H142v8.8h17.6c2.4,0,4.4-2,4.4-4.4
	v-19.9c0-2.4-2-4.4-4.4-4.4c-2.4,0-4.4,2-4.4,4.4V133.2z M70.3,163.5c-4.6-5.9-7.4-13.4-7.4-21.5c0-19.4,15.8-35.2,35.2-35.2
	s35.2,15.8,35.2,35.2c0,19.4-15.8,35.1-35.2,35.1c-8.1,0-15.6-2.8-21.5-7.4L57.2,189c-0.9,0.9-2,1.3-3.1,1.3c-1.1,0-2.2-0.4-3.1-1.3
	c-1.7-1.7-1.7-4.5,0-6.2L70.3,163.5z M98,168.3c14.5,0,26.4-11.8,26.4-26.4s-11.8-26.4-26.4-26.4S71.7,127.4,71.7,142
	S83.5,168.3,98,168.3z M115.6,146.4c2.4,0,4.4-2,4.4-4.4c0-12.1-9.8-22-22-22c-2.4,0-4.4,2-4.4,4.4c0,2.4,2,4.4,4.4,4.4
	c7.3,0,13.2,5.9,13.2,13.2C111.2,144.4,113.2,146.4,115.6,146.4z"/>
</svg>
