<?xml version="1.0" encoding="utf-8"?>
<!-- Generator: Adobe Illustrator 25.2.1, SVG Export Plug-In . SVG Version: 6.00 Build 0)  -->
<svg version="1.1" id="圖層_1" xmlns="http://www.w3.org/2000/svg" xmlns:xlink="http://www.w3.org/1999/xlink" x="0px" y="0px"
	 viewBox="0 0 240 240" style="enable-background:new 0 0 240 240;" xml:space="preserve">
<style type="text/css">
	.st0{fill:#1B3372;}
</style>
<path class="st0" d="M182.8,164c-3-36.2-23.8-43.9-24.7-44.2c-2.3-0.8-3.5-3.3-2.8-5.6c0.6-1.6,2-2.7,3.6-2.9
	c5.9-5.8,9.4-13.7,9.4-22c0-17-13.8-30.8-30.8-30.8c-17,0-30.8,13.8-30.8,30.8c0,3.5,0,4.4,0,8.8c-4.4,0-4.5,0.1-7.8,0.1
	c-0.7-2.9-1-5.8-1-8.8c0-21.8,17.7-39.5,39.5-39.5s39.5,17.7,39.5,39.5c0,9.5-3.5,18.6-9.6,25.7c8.7,5.9,22.7,20.4,22.7,53.4
	c0,2.4-2,4.4-4.4,4.4h-48.3V164L182.8,164L182.8,164z M152.9,126.6c-1.2,2.1-0.5,4.8,1.6,6c2.3,1.3,10.1,7,12.8,23.3
	c0.4,2.2,2.2,3.7,4.3,3.7c0.2,0,0.5,0,0.7-0.1c2.4-0.4,4-2.7,3.6-5.1c-3.3-19.5-13.1-27.1-17.1-29.4
	C156.8,123.8,154.1,124.5,152.9,126.6z M98,128.8c7.3,0,13.2,5.9,13.2,13.2c0,2.4,2,4.4,4.4,4.4c2.4,0,4.4-2,4.4-4.4
	c0-12.1-9.8-22-22-22c-2.4,0-4.4,2-4.4,4.4C93.6,126.8,95.6,128.8,98,128.8z M70.3,163.5c-4.6-5.9-7.4-13.4-7.4-21.5
	c0-19.4,15.8-35.2,35.2-35.2s35.1,15.8,35.1,35.2s-15.8,35.2-35.1,35.2c-8.1,0-15.6-2.8-21.5-7.4L57.2,189c-0.9,0.9-2,1.3-3.1,1.3
	c-1.1,0-2.2-0.4-3.1-1.3c-1.7-1.7-1.7-4.5,0-6.2L70.3,163.5z M98,168.3c14.5,0,26.4-11.8,26.4-26.4s-11.8-26.4-26.4-26.4
	S71.7,127.4,71.7,142C71.7,156.5,83.5,168.3,98,168.3z M111.2,89.2c0,2.4,2,4.4,4.4,4.4c2.4,0,4.4-2,4.4-4.4
	c0-9.7,7.9-17.6,17.6-17.6c2.4,0,4.4-2,4.4-4.4s-2-4.4-4.4-4.4C123,62.9,111.2,74.7,111.2,89.2z"/>
</svg>
