<?xml version="1.0" encoding="utf-8"?>
<!-- Generator: Adobe Illustrator 25.2.3, SVG Export Plug-In . SVG Version: 6.00 Build 0)  -->
<svg version="1.1" id="圖層_1" xmlns="http://www.w3.org/2000/svg" xmlns:xlink="http://www.w3.org/1999/xlink" x="0px" y="0px"
	 viewBox="0 0 240 240" style="enable-background:new 0 0 240 240;" xml:space="preserve">
<style type="text/css">
	.st0{fill:#FFFFFF;}
</style>
<path class="st0" d="M71.6,120.6l8.6-5.1c24-14.2,27.7-16.4,46.8-38.3c4.9-6.2,11.5-9.6,18.8-9.6l14.1-11.3c0.7-0.6,1.6-0.9,2.5-0.9
	c9.8,0,20.2,9.4,20.2,16.1c0,0.6-0.1,1.2-0.4,1.8L173.9,90c1.4,6.3,0.4,13.2-3.1,19.8l-1.1,1.9c-13.9,26.2-27,50.8-57.8,69
	c-0.1,0.1-0.3,0.2-0.4,0.2c-5.8,2.6-11.5,3.7-16.8,3.7c-14.2,0-25.9-8.1-31.9-18c-7.9-12.9-8.4-32.1,8.3-45.7
	C71.3,120.8,71.4,120.7,71.6,120.6z M108.1,173.6c28.6-16.9,41.2-40.6,54.5-65.7l1-1.9c3.7-6.9,3.8-14.3,0.2-19.7
	c-4.3-6.5-10.8-10.4-17.2-10.7c-5.1-0.2-9.7,2.1-13.4,6.7c-20.1,23-25,26-48.9,40.1l-8.4,5c-13.5,11.2-11.8,25.8-6.3,35
	C76.4,173.3,90.9,181,108.1,173.6z M169.6,80.6l4.8-9.6c-1-2.2-5.6-6.7-10.6-7.4l-7.6,6.1C161.3,71.9,166,75.6,169.6,80.6z
	 M73.4,150.4c-2.1,0.8-3.2,3.1-2.4,5.2c3,8.4,11.5,16.8,23.7,16.8c3.7,0,7.5-0.8,11.3-2.3c0.2-0.1,0.4-0.2,0.6-0.3
	c27.3-16.4,39-38.3,52.5-63.8l1.1-1.9c1.1-2.1,4.4-9.4,0.4-15.5c-1.2-1.9-3.8-2.3-5.6-1.1c-1.9,1.2-2.4,3.8-1.1,5.6
	c1.7,2.4-0.5,6.7-0.8,7.2l-1,1.9c-13,24.3-24.1,45.3-49.3,60.5c-2.7,1.1-5.4,1.6-7.9,1.6c-8.3,0-14.1-5.7-16.1-11.5
	C77.9,150.8,75.6,149.7,73.4,150.4z"/>
</svg>
