<?xml version="1.0" encoding="utf-8"?>
<!-- Generator: Adobe Illustrator 25.2.3, SVG Export Plug-In . SVG Version: 6.00 Build 0)  -->
<svg version="1.1" id="圖層_1" xmlns="http://www.w3.org/2000/svg" xmlns:xlink="http://www.w3.org/1999/xlink" x="0px" y="0px"
	 viewBox="0 0 240 240" style="enable-background:new 0 0 240 240;" xml:space="preserve">
<style type="text/css">
	.st0{fill:#FFFFFF;}
</style>
<g>
	<g>
		<path class="st0" d="M128.3,174.4h-25.2v-15c0-14.8,2.8-28.5,8.2-40.7c4.9-10.9,11.8-21.9,20.7-32.7H81.2V65.6h77.7v19l-0.5,0.6
			c-11.6,13.6-19.6,25.9-23.8,36.7c-4.1,10.8-6.2,23.3-6.2,37.3V174.4z M107.4,170.2h16.8v-10.8c0-14.5,2.2-27.6,6.5-38.8
			c4.3-11.1,12.3-23.7,24-37.4V69.8H85.3v11.9h55.8l-3,3.5c-10,11.6-17.7,23.4-23,35.1c-5.2,11.7-7.8,24.8-7.8,38.9V170.2z"/>
	</g>
</g>
</svg>
