<?xml version="1.0" encoding="utf-8"?>
<!-- Generator: Adobe Illustrator 25.2.3, SVG Export Plug-In . SVG Version: 6.00 Build 0)  -->
<svg version="1.1" id="圖層_1" xmlns="http://www.w3.org/2000/svg" xmlns:xlink="http://www.w3.org/1999/xlink" x="0px" y="0px"
	 viewBox="0 0 240 240" style="enable-background:new 0 0 240 240;" xml:space="preserve">
<style type="text/css">
	.st0{fill:#FFFFFF;}
</style>
<g>
	<g>
		<path class="st0" d="M116.8,175.9c-3.8,0-7.7-0.4-11.7-1.2c-4-0.8-7.8-2-11.3-3.5l-1.6-0.7l4.5-19.3l2.3,0.9
			c2.9,1.2,5.7,2.1,8.4,2.6c2.7,0.5,5.9,0.8,9.4,0.8c4.6,0,8.2-1.7,11.1-5.1c3-3.5,4.5-8.5,4.5-15V134c-1.6,1.4-3.4,2.6-5.3,3.5
			c-3.5,1.7-7.3,2.5-11.2,2.5c-10.3,0-18.5-3.4-24.4-10.2c-5.8-6.7-8.8-15.8-8.8-27.2c0-11,3.5-20.2,10.4-27.5
			c6.9-7.3,15.9-11,26.6-11c11.1,0,20.3,3.8,27.3,11.3c7,7.5,10.5,17.8,10.5,30.9v28.1c0,12.6-3.9,22.8-11.5,30.2
			C138.3,172.1,128.5,175.9,116.8,175.9z M97.2,168c2.8,1.1,5.8,1.9,8.8,2.6c3.7,0.8,7.3,1.1,10.8,1.1c10.6,0,19.4-3.4,26.2-10
			c6.8-6.6,10.2-15.8,10.2-27.2v-28.1c0-11.9-3.2-21.3-9.4-28c-6.3-6.7-14.2-10-24.2-10c-9.7,0-17.4,3.2-23.6,9.7
			c-6.1,6.5-9.3,14.7-9.3,24.6c0,10.3,2.6,18.5,7.8,24.4c5.2,5.9,12.1,8.8,21.3,8.8c3.4,0,6.5-0.7,9.4-2.1c2.9-1.4,5.4-3.5,7.6-6.2
			l3.8-4.8v12.9c0,7.5-1.8,13.4-5.4,17.7c-3.7,4.4-8.5,6.6-14.3,6.6c-3.8,0-7.2-0.3-10.2-0.9c-2.3-0.5-4.6-1.1-6.9-2L97.2,168z
			 M119.3,124.6c-5.2,0-9.2-2.2-12-6.4c-2.6-4-3.9-9.2-3.9-15.6c0-6.1,1.4-11.3,4.2-15.6c3-4.5,7-6.8,11.9-6.8c5.2,0,9.3,2,12.4,6
			c3,3.8,4.5,9.3,4.5,16.3v12.8l-0.3,0.5c-1.7,2.6-4.1,4.8-6.9,6.3C126.4,123.8,123.1,124.6,119.3,124.6z M119.7,84.5
			c-3.5,0-6.3,1.6-8.4,4.9c-2.3,3.5-3.5,8-3.5,13.2c0,5.5,1.1,10,3.2,13.3c1.9,3,4.7,4.5,8.4,4.5c3,0,5.7-0.6,8-1.8
			c2.1-1.1,3.8-2.6,5.1-4.4v-11.6c0-6-1.2-10.7-3.6-13.8C126.5,85.9,123.5,84.5,119.7,84.5z"/>
	</g>
</g>
</svg>
