<?xml version="1.0" encoding="utf-8"?>
<!-- Generator: Adobe Illustrator 25.2.3, SVG Export Plug-In . SVG Version: 6.00 Build 0)  -->
<svg version="1.1" id="圖層_1" xmlns="http://www.w3.org/2000/svg" xmlns:xlink="http://www.w3.org/1999/xlink" x="0px" y="0px"
	 viewBox="0 0 240 240" style="enable-background:new 0 0 240 240;" xml:space="preserve">
<style type="text/css">
	.st0{fill:#FFFFFF;}
</style>
<g>
	<path class="st0" d="M60.6,159.9c13.3,13.3,30.9,20.6,49.7,20.6c38.7,0,70.2-31.5,70.2-70.2c0-18.8-7.3-36.4-20.6-49.7
		c-1.6-1.6-4.1-1.6-5.7,0l-93.6,93.6C59.1,155.8,59.1,158.3,60.6,159.9z M69.3,156.9l38.6-38.6v29.8c0,2.2,1.8,4,4,4s4-1.8,4-4
		v-30.6l21.4,21.4c0.8,0.8,1.8,1.2,2.8,1.2s2.1-0.4,2.9-1.2c1.6-1.6,1.6-4.1,0-5.7l-21.4-21.3h26.6c2.2,0,4-1.8,4-4s-1.8-4-4-4
		h-25.8L157,69.2c10,11.4,15.4,25.8,15.4,41c0,34.3-27.9,62.2-62.2,62.2C95,172.4,80.6,166.9,69.3,156.9z"/>
	<path class="st0" d="M110.3,160.3c27.6,0,50.1-22.5,50.1-50.1c0-9.5-2.6-18.7-7.6-26.6c-1.2-1.9-0.6-4.4,1.3-5.6
		c1.9-1.2,4.4-0.6,5.6,1.3c5.8,9.2,8.9,19.9,8.9,30.9c0,32.1-26.1,58.1-58.1,58.1c-11,0-21.7-3.1-30.9-8.9c-1.9-1.2-2.5-3.7-1.3-5.6
		c1.2-1.9,3.7-2.4,5.6-1.3C91.6,157.6,100.8,160.3,110.3,160.3z"/>
</g>
</svg>
