<?xml version="1.0" encoding="utf-8"?>
<!-- Generator: Adobe Illustrator 25.2.3, SVG Export Plug-In . SVG Version: 6.00 Build 0)  -->
<svg version="1.1" id="圖層_1" xmlns="http://www.w3.org/2000/svg" xmlns:xlink="http://www.w3.org/1999/xlink" x="0px" y="0px"
	 viewBox="0 0 240 240" style="enable-background:new 0 0 240 240;" xml:space="preserve">
<style type="text/css">
	.st0{fill:#FFFFFF;}
</style>
<path class="st0" d="M78,81.9c0.7-1.4,2.1-2.2,3.6-2.2h29.8l11-22c0.7-1.4,2.1-2.2,3.6-2.2h32.3c1.5,0,2.9,0.9,3.6,2.2L174,81.9
	c0.6,1.1,0.6,2.5,0,3.6l-11.2,22.4l11.2,22.4c0.6,1.1,0.6,2.5,0,3.6l-12,24.2c-0.7,1.3-2.1,2.2-3.6,2.2h-17.2
	c-2.5,7.1-9.3,12.1-17.1,12.1c-3.8,0-7.2-1.1-10.1-3.1v3.1c0,6.7-5.5,12.1-12.1,12.1c-6.7,0-12.1-5.4-12.1-12.1v-4.7
	c-1.3,0.4-2.6,0.7-4,0.7c-6.7,0-12.1-5.4-12.1-12.1V125L66,109.7c-0.6-1.2-0.6-2.5,0-3.6L78,81.9z M84.1,128.1h27.3l10.1-20.2
	l-10.1-20.2H84.1L74,107.9L84.1,128.1z M85.7,160.4c2.2,0,4-1.8,4-4s1.8-4,4-4s4,1.8,4,4v16.1c0,2.2,1.8,4,4,4s4-1.8,4-4v-18.2
	c0-2.2,1.8-4,4-4s4,1.8,4,4c0,5.6,4.5,10.1,10.1,10.1c5,0,9.3-3.7,10-8.6c0.1-0.5,0.1-1,0.1-1.4s0.1-0.7,0.2-1
	c-0.1-0.3-0.2-0.6-0.2-1c0-2.2-1.8-4-4-4H122c-0.4,0-0.7-0.1-1.1-0.2c-1.8,0.4-3.7-0.3-4.6-2l-4.9-9.9H81.7v20.2
	C81.7,158.5,83.5,160.4,85.7,160.4z M128.5,103.8h27.3L166,83.7l-10.1-20.2h-27.3l-10.1,20.2L128.5,103.8z M122.5,140.2h7.6
	c6.7,0,12.1,5.4,12.1,12.1h13.6l10.1-20.2l-10.1-20.2h-27.3l-10.1,20.2L122.5,140.2z M89.8,116c-2.3,0-4,1.8-4,4s1.8,4,4,4h16.1
	c1.5,0,2.8-0.8,3.5-2.1l6.7-12.1c0.7-1.2,0.7-2.7,0-3.9l-6.7-12.1c-1-2-3.5-2.7-5.5-1.6c-1.9,1.1-2.7,3.5-1.6,5.5l5.6,10.2l-4.4,8.1
	H89.8z M134.2,91.7c-2.3,0-4,1.8-4,4s1.8,4,4,4h16.1c1.4,0,2.8-0.8,3.5-2.1l6.7-12.1c0.6-1.2,0.6-2.7,0-3.9l-6.7-12.1
	c-1.1-2-3.5-2.7-5.5-1.6c-1.9,1.1-2.7,3.5-1.6,5.5l5.6,10.2l-4.4,8.1C147.9,91.7,134.2,91.7,134.2,91.7z M148.3,116.5
	c-1.9,1.1-2.7,3.6-1.6,5.5l5.6,10.2l-5.6,10.2c-1.1,1.9-0.4,4.4,1.6,5.5c0.6,0.3,1.3,0.5,1.9,0.5c1.4,0,2.8-0.8,3.6-2.1l6.7-12.1
	c0.6-1.2,0.6-2.7,0-3.9l-6.7-12.1C152.8,116.1,150.3,115.4,148.3,116.5z"/>
</svg>
