<?xml version="1.0" encoding="utf-8"?>
<!-- Generator: Adobe Illustrator 25.2.1, SVG Export Plug-In . SVG Version: 6.00 Build 0)  -->
<svg version="1.1" id="圖層_1" xmlns="http://www.w3.org/2000/svg" xmlns:xlink="http://www.w3.org/1999/xlink" x="0px" y="0px"
	 viewBox="0 0 240 240" style="enable-background:new 0 0 240 240;" xml:space="preserve">
<style type="text/css">
	.st0{fill:#1B3372;}
</style>
<g>
	<path class="st0" d="M89.7,148.3c0,14.2,9,21.2,12.9,23.6c0.6,0.4,1.4,0.6,2.1,0.6h49.9c1,0,1.9-0.4,2.6-1c3.4-3,9.1-9.9,9.1-23.2
		c0-9.2-4.1-16.1-8.8-24.2c-5.4-9.1-10.9-18.6-11.3-32c-0.2-5.2,0.5-10.5,2.1-15.7c0.6-2.1-0.6-4.4-2.7-5c-2.1-0.6-4.4,0.6-5,2.7
		c-0.7,2.4-1.2,4.8-1.6,7.2c0.1-0.4,0.1-0.8,0.1-1.1l-26.4,4.2c0.9,4.2,1.3,8.3,1.1,12.4c-0.5,13.1-5.4,22.5-9.4,30
		c-3.8,7.3-6.6,12.6-6.6,21.6l0,0c0-2.2-1.8-4-4-4C91.5,144.2,89.7,146,89.7,148.3z M158.3,144.2l-0.3,0.3c0.1,0.4,0.2,0.8,0.2,1.2
		c-0.1-0.4-0.1-0.8-0.2-1.2l-11.8,11.8l-12.1-12.1l12.1-12.1L158.3,144.2z M150.9,128.7c3.2,5.5,5.8,10,6.9,14.7
		C156.8,138.9,154.3,134.5,150.9,128.7z M122,148.3l-12.1-12.1L122,124l12.1,12.1L122,148.3z M158.3,148.3c0,8.8-3,13.7-5.3,16.1
		H153C155.2,162,158.3,157.1,158.3,148.3z M105.9,164.4c-3.4-2.4-8.1-7.2-8.1-16.1C97.8,157.4,103,162.3,105.9,164.4L105.9,164.4z
		 M130.1,95.8l12.1,12.1L130.1,120L118,107.9L130.1,95.8z M138.2,92.3L138.2,92.3L138.2,92.3L138.2,92.3z M138.4,85.1
		c-0.1,0.6-0.1,1.2-0.2,1.8C138.3,86.3,138.4,85.7,138.4,85.1z"/>
	<path class="st0" d="M61.5,128.1c0,2.2,1.8,4,4,4c2.2,0,4-1.8,4-4c0-2.5,0-4.8,0.2-7.1c1.3-30.4,11.5-36.5,22-37.2L91.6,84
		c1.5,4.1,2.2,8.1,2.1,11.8c-0.3,8.6-3.5,14.5-7.1,21.4c-4.2,8-8.9,17-8.9,31c0,26.3,21.7,35.6,22.7,36c0.5,0.2,1,0.3,1.5,0.3h56.5
		c0.6,0,1.2-0.1,1.8-0.4c0.8-0.4,18.4-9.5,18.4-35.9c0-12.4-5.3-21.5-10.5-30.3c-4.8-8.2-9.3-15.9-9.7-26.3
		c-0.3-9.7,3.4-19.5,11.3-29.7c1-1.3,1.1-3.1,0.3-4.5c-0.8-1.4-2.5-2.2-4.1-1.9L89.1,67.6c-1.3,0.2-2.5,1.1-3.1,2.3
		c-0.6,1.2-0.4,2.7,0.3,3.8c0.5,0.8,1,1.6,1.5,2.4C64.4,80.3,61.5,107.3,61.5,128.1z M102.7,176.5c-3.3-1.6-17-9.5-17-28.2
		c0-12,3.9-19.4,8-27.2c3.7-7.1,7.6-14.4,8-24.8c0.2-5.7-1.1-11.7-3.7-17.8c-0.1-0.3-0.2-0.5-0.3-0.8c-0.5-1-0.9-2-1.4-3l61.6-9.7
		c-5.4,9-7.8,17.9-7.5,27c0.4,12.4,5.7,21.4,10.8,30.1c4.8,8.2,9.4,16,9.4,26.2c0,18.6-10.3,26.4-13.2,28.2H102.7z"/>
</g>
</svg>
