<?xml version="1.0" encoding="utf-8"?>
<!-- Generator: Adobe Illustrator 25.2.1, SVG Export Plug-In . SVG Version: 6.00 Build 0)  -->
<svg version="1.1" id="圖層_1" xmlns="http://www.w3.org/2000/svg" xmlns:xlink="http://www.w3.org/1999/xlink" x="0px" y="0px"
	 viewBox="0 0 240 240" style="enable-background:new 0 0 240 240;" xml:space="preserve">
<style type="text/css">
	.st0{fill:#1B3372;}
</style>
<g>
	<path class="st0" d="M59.7,134.6c-1.5,1.5-2.3,3.4-2.3,5.5c0,2.1,0.8,4.1,2.2,5.5l34.8,34.8c1.5,1.5,3.4,2.2,5.4,2.2
		c2,0,4-0.8,5.6-2.3c7.3-7.1,13.4-11.1,20.4-15.8c9.3-6.2,19.9-13.1,35.7-29c10.2-10.2,12.4-24.4,6.4-34.8l12-12
		c0.8-0.8,1.2-1.8,1.2-2.8s-0.4-2.1-1.2-2.8l-22.8-22.8c-0.8-0.8-1.8-1.2-2.9-1.2c-1.1,0-2.1,0.4-2.8,1.2l-12,12
		c-10.4-6.1-24.6-3.8-34.8,6.3c-13.2,13.2-19.4,22.5-25.4,31.6C73.9,117.9,69,125.3,59.7,134.6z M171.2,85.9l-8.6,8.6l-17.1-17.1
		l8.6-8.6L171.2,85.9z M159.3,125.4l-44.7-44.7c3.8-2.5,8.1-3.8,12.1-3.8c4.4,0,8.6,1.5,11.7,4.7l20.1,20.1
		C164.4,107.6,164.5,117.3,159.3,125.4z M121.3,157.8c-7,4.7-13.7,9-21.5,16.6l-34.2-34.2c9.7-9.8,14.8-17.4,20.2-25.6
		c5.5-8.3,11.2-16.9,22.7-28.6l37,37c-12.6,12.3-22.2,19-30.8,24.7c-4.6,3-9.3,6.1-14.3,10.1l-18-18c5.7-6.8,9.7-12.7,13.5-18.5
		c1.2-1.9,0.7-4.4-1.1-5.6c-1.9-1.2-4.4-0.7-5.6,1.1c-4.2,6.4-8.6,12.9-15.3,20.5c-1.4,1.6-1.4,4,0.2,5.5l23.3,23.3
		c0.8,0.8,1.8,1.2,2.8,1.2c0.9,0,1.9-0.3,2.6-1c5.7-4.9,10.9-8.3,16.4-11.9c9-6,18.9-12.9,32.1-25.8l2.8,2.8
		C139.8,145.6,130,152.1,121.3,157.8z"/>
	
		<rect x="139.2" y="74.5" transform="matrix(0.7071 -0.7071 0.7071 0.7071 -28.461 128.8062)" class="st0" width="4" height="48.4"/>
	
		<rect x="156.6" y="83.9" transform="matrix(0.7071 -0.7071 0.7071 0.7071 -13.1155 140.1728)" class="st0" width="12.1" height="4"/>
	<path class="st0" d="M146.2,158.3h12.1v-12.1c0-2.2,1.8-4,4-4h16.1c2.2,0,4,1.8,4,4c0,2.2-1.8,4-4,4h-4h-8.1v8.1v4c0,2.2-1.8,4-4,4
		h-4h-8.1v8.1v4c0,2.2-1.8,4-4,4c-2.2,0-4-1.8-4-4v-16.1C142.2,160.2,144,158.3,146.2,158.3z"/>
	<path class="st0" d="M93.8,81.7H81.7v12.1c0,2.2-1.8,4-4,4H61.5c-2.2,0-4-1.8-4-4s1.8-4,4-4h4h8.1v-8.1v-4c0-2.2,1.8-4,4-4h4h8.1
		v-8.1v-4c0-2.2,1.8-4,4-4c2.2,0,4,1.8,4,4v16.2C97.8,79.9,96,81.7,93.8,81.7z"/>
</g>
</svg>
