<?xml version="1.0" encoding="utf-8"?>
<!-- Generator: Adobe Illustrator 25.2.1, SVG Export Plug-In . SVG Version: 6.00 Build 0)  -->
<svg version="1.1" id="圖層_1" xmlns="http://www.w3.org/2000/svg" xmlns:xlink="http://www.w3.org/1999/xlink" x="0px" y="0px"
	 viewBox="0 0 240 240" style="enable-background:new 0 0 240 240;" xml:space="preserve">
<style type="text/css">
	.st0{fill:#1B3372;}
</style>
<path class="st0" d="M137.6,172.1c29.8-4.3,52.7-29.9,52.7-60.9c0-34-27.5-61.5-61.5-61.5c-31,0-56.6,22.9-60.9,52.7h8.9
	c1.4-8.4,4.8-16.2,9.8-22.7C91.8,91.2,108,97,124.4,97.9v8.9h-0.1c3.4,2.5,6.4,5.5,8.9,8.9v-0.1h48.1c-0.8,10.1-4.6,19.4-10.3,27.1
	c-4.3-9.4-15.9-15-29-17.2v8.9c12,2.2,21.7,7.7,21.9,16.1c-7.3,6.5-16.3,11-26.3,12.7L137.6,172.1z M133.2,106.8v-9
	c9.3-0.5,18-2.4,24.7-5.7c6.3-3.1,10.8-7.4,13-12.4c5.8,7.7,9.5,17,10.3,27.1L133.2,106.8L133.2,106.8z M133.2,58.7
	c11.8,1,22.4,5.8,30.7,13.3c-0.3,10.4-15,16.2-30.7,17.1V58.7z M93.7,72c8.3-7.4,19-12.3,30.7-13.3v30.4C108.6,88.2,94,82.4,93.7,72
	z M51,182.8c-1.7,1.7-1.7,4.5,0,6.2c0.9,0.9,2,1.3,3.1,1.3c1.1,0,2.2-0.4,3.1-1.3l19.3-19.3c6,4.6,13.4,7.4,21.5,7.4
	c19.4,0,35.2-15.8,35.2-35.2s-15.8-35.2-35.2-35.2S62.9,122.6,62.9,142c0,8.1,2.8,15.6,7.4,21.5L51,182.8z M71.7,142
	c0-14.5,11.8-26.4,26.4-26.4c14.5,0,26.4,11.8,26.4,26.4s-11.8,26.4-26.4,26.4C83.5,168.3,71.7,156.5,71.7,142z M111.2,142
	c0-7.3-5.9-13.2-13.2-13.2c-2.4,0-4.4-2-4.4-4.4c0-2.4,2-4.4,4.4-4.4c12.1,0,22,9.8,22,22c0,2.4-2,4.4-4.4,4.4
	C113.2,146.4,111.2,144.4,111.2,142z"/>
</svg>
