<?xml version="1.0" encoding="utf-8"?>
<!-- Generator: Adobe Illustrator 25.2.1, SVG Export Plug-In . SVG Version: 6.00 Build 0)  -->
<svg version="1.1" id="圖層_1" xmlns="http://www.w3.org/2000/svg" xmlns:xlink="http://www.w3.org/1999/xlink" x="0px" y="0px"
	 viewBox="0 0 240 240" style="enable-background:new 0 0 240 240;" xml:space="preserve">
<style type="text/css">
	.st0{fill:#1B3372;}
</style>
<path class="st0" d="M117,85.7c0.8-0.6,1.6-1.1,2.1-1.4c8.8-6.3,18.4-5.5,26-1.5c1.4-4.4,4.4-9.2,9-13.8
	c6.7-6.7,17.5-13.5,26.2-13.5c0,0,0,0,0.1,0c2.2,0,4,1.8,4,4c0,2.2-1.8,4-4,4h0c-5.4,0-14.1,4.6-20.5,11.1c-0.6,0.6-1.2,1.2-1.7,1.9
	c2.6-0.8,5-1.1,6.9-1c6.9,0.2,13.6,3.5,18.6,9.5c0.6,0.7,1,1.7,1,2.7c0,6.4-3.5,12.7-9.2,16.8c-4,2.9-8.7,4.4-13.4,4.4
	c-0.6,0-1.2-0.1-1.8-0.1c-0.4,4-1.7,8.2-4.6,12.2c-0.2,0.2-0.3,0.3-0.4,0.5c-3.6,3.6-10.4,14.3-10.4,20.4c0,0,0,0.1,0,0.2
	c-1.1,23.9-20.7,42.5-44.6,42.5c-24.6,0-44.7-20-44.7-44.6c0-23.9,18.7-43.6,42.7-44.6C103.5,95.2,113,88.5,117,85.7z M100.1,176.4
	c19.5,0,35.6-15.2,36.6-34.6c0,0,0-0.1,0-0.1c0.1-9.1,8.2-21.2,12.6-25.7c5.9-8.4,2.2-17.2-2.7-22.2c-5.5-5.5-14.7-8.6-22.9-2.8
	c-0.5,0.3-1.2,0.8-1.9,1.3c-7.6,5.3-16.2,11-23.3,11c-9.8,0.4-18.5,4.7-24.8,11.3c-6.3,6.6-10.1,15.5-10.1,25.3
	C63.5,160,79.9,176.4,100.1,176.4z M170.7,97.9c3.1-2.3,5.2-5.5,5.7-8.8c-3.4-3.5-7.4-5.4-11.6-5.5c-4-0.2-8.1,1.7-11.9,5.2
	c3,3.2,5.4,7.3,6.6,11.7C163.3,101.2,167.4,100.3,170.7,97.9z M77.3,157.5c-1.5,1.6-1.5,4.2,0.1,5.7c6.1,5.9,14.2,9.2,22.7,9.2
	c17.3,0,31.6-13.5,32.5-30.8c0.2-10.1,8.2-22.5,13.2-28c1.5-1.7,1.4-4.2-0.2-5.7c-1.7-1.5-4.2-1.4-5.7,0.2
	c-5.2,5.7-15.1,20-15.3,33.1c-0.7,12.8-11.4,23-24.5,23c-6.4,0-12.4-2.5-17-6.9C81.4,155.8,78.9,155.8,77.3,157.5z M87.7,119.9
	c-7.8,7.8-9.6,18.7-4,24.2c5.6,5.6,16.4,3.8,24.2-4c7.8-7.8,9.7-18.7,4-24.2C106.3,110.3,95.5,112.1,87.7,119.9z"/>
</svg>
