<?xml version="1.0" encoding="utf-8"?>
<!-- Generator: Adobe Illustrator 25.2.3, SVG Export Plug-In . SVG Version: 6.00 Build 0)  -->
<svg version="1.1" id="圖層_1" xmlns="http://www.w3.org/2000/svg" xmlns:xlink="http://www.w3.org/1999/xlink" x="0px" y="0px"
	 viewBox="0 0 240 240" style="enable-background:new 0 0 240 240;" xml:space="preserve">
<style type="text/css">
	.st0{fill:#FFFFFF;}
</style>
<g>
	<g>
		<path class="st0" d="M110.9,52.7c-0.8,0.4-1.6,0.8-2.5,0.9c-1,0.1-2.1-0.2-3.1-0.4c-0.6-0.1-1.2-0.2-1.8-0.3
			c-0.8-0.1-1.6-0.1-2.3,0.3c-0.4,0.2-0.8,0.5-1.1,0.9c-1.1,1-2.2,2-3.2,3c-0.9,0.8-1.7,1.7-2.1,2.9c-1.1,3.6,1.8,5.5,4.6,6.8
			c3.3,1.6,7.1,2.3,10.7,2.3c4.3,0,8.8-0.9,12.4-3.2c1.1-0.7,2-1.6,2.9-2.6c0.7-0.8,0.9-1.9,0.6-2.9c-0.2-0.9-1-1.5-1.2-2.4
			c-0.1-0.2-0.1-0.4-0.2-0.6c-0.1-0.1-0.2-0.2-0.3-0.2c-0.6-0.4-0.8-1.2-1.4-1.4c-0.2-0.1-0.3-0.1-0.5-0.1c-1-0.5-2.1-0.3-3.2-0.8
			c-1.4-0.6-2.7-1.2-4-2c-0.4-0.3-0.8-0.5-1.3-0.7C112.9,51.9,111.9,52.3,110.9,52.7z"/>
	</g>
	<g>
		<g>
			<path class="st0" d="M135.3,137.5l-0.9-2.3c-2.6-6.7-13.9-11.6-27-11.6c-13.1,0-24.4,4.9-27,11.6l-0.9,2.3l-0.9-2.3
				c-0.4-1.1-0.6-2.3-0.6-3.4c0-9,13.2-16.3,29.4-16.3s29.4,7.3,29.4,16.3c0,1.2-0.2,2.3-0.6,3.4L135.3,137.5z M107.5,117.4
				c-15.2,0-27.5,6.5-27.5,14.4c0,0.1,0,0.2,0,0.3c4.2-6.3,15-10.4,27.5-10.4s23.2,4.2,27.5,10.4c0-0.1,0-0.2,0-0.3
				C135,123.8,122.6,117.4,107.5,117.4z"/>
		</g>
		<g>
			<path class="st0" d="M110.1,79.4c-4,0-7-1.6-7-3.8l0-1.7l1.9,0l0,1.7c0,0.6,1.8,1.8,5.1,1.8s5.1-1.2,5.1-1.8V74h1.9v1.6
				C117.1,77.8,114.1,79.4,110.1,79.4z"/>
		</g>
		<g>
			<g>
				<path class="st0" d="M110.1,75.5c-10.1,0-18-4.1-18-9.3v-7.6h1.8l0.2,0.8c0.6,4.9,7.6,8.8,16.1,8.8s15.5-3.9,16.1-8.8l0.1-0.9
					h1.8l0.1,1v6.7C128.1,71.4,120.2,75.5,110.1,75.5z M94,63.9v2.3c0,4,7.4,7.4,16.1,7.4s16.1-3.4,16.1-7.4v-2.3
					c-2.9,3.7-9,6.2-16.1,6.2C103,70.1,96.9,67.6,94,63.9z"/>
			</g>
			<g>
				<path class="st0" d="M110.1,70.1c-9.6,0-17.3-4.5-18-10.5l0-0.1c0-0.2-0.1-0.5-0.1-0.7c0-6.2,8.1-11.3,18-11.3s18,5.1,18,11.3
					c0,0.2,0,0.5-0.1,0.7C127.4,65.6,119.6,70.1,110.1,70.1z M110.1,49.4c-8.9,0-16.1,4.2-16.1,9.4c0,0.2,0,0.3,0,0.5l0,0.1
					c0.6,4.9,7.6,8.8,16.1,8.8s15.5-3.9,16.1-8.8l0-0.1c0-0.2,0-0.3,0-0.5C126.2,53.6,119,49.4,110.1,49.4z"/>
			</g>
		</g>
		<g>
			<path class="st0" d="M123.9,91.8L108,79.1l1.2-1.5L123.4,89c1.5-3,0-6.2-0.4-7l-8.1-4.1l0.9-1.7l8.6,4.4l0.1,0.2
				c0.1,0.2,3.3,5.5,0,10.2L123.9,91.8z"/>
		</g>
		<g>
			<path class="st0" d="M106.1,117.4c-0.5,0-1-0.4-1-0.9c0-21.7,0-33.6,0-35.6c0-0.3,0.3-1.6,0.8-3.1c0.2-0.5,0.7-0.8,1.2-0.6
				c0.5,0.2,0.8,0.7,0.6,1.2c-0.5,1.5-0.7,2.5-0.7,2.6c0,1.9,0,13.8,0,35.5C107.1,116.9,106.7,117.4,106.1,117.4L106.1,117.4z"/>
		</g>
		<g>
			<path class="st0" d="M143.4,154.3c-0.2,0-0.3,0-0.4-0.1l-8-4c-0.5-0.2-0.7-0.8-0.4-1.3c0.2-0.5,0.8-0.7,1.3-0.4l6.6,3.3v-51.3
				c0-3.6-1.5-10-4.7-15.9c-2.6-4.7-7.1-10.7-14.1-12.6c-0.5-0.1-0.8-0.7-0.7-1.2c0.1-0.5,0.7-0.8,1.2-0.7
				c13.3,3.5,20.2,21.6,20.2,30.4v52.8c0,0.3-0.2,0.6-0.4,0.8C143.7,154.3,143.5,154.3,143.4,154.3z"/>
		</g>
		<g>
			<path class="st0" d="M111.3,184.4c-4,0-7.6-1.1-10.8-3.2l-2.3-1.6l1.1-1.6l2.3,1.6c11.5,7.6,25.7-2.5,25.9-2.6l52.9-31V77.7
				c0-7.3-6.5-27.2-21.1-28.9c-6.1-0.7-17.1,3.8-31.6,13.1l-1-1.6c15.1-9.7,26.2-14.2,32.8-13.4c8.6,1,14.1,7.6,17.2,12.9
				c3.8,6.5,5.6,13.7,5.6,17.9v69.3l-53.8,31.5c-0.1,0.1-3.8,2.7-9.1,4.4C116.6,183.9,113.9,184.4,111.3,184.4z"/>
		</g>
		<g>
			<path class="st0" d="M110.3,170c-4,0-7.6-1-10.8-3.1c-2.6-1.7-5.1-3.3-7.4-4.8l1-1.6c2.3,1.5,4.8,3.1,7.4,4.8
				c11.5,7.4,25.8-2.4,25.9-2.5l16.5-10.3l1,1.6l-16.4,10.2c-0.1,0.1-3.8,2.7-9.1,4.3C115.5,169.6,112.8,170,110.3,170z"/>
		</g>
		<g>
			<path class="st0" d="M129.4,112.9c-0.1,0-0.2,0-0.3,0c-2.9-0.2-6.1-1.4-9.5-3.7c-3.4-2.3-5.4-4.3-6.6-6.9
				c-1.1-2.1-1.6-4.7-1.6-7.4v-3.7l23.4,15v0.5c0,1.8-0.7,3.5-1.9,4.6C131.9,112.4,130.7,112.9,129.4,112.9z M113.4,94.8V95
				c0,2.4,0.5,4.7,1.4,6.5c1.1,2.2,2.9,4,6,6.1c3.1,2.1,5.9,3.2,8.5,3.3c0.9,0,1.7-0.3,2.4-0.9c0.7-0.7,1.2-1.7,1.3-2.7L113.4,94.8z
				"/>
		</g>
		<g>
			<path class="st0" d="M107.5,162.7c-4.2,0-8.2-0.5-12-1.4l0.5-1.8c3.6,0.9,7.5,1.3,11.6,1.3c15.2,0,27.5-6.5,27.5-14.4v-8.8
				c-4.2,6.1-15,10.5-27.5,10.5s-23.3-4.4-27.5-10.5v8.8c0,0.6,0.1,1.3,0.3,2l-1.8,0.5c-0.2-0.8-0.3-1.6-0.3-2.4v-14.6H80
				c0,7.9,12.3,14.4,27.5,14.4s27.5-6.5,27.5-14.4h1.9v14.6C136.9,155.4,123.7,162.7,107.5,162.7z"/>
		</g>
		<g>
			<path class="st0" d="M107.5,148c-14.1,0-25.9-5.3-28.8-12.9l1.8-0.7c2.6,6.7,13.9,11.6,27,11.6s24.4-4.9,27-11.6l1.8,0.7
				C133.3,142.8,121.5,148,107.5,148z"/>
		</g>
		<g>
			<path class="st0" d="M107.5,138.9c-1.6,0-2.9-1.3-2.9-2.9v-7.2c0-1.6,1.3-2.9,2.9-2.9c1.6,0,2.9,1.3,2.9,2.9v7.2
				C110.4,137.6,109.1,138.9,107.5,138.9z M107.5,127.8c-0.6,0-1,0.4-1,1v7.2c0,0.6,0.5,1,1,1s1-0.4,1-1v-7.2
				C108.5,128.3,108.1,127.8,107.5,127.8z"/>
		</g>
		<g>
			
				<rect x="109.5" y="130.2" transform="matrix(0.9982 -5.960133e-02 5.960133e-02 0.9982 -7.6011 7.4538)" class="st0" width="23.3" height="1.9"/>
		</g>
		<g>
			
				<rect x="79.5" y="131.9" transform="matrix(0.9982 -5.960133e-02 5.960133e-02 0.9982 -7.7546 5.7491)" class="st0" width="26.1" height="1.9"/>
		</g>
		<g>
			
				<rect x="99.6" y="141.1" transform="matrix(0.2666 -0.9638 0.9638 0.2666 -60.2055 205.0379)" class="st0" width="10.1" height="1.9"/>
		</g>
		<g>
			
				<rect x="107.2" y="123.8" transform="matrix(0.2675 -0.9636 0.9636 0.2675 -40.0687 196.8395)" class="st0" width="4.4" height="1.9"/>
		</g>
		<g>
			<g>
				<path class="st0" d="M86,156.9c-0.1,0-0.3,0-0.4-0.1l-9.9-4.3c-0.3-0.1-0.5-0.4-0.6-0.7c-0.1-0.3,0-0.6,0.2-0.8l6.9-7.2
					c0.3-0.3,0.7-0.4,1.1-0.2l9.9,4.3c0.3,0.1,0.5,0.4,0.6,0.7c0.1,0.3,0,0.6-0.2,0.9l-6.9,7.2C86.5,156.8,86.2,156.9,86,156.9z
					 M77.8,151.4l8,3.5l5.5-5.7l-8-3.5L77.8,151.4z"/>
			</g>
			<g>
				<path class="st0" d="M86,156.9c-0.3,0-0.6-0.2-0.8-0.4c-0.2-0.4-0.2-0.8,0.1-1.2l6.9-7.2c0.2-0.2,0.5-0.3,0.7-0.3
					c0.3,0,0.5,0.1,0.7,0.3l3.5,4c0.2,0.2,0.3,0.6,0.2,0.9c-0.1,0.3-0.3,0.6-0.6,0.6l-10.4,3.2C86.2,156.9,86.1,156.9,86,156.9z
					 M92.9,150.2l-3.6,3.8l5.4-1.7L92.9,150.2z"/>
			</g>
		</g>
		<g>
			<path class="st0" d="M86,164.5c-0.1,0-0.3,0-0.4-0.1l-9.9-4.4c-0.3-0.1-0.6-0.5-0.6-0.9v-7.4c0-0.3,0.2-0.6,0.4-0.8
				c0.3-0.2,0.6-0.2,0.9-0.1l9.9,4.3c0.3,0.1,0.6,0.5,0.6,0.9v7.5c0,0.3-0.2,0.6-0.4,0.8C86.3,164.4,86.2,164.5,86,164.5z
				 M77.1,158.4l8,3.6v-5.4l-8-3.4V158.4z"/>
		</g>
		<g>
			<path class="st0" d="M86,164.5c-0.2,0-0.4-0.1-0.6-0.2c-0.2-0.2-0.4-0.5-0.4-0.8V156c0-0.4,0.3-0.8,0.7-0.9l10.4-3.2
				c0.3-0.1,0.6,0,0.8,0.1c0.2,0.2,0.4,0.5,0.4,0.8c0,7.8,0,7.8-0.3,8.1c-0.1,0.1-0.3,0.2-0.4,0.2c-0.3,0.1-6.9,2.2-10.4,3.3
				C86.2,164.4,86.1,164.5,86,164.5z M86.9,156.7v5.5c5.1-1.6,7.4-2.3,8.5-2.7c0-1.1,0-3.4,0-5.5L86.9,156.7z"/>
		</g>
		<g>
			<path class="st0" d="M79,180.2c-0.2,0-0.4-0.1-0.5-0.1l-20.3-13c-0.3-0.2-0.5-0.5-0.4-0.9c0-0.3,0.2-0.6,0.5-0.8l17.4-8.9
				c0.5-0.2,1-0.1,1.3,0.4c0.2,0.5,0.1,1-0.4,1.3l-15.9,8.1L79,178.1l17.8-9.1l-8.4-5.4c-0.4-0.3-0.6-0.9-0.3-1.3
				c0.3-0.4,0.9-0.6,1.3-0.3l9.8,6.2c0.3,0.2,0.5,0.5,0.4,0.9c0,0.3-0.2,0.6-0.5,0.8l-19.8,10.1C79.3,180.1,79.1,180.2,79,180.2z"/>
		</g>
		<g>
			<path class="st0" d="M79,193.2c-0.2,0-0.4-0.1-0.5-0.1l-20.3-13c-0.3-0.2-0.4-0.5-0.4-0.8v-13c0-0.3,0.2-0.7,0.5-0.8s0.7-0.1,1,0
				l20.3,13c0.3,0.2,0.4,0.5,0.4,0.8v13.1c0,0.4-0.2,0.7-0.5,0.8C79.3,193.2,79.1,193.2,79,193.2z M59.6,178.7L78,190.5v-10.8
				L59.6,168V178.7z"/>
		</g>
		<g>
			<path class="st0" d="M79,193.2c-0.2,0-0.3,0-0.5-0.1c-0.3-0.2-0.5-0.5-0.5-0.8v-13.1c0-0.4,0.2-0.7,0.5-0.9l19.8-10.1
				c0.3-0.1,0.7-0.1,0.9,0s0.5,0.5,0.5,0.8v12.1c0,0.3-0.2,0.7-0.5,0.8l-19.8,11.1C79.3,193.2,79.1,193.2,79,193.2z M79.9,179.8
				v10.8l17.8-10v-10L79.9,179.8z"/>
		</g>
	</g>
	<g>
		<path class="st0" d="M79,178.1c-2.4-1.5-4.8-3.1-7.2-4.6c-2-1.3-4-2.5-6-3.8c-2.1-1.4-2.1-3.1,0.3-4.3c1.2-0.6,2.4-1.1,3.7-1.5
			c1.1-0.4,2-1.7,2.9-2.6c0.3-0.3,0.6-0.6,0.9-0.9c1.6-1.6,3.3-3.3,5-4.8c0.2-0.1,0.3-0.3,0.6-0.3c0.2-0.1,0.5,0,0.7,0.1
			c1.4,0.4,2.4,1.8,3.8,1.9c0.2,0,0.4,0,0.5,0.1c0.3,0.1,0.5,0.4,0.6,0.8c0.1,0.3,0,0.7,0,1c-0.2,1.4-0.1,3.7,0.9,4.9
			c0.6,0.7,1.4,0.3,2.1,0.5c0.3,0.1,0.7,0.4,1.1,0.4c0.4,0.1,0.9,0.1,1.3,0.4c0.2,0.1,0.3,0.3,0.5,0.4c0.4,0.4,0.7,0.8,1.1,1.2
			c0.1,0.1,0.2,0.3,0.4,0.4c0.2,0.1,0.3,0.1,0.5,0.2c0.4,0.2,0.8,0.6,1,1c0.2,0.4,0.5,1.2,0.4,1.7c-0.2,0.7-1.4,1.1-1.9,1.4
			c-2,1-3.9,2-5.9,3C85.5,174.8,79,178.1,79,178.1z"/>
	</g>
</g>
</svg>
