<?xml version="1.0" encoding="utf-8"?>
<!-- Generator: Adobe Illustrator 25.2.3, SVG Export Plug-In . SVG Version: 6.00 Build 0)  -->
<svg version="1.1" id="圖層_1" xmlns="http://www.w3.org/2000/svg" xmlns:xlink="http://www.w3.org/1999/xlink" x="0px" y="0px"
	 viewBox="0 0 240 240" style="enable-background:new 0 0 240 240;" xml:space="preserve">
<style type="text/css">
	.st0{fill:#FFFFFF;}
</style>
<path class="st0" d="M115.8,176.6v-62L61.4,92.7v61.9L115.8,176.6z M124.2,176.6l54.4-22V92.7l-54.4,21.9V176.6z M120,107.3
	l52.3-21.1L120,61.8L67.7,86.2L120,107.3z M121.4,186.7c-0.5,0.2-0.9,0.3-1.4,0.3c-0.5,0-1-0.1-1.4-0.3c0,0-0.1,0-0.2,0l-62.8-25.3
	c-1.6-0.6-2.6-2.2-2.6-3.9V86.5c0-0.5,0.1-0.9,0.2-1.3c0-0.1,0.1-0.2,0.1-0.3c0.2-0.5,0.4-0.9,0.7-1.2l0,0c0.2-0.2,0.5-0.5,0.8-0.6
	c0.1-0.1,0.2-0.2,0.4-0.2c0,0,0.1-0.1,0.1-0.1l62.8-29.3c1.1-0.5,2.4-0.5,3.6,0l62.8,29.3c0,0,0.1,0.1,0.1,0.1
	c0.2,0,0.3,0.1,0.5,0.2c0.2,0.2,0.5,0.4,0.7,0.6l0,0c0.3,0.3,0.5,0.8,0.7,1.2c0,0.1,0.1,0.2,0.1,0.3c0.1,0.4,0.2,0.8,0.2,1.3v70.9
	c0,1.7-1.1,3.3-2.6,3.9l-62.8,25.3C121.5,186.7,121.4,186.7,121.4,186.7z M71.3,145.1l31.4,12.7c0.2,0,0.3-0.1,0.5-0.1v-37.4
	c0-2.3,1.8-4.2,4.2-4.2c2.3,0,4.2,1.9,4.2,4.2v43.9c0,1.4-0.7,2.7-1.8,3.5c-0.7,0.5-1.6,0.7-2.3,0.7c-0.5,0-1.1-0.1-1.6-0.3
	l-37.7-15.2c-2.1-0.9-3.2-3.3-2.3-5.4C66.7,145.2,69.2,144.2,71.3,145.1z M73.9,107.4c0,2.3-1.9,4.2-4.2,4.2c-2.3,0-4.2-1.9-4.2-4.2
	c0-2.3,1.8-4.2,4.2-4.2C72.1,103.3,73.9,105.1,73.9,107.4z M73.9,124.2c0,2.3-1.9,4.2-4.2,4.2c-2.3,0-4.2-1.9-4.2-4.2
	c0-2.3,1.8-4.2,4.2-4.2C72.1,120,73.9,121.8,73.9,124.2z M78.1,136.7c0,2.3-1.9,4.2-4.2,4.2c-2.3,0-4.2-1.9-4.2-4.2
	c0-2.3,1.8-4.2,4.2-4.2C76.2,132.6,78.1,134.4,78.1,136.7z M86.5,120c0,2.3-1.9,4.2-4.2,4.2c-2.3,0-4.2-1.9-4.2-4.2
	c0-2.3,1.8-4.2,4.2-4.2C84.6,115.8,86.5,117.7,86.5,120z M94.9,86.5c0,2.3-1.9,4.2-4.2,4.2c-2.3,0-4.2-1.9-4.2-4.2
	c0-2.3,1.8-4.2,4.2-4.2C93,82.3,94.9,84.2,94.9,86.5z M94.9,140.9c0,2.3-1.9,4.2-4.2,4.2c-2.3,0-4.2-1.9-4.2-4.2
	c0-2.3,1.8-4.2,4.2-4.2C93,136.7,94.9,138.6,94.9,140.9z M111.6,78.1c0,2.3-1.9,4.2-4.2,4.2c-2.3,0-4.2-1.9-4.2-4.2
	c0-2.3,1.8-4.2,4.2-4.2C109.7,73.9,111.6,75.8,111.6,78.1z M115.8,94.9c0,2.3-1.9,4.2-4.2,4.2c-2.3,0-4.2-1.9-4.2-4.2
	c0-2.3,1.8-4.2,4.2-4.2C113.9,90.7,115.8,92.5,115.8,94.9z M141.8,155.9c-0.5-0.7-0.9-1.5-0.9-2.4c0-2.3,1.8-4.2,4.2-4.2
	c2.1,0,3.8,1.6,4.1,3.6l16.9-6.8v-41.1c0-2.3,1.8-4.2,4.2-4.2c2.3,0,4.2,1.9,4.2,4.2V149c0,1.7-1.1,3.2-2.6,3.9l-37.7,15.2
	c-0.5,0.2-1.1,0.3-1.6,0.3c-1.7,0-3.2-1-3.9-2.6c-0.9-2.2,0.2-4.6,2.3-5.5L141.8,155.9z M136.7,128.4c0,2.3-1.9,4.2-4.2,4.2
	c-2.3,0-4.2-1.9-4.2-4.2c0-2.3,1.8-4.2,4.2-4.2C134.9,124.2,136.7,126,136.7,128.4z M136.7,145.1c0,2.3-1.9,4.2-4.2,4.2
	c-2.3,0-4.2-1.9-4.2-4.2c0-2.3,1.8-4.2,4.2-4.2C134.9,140.9,136.7,142.8,136.7,145.1z M157.7,140.9c0,2.3-1.9,4.2-4.2,4.2
	c-2.3,0-4.2-1.9-4.2-4.2c0-2.3,1.8-4.2,4.2-4.2C155.8,136.7,157.7,138.6,157.7,140.9z"/>
</svg>
