<?xml version="1.0" encoding="utf-8"?>
<!-- Generator: Adobe Illustrator 25.2.1, SVG Export Plug-In . SVG Version: 6.00 Build 0)  -->
<svg version="1.1" id="圖層_1" xmlns="http://www.w3.org/2000/svg" xmlns:xlink="http://www.w3.org/1999/xlink" x="0px" y="0px"
	 viewBox="0 0 240 240" style="enable-background:new 0 0 240 240;" xml:space="preserve">
<style type="text/css">
	.st0{fill:#1B3372;}
</style>
<g>
	<g>
		<g>
			<path class="st0" d="M101,87.9c0.1,0,0.2,0.1,0.4,0.1c0.2,0.1,0.4,0.2,0.5,0.3c0,0,0,0,0.1,0.1c2.4-4.1,4.7-8.2,6.5-12.7
				c2-5,3.5-8.9,4.7-13.3c0.2-0.6,0.4-1.2,0.7-1.6c0.1,9.6-4.8,18.7-9.5,27.5c-0.3,0.5-0.5,1-0.8,1.5c0.1,0.1,0.1,0.1,0.2,0.2
				c0.2,0.2,0.4,0.5,0.6,0.7c0.3-0.6,0.7-1.2,1-1.9c4.7-8.8,10.1-18.8,9.6-29.1c0-0.2-0.1-0.3-0.2-0.4c-0.1-0.1-0.3-0.1-0.5-0.1
				c-1.5,0.3-2,2.1-2.2,2.9c-1.2,4.3-2.7,8.2-4.7,13.1C105.6,79.7,103.3,83.8,101,87.9C100.9,87.9,101,87.9,101,87.9z"/>
			<path class="st0" d="M109.3,148c-0.1-0.4-0.2-0.9-0.3-1.4c-0.2-1.2-0.5-2.5-1.2-3.4c-1-1.1-3.1-1.5-4.8-1.8
				c-0.4-0.1-0.7-0.1-1-0.2c-5.1-1.1-9.3-1.1-13,0.2c-0.8,0.3-1.6,0.6-2.3,0.9c-0.5,0.2-1,0.4-1.4,0.6c-0.6,0.2-1.1,0.7-1.5,1.1
				c-1.9,2.1-3.7,4.4-5.1,6.9c-0.2,0.4-0.6,0.8-0.8,0.9c-0.4-1.7,0.3-3.6,1.1-5.5c0-0.1,0.2-0.3,0.3-0.7c2.5-5.3,2.5-6,1.9-6.4
				c-1.9-1.2-4.2-0.1-6.2,0.9c-0.7,0.3-1.3,0.6-1.9,0.9c-1.4,0.5-2.8,0.8-4.3,1c-1.2,0.2-2.5,0.4-3.7,0.8c-1.1,0.3-2.2,0.5-3.3,0.7
				c-1.2,0.2-2.4,0.4-3.7,0.8l-0.2,0.1c-0.7,0.2-2.6,0.9-3.2,0.4c-0.2-0.1-0.2-0.4-0.2-0.7c0-0.3,0.6-0.6,1.7-1.1l0.2-0.1
				c1-0.5,2.1-0.8,3.3-1c0.9-0.2,1.8-0.5,2.6-0.8l7-2.6c4.8-1.8,9-2.7,13.7-3c1.4-0.1,2.7,0.4,4,0.9c0.8,0.3,1.6,0.6,2.5,0.8
				c3.5,0.8,6.6,1,9.3,0.5c1.1-0.2,2.2-0.3,3.4-0.5c1.1-0.1,2.3-0.2,3.4-0.5c0.4-0.1,0.6-0.3,0.8-0.6c0.8-2.2-5.2-11.1-5.2-11.2
				c-2-2.6-4.3-5.1-6.5-7.5c-0.8-0.8-1.5-1.6-2.2-2.4c-4.2-4.6-7.5-9.9-10.7-15c-0.8-1.3-1.7-2.7-2.5-4L78.9,96
				c-1-1.6-2.1-3.3-3.3-4.9c-0.7-0.9-1.4-1.8-2-2.5c-0.1-0.1-0.2-0.2-0.3-0.3c-0.5-0.5-0.9-0.9-0.9-1.4c0-0.4,0.2-0.8,0.4-1.1
				c1.6,1.3,2.9,2.9,4.2,4.5c0.4,0.5,0.9,1.1,1.3,1.6c1.4,1.6,2.6,3.4,3.8,5.2c1.5,2.1,3,4.4,4.8,6.3c0.2,0.2,2.2,2.6,3,3.4
				c0.1,0.1,0.3,0.2,0.5,0.2c0.2,0,0.3-0.1,0.4-0.3c0.4-0.8,0.8-1.5,1.2-2.3c0.3-0.5,0.6-1.1,0.9-1.6c0.6-1,1.1-1.9,1.7-2.9
				c1.1-1.7,2.1-3.4,3.2-5.1c0.7-1.1,1.4-2.2,2.1-3.3c0,0,0,0,0,0c0,0,0,0,0,0c-0.3-0.1-0.6-0.3-0.9-0.5c0,0,0,0,0,0
				c-0.7,1.1-1.4,2.2-2.1,3.3c-1.1,1.7-2.1,3.4-3.2,5.1c-0.6,1-1.2,1.9-1.7,2.9c-0.3,0.5-0.6,1.1-0.9,1.6c-0.3,0.5-0.6,1-0.9,1.6
				c-0.8-0.9-2.2-2.6-2.5-2.8c-1.8-1.9-3.3-4.1-4.7-6.2c-1.2-1.8-2.5-3.6-3.9-5.3c-0.4-0.5-0.9-1-1.3-1.6c-1.5-1.8-3-3.6-4.8-5
				c-0.2-0.1-0.4-0.2-0.6,0c-0.8,0.5-1.3,1.5-1.2,2.4c0,1,0.7,1.6,1.2,2.2c0.1,0.1,0.2,0.2,0.3,0.3c0.6,0.7,1.3,1.5,2,2.4
				c1.2,1.5,2.2,3.2,3.3,4.8l0.1,0.1c0.9,1.3,1.7,2.7,2.5,4c3.2,5.2,6.6,10.5,10.8,15.1c0.7,0.8,1.5,1.6,2.2,2.4
				c2.2,2.4,4.5,4.8,6.4,7.4c1.1,1.4,5.4,8.7,5.1,10c-1.1,0.2-2.2,0.3-3.3,0.4c-1.1,0.1-2.3,0.2-3.5,0.5c-2.5,0.5-5.4,0.3-8.8-0.5
				c-0.8-0.2-1.6-0.5-2.3-0.8c-1.4-0.6-2.8-1.1-4.5-1c-4.8,0.3-9.1,1.3-14,3.1l-7,2.6c-0.8,0.3-1.7,0.5-2.5,0.7
				c-1.2,0.3-2.3,0.6-3.5,1.1l-0.2,0.1c-0.8,0.4-2.2,1-2.4,2.1c-0.1,1,0.3,1.5,0.6,1.7c1.1,0.9,3.2,0.2,4.3-0.2l0.2-0.1
				c1.2-0.4,2.3-0.6,3.5-0.8c1.1-0.2,2.3-0.4,3.4-0.7c1.1-0.3,2.4-0.6,3.5-0.7c1.5-0.2,3-0.5,4.6-1.1c0.7-0.2,1.3-0.6,2-0.9
				c1.8-0.9,3.5-1.7,4.8-1.1c-0.1,0.6-0.8,2.3-2.1,5c-0.2,0.3-0.3,0.6-0.3,0.7c-1,2.2-1.8,4.4-1.1,6.6c0.1,0.1,0.2,0.3,0.3,0.3
				c0.8,0.4,1.8-0.1,2.5-1.4c1.4-2.4,3.1-4.6,4.9-6.6c0.3-0.4,0.7-0.7,1.1-0.9c0.5-0.2,1-0.4,1.5-0.6c0.8-0.3,1.5-0.6,2.2-0.9
				c3.5-1.2,7.6-1.2,12.4-0.1c0.3,0.1,0.7,0.1,1,0.2c1.4,0.3,3.4,0.6,4.2,1.4c0.5,0.6,0.7,1.8,0.9,2.8c0.1,0.6,0.2,1.1,0.3,1.5
				c1.3,4.4,2.8,9.6,3.3,15c0.4,5.3,0.8,11,1.1,17.4c0,0.3,0.3,0.6,0.6,0.6c0,0,0,0,0,0c0.3,0,0.6-0.3,0.5-0.6
				c-0.3-6.5-0.6-12.2-1.1-17.5C112.1,157.7,110.7,152.4,109.3,148z"/>
			<path class="st0" d="M121.1,157.5c-0.2-0.6-0.6-1-0.9-1.4c0-0.1-0.1-0.2-0.1-0.4c-0.2-0.6-0.3-0.9-0.6-1.1
				c-0.1-0.1-0.4-0.1-0.5,0c-0.3,0.1-0.5,0.3-0.6,0.4c-0.3,0.4-0.7,0.6-1,0.9c-0.2,0.1-0.5,0.3-0.7,0.5c-2.4-4.9-3.2-8.7-4.2-13.8
				c-0.1-0.7-0.3-1.5-0.4-2.3c-0.6-3.1-1.8-7.6-3.9-11.9c-1.7-3.5-4.1-7.2-6.5-10.1c-0.5-0.6-1.2-1.3-1.9-2
				c-1.3-1.3-2.9-2.8-3.4-4.2c-0.6-1.5,0.3-4.1,0.9-6.1c0.1-0.4,0.3-0.9,0.4-1.2c0.8-3,2.2-5.6,3.7-8.3c0.4-0.8,0.9-1.6,1.3-2.4
				c0,0-0.1,0-0.1-0.1c-0.2-0.1-0.3-0.3-0.4-0.4c-0.1-0.1-0.2-0.2-0.3-0.4c0,0,0,0.1-0.1,0.1c-0.5,0.9-0.9,1.8-1.4,2.6
				c-1.5,2.8-2.9,5.4-3.8,8.5c-0.1,0.4-0.2,0.8-0.4,1.2c-0.7,2.1-1.6,5-0.9,6.8c0.6,1.6,2.2,3.2,3.7,4.6c0.7,0.7,1.3,1.3,1.8,1.9
				c2.3,2.8,4.7,6.4,6.3,9.8c2.1,4.2,3.2,8.7,3.8,11.6c0.2,0.8,0.3,1.6,0.4,2.3c1,5.3,1.8,9.5,4.6,14.9c0.1,0.2,0.3,0.3,0.5,0.3
				c0.2,0,0.4-0.1,0.5-0.2c0.3-0.4,0.6-0.6,1-0.9c0.3-0.2,0.7-0.4,1-0.8c0.1,0.4,0.2,0.6,0.3,0.8c0.3,0.3,0.6,0.6,0.7,1
				c0.1,0.3,0,0.6-0.1,0.7c-0.1,0.1-0.2,0.1-0.4,0.1c-0.1,0-0.2,0-0.2,0.1c-1.4,0.5-2.3,1.8-2.8,3.9c-1.1,5.1-0.6,10.6-0.1,15.9
				l0.2,1.8c0,0.3,0.3,0.6,0.6,0.5c0.3,0,0.5-0.3,0.5-0.6l-0.2-1.8c-0.5-5.2-1-10.6,0.1-15.5c0.3-1.2,0.8-2.7,2-3.1
				c0.1,0,0.1,0,0.2-0.1c0.2-0.1,0.5-0.1,0.7-0.3C121.1,159.1,121.4,158.2,121.1,157.5z"/>
		</g>
		<g>
			<g>
				<path class="st0" d="M66.3,83c-0.2-0.3-0.4-0.5-0.6-0.7c-0.1,0.2-0.3,0.4-0.5,0.6c0.2,0.2,0.4,0.3,0.5,0.5
					c0.6,0.8,0.9,1.8,0.9,2.8c0,1.2-0.5,2.8-1.8,3.6c-0.6,0.4-1.2,0.4-1.7,0.2c-1-0.4-1.8-1.7-2-2.7c-0.2-0.9-0.1-2,0.3-3
					c-0.3,0-0.5,0-0.8-0.1c-0.4,1.1-0.5,2.3-0.2,3.3c0.3,1.2,1.2,2.7,2.5,3.2c0.3,0.1,0.7,0.2,1,0.2c0.5,0,1-0.1,1.4-0.4
					c1.6-1,2.2-2.8,2.2-4.3C67.3,85.1,66.9,84,66.3,83z"/>
			</g>
			<g>
				<path class="st0" d="M73.1,89L73.1,89C73.1,89,73,89,73.1,89c-0.2-0.1-0.4-0.3-0.4-0.3c0,0,0,0,0,0c0,0,0,0,0,0
					c-0.5,0.5-1.3,0.8-2.2,0.8c-0.9-0.1-1.9-0.5-2.7-1.2c-0.3-0.3-0.7-0.7-0.9-1.2c0,0.1,0,0.3,0,0.4c0,0.3,0,0.6-0.1,0.8
					c0.2,0.2,0.3,0.4,0.5,0.6c0.9,0.9,2,1.4,3.1,1.4c0.1,0,0.2,0,0.3,0c1,0,2-0.4,2.6-1.1c0,0,0,0,0,0C73.2,89,73.1,89,73.1,89z"/>
				<path class="st0" d="M72.9,85.5c0,0,0.1-0.1,0.1-0.1c0.1-0.1,0.3-0.1,0.5-0.1c0,0,0.1,0,0.1,0c-0.4-1.2-1.2-2.3-2.1-3l-0.5,0.6
					C71.9,83.5,72.5,84.4,72.9,85.5z"/>
			</g>
			<g>
				<path class="st0" d="M60.6,84.1c-0.3,0.3-0.5,0.5-0.8,0.7c-1.1,0.8-2.9,1.3-4.4,0.5c-0.7-0.3-1.1-0.8-1.2-1.5
					c-0.2-1.2,0.5-2.7,1.2-3.5c0.9-1,2.5-1.7,3.9-1.7c0.1-0.3,0.3-0.5,0.5-0.8c0,0,0,0,0,0c-1.8-0.2-3.9,0.6-5,2
					c-0.9,1-1.7,2.7-1.4,4.2c0.2,0.9,0.8,1.6,1.7,2c0.7,0.3,1.3,0.4,2,0.4c1.2,0,2.4-0.5,3.2-1c0.4-0.3,0.8-0.7,1.2-1.1
					C61.1,84.3,60.8,84.2,60.6,84.1z"/>
			</g>
			<g>
				<path class="st0" d="M56,79c-0.3-0.2-0.7-0.5-0.9-0.7c-1-1-1.5-2.7-1.2-4.1c0.1-0.7,0.5-1.3,1.1-1.6c0.3-0.2,0.7-0.3,1.1-0.3
					c0.2,0,0.5,0,0.7,0.1c0-0.1,0-0.3,0-0.4c0-0.1,0-0.3,0-0.4c-0.8-0.1-1.5-0.1-2.1,0.3c-0.8,0.4-1.3,1.2-1.5,2.1
					c-0.3,1.6,0.3,3.6,1.4,4.8c0.3,0.3,0.6,0.6,1,0.8C55.7,79.4,55.9,79.2,56,79z"/>
			</g>
			<g>
				<path class="st0" d="M68.2,84.2c-0.6,0-1.2-0.1-1.8-0.4c-0.5-0.2-0.9-0.5-1.1-0.9l0.6-0.4c0.2,0.3,0.5,0.5,0.8,0.7
					c1.4,0.7,3,0.2,4-0.5c0.8-0.6,1.5-1.4,1.8-2.3c0.3-0.8,0.3-1.7-0.2-2.4C72,77.4,71.4,77,70.7,77c-1.4-0.1-3.1,0.5-4,1.5L66.1,78
					c1.1-1.2,3-1.9,4.6-1.8c1,0.1,1.8,0.5,2.2,1.3c0.5,0.8,0.6,2,0.2,3.1c-0.4,1.1-1.1,2-2.1,2.7C70.4,83.8,69.3,84.2,68.2,84.2z"/>
			</g>
			<g>
				<path class="st0" d="M61.4,84.8c-0.7,0-1.3-0.1-2-0.4c-0.9-0.4-1.5-1.1-1.7-2c-0.3-1.5,0.5-3.2,1.4-4.2c1.2-1.3,3.3-2.1,5-2
					c1.1,0.1,1.9,0.6,2.4,1.4c0.6,0.9,0.7,2.2,0.2,3.3c-0.4,1.2-1.2,2.2-2.3,2.9C63.8,84.3,62.6,84.8,61.4,84.8z M63.8,76.9
					c-1.5,0-3.1,0.7-4,1.7c-0.8,0.8-1.5,2.3-1.2,3.5c0.1,0.7,0.5,1.2,1.2,1.5l0,0c1.6,0.8,3.3,0.2,4.4-0.5c0.9-0.6,1.6-1.5,2-2.5
					c0.3-0.9,0.3-1.9-0.2-2.6c-0.4-0.6-1-1-1.8-1C64,76.9,63.9,76.9,63.8,76.9z"/>
			</g>
			<g>
				<path class="st0" d="M60,77.5C60,77.5,60.1,77.5,60,77.5c0,0-0.1,0-0.1,0c-1.1-0.2-2.1-1.3-2.5-2.3c-0.6-1.2-0.5-3.1,0.1-4.3
					c0.4-0.7,0.9-1.1,1.5-1.2c0.1,0,0.2,0,0.3,0c0.7,0,1.3,0.3,1.9,0.8c0.7,0.7,1.2,1.6,1.4,2.6c0.2,1.1,0.1,2.6-0.9,3.6
					c0.1,0,0.2,0,0.2,0c0.2,0,0.5,0,0.7,0.1c0.8-1.2,0.9-2.7,0.7-3.9c-0.2-1.1-0.8-2.2-1.6-3c-0.8-0.8-1.9-1.2-2.9-1
					c-0.9,0.1-1.6,0.7-2.1,1.6c-0.8,1.5-0.8,3.5-0.2,5c0.5,1.1,1.6,2.3,2.8,2.7C59.7,77.9,59.9,77.6,60,77.5z"/>
			</g>
			<g>
				<path class="st0" d="M73.4,89.5c-0.2-0.1-0.4-0.3-0.6-0.5l-1,1.1c-0.7,0-2.9,0.3-5.9,2.9c-4.4,3.8-3.3,12-3.2,12.3l0.1,0.6
					l0.5-0.2c0.3-0.2,7.9-4.3,10.3-7.8c2.2-3.2,0-6.5-0.6-7.4L73.4,89.5z M72.9,97.3c-1.9,2.9-7.8,6.3-9.6,7.3
					c-0.2-1.9-0.4-8.1,3.1-11.1c3-2.6,5.2-2.7,5.5-2.7c0,0,0,0,0,0l0.2,0l0.1-0.1C72.5,91,75,94.2,72.9,97.3z"/>
			</g>
			<g>
				<path class="st0" d="M63.2,105.5l-0.5-0.6c7.3-6.9,9.7-15.6,9.8-15.7l0.7,0.2C73.2,89.6,70.7,98.5,63.2,105.5z"/>
			</g>
			<g>
				<path class="st0" d="M69.8,70.6c-0.7-0.6-1.6-0.8-2.6-0.6c-1.7,0.3-3.4,1.7-4.2,3.2c-0.4,0.9-0.7,2.1-0.5,3.2
					c0.1,0,0.1-0.1,0.2-0.1c0.2-0.1,0.4-0.2,0.6-0.2c-0.1-0.9,0.1-1.9,0.5-2.6c0.6-1.3,2.2-2.5,3.6-2.8c0.2,0,0.4-0.1,0.6-0.1
					c0.5,0,1,0.2,1.4,0.5c0.6,0.5,0.9,1.4,0.9,2.4c-0.1,1-0.5,2.1-1.2,2.9c-0.6,0.7-1.4,1.3-2.4,1.6c0,0.1,0.1,0.2,0.1,0.3
					c0,0.2,0.1,0.3,0.1,0.4c1.2-0.3,2.2-1.1,2.8-1.9c0.8-0.9,1.2-2.1,1.3-3.3S70.6,71.3,69.8,70.6z"/>
			</g>
			<g>
				<path class="st0" d="M83.4,91.8c-2.7,0-3.9-2.2-4.3-2.9l-2.9-0.1l0-0.2l-0.1,0L76,87.8l2.9-0.5c0.2-0.6,1.1-2,3.9-3
					c4.2-1.5,10,2.6,10.2,2.8l0.5,0.3L93,87.7c-0.2,0.2-5.9,3.8-9.2,4.1C83.7,91.8,83.6,91.8,83.4,91.8z M78.7,88.1l0.9,0l0.1,0.2
					c0,0.1,1.2,2.9,4.1,2.7c2.6-0.2,6.9-2.8,8.3-3.7c-1.4-0.9-5.8-3.5-9-2.3c-3,1.1-3.5,2.7-3.5,2.7l-0.1,0.2L78.7,88.1z"/>
			</g>
			<g>
				<path class="st0" d="M84.9,89c-2.9,0-4.9-0.5-5.3-0.7l-3.3,0.3L76.2,88l3.4-0.4l0.1,0c0.1,0,5.7,1.8,13-0.6l0.2,0.7
					C89.9,88.7,87.1,89,84.9,89z"/>
			</g>
			<g>
				<path class="st0" d="M74.2,85c-0.6,0-1.1-0.1-1.4-0.2l0.2-0.7c0.7,0.2,2.5,0.4,4.4-0.8c2.3-1.5,3.9-4.8,4.7-9.6
					c-1.3,0.1-5.3,0.8-8.9,4.8l-0.6-0.5c4.6-5.1,9.7-5,9.9-5l0.4,0l-0.1,0.4c-0.8,5.3-2.6,8.9-5.1,10.6C76.5,84.8,75.2,85,74.2,85z"
					/>
			</g>
			<g>
				<path class="st0" d="M72,83.2l-0.2-0.8c0,0,5.3-1.2,10.3-9.4l0.7,0.4C77.7,82.1,72.3,83.2,72,83.2z"/>
			</g>
		</g>
		<g>
			<g>
				<path class="st0" d="M113.1,91.7c-0.3,0-0.6,0-0.9-0.1c-3.2-0.4-4.6-1.6-5.1-2.1l-2.8,0.7l-0.2-0.7l2.5-1c0.2-0.9,1.1-4,4.4-4.4
					c3.6-0.4,10.4,2.1,10.7,2.2l0.5,0.2l-0.4,0.4C121.7,87.1,117.6,91.7,113.1,91.7z M107.4,88.7l0.2,0.2c0,0,1.2,1.5,4.7,2
					c3.7,0.5,7.4-2.9,8.6-4.1c-1.7-0.6-6.9-2.3-9.8-2C108.3,85.2,107.5,88.1,107.4,88.7L107.4,88.7z"/>
			</g>
			<g>
				<path class="st0" d="M104.8,90.2l-0.3-0.7c0.1,0,8.6-4.2,17.2-3.3l-0.1,0.8C113.2,86.2,104.9,90.2,104.8,90.2z"/>
			</g>
		</g>
		<g>
			<g>
				<path class="st0" d="M102.2,85.7l-1.2-3.3c-0.8-0.3-3.8-1.5-4.2-4.6c-0.5-3.3,1.8-9.1,1.8-9.3l0.2-0.5l0.4,0.4
					c0.2,0.2,5.1,5.1,4.6,9.4c-0.3,2.7-1.3,3.9-1.8,4.3l0.9,3.5L102.2,85.7z M99.1,69.3c-0.5,1.5-2,5.8-1.6,8.4
					c0.4,2.5,2.9,3.7,3.7,3.9l0.2-0.1c0,0,1.3-0.8,1.7-3.9C103.5,74.4,100.3,70.6,99.1,69.3z"/>
			</g>
			<g>
				<path class="st0" d="M102.2,85.4c-0.2-0.4-4.3-9.3-3.6-16.9l0.8,0.1c-0.6,7.4,3.5,16.4,3.5,16.5L102.2,85.4z"/>
			</g>
		</g>
		<g>
			<g>
				<path class="st0" d="M117.2,80.1c-2,0-3.5-1.3-4-1.8l-3.1,0.9L110,79l-0.1,0l-0.4-0.7l2.9-1.6c0.1-0.7,0.4-2.5,3-4.5
					c3.9-3.1,11.4-0.8,11.8-0.8l0.5,0.2l-0.3,0.4c-0.2,0.2-4.8,6.1-8.2,7.6C118.5,80,117.8,80.1,117.2,80.1z M113.4,77.4l0.2,0.2
					c0.1,0.1,2.3,2.7,5.3,1.4c2.7-1.2,6.4-5.5,7.6-6.9c-1.8-0.5-7.5-1.7-10.5,0.8c-2.8,2.3-2.7,4.1-2.7,4.1l0,0.2l-1.2,0.7
					L113.4,77.4z"/>
			</g>
			<g>
				<path class="st0" d="M110.1,79.2l-0.3-0.7l3.6-1.6c0.1,0,6.7-0.2,13.6-5.4l0.5,0.6c-6.8,5.1-13.1,5.5-13.9,5.5L110.1,79.2z"/>
			</g>
		</g>
		<g>
			<g>
				<path class="st0" d="M108.1,73.5l-0.8-2.4c-0.8-0.1-3.1-0.8-3.6-3.3c-0.6-2.9,1.2-8.5,1.2-8.7l0.2-0.5l0.4,0.3
					c0.2,0.2,5.1,4,4.8,8c-0.2,2.5-1.1,3.6-1.6,4l0.3,2.6l-0.8,0.1v0L108.1,73.5z M105.5,59.9c-0.4,1.5-1.5,5.6-1,7.8
					c0.5,2.5,3.1,2.7,3.2,2.7l0.2,0l0.1,0.4l0-0.3l0.2-0.1c0,0,1.2-0.7,1.4-3.5C109.8,64,106.7,60.9,105.5,59.9z"/>
			</g>
			<g>
				<path class="st0" d="M108.1,73.5l-0.5-2.8c-0.4-0.6-2.9-4.9-2.7-11.4l0.8,0c-0.2,6.7,2.6,11,2.6,11.1l0.1,0.2l0.5,2.9
					L108.1,73.5z"/>
			</g>
		</g>
	</g>
	<path class="st0" d="M91.1,106l-1-1.6c-0.6-0.9-1.1-1.8-1.7-2.9c-0.6-1.2-2.2-4.9-1.8-7.4c0.1-0.6,0.4-1.1,1-1.2
		c1.2-0.4,2.2,0.6,4.9,3.5c0.7,0.7,1.4,1.4,2,2.1l0.7,0.6L91.1,106z M88.9,96c0.3,1.5,1,3.4,1.5,4.5c0.2,0.4,0.4,0.7,0.6,1.1
		l1.2-2.1c-0.5-0.5-1-1-1.5-1.5C90.3,97.3,89.5,96.6,88.9,96z"/>
	<path class="st0" d="M114.5,111.7c-0.2-0.2-0.3-0.4-0.5-0.6c-0.1-0.1-0.1-0.2-0.2-0.3c-0.1-0.2-0.2-0.5-0.3-0.7
		c0-0.1-0.1-0.2-0.1-0.3c0,0,0-0.1,0-0.1c-0.2-0.6-0.3-1.1-0.1-1.7c0-0.4,0-0.9,0.1-1.3c0.3-0.8,0.8-1.5,1.5-1.9
		c0.2-0.1,0.4-0.2,0.7-0.2l1.3-2.8l-3.2,2.4c-4.8,3.6-11.2,0.2-14.6-2.1l-1.3-0.9l-1.6,4.8c-1.3,4.1-1.3,4.1-0.7,4.6
		c1,0.8,2,1.5,3.1,2.1c3.1,1.7,6.3,2.6,9.3,2.6c2.4,0,4.7-0.6,6.7-1.7l0.6-0.3l0-0.9C115,112.1,114.7,111.9,114.5,111.7z M113,111.8
		c-5.3,2.6-10.9,0.1-13.2-1.2c-0.8-0.4-1.5-0.9-2.2-1.4c0.3-1,0.9-2.8,1.4-4.4c5.4,3.3,10.3,4.1,14.1,2.4L113,111.8z"/>
	<path class="st0" d="M132.8,102.9c-0.4-0.4-1-0.9-10.9,0.3l0,0.1c0.1,0.1,0.3,0.1,0.4,0.2c0.2,0.1,0.4,0.3,0.6,0.5
		c0.1,0.1,0.2,0.1,0.2,0.2c0.1,0.1,0.2,0.3,0.4,0.5c0,0,0.1,0.1,0.1,0.1c0.1,0.1,0.2,0.3,0.2,0.5c2.6-0.3,5.3-0.5,6.8-0.5
		c-0.7,1.7-2.1,4.8-2.6,5.5c-0.5,0.2-2.4,0.2-4.1,0.1l-0.2,2.3c0.9,0.1,1.7,0.1,2.4,0.1c1.8,0,3-0.3,3.5-0.8c0.8-0.8,3.7-7,3.7-8.2
		L132.8,102.9z"/>
	<path class="st0" d="M128,110.2L128,110.2L128,110.2z"/>
	<path class="st0" d="M110.9,107.3C107.1,101,97.1,89.5,97,89.4c0,0-0.1-0.1-0.2-0.2c-1.6-1.6-2.6-2.8-2.1-3.9
		c0.1-0.3,0.5-0.9,1.6-0.8c1.4,0.1,8.5,3.6,13.4,7.9c3.8,3.3,8,8.5,9.1,10l-1.9,1.3c-1.1-1.5-5.1-6.4-8.7-9.6
		c-3.2-2.8-6.9-4.9-9.4-6.2l0,0c0.1,0.1,10.2,11.7,14.2,18.2L110.9,107.3z"/>
	<path class="st0" d="M119.1,123.4l-5.4-9.8l2-1.1l3.8,6.9c1.3-1.5,2.8-3.2,3.1-3.6c0.1-0.3-0.1-1.9-0.5-3.2l2.2-0.6
		c0.4,1.4,0.9,3.9,0.2,5c-0.6,0.9-3.8,4.5-4.4,5.2L119.1,123.4z"/>
	<g>
		<path class="st0" d="M131.4,120.3c-0.3,0-0.7-0.1-1-0.3l-2.8-1.9c-0.4-0.3-0.6-0.7-0.7-1.1c-0.1-0.5,0-0.9,0.3-1.3
			c0.3-0.4,0.7-0.6,1.1-0.7c0.5-0.1,0.9,0,1.3,0.3l2.8,1.9c0.8,0.5,1,1.6,0.5,2.4c-0.3,0.4-0.6,0.6-1.1,0.7
			C131.6,120.3,131.5,120.3,131.4,120.3z M128.6,116.1c0,0-0.1,0-0.1,0c-0.2,0-0.3,0.1-0.4,0.2s-0.1,0.3-0.1,0.4
			c0,0.2,0.1,0.3,0.2,0.4l2.8,1.9l0,0c0.1,0.1,0.3,0.1,0.4,0.1c0.1,0,0.3-0.1,0.4-0.2c0.2-0.3,0.1-0.6-0.2-0.8l-2.8-1.9
			C128.8,116.1,128.7,116.1,128.6,116.1z"/>
	</g>
	<g>
		<path class="st0" d="M132.9,117.4c-0.2,0-0.4,0-0.6-0.1l-3.1-1.2c-0.9-0.3-1.3-1.3-1-2.2c0.3-0.9,1.3-1.3,2.2-1l3.1,1.2
			c0.4,0.2,0.8,0.5,1,0.9c0.2,0.4,0.2,0.9,0,1.3s-0.5,0.8-0.9,1C133.4,117.4,133.2,117.4,132.9,117.4z M129.8,113.9
			c-0.2,0-0.5,0.1-0.6,0.4c-0.1,0.3,0,0.6,0.3,0.8l3.1,1.2l0,0c0.1,0.1,0.3,0.1,0.4,0c0.1-0.1,0.2-0.2,0.3-0.3s0.1-0.3,0-0.4
			c-0.1-0.1-0.2-0.2-0.3-0.3L130,114C130,113.9,129.9,113.9,129.8,113.9z"/>
	</g>
	<g>
		<path class="st0" d="M133.4,114.3c-0.1,0-0.1,0-0.2,0l-3.3-0.3c-0.9-0.1-1.6-1-1.5-1.9c0.1-0.9,0.9-1.7,1.9-1.5l3.3,0.3
			c0.9,0.1,1.6,1,1.5,1.9C135.1,113.6,134.3,114.3,133.4,114.3z M130.1,111.6c-0.3,0-0.6,0.2-0.6,0.5c0,0.3,0.2,0.6,0.5,0.6l3.3,0.3
			l0,0c0.3,0,0.6-0.2,0.6-0.5s-0.2-0.6-0.5-0.6L130.1,111.6C130.1,111.6,130.1,111.6,130.1,111.6z"/>
	</g>
	<path class="st0" d="M174.8,126.2c-0.5,0-0.9-0.1-1.4-0.2c-1.7-0.6-3.4-1.3-5.1-2c-1.1-0.5-2.3-1-3.5-1.4c-2.5-1-5-2-7.4-2.9
		c-2.6-1.1-5.2-2.1-7.9-3.1c-0.2-0.1-0.4-0.3-0.5-0.6s0-0.5,0.2-0.7c1.3-1.2,2.7-2.4,4-3.6c0.2-0.2,0.5-0.2,0.8-0.2l0.2,0.1
		c6.5,1.5,13.5,3.2,20.6,6.2c0.6,0.2,1.2,0.5,1.8,0.9c1.4,1,2.2,2.9,1.9,4.7c-0.2,1-0.8,1.8-1.6,2.3
		C176.3,126.1,175.6,126.2,174.8,126.2z M165.4,121.1c1.2,0.5,2.4,1,3.5,1.4c1.6,0.7,3.3,1.4,5,2c0.7,0.2,1.6,0.2,2.2-0.2
		c0.4-0.2,0.8-0.6,0.9-1.2c0.2-1.2-0.3-2.4-1.2-3.1c-0.4-0.3-0.9-0.5-1.5-0.8c-7-2.9-13.9-4.7-20.3-6.1c-0.9,0.8-1.8,1.6-2.8,2.4
		c2.2,0.9,4.5,1.8,6.7,2.7C160.5,119.2,163,120.2,165.4,121.1z"/>
	<path class="st0" d="M141.2,113.4c-0.1,0-0.2,0-0.3-0.1l-0.2-0.1c-0.9-0.3-1.7-0.6-2.6-0.8c-1.8-0.6-3.8-0.8-6-0.7
		c-0.1,0-1.2,0-2.1,0.1c-0.5,0-0.9,0-0.9,0c-0.1,0-0.2,0-0.3-0.1c-0.4-0.2-0.5-0.5-0.4-0.9c0.1-0.2,0.1-0.3,0.2-0.4
		c0.8-1.3,2.2-4.5,2.7-5.9c0.4-1.2,2.1-1,3-0.9l0.2,0c0.9,0.1,2,0.2,3,0.8l0,0c1.8,1.2,4.4,2.6,6.8,3.7c0.2,0.1,0.4,0.3,0.4,0.5
		s0,0.4-0.1,0.6c-0.2,0.4-0.5,0.7-0.8,1.1c-0.6,0.9-1.2,1.8-1.9,2.7C141.6,113.3,141.4,113.4,141.2,113.4z M133.3,110.2
		c1.9,0,3.6,0.3,5.2,0.8c0.8,0.2,1.6,0.5,2.3,0.8c0.5-0.7,1.1-1.5,1.6-2.2c0.1-0.1,0.2-0.2,0.2-0.4c-2.2-1.1-4.5-2.3-6.1-3.4l0,0
		c-0.6-0.4-1.3-0.5-2.3-0.6l-0.2,0c-0.9-0.1-1.3-0.1-1.4,0c-0.4,1.3-1.5,3.6-2.3,5.1c0.7,0,1.5,0,1.6-0.1
		C132.4,110.2,132.9,110.2,133.3,110.2z"/>
	<path class="st0" d="M158.3,154.5c-1,0-2.1-0.4-3.1-1.2c-0.8-0.6-5.2-4.2-9.9-8.3c-0.3-0.2-0.4-0.7-0.2-1c0.2-0.4,0.3-0.7,0.2-1
		c-0.3-2.3-2.1-3.4-3.2-3.8l0,0c-0.1,0-0.2,0.1-0.4,0.1c-0.3,0.1-0.6,0-0.8-0.2c-0.2-0.2-0.3-0.5-0.2-0.8c0.2-0.7,0.4-1.9-0.2-2.9
		c-0.2-0.2-0.4-0.5-0.7-0.7c-1.6-1.2-4-1.3-5.7-0.1c-0.3,0.2-0.7,0.2-0.9-0.1l-0.2-0.2c-5-4.7-7.5-5.7-8.1-5.9
		c-0.2-0.1-0.3-0.1-0.5-0.1c-1.2-0.3-2.3-0.6-4.2-2.3c-2-1.7-1.6-4.2-1.1-5.2c0-0.1,0.1-0.1,0.1-0.2l3.1-3.6
		c0.7-0.8,1.5-1.2,2.4-1.2c2,0,3.6,1.5,4.1,2c0.5,0.6,0.9,1.3,1.3,2c0.2,0.4,0.4,0.7,0.6,1.1c0.2,0.3,0.4,0.6,0.6,0.9
		c0.5,0.8,0.9,1.5,1.5,2.1c2.2,1.8,4.1,3.4,5.9,5c2.2,1.8,4.3,3.6,6.6,5.5c3.2,2.8,6.6,5.7,10,8.8c0.5,0.4,1,0.9,1.5,1.3
		c1.4,1.2,2.8,2.4,4,3.7c0.8,0.9,1.2,1.9,1.1,2.9c-0.1,1-0.6,1.9-1.5,2.6C159.9,154.3,159.1,154.5,158.3,154.5z M146.7,144.2
		c4.5,3.8,8.7,7.3,9.4,7.8c0.5,0.4,2.2,1.5,3.4,0.4c0.4-0.3,0.9-0.9,0.9-1.6c0.1-0.6-0.2-1.2-0.7-1.8l0,0c-1.1-1.3-2.5-2.4-3.8-3.6
		c-0.5-0.4-1.1-0.9-1.6-1.3c-3.4-3-6.8-6-10-8.8c-2.2-1.9-4.3-3.7-6.6-5.5c-1.8-1.5-3.8-3.1-5.9-5c-0.8-0.7-1.3-1.6-1.9-2.4
		c-0.2-0.3-0.3-0.6-0.5-0.9c-0.2-0.4-0.5-0.8-0.7-1.2c-0.3-0.6-0.6-1.2-1-1.6c-0.9-0.9-2.1-1.5-2.9-1.5c-0.5,0-0.9,0.2-1.3,0.7
		l-3,3.5c-0.2,0.4-0.7,2.1,0.7,3.3c1.7,1.4,2.5,1.7,3.6,2c0.2,0,0.3,0.1,0.5,0.1c1.1,0.3,3.8,1.6,8.5,6c2.2-1.2,5.1-1,7,0.5
		c0.4,0.3,0.8,0.7,1,1.1c0.6,0.8,0.8,1.9,0.6,3.1c0.1,0,0.1,0,0.2,0.1c2.4,0.9,3.9,2.8,4.2,5C146.9,143.3,146.9,143.8,146.7,144.2z"
		/>
	<path class="st0" d="M118.9,115.1c-0.9,0-1.8-0.2-2.6-0.6c-1.6-0.7-2.8-2-3.4-3.6c-0.6-1.6-0.6-3.4,0.1-4.9c0.7-1.6,2-2.8,3.6-3.4
		c1.6-0.6,3.4-0.6,4.9,0.1c1.6,0.7,2.8,2,3.4,3.6c0.6,1.6,0.6,3.4-0.1,4.9s-2,2.8-3.6,3.4C120.5,114.9,119.7,115.1,118.9,115.1z
		 M118.9,103.7c-0.6,0-1.2,0.1-1.8,0.3c-1.2,0.5-2.2,1.4-2.7,2.6c-0.5,1.2-0.6,2.6-0.1,3.8c0.5,1.2,1.4,2.2,2.6,2.7
		c1.2,0.5,2.6,0.6,3.8,0.1c1.2-0.5,2.2-1.4,2.7-2.6c0.5-1.2,0.6-2.6,0.1-3.8c-0.5-1.2-1.4-2.2-2.6-2.7
		C120.2,103.8,119.5,103.7,118.9,103.7z"/>
	<g>
		<circle class="st0" cx="118.9" cy="108.6" r="1.9"/>
		<path class="st0" d="M118.9,110.9c-0.3,0-0.6-0.1-0.9-0.2c-0.6-0.2-1-0.7-1.2-1.3c-0.5-1.2,0.1-2.6,1.3-3c0.6-0.2,1.2-0.2,1.8,0
			s1,0.7,1.2,1.3c0.5,1.2-0.1,2.6-1.3,3C119.4,110.9,119.2,110.9,118.9,110.9z M118.9,107c-0.2,0-0.4,0-0.6,0.1
			c-0.8,0.3-1.2,1.2-0.9,2c0.2,0.4,0.4,0.7,0.8,0.9c0.4,0.2,0.8,0.2,1.2,0c0.8-0.3,1.2-1.2,0.9-2c-0.2-0.4-0.4-0.7-0.8-0.9
			C119.3,107.1,119.1,107,118.9,107z"/>
	</g>
	<g>
		<path class="st0" d="M142.1,120.6c-1.5,0-4.2-0.4-5.2-1.9c-0.4-0.5-0.7-1.3-0.1-2.5c0.5-1.1,1.5-2,2.4-2.8c0.5-0.5,1-0.9,1.4-1.4
			c0.7-0.9,1.3-1.8,2-2.7c0.5-0.8,1.1-1.6,1.7-2.4c2.3-3,4.9-6,7.8-7.4c2.1-1,4.4-1.1,6.7-1.1c0,0,0,0,0.1,0c2.6,0,4.3,1.1,6.5,2.7
			c5.3,3.9,10.9,6.8,17.7,9.1c0.9,0.3,1.9,0.6,2.8,0.8c0.4,0.1,0.7,0.5,0.6,0.9s-0.5,0.7-0.9,0.6c-1-0.2-2-0.5-2.9-0.8
			c-6.9-2.4-12.7-5.4-18.1-9.4c-2-1.5-3.4-2.4-5.6-2.4c0,0,0,0-0.1,0c-2.1,0-4.3,0.1-6,1c-2.9,1.4-5.8,5.2-7.2,7
			c-0.6,0.8-1.1,1.6-1.6,2.3c-0.6,0.9-1.3,1.9-2,2.8c-0.5,0.6-1,1.1-1.6,1.6c-0.8,0.8-1.6,1.5-2,2.3c-0.2,0.5-0.1,0.8,0,0.9
			c0.7,0.9,3.2,1.4,4.3,1.2c2.7-0.3,3.9-1.4,5.7-3c0.2-0.2,0.4-0.4,0.7-0.6c2.6-2.3,5.2-4.7,7.9-6.9c0.3-0.3,0.8-0.2,1.1,0.1
			s0.2,0.8-0.1,1.1c-2.6,2.3-5.3,4.6-7.9,6.9c-0.2,0.2-0.5,0.4-0.7,0.6c-1.9,1.7-3.4,3.1-6.6,3.4
			C142.4,120.6,142.3,120.6,142.1,120.6z"/>
	</g>
	<g>
		<path class="st0" d="M139.6,107.1c-0.3,0-0.5-0.2-0.7-0.4c-0.2-0.4-0.1-0.8,0.3-1c2.4-1.3,5.1-2.5,7.7-3.7
			c1.2-0.5,2.4-1.1,3.5-1.6c0.4-0.2,0.8,0,1,0.4c0.2,0.4,0,0.8-0.4,1c-1.1,0.5-2.3,1.1-3.5,1.6c-2.6,1.2-5.3,2.4-7.6,3.7
			C139.8,107.1,139.7,107.1,139.6,107.1z"/>
	</g>
	<g>
		<path class="st0" d="M122,137.7c-0.8,0-1.5-0.2-2.1-0.6c-1-0.7-1.6-2-1.6-3.5c0-1.2,0.5-2.4,1-3.4c0.7-1.4,1.5-2.8,2.5-4
			c0.2-0.3,0.7-0.4,1.1-0.2c0.3,0.2,0.4,0.7,0.2,1.1c-0.9,1.2-1.7,2.5-2.3,3.8c-0.4,0.8-0.8,1.8-0.8,2.7c0,0.9,0.3,1.7,0.9,2.1
			c0.6,0.4,1.5,0.4,2.3,0.1c0.9-0.3,1.7-1,2.3-1.6c1.6-1.5,2.7-2.8,3.5-4.1c0.2-0.4,0.7-0.5,1.1-0.3s0.5,0.7,0.3,1.1
			c-0.9,1.5-2.1,2.9-3.8,4.5c-0.8,0.7-1.7,1.5-2.8,1.9C123.2,137.6,122.6,137.7,122,137.7z"/>
	</g>
	<g>
		<path class="st0" d="M134,126c-0.2,0-0.4-0.1-0.5-0.2c-0.3-0.3-0.3-0.8,0-1.1l3.2-3.2c0.3-0.3,0.8-0.3,1.1,0
			c0.3,0.3,0.3,0.8,0,1.1l-3.2,3.2C134.4,125.9,134.2,126,134,126z"/>
	</g>
	<g>
		<path class="st0" d="M135.8,141.2c-0.6,0-1.2,0-1.8-0.1c-0.3,0-0.6,0-0.9-0.1c-1.2,0-2.6-0.1-3.3-1.7c-0.7-1.6-1-3-1-4.3
			c0-1.2,0.3-2.4,0.9-3.4c0.2-0.4,0.7-0.5,1.1-0.3s0.5,0.7,0.3,1.1c-0.4,0.7-0.7,1.6-0.7,2.6c0,1.1,0.3,2.3,0.9,3.7
			c0.3,0.7,0.8,0.8,2,0.8c0.4,0,0.7,0,1.1,0.1c1.9,0.2,3.8,0,5.5-0.2c0.2,0,0.5-0.1,0.7-0.2c0.1-0.1,0.3-0.4,0.3-0.6
			c0.3-0.6,0.8-2.3,0-3.5c-0.2-0.2-0.4-0.5-0.7-0.7c-1.7-1.3-4.4-1.3-6,0.2c-0.3,0.3-0.8,0.2-1.1-0.1c-0.3-0.3-0.2-0.8,0.1-1.1
			c2.2-1.9,5.7-2,8-0.2c0.4,0.3,0.8,0.7,1,1.1c0.8,1.3,0.9,3,0.2,4.9c-0.2,0.4-0.4,0.9-0.9,1.3c-0.5,0.3-1,0.4-1.4,0.4
			C138.5,141,137.2,141.2,135.8,141.2z"/>
	</g>
	<g>
		<path class="st0" d="M140.8,147.6c-1.7,0-3.8-1.9-4.5-2.7c-0.6-0.7-0.8-1.8-0.9-2.6c-0.1-0.4-0.1-0.7-0.2-1
			c-0.1-0.4,0.1-0.8,0.5-0.9c0.4-0.1,0.8,0.1,0.9,0.5c0.1,0.4,0.2,0.8,0.2,1.2c0.1,0.8,0.3,1.5,0.6,2c0.8,1,2.6,2.2,3.4,2.1
			c1.7-0.3,4.7-1.6,4.5-3.4c-0.3-2.3-2.1-3.4-3.2-3.8c-0.4-0.2-0.6-0.6-0.4-1c0.2-0.4,0.6-0.6,1-0.4c2.4,0.9,3.9,2.8,4.2,5
			c0.4,3.1-3.8,4.8-5.8,5.1C141,147.6,140.9,147.6,140.8,147.6z"/>
	</g>
	<g>
		<path class="st0" d="M141.7,157.7c-0.6,0-1.1-0.2-1.5-0.7c-0.8-0.9-0.6-2.5-0.4-3.4c0.3-1.2,0.8-2.3,1.2-3.4l2.1-4.8
			c0.2-0.4,0.6-0.6,1-0.4s0.6,0.6,0.4,1l-2.1,4.8c-0.4,1-0.9,2.1-1.2,3.1c-0.2,1.1-0.1,1.8,0.1,2c0.2,0.2,0.9,0.1,1.8-0.5
			c1-0.7,1.9-1.9,2.8-2.9l3.7-4.4c0.3-0.3,0.8-0.4,1.1-0.1s0.4,0.8,0.1,1.1l-3.7,4.4c-0.9,1.1-1.9,2.3-3.1,3.2
			C143.2,157.4,142.4,157.7,141.7,157.7z"/>
	</g>
	<g>
		<path class="st0" d="M155.3,144c-0.2,0-0.4-0.1-0.5-0.2c-0.3-0.3-0.3-0.8-0.1-1.1c1.5-1.8,3.9-2.2,6-2.5c0.4-0.1,0.9-0.1,1.3-0.2
			c2.8-0.6,5.7-1.8,8.3-3.7l0.6-0.4c1.8-1.3,3.8-2.7,6.1-2.5c1.3,0.1,2.5,0.8,3.5,1.4c1.9,1.1,4,2.3,6,3.5c0.4,0.2,0.5,0.7,0.2,1.1
			s-0.7,0.5-1.1,0.2c-2-1.2-4-2.4-5.9-3.5c-0.9-0.5-1.9-1.1-2.9-1.2c-1.8-0.2-3.5,1-5.1,2.2l-0.6,0.4c-2.9,2-5.9,3.3-8.9,3.9
			c-0.4,0.1-0.9,0.2-1.3,0.2c-2,0.3-4,0.7-5.1,2C155.7,143.9,155.5,144,155.3,144z"/>
	</g>
	<g>
		<path class="st0" d="M140.4,131.1c-0.4,0-0.8-0.3-0.8-0.8c0-0.3,0-0.6,0-0.9c0-1,0-1.9-0.2-2.8c-0.3-1.2-0.9-2.2-1.7-2.6
			c-0.4-0.2-0.5-0.7-0.3-1c0.2-0.4,0.7-0.5,1-0.3c1.2,0.6,2.1,1.9,2.5,3.6c0.2,1.1,0.2,2.1,0.2,3.1c0,0.3,0,0.6,0,0.9
			C141.2,130.8,140.8,131.2,140.4,131.1C140.4,131.1,140.4,131.1,140.4,131.1z"/>
	</g>
	<g>
		<path class="st0" d="M146.9,137c0,0-0.1,0-0.1,0c-0.4-0.1-0.7-0.5-0.6-0.9c0.4-2-0.6-4.2-2.4-5.3c-0.4-0.3-1.1-0.6-1.8-0.5
			c-0.4,0.1-0.8-0.2-0.9-0.7s0.2-0.8,0.7-0.9c0.9-0.1,1.8,0.1,2.8,0.7c2.3,1.4,3.6,4.2,3.1,6.9C147.6,136.8,147.3,137,146.9,137z"/>
	</g>
	<g>
		<path class="st0" d="M152.8,127.7c-0.3,0-0.6,0-0.9,0c-0.9-0.1-1.6-0.3-2.2-0.6c-1.8-0.9-2.8-2.7-3.7-4.7c-0.2-0.4,0-0.8,0.4-1
			s0.8,0,1,0.4c0.8,1.7,1.6,3.3,3,4c0.4,0.2,1,0.3,1.7,0.4c2.2,0.2,4.4-0.5,6.3-1.2c0.5-0.2,0.9-0.4,1.4-0.5
			c1.7-0.7,3.4-1.3,5.2-1.7c0.4-0.1,0.8,0.2,0.9,0.6c0.1,0.4-0.2,0.8-0.6,0.9c-1.7,0.3-3.2,0.9-4.9,1.6c-0.5,0.2-0.9,0.4-1.4,0.6
			C157.1,127.1,155,127.7,152.8,127.7z"/>
	</g>
	<g>
		<path class="st0" d="M156.5,138.9C156.4,138.9,156.4,138.9,156.5,138.9c-0.5,0-0.8-0.4-0.8-0.8c0.2-2.6-0.5-5.2-1.2-7.7
			c-0.1-0.4,0.1-0.8,0.5-0.9s0.8,0.1,0.9,0.5c0.7,2.5,1.5,5.4,1.2,8.2C157.2,138.6,156.8,138.9,156.5,138.9z"/>
	</g>
	<g>
		<path class="st0" d="M104.4,90c-0.1,0-0.2,0-0.3-0.1c-0.3-0.2-0.4-0.5-0.2-0.8l0.5-0.8c4.7-8.8,9.6-17.9,9.5-27.5
			c-0.3,0.4-0.5,1-0.7,1.6c-1.2,4.3-2.7,8.3-4.7,13.3c-1.5,3.6-3.4,7.4-6.1,11.9c-0.2,0.3-0.5,0.4-0.8,0.2c-0.3-0.2-0.4-0.5-0.2-0.8
			c2.6-4.5,4.6-8.2,6-11.8c2-4.9,3.5-8.8,4.7-13.1c0.2-0.9,0.7-2.6,2.2-2.9c0.2,0,0.3,0,0.5,0.1c0.1,0.1,0.2,0.3,0.2,0.4
			c0.5,10.3-4.9,20.3-9.6,29.1l-0.5,0.8C104.8,89.9,104.6,90,104.4,90z"/>
	</g>
</g>
</svg>
