<?xml version="1.0" encoding="utf-8"?>
<!-- Generator: Adobe Illustrator 25.2.1, SVG Export Plug-In . SVG Version: 6.00 Build 0)  -->
<svg version="1.1" id="圖層_1" xmlns="http://www.w3.org/2000/svg" xmlns:xlink="http://www.w3.org/1999/xlink" x="0px" y="0px"
	 viewBox="0 0 240 240" style="enable-background:new 0 0 240 240;" xml:space="preserve">
<style type="text/css">
	.st0{fill:#1B3372;}
</style>
<path class="st0" d="M63.3,144.3c7.4-7.4,17.6-21.3,25-38.4c-4.3-5.1-6.8-11.5-6.8-18.7c0-16,13-28.9,28.9-28.9c6,0,11.6,1.9,16.3,5
	c5.4-3.2,11.7-5,18.4-5c20.2,0,36.6,16.4,36.6,36.6c0,6.7-1.9,13-5,18.5c3.2,4.6,5,10.2,5,16.2c0,16-12.9,28.9-28.9,28.9
	c-7.1,0-13.6-2.6-18.7-6.9c-14.3,5.7-26.9,13.9-38.3,25.1c-0.2,0.1-0.3,0.2-0.4,0.4c-4.5,3.3-9.1,4.6-13.4,4.6
	c-6.4,0-12.3-2.9-16.5-7.1c-6.8-6.9-10.4-19.2-2.4-29.9C63.1,144.5,63.2,144.4,63.3,144.3z M90.5,171c11.4-11.1,23.9-19.5,38.1-25.5
	c-0.3-0.4-0.5-0.8-0.7-1.2l-22.3,6.4c-0.3,0.1-0.7,0.1-1,0.1c-1.3,0-2.5-0.7-3.3-1.8c-0.9-1.4-0.8-3.3,0.4-4.6l19.2-22
	c-1.2-1-2.3-2.2-3.4-3.4l-22,19.3c-0.7,0.6-1.7,0.9-2.5,0.9c-0.7,0-1.4-0.2-2.1-0.6c-1.4-0.9-2.1-2.7-1.6-4.3l6.4-22.2
	c-0.5-0.3-0.9-0.5-1.3-0.8c-7.6,16.9-17.8,30.6-25.4,38.2c-5.1,7-2.8,14.9,1.9,19.7C75.1,173.4,82.7,176.5,90.5,171z M110.3,108.4
	c0.2,0,0.4,0,0.7,0c-0.5-1.3-0.9-2.6-1.3-3.9c-4.2-0.2-8.4-1.8-11.6-5c-1.5-1.5-1.5-4,0-5.5s3.9-1.5,5.4,0c1.4,1.4,3.2,2.3,5,2.7
	c0-0.6-0.1-1.2-0.1-1.8c0-10.5,4.4-19.9,11.5-26.6c-2.8-1.5-6.1-2.3-9.6-2.3c-11.7,0-21.2,9.5-21.2,21.2
	C89.1,98.9,98.7,108.4,110.3,108.4z M109.2,116.1c-2.2-0.1-4.4-0.4-6.4-1l-2.5,8.8L109.2,116.1z M124.8,137.2c-0.5-2-0.8-4.2-1-6.4
	l-7.8,8.9L124.8,137.2z M145,123.8c15.9,0,28.9-12.9,28.9-28.9C173.9,79,161,66,145,66c-16,0-28.9,13-28.9,28.9
	C116.1,110.9,129.1,123.8,145,123.8z M152.7,150.8c11.7,0,21.2-9.5,21.2-21.2c0-3.4-0.9-6.7-2.3-9.6c-0.9,1-1.9,1.9-2.9,2.8
	c0.9,2.1,1.4,4.4,1.4,6.7c0,4.7-1.8,9-5.1,12.3c-3.3,3.3-7.6,5.1-12.3,5.1c-4.6,0-9-1.8-12.3-5.1c-1.5-1.5-1.5-4,0-5.5
	s3.9-1.5,5.4,0c3.6,3.7,10,3.7,13.6,0c1.8-1.8,2.8-4.2,2.8-6.8c0-0.8-0.1-1.5-0.3-2.3c-5.1,2.7-10.9,4.2-17,4.2
	c-4.8,0-9.3-0.9-13.4-2.6c0,0.2,0,0.5,0,0.7C131.5,141.3,141.1,150.8,152.7,150.8z M81.4,162.4c-2.1,0-3.8,1.7-3.8,3.8
	c0,2.2,1.8,3.9,3.9,3.9c4.6,0,10.1-4.6,18.2-12.7c1.5-1.5,1.5-3.9,0-5.4s-4-1.5-5.5,0C85.8,160.3,82.6,162.2,81.4,162.4z M96.9,81.4
	c-2.1,0-3.8,1.7-3.8,3.8c0,2.2,1.7,3.8,3.8,3.8c2.1,0,3.8-1.7,3.8-3.8C100.7,83.2,99,81.4,96.9,81.4z M104.6,69.9
	c-2.1,0-3.8,1.7-3.8,3.8c0,2.2,1.7,3.8,3.8,3.8c2.1,0,3.8-1.7,3.8-3.8C108.4,71.6,106.7,69.9,104.6,69.9z M123.8,96.9
	c-2.1,0-3.8,1.7-3.8,3.8c0,2.2,1.7,3.8,3.8,3.8c2.1,0,3.8-1.7,3.8-3.8C127.7,98.6,126,96.9,123.8,96.9z M127.3,107.2
	c-1.5,1.5-1.5,3.9,0,5.4c4.7,4.7,11,7.3,17.7,7.3s13-2.6,17.7-7.3c4.7-4.7,7.4-11,7.4-17.7c0-6.7-2.6-13-7.4-17.7
	c-1.5-1.5-3.9-1.5-5.4,0s-1.5,3.9,0,5.4c3.3,3.3,5.1,7.6,5.1,12.3c0,4.7-1.8,9-5.1,12.3c-3.3,3.3-7.6,5.1-12.3,5.1
	c-4.7,0-9-1.8-12.3-5.1C131.3,105.7,128.8,105.7,127.3,107.2z M127.7,81.4c-2.1,0-3.8,1.7-3.8,3.8c0,2.2,1.7,3.8,3.8,3.8
	c2.1,0,3.8-1.7,3.8-3.8C131.5,83.2,129.8,81.4,127.7,81.4z M139.2,93c-2.1,0-3.9,1.7-3.9,3.8c0,2.2,1.7,3.8,3.9,3.8s3.8-1.7,3.8-3.8
	C143.1,94.7,141.4,93,139.2,93z M143.1,73.7c-2.1,0-3.9,1.7-3.9,3.8c0,2.2,1.7,3.8,3.9,3.8s3.8-1.7,3.8-3.8
	C147,75.5,145.2,73.7,143.1,73.7z M150.8,85.3c-2.1,0-3.8,1.7-3.8,3.8c0,2.2,1.7,3.8,3.8,3.8c2.1,0,3.9-1.7,3.9-3.8
	C154.7,87,152.9,85.3,150.8,85.3z"/>
</svg>
