<?xml version="1.0" encoding="utf-8"?>
<!-- Generator: Adobe Illustrator 25.2.3, SVG Export Plug-In . SVG Version: 6.00 Build 0)  -->
<svg version="1.1" id="圖層_1" xmlns="http://www.w3.org/2000/svg" xmlns:xlink="http://www.w3.org/1999/xlink" x="0px" y="0px"
	 viewBox="0 0 240 240" style="enable-background:new 0 0 240 240;" xml:space="preserve">
<style type="text/css">
	.st0{fill:#FFFFFF;}
</style>
<path class="st0" d="M63.3,112.1c6-20.6,19.5-44,36.2-49.9c7.7-2.7,15.4-1.6,22.4,3.3c2.7,1.9,6.4,5.7,9.2,10.1
	c6.5-7.1,17.9-14.3,26.8-14.9c7.1-0.4,14.2,1.9,18.7,6.1c3.8,3.6,5.8,8.4,5.8,14.1v0.7c0,4.4,0,12.7-6.7,15.3
	c-1.2,0.4-2.5,0.3-3.6-0.4c-1.1-0.7-1.8-1.8-1.9-3c-0.5-4.5-1.9-4.7-6.4-4.5c-0.6,0-1.2,0-1.5,0c-2,0.5-7.2,7.5-8.1,13.8
	c6.4,2.8,12.6,8.3,15.2,12c4.9,7,6,14.8,3.3,22.4c-5.9,16.7-29.3,30.2-49.9,36.2c-2.4,0.7-4.7,1.4-6.9,2.2
	c-5.5,1.9-11.1,3.7-16.4,3.7c-6.5,0-12.6-2.8-17.6-11.8c-0.6-1.1-0.6-2.2-0.2-3.2c-2.7-0.8-5-2.1-6.9-4c-1.9-1.9-3.2-4.2-4-6.7
	c-0.6,0-1.2-0.2-1.8-0.5c-16.4-9.1-12.2-21.8-8.1-34.1C61.9,116.8,62.6,114.5,63.3,112.1z M91.1,106.1c6-6.1,12.5-10.9,18.9-14.5
	c0.1-0.5,0.3-1,0.6-1.4c2.1-3,2-7.9-0.1-11.2c-1.2-1.9-0.7-4.4,1.2-5.6c1.9-1.2,4.4-0.7,5.6,1.2c2.3,3.7,3.2,8.2,2.7,12.5
	c2.1-0.7,4.1-1.2,6.1-1.6c-0.1-0.5-0.1-1,0-1.5c0-0.2,0.2-0.5,0.2-0.7c-1.9-4-5.6-8.9-9-11.2c-4.9-3.5-9.9-4.2-15.1-2.4
	c-13.9,4.9-25.9,26.6-31.2,44.6c-0.7,2.5-1.5,4.9-2.3,7.2c-3.8,11.4-5.4,17.4,1.4,22.5C71.3,132.7,78.7,118.6,91.1,106.1z
	 M97.4,155.5c8.6-2.8,17.8-8.9,26-17.1c17.4-17.4,22.5-36.4,16.2-42.8c-1.7-1.7-4.4-2.6-7.8-2.6c-8.8,0-22.4,6.1-35,18.7
	c-17.3,17.4-22.4,36.5-16.2,42.7C83.8,157.6,89.9,158,97.4,155.5z M113.7,168c2.3-0.8,4.7-1.6,7.2-2.3c18-5.2,39.7-17.2,44.6-31.2
	c1.8-5.2,1.1-10.2-2.4-15.1c-2.8-4.1-9.3-8.6-13.5-9.9c-2.1,10.7-9.2,23.3-20.5,34.6c-9,9.1-19.4,15.9-29.1,19.1
	c-3.5,1.2-6.8,1.8-9.8,2C95.5,173.5,101.5,172,113.7,168z M145.3,90c1.4,1.4,2.4,2.9,3.2,4.7c1.6-3.8,3.9-7.3,6.1-9.7
	c2.6-2.7,5.2-4.1,7.8-4.1c0.4,0,0.9,0,1.4,0c2.3-0.1,7.2-0.3,10.7,2.7c0-0.8,0-1.5,0-2.1v-0.7c0-3.5-1.1-6.1-3.3-8.2
	c-3.4-3.2-8.8-4.1-12.6-3.9c-8.4,0.5-19.9,9.5-23.5,14.8c0.1,0.6,0.3,1.1,0.4,1.7C139.3,85.8,142.7,87.4,145.3,90z M89.7,145.5
	c-2.2,0-4,1.8-4,4s1.8,4,4,4c8,0,18.7-6.3,30.1-17.6c15.3-15.3,17.6-28.2,17.6-34.5c0-2.2-1.8-4-4-4c-2.3,0-4,1.8-4,4
	c0,4.1-1.5,15-15.2,28.8C102.8,141.5,94.1,145.5,89.7,145.5z M124.2,154c-2,1-2.8,3.4-1.8,5.4c0.7,1.4,2.1,2.2,3.6,2.2
	c0.6,0,1.2-0.1,1.8-0.4c8-4,28.9-19.2,31.2-22.6c2.1-3.2,3.2-6.5,3.4-9.8c0.2-5.4-4.2-9.5-5.5-10.6c-1.7-1.4-4.2-1.2-5.6,0.4
	c-1.4,1.7-1.2,4.3,0.4,5.7c1.5,1.3,2.7,3.1,2.6,4.2c-0.1,1.8-0.8,3.7-2.1,5.7C150.4,136.4,131.9,150.1,124.2,154z"/>
</svg>
