<?xml version="1.0" encoding="utf-8"?>
<!-- Generator: Adobe Illustrator 25.2.1, SVG Export Plug-In . SVG Version: 6.00 Build 0)  -->
<svg version="1.1" id="圖層_1" xmlns="http://www.w3.org/2000/svg" xmlns:xlink="http://www.w3.org/1999/xlink" x="0px" y="0px"
	 viewBox="0 0 240 240" style="enable-background:new 0 0 240 240;" xml:space="preserve">
<style type="text/css">
	.st0{fill:#1B3372;}
</style>
<g>
	<g>
		<g>
			<path class="st0" d="M118.4,141.8c-22.8,0-41.3-18.6-41.3-41.3c0-22.8,18.6-41.3,41.3-41.3c22.8,0,41.3,18.6,41.3,41.3
				S141.2,141.8,118.4,141.8z M118.4,61.1C96.7,61.1,79,78.8,79,100.5s17.7,39.3,39.3,39.3c21.7,0,39.3-17.6,39.3-39.3
				S140.1,61.1,118.4,61.1z"/>
		</g>
		<g>
			<g>
				<path class="st0" d="M118.4,141.8c-7.2,0-13.9-6.7-17.9-18c-0.1-0.3-0.1-0.5,0.1-0.8c0.1-0.2,0.3-0.4,0.6-0.5
					c1.2-0.4,2-1.3,2.2-2.5c0.2-0.9-0.1-1.9-0.7-2.6c-0.8-0.9-2-1.3-3.2-1c-0.3,0.1-0.5,0-0.8-0.1c-0.2-0.1-0.4-0.4-0.4-0.6
					c-1-4.8-1.5-9.9-1.5-15.1c0-5.5,0.6-10.9,1.7-15.9c0.1-0.3,0.2-0.5,0.5-0.6c0.2-0.1,0.5-0.2,0.8-0.1c1.8,0.4,3.6-0.8,3.9-2.6
					c0-0.2,0-0.3,0-0.5c0-1.4-0.9-2.6-2.2-3c-0.3-0.1-0.5-0.3-0.6-0.5c-0.1-0.2-0.1-0.5,0-0.8c4.1-10.9,10.5-17.2,17.6-17.2
					c7.4,0,14.2,7.1,18.2,18.9c0.2,0.8,0.5,1.5,0.7,2.3c0,0,0,0,0,0c1.8,6.1,2.7,13,2.7,20c0,5.3-0.5,10.3-1.5,15.1
					c-0.1,0.3-0.2,0.5-0.4,0.6s-0.5,0.2-0.8,0.1c-0.3-0.1-0.5-0.1-0.8-0.1c-1.8,0-3.2,1.4-3.2,3.2c0,1.4,0.9,2.6,2.2,3
					c0.3,0.1,0.5,0.3,0.6,0.5s0.1,0.5,0.1,0.8C132.3,135.1,125.6,141.8,118.4,141.8z M102.7,124c3.7,9.9,9.6,15.8,15.7,15.8
					c6.2,0,12-5.9,15.7-15.8c-1.6-0.9-2.7-2.6-2.7-4.5c0-2.9,2.4-5.3,5.4-5.2c0.8-4.4,1.2-9,1.2-13.8c0-6.5-0.8-13-2.4-18.6
					c-5.7,1-11.5,1.5-17.1,1.5l0,0l0,0l0,0l0,0l0,0c0,0,0,0,0,0l0,0l0,0l0,0l0,0l0,0l0,0c-4.4,0-8.8-0.3-13.2-0.9
					c-0.8,2.1-2.8,3.5-5.1,3.4c-1,4.7-1.4,9.6-1.4,14.6c0,4.8,0.4,9.4,1.3,13.8c1.6,0,3.1,0.6,4.1,1.8c1,1.2,1.4,2.7,1.2,4.2
					C105,121.9,104.1,123.3,102.7,124z M118.5,81.4c5.5,0,11.1-0.5,16.6-1.4c-0.1-0.4-0.2-0.8-0.4-1.2c-3.7-11-9.8-17.6-16.3-17.6
					c-5.9,0-11.7,5.6-15.4,15c1.5,0.9,2.5,2.5,2.6,4.3C109.9,81.1,114.2,81.4,118.5,81.4L118.5,81.4z"/>
			</g>
		</g>
		<g>
			<path class="st0" d="M158.7,101.5H78c-0.6,0-1-0.4-1-1s0.4-1,1-1h80.7c0.6,0,1,0.4,1,1C159.7,101,159.3,101.5,158.7,101.5z"/>
		</g>
		<g>
			<path class="st0" d="M118.4,141.8c-0.6,0-1-0.5-1-1V60.1c0-0.5,0.4-1,1-1s1,0.5,1,1v80.7C119.4,141.4,118.9,141.8,118.4,141.8z"
				/>
		</g>
		<g>
			<path class="st0" d="M100.4,85.9c-2.9,0-5.2-2.3-5.2-5.2c0,0,0,0,0-0.1c-3.3-0.8-6.6-1.7-9.8-2.8c-0.5-0.2-0.8-0.7-0.6-1.3
				c0.2-0.5,0.7-0.8,1.3-0.6c3.2,1.1,6.4,2,9.6,2.7c0.8-1.9,2.7-3.2,4.8-3.2c2.8,0,5.1,2.2,5.2,5c15.1,2,30.3,0.5,45.2-4.6
				c0.5-0.2,1.1,0.1,1.3,0.6c0.2,0.5-0.1,1.1-0.6,1.3c-15.2,5.2-30.7,6.8-46.1,4.7C104.5,84.5,102.6,85.9,100.4,85.9z M100.4,77.5
				c-1.5,0-2.8,1.1-3.1,2.5c0,0.2-0.1,0.4-0.1,0.7c0,1.8,1.4,3.2,3.2,3.2c1.6,0,2.9-1.1,3.2-2.7l0,0c0-0.1,0-0.3,0-0.5
				C103.6,78.9,102.1,77.5,100.4,77.5z"/>
		</g>
		<g>
			<path class="st0" d="M151.1,124.3c-0.1,0-0.2,0-0.3-0.1c-3.3-1.1-6.8-2.1-10.3-2.9c-0.5-0.1-0.9-0.7-0.8-1.2
				c0.1-0.5,0.7-0.9,1.2-0.8c3.5,0.8,7.1,1.8,10.4,3c0.5,0.2,0.8,0.8,0.6,1.3C151.9,124,151.5,124.3,151.1,124.3z M85.7,124.3
				c-0.4,0-0.8-0.3-1-0.7c-0.2-0.5,0.1-1.1,0.6-1.3c3.5-1.2,7-2.2,10.5-3c0.5-0.1,1.1,0.2,1.2,0.8c0.1,0.5-0.2,1.1-0.8,1.2
				c-3.4,0.8-6.8,1.8-10.3,2.9C85.9,124.3,85.8,124.3,85.7,124.3z M104.3,119.8c-0.5,0-0.9-0.4-1-0.9c-0.1-0.6,0.3-1.1,0.8-1.1
				c9.5-1.4,19.1-1.4,28.5,0c0.6,0.1,0.9,0.6,0.8,1.1c-0.1,0.6-0.6,0.9-1.1,0.8c-9.2-1.3-18.6-1.3-27.9,0
				C104.4,119.8,104.3,119.8,104.3,119.8z"/>
		</g>
		<g>
			<path class="st0" d="M136.6,124.7c-2.9,0-5.2-2.3-5.2-5.2c0-2.9,2.3-5.2,5.2-5.2c1.5,0,3,0.7,4,1.8c1,1.2,1.4,2.7,1.2,4.2
				C141.3,122.8,139.2,124.7,136.6,124.7z M136.6,116.3c-1.8,0-3.2,1.4-3.2,3.2s1.4,3.2,3.2,3.2c1.6,0,2.9-1.1,3.1-2.7
				c0.2-0.9-0.1-1.9-0.7-2.6C138.4,116.7,137.6,116.3,136.6,116.3z"/>
		</g>
		<g>
			<path class="st0" d="M100.2,124.7c-2.9,0-5.2-2.3-5.2-5.2s2.3-5.2,5.2-5.2c1.5,0,3,0.7,4,1.8s1.4,2.7,1.2,4.2
				C104.9,122.8,102.7,124.7,100.2,124.7z M100.2,116.3c-1.8,0-3.2,1.4-3.2,3.2s1.4,3.2,3.2,3.2c1.6,0,2.9-1.1,3.2-2.7
				c0.2-0.9-0.1-1.9-0.7-2.6C102,116.7,101.1,116.3,100.2,116.3z"/>
		</g>
		<g>
			<path class="st0" d="M118.4,180.9c-4.6,0-8.3-3.7-8.3-8.3c0-4.6,3.7-8.3,8.3-8.3s8.3,3.7,8.3,8.3
				C126.7,177.1,123,180.9,118.4,180.9z M118.4,166.2c-3.5,0-6.3,2.8-6.3,6.3c0,3.5,2.8,6.3,6.3,6.3c3.5,0,6.3-2.8,6.3-6.3
				C124.7,169.1,121.9,166.2,118.4,166.2z"/>
		</g>
		<g>
			<path class="st0" d="M167.2,173.6h-39.6c-0.6,0-1-0.4-1-1c0-0.5,0.4-1,1-1h39.6c0.6,0,1,0.5,1,1
				C168.2,173.1,167.8,173.6,167.2,173.6z M112.4,173.6H72.8c-0.5,0-1-0.4-1-1c0-0.5,0.5-1,1-1h39.6c0.6,0,1,0.5,1,1
				C113.4,173.1,112.9,173.6,112.4,173.6z"/>
		</g>
		<g>
			<path class="st0" d="M118.4,166.2c-0.6,0-1-0.5-1-1v-31c0-0.6,0.4-1,1-1s1,0.4,1,1v31C119.4,165.8,118.9,166.2,118.4,166.2z"/>
		</g>
	</g>
</g>
</svg>
