<?xml version="1.0" encoding="utf-8"?>
<!-- Generator: Adobe Illustrator 25.2.1, SVG Export Plug-In . SVG Version: 6.00 Build 0)  -->
<svg version="1.1" id="圖層_1" xmlns="http://www.w3.org/2000/svg" xmlns:xlink="http://www.w3.org/1999/xlink" x="0px" y="0px"
	 viewBox="0 0 240 240" style="enable-background:new 0 0 240 240;" xml:space="preserve">
<style type="text/css">
	.st0{fill:#1B3372;}
</style>
<path class="st0" d="M142,150.8v8.8h35.1c7.3,0,13.2-5.9,13.2-13.2V71.7c0-7.3-5.9-13.2-13.2-13.2h0c0-4.8-3.9-8.8-8.8-8.8l-105.5,0
	l0,0c-0.3,0-0.5,0.1-0.8,0.1c-0.3,0-0.6,0-1,0.1c-1,0.2-1.9,0.6-2.8,1.1c-0.1,0.1-0.2,0.1-0.4,0.2c-0.1,0.1-0.2,0.2-0.4,0.3
	c-0.7,0.5-1.3,1.1-1.8,1.8c-0.6,0.8-1.1,1.8-1.4,2.9c-0.2,0.7-0.3,1.5-0.3,2.3v57.1h8.8V63l48,37c1.8,1.3,3.7,2.2,5.8,2.3
	c0.6-0.1,1.1-0.4,1.6-0.7l50-38.5v69l-36.8-28.7c-1.9-1.5-4.7-1.1-6.2,0.8c-0.7,0.8-0.9,1.8-0.9,2.8c0,2.5,5.8,6.3,8.9,9l27.9,21.7
	H142v8.8h26.3l0,0c0.3,0,0.5-0.1,0.8-0.1c0.3,0,0.7,0,1-0.1c0.1,0,0.2-0.1,0.3-0.1c2.6-0.6,4.6-2.4,5.8-4.7c0.2-0.5,0.4-1,0.6-1.6
	c0.2-0.7,0.3-1.5,0.3-2.3V67.3h0c2.4,0,4.4,2,4.4,4.4v74.7c0,2.4-2,4.4-4.4,4.4L142,150.8L142,150.8z M115.6,92.5l-44.2-34l88.4,0
	L115.6,92.5z M51,182.8c-1.7,1.7-1.7,4.5,0,6.2c0.9,0.9,2,1.3,3.1,1.3c1.1,0,2.2-0.4,3.1-1.3l19.3-19.3c6,4.6,13.4,7.4,21.5,7.4
	c19.4,0,35.1-15.8,35.1-35.2s-15.8-35.1-35.1-35.1S62.9,122.6,62.9,142c0,8.1,2.8,15.6,7.4,21.5L51,182.8z M71.7,142
	c0-14.5,11.8-26.4,26.4-26.4s26.4,11.8,26.4,26.4c0,14.5-11.8,26.4-26.4,26.4C83.5,168.3,71.7,156.5,71.7,142z M115.6,146.4
	c-2.4,0-4.4-2-4.4-4.4c0-7.3-5.9-13.2-13.2-13.2c-2.4,0-4.4-2-4.4-4.4c0-2.4,2-4.4,4.4-4.4c12.1,0,22,9.9,22,22
	C120,144.4,118,146.4,115.6,146.4z"/>
</svg>
