<?xml version="1.0" encoding="utf-8"?>
<!-- Generator: Adobe Illustrator 25.2.1, SVG Export Plug-In . SVG Version: 6.00 Build 0)  -->
<svg version="1.1" id="圖層_1" xmlns="http://www.w3.org/2000/svg" xmlns:xlink="http://www.w3.org/1999/xlink" x="0px" y="0px"
	 viewBox="0 0 240 240" style="enable-background:new 0 0 240 240;" xml:space="preserve">
<style type="text/css">
	.st0{fill:#1B3372;}
</style>
<g>
	<g>
		<g>
			<g>
				<path class="st0" d="M85.8,111c0,0,3.2,9.2,9.9,7.8c0.7-0.2,0.6-0.9,0.1-1.4c-0.5-0.6-3.2-4.3-3.6-10.1
					c-0.3-5.8-2.1-7.8-3.6-7.9C87.1,99.3,83,102.9,85.8,111z"/>
			</g>
			<g>
				<path class="st0" d="M101.4,104.5c0,0-3.2-9.2-9.9-7.8c-0.7,0.2-0.6,0.9-0.1,1.4c0.5,0.6,3.2,4.3,3.5,10.1
					c0.3,5.8,2.1,7.8,3.6,7.9C100.1,116.2,104.2,112.6,101.4,104.5z"/>
			</g>
		</g>
		<g>
			<g>
				<path class="st0" d="M106.5,118.5c0,0-0.3,9.7,6.4,10.9c0.7,0.1,0.9-0.6,0.6-1.3c-0.3-0.7-1.4-5.2,0.3-10.7
					c1.8-5.5,0.8-8.1-0.5-8.7C111.9,108.1,106.8,109.9,106.5,118.5z"/>
			</g>
			<g>
				<path class="st0" d="M123.4,118.1c0,0,0.3-9.7-6.4-10.9c-0.7-0.1-0.9,0.6-0.6,1.3c0.3,0.7,1.4,5.2-0.3,10.7
					c-1.8,5.5-0.8,8.1,0.5,8.7C118,128.5,123.1,126.6,123.4,118.1z"/>
			</g>
		</g>
		<g>
			<g>
				<path class="st0" d="M115.4,83.6c0,0-8.9-4-12.5,1.8c-0.3,0.7,0.2,1.1,1,1.1c0.7,0,5.4,0.6,9.8,4.4c4.4,3.8,7.2,3.8,8.2,2.8
					C123,92.5,123.2,87.1,115.4,83.6z"/>
			</g>
			<g>
				<path class="st0" d="M109.4,99.3c0,0,8.9,4,12.5-1.8c0.3-0.7-0.2-1-1-1.1s-5.4-0.6-9.8-4.4c-4.4-3.8-7.2-3.8-8.2-2.8
					C101.9,90.4,101.6,95.8,109.4,99.3z"/>
			</g>
		</g>
		<g>
			<g>
				<path class="st0" d="M66.9,149.1c0,0,1.8-6.5-2.5-8.3c-0.5-0.2-0.7,0.3-0.6,0.8c0.1,0.5,0.1,3.7-2,7.1c-2.1,3.4-1.9,5.3-1.1,5.9
					C61.6,155.2,65.3,154.8,66.9,149.1z"/>
			</g>
			<g>
				<path class="st0" d="M55.6,146.6c0,0-1.8,6.5,2.5,8.3c0.5,0.2,0.7-0.3,0.6-0.8c-0.1-0.5-0.1-3.7,2-7.1c2.1-3.4,1.9-5.3,1.1-5.9
					C60.9,140.6,57.2,141,55.6,146.6z"/>
			</g>
		</g>
		<g>
			<g>
				<path class="st0" d="M62.6,122.9c0,0-3.3-5.9-7.7-4.1c-0.5,0.2-0.3,0.7,0.1,1c0.4,0.3,2.7,2.6,3.6,6.4c0.9,3.9,2.4,5.1,3.4,4.9
					C63.1,131,65.5,128,62.6,122.9z"/>
			</g>
			<g>
				<path class="st0" d="M52.8,129.1c0,0,3.3,5.9,7.7,4.1c0.5-0.2,0.3-0.7-0.1-1c-0.4-0.3-2.7-2.6-3.6-6.5c-0.9-3.9-2.4-5.1-3.4-4.9
					C52.3,121.1,49.9,124,52.8,129.1z"/>
			</g>
		</g>
		<g>
			<g>
				<path class="st0" d="M97.6,156.5c0,0-1.4,6.6,3,8.2c0.5,0.1,0.7-0.3,0.6-0.8c-0.1-0.5-0.4-3.7,1.5-7.2c1.9-3.5,1.5-5.4,0.7-5.9
					C102.5,150.1,98.8,150.7,97.6,156.5z"/>
			</g>
			<g>
				<path class="st0" d="M109.1,158.2c0,0,1.4-6.6-3-8.1c-0.5-0.1-0.7,0.3-0.6,0.8c0.1,0.5,0.4,3.7-1.5,7.2
					c-1.9,3.5-1.6,5.4-0.7,5.9C104.2,164.6,107.9,164,109.1,158.2z"/>
			</g>
		</g>
		<g>
			<g>
				<path class="st0" d="M114.6,168.9c0,0-1.4,6.6,3.1,8.1c0.5,0.1,0.7-0.3,0.6-0.8c-0.1-0.5-0.4-3.7,1.5-7.2
					c1.9-3.5,1.6-5.4,0.7-5.9C119.5,162.5,115.8,163.1,114.6,168.9z"/>
			</g>
			<g>
				<path class="st0" d="M126.1,170.6c0,0,1.4-6.6-3-8.2c-0.5-0.1-0.7,0.3-0.6,0.8c0.1,0.5,0.4,3.7-1.5,7.2
					c-1.9,3.5-1.6,5.4-0.7,5.9C121.2,177,124.9,176.4,126.1,170.6z"/>
			</g>
		</g>
		<g>
			<g>
				<path class="st0" d="M78.8,155.8c0,0,3,6,7.4,4.5c0.5-0.2,0.3-0.7-0.1-1c-0.4-0.3-2.6-2.7-3.3-6.6s-2.1-5.2-3.1-5.1
					C78.7,147.8,76.2,150.6,78.8,155.8z"/>
			</g>
			<g>
				<path class="st0" d="M88.9,150.1c0,0-3-6-7.4-4.5c-0.5,0.2-0.3,0.7,0.1,1s2.6,2.7,3.3,6.6s2.1,5.2,3.1,5.1
					C89,158.2,91.5,155.4,88.9,150.1z"/>
			</g>
		</g>
		<g>
			<g>
				<path class="st0" d="M63.2,168.3c0,0,2.2,6.4,6.8,5.4c0.5-0.1,0.4-0.6,0.1-1c-0.4-0.4-2.2-3-2.5-7c-0.2-4-1.5-5.4-2.5-5.4
					C64.1,160.2,61.2,162.7,63.2,168.3z"/>
			</g>
			<g>
				<path class="st0" d="M73.9,163.8c0,0-2.2-6.3-6.8-5.4c-0.5,0.1-0.4,0.6-0.1,1c0.3,0.4,2.2,3,2.4,7c0.2,4,1.5,5.4,2.5,5.4
					C73,171.8,75.9,169.4,73.9,163.8z"/>
			</g>
		</g>
		<g>
			<g>
				<path class="st0" d="M87.7,179.5c0,0,3,6,7.4,4.5c0.5-0.2,0.3-0.7-0.1-1c-0.4-0.3-2.6-2.7-3.3-6.6s-2.1-5.2-3.1-5.1
					C87.6,171.4,85.1,174.2,87.7,179.5z"/>
			</g>
			<g>
				<path class="st0" d="M97.8,173.8c0,0-3-6-7.4-4.5c-0.5,0.2-0.3,0.7,0.1,1c0.4,0.3,2.6,2.7,3.3,6.6s2.1,5.2,3.1,5.1
					C97.9,181.8,100.4,179,97.8,173.8z"/>
			</g>
		</g>
	</g>
	<g>
		<path class="st0" d="M187,172l-32.3-28.4c-1-0.9-2.2-1.3-3.5-1.2c-0.4,0-0.8,0.1-1.2,0.3c-0.1-0.5-0.4-1-0.9-1.4l-6.3-5.5
			c0,0-0.1,0-0.1-0.1c8.3-9.2,13.1-21.7,12.2-35.1c-1.7-26.4-24.5-46.4-50.8-44.8c-26.3,1.7-46.4,24.5-44.8,50.8
			c1.6,25.3,22.7,44.9,47.8,44.9c1,0,2,0,3.1-0.1c9.8-0.6,18.7-4.2,25.9-9.7c0.2,0.3,0.4,0.6,0.6,0.8l6.3,5.5
			c0.4,0.4,0.9,0.6,1.5,0.7c-0.3,1.6,0.2,3.4,1.5,4.6l32.3,28.4c0.9,0.8,2,1.2,3.2,1.2c0.1,0,0.2,0,0.3,0c1.3-0.1,2.5-0.7,3.3-1.6
			l2.3-2.6c0.9-1,1.3-2.2,1.2-3.5C188.5,174,187.9,172.8,187,172z M110,148.6c-12,0.8-23.6-3.2-32.6-11.1
			c-9-7.9-14.4-18.9-15.2-30.9c-0.8-12,3.2-23.6,11.2-32.6c7.9-9,18.9-14.4,30.9-15.2c1-0.1,1.9-0.1,2.9-0.1
			c23.5,0,43.4,18.4,44.9,42.2C153.7,125.6,134.8,147,110,148.6z M144.3,146.6l-6.3-5.5c-0.2-0.2-0.3-0.4-0.3-0.6
			c1.3-1.1,2.5-2.2,3.7-3.4c0,0,0.1,0,0.1,0.1l6.3,5.5c0.2,0.2,0.3,0.4,0.3,0.6c0,0.2-0.1,0.4-0.2,0.6c0,0,0,0,0,0l-2.3,2.6
			c0,0,0,0,0,0.1C145.2,146.9,144.7,147,144.3,146.6z M186,177.5l-2.3,2.6c-0.5,0.6-1.2,0.9-2,1c-0.8,0.1-1.5-0.2-2.1-0.7
			l-32.3-28.4c-1.2-1-1.3-2.8-0.3-4c0,0,0,0,0.1-0.1l2.3-2.6c0,0,0,0,0-0.1c0.6-0.6,1.3-0.9,2.1-0.9c0.7,0,1.4,0.2,1.9,0.7
			l32.3,28.4C186.9,174.5,187,176.3,186,177.5z"/>
		<path class="st0" d="M145.1,101.2c-0.6-10.1-5.2-19.4-12.8-26.1c-7.6-6.7-17.4-10.1-27.5-9.4c-10.1,0.6-19.4,5.2-26.1,12.8
			c-6.7,7.6-10.1,17.4-9.4,27.5s5.2,19.4,12.8,26.1c7,6.2,15.8,9.5,25.1,9.5c0.8,0,1.6,0,2.5-0.1
			C130.5,140.2,146.4,122.1,145.1,101.2z M109.4,139.7c-9.6,0.6-18.9-2.6-26.2-8.9c-7.2-6.4-11.6-15.2-12.2-24.8s2.6-18.9,8.9-26.2
			c6.4-7.2,15.2-11.6,24.8-12.2c0.8-0.1,1.6-0.1,2.3-0.1c8.8,0,17.2,3.2,23.8,9c7.2,6.4,11.6,15.2,12.2,24.8
			C144.5,121.2,129.3,138.4,109.4,139.7z"/>
	</g>
</g>
</svg>
