<?xml version="1.0" encoding="utf-8"?>
<!-- Generator: Adobe Illustrator 25.2.1, SVG Export Plug-In . SVG Version: 6.00 Build 0)  -->
<svg version="1.1" id="圖層_1" xmlns="http://www.w3.org/2000/svg" xmlns:xlink="http://www.w3.org/1999/xlink" x="0px" y="0px"
	 viewBox="0 0 240 240" style="enable-background:new 0 0 240 240;" xml:space="preserve">
<style type="text/css">
	.st0{fill:#1B3372;}
</style>
<g>
	<g>
		<path class="st0" d="M156.6,74.5c-0.2,0-0.3-0.1-0.5-0.2l-19.1-12c-0.3-0.2-0.4-0.5-0.4-0.8c0-0.3,0.2-0.6,0.5-0.8l19.1-11.3
			c0.3-0.2,0.7-0.2,1,0l19.1,11.3c0.3,0.2,0.5,0.5,0.5,0.8c0,0.3-0.2,0.6-0.4,0.8l-19.1,12C156.9,74.5,156.8,74.5,156.6,74.5z
			 M139.3,61.5l17.3,10.9l17.3-10.9l-17.3-10.2L139.3,61.5z"/>
	</g>
	<g>
		<path class="st0" d="M154.9,83.7c-0.2,0-0.3,0-0.5-0.1l-13.3-7.8c-0.2-0.1-0.4-0.3-0.4-0.5l-4.1-13.4c-0.1-0.4,0-0.8,0.3-1
			c0.3-0.2,0.8-0.3,1.1,0l19.1,12c0.3,0.2,0.5,0.6,0.4,1l-1.7,9.2c-0.1,0.3-0.3,0.6-0.5,0.7C155.1,83.6,155,83.7,154.9,83.7z
			 M142.4,74.3l11.8,6.9l1.3-7.2l-16.4-10.3L142.4,74.3z"/>
	</g>
	<g>
		<path class="st0" d="M154.9,83.7c-0.2,0-0.4,0-0.5-0.2c-0.3-0.2-0.5-0.6-0.4-1l1.7-9.2c0.1-0.3,0.2-0.5,0.4-0.6l19.1-12
			c0.4-0.2,0.9-0.2,1.2,0.1c0.3,0.3,0.4,0.8,0.1,1.2l-8.3,13.1c-0.1,0.1-0.2,0.2-0.3,0.3l-12.5,8.1C155.2,83.6,155,83.7,154.9,83.7z
			 M157.4,74.1l-1.2,6.6l10.5-6.8l5.9-9.3L157.4,74.1z"/>
	</g>
	<g>
		<path class="st0" d="M144.6,97.1c-0.2,0-0.3,0-0.5-0.1l-13.4-7.7l-14.2-9.2c-0.3-0.2-0.4-0.5-0.4-0.8c0-0.3,0.2-0.6,0.5-0.8
			l21.6-12.3c0.5-0.3,1-0.1,1.3,0.3c0.3,0.5,0.1,1-0.3,1.3l-20.2,11.6l12.9,8.4l12.8,7.4L175.1,78l-6-3.6c-0.4-0.3-0.6-0.8-0.3-1.3
			c0.3-0.4,0.9-0.6,1.3-0.3l7.4,4.4c0.3,0.2,0.5,0.5,0.5,0.8c0,0.3-0.2,0.6-0.4,0.8L145.1,97C144.9,97.1,144.8,97.1,144.6,97.1z"/>
	</g>
	<g>
		<path class="st0" d="M131.3,115.5c-0.2,0-0.4-0.1-0.5-0.2l-27.5-17.7c-0.2-0.1-0.4-0.4-0.4-0.6c0-0.3,0-0.5,0.2-0.7l13.2-17.6
			c0.3-0.4,0.8-0.5,1.3-0.2l27.6,16.9c0.2,0.1,0.4,0.4,0.4,0.6s0,0.5-0.2,0.8L132,115.1C131.8,115.4,131.5,115.5,131.3,115.5z
			 M105.2,96.6l25.8,16.7l12.2-16.8l-26-15.9L105.2,96.6z"/>
	</g>
	<g>
		<path class="st0" d="M112,111.1c-0.2,0-0.3-0.1-0.5-0.1l-8.2-5.1c-0.3-0.2-0.4-0.5-0.4-0.8c0-0.2,0-0.3,0.1-0.5
			c0.3-0.4,0.9-0.6,1.3-0.3l8.2,5.1c0.3,0.2,0.4,0.5,0.4,0.8c0,0.2-0.1,0.3-0.1,0.5C112.6,110.9,112.3,111.1,112,111.1z"/>
	</g>
	<g>
		<path class="st0" d="M131.3,163.9c-0.2,0-0.3,0-0.5-0.1c-0.3-0.2-0.5-0.5-0.5-0.8v-48.4c0-0.2,0.1-0.4,0.2-0.6l13.4-18.4
			c0.1-0.1,0.2-0.2,0.3-0.3l32.3-18.1c0.1-0.1,0.3-0.1,0.5-0.1h0c0.5,0,0.9,0.4,0.9,0.9v58c0,0.3-0.2,0.7-0.5,0.8l-45.7,26.9
			C131.6,163.9,131.4,163.9,131.3,163.9z M132.2,114.8v46.4l43.8-25.8V79.7l-30.8,17.2L132.2,114.8z"/>
	</g>
	<g>
		<path class="st0" d="M131.3,123.8c-0.2,0-0.4-0.1-0.5-0.2l-17.3-11.5l-10.1-6.2c-0.3-0.2-0.5-0.5-0.5-0.8v-8.3
			c0-0.3,0.2-0.7,0.5-0.8c0.3-0.2,0.7-0.2,1,0l25.8,16.7l1.6,1c0.3,0.2,0.5,0.5,0.5,0.8v8.3c0,0.3-0.2,0.7-0.5,0.8
			C131.6,123.8,131.4,123.8,131.3,123.8z M104.8,104.6l9.7,5.9l15.9,10.6v-6l-1.2-0.7c0,0,0,0,0,0l-24.4-15.8V104.6z"/>
	</g>
	<g>
		<path class="st0" d="M103.8,118.3c-0.2,0-0.3,0-0.5-0.1c-0.3-0.2-0.5-0.5-0.5-0.8v-12.3c0-0.3,0.2-0.7,0.5-0.8
			c0.3-0.2,0.7-0.2,1,0l10.1,6.2c0.3,0.2,0.5,0.5,0.4,0.8c0,0.3-0.2,0.6-0.5,0.8l-10.1,6C104.2,118.2,104,118.3,103.8,118.3z
			 M104.8,106.8v8.9l7.3-4.4L104.8,106.8z"/>
	</g>
	<g>
		<path class="st0" d="M113.9,112.3c-0.2,0-0.3-0.1-0.5-0.1l-1.9-1.2c-0.3-0.2-0.4-0.5-0.4-0.8c0-0.2,0.1-0.3,0.1-0.5
			c0.3-0.4,0.9-0.6,1.3-0.3l1.9,1.2c0.3,0.2,0.4,0.5,0.4,0.8c0,0.2-0.1,0.3-0.1,0.5C114.6,112.1,114.2,112.3,113.9,112.3z"/>
	</g>
	<g>
		<path class="st0" d="M107.9,155.6c-0.5,0-0.9-0.4-0.9-0.9v-9.6c0-0.3,0.2-0.6,0.5-0.8l22.9-13.7v-7.3l-16.4-10.9l-26.4,15.7v10.1
			c0,0.5-0.4,0.9-1,0.9c-0.5,0-0.9-0.4-0.9-0.9v-10.6c0-0.3,0.2-0.7,0.5-0.8l27.4-16.3c0.3-0.2,0.7-0.2,1,0l17.3,11.5
			c0.3,0.2,0.4,0.5,0.4,0.8v8.3c0,0.3-0.2,0.6-0.5,0.8l-22.9,13.7v9C108.9,155.2,108.4,155.6,107.9,155.6z"/>
	</g>
	<g>
		<path class="st0" d="M89.5,190.8c-0.2,0-0.5-0.1-0.6-0.2l-26.5-22.9c-0.2-0.2-0.3-0.4-0.3-0.7v-11c0-0.4,0.2-0.7,0.6-0.9
			s0.7-0.1,1,0.1L90.1,178c0.2,0.2,0.3,0.4,0.3,0.7v11.1c0,0.4-0.2,0.7-0.6,0.9C89.8,190.7,89.6,190.8,89.5,190.8z M64,166.4
			l24.6,21.3v-8.6L64,157.9C64,157.9,64,166.4,64,166.4z"/>
	</g>
	<g>
		<path class="st0" d="M111,176.3c-0.2,0-0.3,0-0.5-0.1c-0.3-0.2-0.5-0.5-0.5-0.8v-7.2l-2.8-2.2c-0.2-0.2-0.4-0.4-0.4-0.7v-20
			c0-0.3,0.2-0.6,0.5-0.8l23.3-13.9c0.3-0.2,0.7-0.2,1,0s0.5,0.5,0.5,0.8V163c0,0.3-0.2,0.6-0.5,0.8l-20.2,12.4
			C111.4,176.2,111.2,176.3,111,176.3z M108.9,164.7l2.8,2.2c0.2,0.2,0.4,0.4,0.4,0.7v5.9l18.3-11.2v-29.5l-15.8,9.5l0,0l-5.6,3.3
			C108.9,145.7,108.9,164.7,108.9,164.7z M114,141.5L114,141.5L114,141.5z"/>
	</g>
	<g>
		<path class="st0" d="M107.9,166.1c-0.2,0-0.4-0.1-0.6-0.2l-21.4-17.3c-0.2-0.2-0.3-0.4-0.3-0.7v-9.6c0-0.5,0.4-0.9,1-0.9
			c0.5,0,0.9,0.4,0.9,0.9v9.1l19.5,15.8v-8.5c0-0.5,0.4-0.9,0.9-0.9c0.5,0,0.9,0.4,0.9,0.9v10.5c0,0.4-0.2,0.7-0.5,0.9
			C108.2,166.1,108.1,166.1,107.9,166.1z"/>
	</g>
	<g>
		<path class="st0" d="M89.5,179.7c-0.2,0-0.5-0.1-0.6-0.2l-26.5-22.9c-0.2-0.2-0.4-0.5-0.3-0.8c0-0.3,0.2-0.6,0.5-0.7l19.5-11.3
			c0.3-0.2,0.8-0.2,1.1,0.1l8.1,6.7l17.3,13.9l0,0l3.1,2.5c0.2,0.2,0.4,0.5,0.3,0.8c0,0.3-0.2,0.6-0.5,0.8l-21.6,11.1
			C89.8,179.7,89.6,179.7,89.5,179.7z M64.6,156l25,21.6l19.7-10.1L90,152l-7.6-6.3L64.6,156z"/>
	</g>
	<g>
		<path class="st0" d="M89.5,190.8c-0.2,0-0.3,0-0.5-0.1c-0.3-0.2-0.5-0.5-0.5-0.8v-11.1c0-0.4,0.2-0.7,0.5-0.9l18.4-9.4l0,0
			l3.1-1.6c0.3-0.1,0.7-0.1,0.9,0s0.5,0.5,0.5,0.8v10c0,0.3-0.2,0.7-0.5,0.8L90,190.6C89.8,190.7,89.6,190.8,89.5,190.8z
			 M90.4,179.3v8.9l19.7-11v-7.9L90.4,179.3z"/>
	</g>
	<g>
		<path class="st0" d="M86.5,139.2c-0.3,0-0.6-0.2-0.8-0.5c-0.3-0.4-0.1-1,0.3-1.3l35.1-20.9c0.4-0.3,1-0.1,1.3,0.3
			c0.3,0.4,0.1,1-0.3,1.3L87,139.1C86.9,139.2,86.7,139.2,86.5,139.2z"/>
	</g>
	<g>
		<path class="st0" d="M156.5,60.4C156.5,60.4,156.5,60.4,156.5,60.4c-0.5,0-1-0.4-0.9-1l0.1-9.3c0-0.5,0.4-0.9,0.9-0.9c0,0,0,0,0,0
			c0.5,0,0.9,0.4,0.9,1l-0.1,9.3C157.5,60,157,60.4,156.5,60.4z"/>
	</g>
	<g>
		<path class="st0" d="M156.6,56.4l-13.2,7.7l13.2,8.3c0,0,10.4-6.6,13.1-8.2L156.6,56.4z"/>
	</g>
	<g>
		<g>
			<g>
				<path class="st0" d="M124.5,123.2c0,0,1,0,1.1-0.8c0-0.1-0.1-0.1-0.2-0.1c-0.1,0-0.6,0.2-1.2,0.1c-0.6-0.2-0.9,0-0.9,0.1
					C123.4,122.7,123.6,123.2,124.5,123.2z"/>
			</g>
			<g>
				<path class="st0" d="M124.4,121.4c0,0-1,0-1.1,0.8c0,0.1,0.1,0.1,0.2,0.1c0.1,0,0.6-0.2,1.2-0.1c0.6,0.2,0.9,0,0.9-0.1
					C125.5,121.8,125.3,121.3,124.4,121.4z"/>
			</g>
		</g>
		<g>
			<g>
				<path class="st0" d="M98.1,142.7c0,0,1,0,1.1-0.8c0-0.1-0.1-0.1-0.2-0.1c-0.1,0-0.5,0.2-1.2,0.1c-0.6-0.2-0.9,0-0.9,0.1
					C96.9,142.2,97.2,142.7,98.1,142.7z"/>
			</g>
			<g>
				<path class="st0" d="M97.9,140.9c0,0-1,0-1.1,0.8c0,0.1,0.1,0.1,0.2,0.1c0.1,0,0.5-0.2,1.2-0.1c0.6,0.1,0.9,0,0.9-0.1
					C99.1,141.4,98.8,140.8,97.9,140.9z"/>
			</g>
		</g>
		<g>
			<g>
				<path class="st0" d="M128.1,123.8c0,0-0.8-0.7-1.3-0.2c-0.1,0.1,0,0.1,0.1,0.1s0.5,0.2,0.9,0.8c0.3,0.5,0.6,0.6,0.8,0.6
					C128.5,125,128.7,124.4,128.1,123.8z"/>
			</g>
			<g>
				<path class="st0" d="M126.9,125.2c0,0,0.8,0.7,1.3,0.2c0.1-0.1,0-0.1-0.1-0.1s-0.5-0.2-0.9-0.8c-0.3-0.5-0.6-0.6-0.8-0.6
					C126.5,124.1,126.3,124.6,126.9,125.2z"/>
			</g>
		</g>
		<g>
			<g>
				<path class="st0" d="M102,139.2c0,0-0.8-0.7-1.3-0.2c-0.1,0.1,0,0.1,0.1,0.1c0.1,0,0.5,0.2,0.9,0.8c0.3,0.5,0.6,0.6,0.8,0.6
					C102.5,140.4,102.7,139.8,102,139.2z"/>
			</g>
			<g>
				<path class="st0" d="M100.9,140.6c0,0,0.8,0.7,1.3,0.2c0.1-0.1,0-0.1-0.1-0.1c-0.1,0-0.5-0.2-0.9-0.8c-0.3-0.5-0.6-0.6-0.8-0.6
					C100.4,139.5,100.2,140,100.9,140.6z"/>
			</g>
		</g>
		<g>
			<g>
				<path class="st0" d="M118.6,130.2c0,0,0.2-1-0.5-1.3c-0.1,0-0.1,0.1-0.1,0.1c0,0.1,0.1,0.6-0.2,1.1c-0.3,0.6-0.2,0.8-0.1,0.9
					C117.8,131.2,118.4,131.1,118.6,130.2z"/>
			</g>
			<g>
				<path class="st0" d="M116.8,129.9c0,0-0.2,1,0.5,1.3c0.1,0,0.1-0.1,0.1-0.1c0-0.1-0.1-0.6,0.2-1.1c0.3-0.6,0.2-0.8,0.1-0.9
					S117,129.1,116.8,129.9z"/>
			</g>
		</g>
		<g>
			<g>
				<path class="st0" d="M126.3,129.3c0,0,1,0,1.1-0.8c0-0.1-0.1-0.1-0.2-0.1c-0.1,0-0.6,0.2-1.2,0.1c-0.6-0.2-0.9,0-0.9,0.1
					C125.1,128.8,125.4,129.3,126.3,129.3z"/>
			</g>
			<g>
				<path class="st0" d="M126.1,127.5c0,0-1,0-1.1,0.8c0,0.1,0.1,0.1,0.2,0.1c0.1,0,0.6-0.2,1.2-0.1c0.6,0.1,0.9,0,0.9-0.1
					C127.3,128,127,127.4,126.1,127.5z"/>
			</g>
		</g>
		<g>
			<g>
				<path class="st0" d="M106.9,139c0,0-0.8-0.7-1.3-0.2c-0.1,0.1,0,0.1,0.1,0.1c0.1,0,0.5,0.2,0.9,0.8c0.3,0.5,0.6,0.6,0.8,0.6
					C107.4,140.1,107.6,139.6,106.9,139z"/>
			</g>
			<g>
				<path class="st0" d="M105.8,140.4c0,0,0.8,0.7,1.3,0.2c0.1-0.1,0-0.1-0.1-0.1c-0.1,0-0.5-0.2-0.9-0.8c-0.3-0.5-0.6-0.6-0.8-0.6
					C105.3,139.2,105.1,139.8,105.8,140.4z"/>
			</g>
		</g>
		<g>
			<g>
				<path class="st0" d="M104,142.7c0,0,1,0,1.1-0.8c0-0.1-0.1-0.1-0.2-0.1c-0.1,0-0.6,0.2-1.2,0.1c-0.6-0.2-0.9,0-0.9,0.1
					C102.9,142.2,103.1,142.8,104,142.7z"/>
			</g>
			<g>
				<path class="st0" d="M103.8,140.9c0,0-1,0-1.1,0.8c0,0.1,0.1,0.1,0.2,0.1c0.1,0,0.5-0.2,1.2-0.1c0.6,0.1,0.9,0,0.9-0.1
					C105,141.4,104.8,140.9,103.8,140.9z"/>
			</g>
		</g>
		<g>
			<g>
				<path class="st0" d="M98,139.5c0,0,1,0,1.1-0.8c0-0.1-0.1-0.1-0.2-0.1c-0.1,0-0.6,0.2-1.2,0.1c-0.6-0.1-0.9,0-0.9,0.1
					C96.8,139,97.1,139.5,98,139.5z"/>
			</g>
			<g>
				<path class="st0" d="M97.8,137.7c0,0-1,0-1.1,0.8c0,0.1,0.1,0.1,0.2,0.1c0.1,0,0.6-0.2,1.2-0.1c0.6,0.1,0.9,0,0.9-0.1
					C99,138.2,98.7,137.6,97.8,137.7z"/>
			</g>
		</g>
		<g>
			<g>
				<path class="st0" d="M103.6,147.8c0,0,1,0,1.1-0.8c0-0.1-0.1-0.1-0.2-0.1c-0.1,0-0.5,0.2-1.2,0.1c-0.6-0.1-0.9,0-0.9,0.1
					C102.4,147.3,102.7,147.9,103.6,147.8z"/>
			</g>
			<g>
				<path class="st0" d="M103.4,146c0,0-1,0-1.1,0.8c0,0.1,0.1,0.1,0.2,0.1c0.1,0,0.6-0.2,1.2-0.1c0.6,0.2,0.9,0,0.9-0.1
					C104.6,146.5,104.3,146,103.4,146z"/>
			</g>
		</g>
		<g>
			<g>
				<path class="st0" d="M119.7,125.1c0,0,1,0,1.1-0.8c0-0.1-0.1-0.1-0.2-0.1c-0.1,0-0.6,0.2-1.2,0.1c-0.6-0.2-0.9,0-0.9,0.1
					C118.5,124.6,118.8,125.2,119.7,125.1z"/>
			</g>
			<g>
				<path class="st0" d="M119.5,123.3c0,0-1,0-1.1,0.8c0,0.1,0.1,0.1,0.2,0.1c0.1,0,0.6-0.2,1.2-0.1c0.6,0.2,0.9,0,0.9-0.1
					C120.7,123.8,120.4,123.3,119.5,123.3z"/>
			</g>
		</g>
		<g>
			<g>
				<path class="st0" d="M116.9,127.9c0,0,0.8,0.7,1.3,0.2c0.1-0.1,0-0.1-0.1-0.1s-0.5-0.2-0.9-0.8c-0.3-0.5-0.6-0.6-0.8-0.5
					C116.4,126.7,116.2,127.3,116.9,127.9z"/>
			</g>
			<g>
				<path class="st0" d="M118,126.4c0,0-0.8-0.7-1.3-0.2c-0.1,0.1,0,0.1,0.1,0.1s0.5,0.2,0.9,0.8c0.3,0.5,0.6,0.6,0.8,0.5
					C118.5,127.6,118.7,127,118,126.4z"/>
			</g>
		</g>
		<g>
			<g>
				<path class="st0" d="M124,124.9c0,0-0.8-0.6-1.3-0.1c-0.1,0.1,0,0.1,0.1,0.1s0.5,0.2,0.9,0.7c0.4,0.5,0.7,0.6,0.8,0.5
					C124.6,126,124.8,125.4,124,124.9z"/>
			</g>
			<g>
				<path class="st0" d="M123,126.4c0,0,0.8,0.6,1.3,0.1c0.1-0.1,0-0.1-0.1-0.1s-0.5-0.2-0.9-0.7c-0.4-0.5-0.7-0.6-0.8-0.5
					C122.5,125.2,122.3,125.8,123,126.4z"/>
			</g>
		</g>
		<g>
			<g>
				<path class="st0" d="M120.8,131.3c0,0-0.8-0.6-1.3-0.1c-0.1,0.1,0,0.1,0.1,0.1c0.1,0,0.5,0.2,0.9,0.7c0.4,0.5,0.7,0.6,0.8,0.5
					C121.4,132.4,121.5,131.9,120.8,131.3z"/>
			</g>
			<g>
				<path class="st0" d="M119.8,132.8c0,0,0.8,0.6,1.3,0.1c0.1-0.1,0-0.1-0.1-0.1c-0.1,0-0.5-0.2-0.9-0.7c-0.4-0.5-0.7-0.6-0.8-0.5
					C119.2,131.7,119,132.2,119.8,132.8z"/>
			</g>
		</g>
		<g>
			<g>
				<path class="st0" d="M122.9,129.1c0,0,0.5-0.9,0-1.3c-0.1,0-0.1,0-0.1,0.1c0,0.1-0.1,0.6-0.6,1c-0.4,0.4-0.5,0.7-0.4,0.8
					C121.8,129.8,122.4,129.9,122.9,129.1z"/>
			</g>
			<g>
				<path class="st0" d="M121.3,128.2c0,0-0.5,0.9,0,1.3c0.1,0,0.1,0,0.1-0.1c0-0.1,0.1-0.6,0.6-1c0.4-0.4,0.5-0.7,0.4-0.8
					C122.3,127.6,121.8,127.5,121.3,128.2z"/>
			</g>
		</g>
		<g>
			<g>
				<path class="st0" d="M102.7,137.3c0,0,0.5-0.9,0-1.3c-0.1,0-0.1,0-0.1,0.1s-0.1,0.6-0.6,1c-0.4,0.4-0.5,0.7-0.4,0.8
					C101.6,138,102.2,138.1,102.7,137.3z"/>
			</g>
			<g>
				<path class="st0" d="M101.1,136.5c0,0-0.5,0.9,0,1.4c0.1,0,0.1,0,0.1-0.1c0-0.1,0.1-0.6,0.6-1c0.5-0.4,0.5-0.7,0.4-0.8
					C102.1,135.8,101.5,135.7,101.1,136.5z"/>
			</g>
		</g>
		<g>
			<g>
				<path class="st0" d="M114.3,128.7c0,0,0.5-0.9,0-1.3c-0.1,0-0.1,0-0.1,0.1c0,0.1-0.1,0.6-0.6,1c-0.4,0.4-0.5,0.7-0.4,0.8
					C113.3,129.4,113.8,129.5,114.3,128.7z"/>
			</g>
			<g>
				<path class="st0" d="M112.7,127.8c0,0-0.5,0.9,0,1.3c0.1,0,0.1,0,0.1-0.1c0-0.1,0.1-0.6,0.6-1c0.4-0.4,0.5-0.7,0.4-0.8
					C113.7,127.1,113.2,127,112.7,127.8z"/>
			</g>
		</g>
		<g>
			<g>
				<path class="st0" d="M105.8,136.1c0,0-1-0.4-1.3,0.3c0,0.1,0,0.1,0.1,0.1s0.6,0,1.1,0.4c0.5,0.4,0.8,0.4,0.9,0.2
					C106.7,137,106.7,136.4,105.8,136.1z"/>
			</g>
			<g>
				<path class="st0" d="M105.3,137.8c0,0,1,0.4,1.3-0.3c0-0.1,0-0.1-0.1-0.1s-0.6,0-1.1-0.4c-0.5-0.4-0.8-0.4-0.9-0.2
					C104.4,136.9,104.4,137.5,105.3,137.8z"/>
			</g>
		</g>
		<g>
			<g>
				<path class="st0" d="M104.7,133.8c0,0,0.4,0.9,1.2,0.7c0.1,0,0-0.1,0-0.2c-0.1-0.1-0.4-0.4-0.5-1s-0.3-0.8-0.5-0.8
					C104.7,132.5,104.3,133,104.7,133.8z"/>
			</g>
			<g>
				<path class="st0" d="M106.2,132.9c0,0-0.5-0.9-1.2-0.7c-0.1,0-0.1,0.1,0,0.2c0.1,0.1,0.4,0.4,0.5,1c0.1,0.6,0.3,0.8,0.5,0.8
					C106.2,134.2,106.6,133.8,106.2,132.9z"/>
			</g>
		</g>
		<g>
			<g>
				<path class="st0" d="M103,152.9c0,0,0.4,0.9,1.2,0.7c0.1,0,0-0.1,0-0.2c-0.1-0.1-0.4-0.4-0.5-1s-0.3-0.8-0.5-0.8
					C103,151.6,102.6,152,103,152.9z"/>
			</g>
			<g>
				<path class="st0" d="M104.6,152c0,0-0.5-0.9-1.2-0.7c-0.1,0-0.1,0.1,0,0.2c0.1,0.1,0.4,0.4,0.5,1c0.1,0.6,0.3,0.8,0.5,0.8
					C104.6,153.2,105,152.8,104.6,152z"/>
			</g>
		</g>
		<g>
			<g>
				<path class="st0" d="M114.3,131.5c0,0-0.6,0.8-0.1,1.3c0.1,0.1,0.1,0,0.1-0.1c0-0.1,0.2-0.6,0.7-0.9s0.6-0.7,0.5-0.8
					C115.4,130.9,114.8,130.7,114.3,131.5z"/>
			</g>
			<g>
				<path class="st0" d="M115.8,132.5c0,0,0.6-0.9,0.1-1.4c-0.1-0.1-0.1,0-0.1,0.1c0,0.1-0.2,0.6-0.7,0.9s-0.6,0.7-0.5,0.8
					C114.7,133.1,115.3,133.2,115.8,132.5z"/>
			</g>
		</g>
		<g>
			<g>
				<path class="st0" d="M109.1,129.8c0,0-1-0.4-1.3,0.3c0,0.1,0,0.1,0.1,0.1s0.6,0,1.1,0.4c0.5,0.4,0.8,0.4,0.9,0.2
					C110,130.7,110,130.1,109.1,129.8z"/>
			</g>
			<g>
				<path class="st0" d="M108.6,131.5c0,0,1,0.4,1.3-0.3c0-0.1,0-0.1-0.1-0.1s-0.6,0-1.1-0.4c-0.5-0.4-0.8-0.4-0.9-0.2
					C107.7,130.6,107.7,131.2,108.6,131.5z"/>
			</g>
		</g>
		<g>
			<g>
				<path class="st0" d="M111.7,135.3c0,0-1-0.4-1.3,0.3c0,0.1,0,0.1,0.1,0.1s0.6,0,1.1,0.4c0.5,0.4,0.8,0.4,0.9,0.2
					C112.5,136.2,112.5,135.6,111.7,135.3z"/>
			</g>
			<g>
				<path class="st0" d="M111.1,137c0,0,1,0.4,1.3-0.3c0-0.1,0-0.1-0.1-0.1s-0.6,0-1.1-0.4c-0.5-0.4-0.8-0.4-0.9-0.2
					C110.2,136.1,110.3,136.7,111.1,137z"/>
			</g>
		</g>
		<g>
			<g>
				<path class="st0" d="M111.2,138.5c0,0-1-0.4-1.3,0.3c0,0.1,0,0.1,0.1,0.1s0.6,0,1.1,0.4c0.5,0.4,0.8,0.4,0.9,0.2
					C112,139.4,112,138.8,111.2,138.5z"/>
			</g>
			<g>
				<path class="st0" d="M110.6,140.2c0,0,1,0.4,1.3-0.3c0-0.1,0-0.1-0.1-0.1s-0.6,0-1.1-0.4c-0.5-0.4-0.8-0.4-0.9-0.2
					C109.8,139.3,109.8,139.9,110.6,140.2z"/>
			</g>
		</g>
		<g>
			<g>
				<path class="st0" d="M115.2,136.5c0,0-0.5-0.9-1.2-0.7c-0.1,0-0.1,0.1,0,0.2c0.1,0.1,0.4,0.4,0.5,1s0.3,0.8,0.5,0.8
					C115.3,137.8,115.7,137.3,115.2,136.5z"/>
			</g>
			<g>
				<path class="st0" d="M113.7,137.4c0,0,0.5,0.9,1.2,0.7c0.1,0,0.1-0.1,0-0.2c-0.1-0.1-0.4-0.4-0.5-1s-0.3-0.8-0.5-0.8
					C113.7,136.1,113.3,136.6,113.7,137.4z"/>
			</g>
		</g>
		<g>
			<g>
				<path class="st0" d="M107.8,135c0,0,0.5,0.9,1.2,0.6c0.1,0,0.1-0.1,0-0.1c-0.1-0.1-0.4-0.4-0.6-1s-0.4-0.8-0.5-0.8
					C107.8,133.7,107.4,134.2,107.8,135z"/>
			</g>
			<g>
				<path class="st0" d="M109.4,134c0,0-0.5-0.9-1.2-0.7c-0.1,0-0.1,0.1,0,0.2c0.1,0.1,0.4,0.4,0.6,1s0.4,0.8,0.5,0.8
					C109.4,135.3,109.8,134.8,109.4,134z"/>
			</g>
		</g>
		<g>
			<g>
				<path class="st0" d="M82.4,164c0,0-0.8-0.7-1.3-0.2c-0.1,0.1,0,0.1,0.1,0.1c0.1,0,0.5,0.2,0.9,0.8c0.3,0.5,0.6,0.6,0.8,0.5
					C82.9,165.2,83.1,164.6,82.4,164z"/>
			</g>
			<g>
				<path class="st0" d="M81.3,165.4c0,0,0.8,0.7,1.3,0.2c0.1-0.1,0-0.1-0.1-0.1s-0.5-0.2-0.9-0.8c-0.3-0.5-0.6-0.6-0.8-0.6
					C80.8,164.3,80.6,164.8,81.3,165.4z"/>
			</g>
		</g>
		<g>
			<g>
				<path class="st0" d="M77.4,159.5c0,0,0.5-0.9,0-1.3c-0.1,0-0.1,0-0.1,0.1c0,0.1-0.1,0.6-0.6,1c-0.5,0.4-0.5,0.7-0.4,0.8
					C76.4,160.2,77,160.3,77.4,159.5z"/>
			</g>
			<g>
				<path class="st0" d="M75.8,158.7c0,0-0.5,0.9,0,1.4c0.1,0,0.1,0,0.1-0.1c0-0.1,0.1-0.6,0.6-1c0.4-0.4,0.5-0.7,0.4-0.8
					C76.9,158,76.3,157.9,75.8,158.7z"/>
			</g>
		</g>
		<g>
			<g>
				<path class="st0" d="M81.4,159.5c0,0-1-0.4-1.3,0.3c0,0.1,0,0.1,0.1,0.1s0.6,0,1.1,0.4c0.5,0.4,0.8,0.4,0.9,0.2
					C82.3,160.4,82.3,159.8,81.4,159.5z"/>
			</g>
			<g>
				<path class="st0" d="M80.9,161.2c0,0,1,0.4,1.3-0.3c0-0.1,0-0.1-0.1-0.1s-0.6,0-1.1-0.4c-0.5-0.4-0.8-0.4-0.9-0.2
					C80,160.3,80,160.9,80.9,161.2z"/>
			</g>
		</g>
		<g>
			<g>
				<path class="st0" d="M79.3,157.3c0,0,0.4,0.9,1.2,0.7c0.1,0,0-0.1,0-0.2c-0.1-0.1-0.4-0.4-0.5-1s-0.3-0.8-0.5-0.8
					C79.4,156,79,156.5,79.3,157.3z"/>
			</g>
			<g>
				<path class="st0" d="M80.9,156.4c0,0-0.4-0.9-1.2-0.7c-0.1,0,0,0.1,0,0.2c0.1,0.1,0.4,0.4,0.5,1s0.3,0.8,0.5,0.8
					C80.9,157.7,81.3,157.3,80.9,156.4z"/>
			</g>
		</g>
		<g>
			<g>
				<path class="st0" d="M80,153.7c0,0,0.4,0.9,1.2,0.7c0.1,0,0-0.1,0-0.2c-0.1-0.1-0.4-0.4-0.5-1s-0.3-0.8-0.5-0.8
					C80,152.4,79.6,152.9,80,153.7z"/>
			</g>
			<g>
				<path class="st0" d="M81.6,152.8c0,0-0.5-0.9-1.2-0.7c-0.1,0-0.1,0.1,0,0.2c0.1,0.1,0.4,0.4,0.5,1c0.1,0.6,0.3,0.8,0.5,0.8
					C81.6,154.1,82,153.7,81.6,152.8z"/>
			</g>
		</g>
		<g>
			<g>
				<path class="st0" d="M83.5,154.9c0,0-1-0.4-1.3,0.3c0,0.1,0,0.1,0.1,0.1s0.6,0,1.1,0.4c0.5,0.4,0.8,0.4,0.9,0.2
					C84.3,155.9,84.3,155.3,83.5,154.9z"/>
			</g>
			<g>
				<path class="st0" d="M82.9,156.7c0,0,1,0.4,1.3-0.3c0-0.1,0-0.1-0.1-0.1s-0.6,0-1.1-0.4c-0.5-0.4-0.8-0.4-0.9-0.2
					C82.1,155.8,82.1,156.3,82.9,156.7z"/>
			</g>
		</g>
		<g>
			<g>
				<path class="st0" d="M82.5,158.5c0,0,0.5,0.9,1.2,0.6c0.1,0,0.1-0.1,0-0.1c-0.1-0.1-0.4-0.4-0.6-1c-0.1-0.6-0.4-0.8-0.5-0.8
					C82.4,157.2,82.1,157.7,82.5,158.5z"/>
			</g>
			<g>
				<path class="st0" d="M84,157.5c0,0-0.5-0.9-1.2-0.7c-0.1,0-0.1,0.1,0,0.2c0.1,0.1,0.4,0.4,0.6,1c0.1,0.6,0.4,0.8,0.5,0.8
					C84.1,158.8,84.5,158.3,84,157.5z"/>
			</g>
		</g>
		<g>
			<g>
				<path class="st0" d="M111.5,131c0,0-0.8,0.6-0.5,1.3c0,0.1,0.1,0,0.2,0c0-0.1,0.3-0.5,0.9-0.7c0.6-0.2,0.7-0.5,0.7-0.6
					C112.7,130.7,112.2,130.4,111.5,131z"/>
			</g>
			<g>
				<path class="st0" d="M112.6,132.4c0,0,0.8-0.6,0.5-1.3c0-0.1-0.1,0-0.2,0c0,0.1-0.3,0.5-0.9,0.7c-0.6,0.2-0.7,0.5-0.7,0.6
					C111.4,132.6,111.9,132.9,112.6,132.4z"/>
			</g>
		</g>
		<g>
			<g>
				<path class="st0" d="M84.5,160.4c0,0-1-0.4-1.3,0.3c0,0.1,0,0.1,0.1,0.1s0.6,0,1.1,0.4c0.5,0.4,0.8,0.4,0.9,0.2
					C85.4,161.3,85.3,160.7,84.5,160.4z"/>
			</g>
			<g>
				<path class="st0" d="M83.9,162.1c0,0,1,0.4,1.3-0.3c0-0.1,0-0.1-0.1-0.1s-0.6,0-1.1-0.4c-0.5-0.4-0.8-0.4-0.9-0.2
					C83.1,161.2,83.1,161.8,83.9,162.1z"/>
			</g>
		</g>
		<g>
			<g>
				<path class="st0" d="M86.3,161c0,0-0.8,0.6-0.5,1.3c0,0.1,0.1,0,0.2,0c0-0.1,0.3-0.5,0.9-0.7c0.6-0.2,0.7-0.5,0.7-0.6
					C87.5,160.7,87,160.4,86.3,161z"/>
			</g>
			<g>
				<path class="st0" d="M87.4,162.4c0,0,0.8-0.6,0.5-1.3c0-0.1-0.1,0-0.2,0c0,0.1-0.3,0.5-0.9,0.7c-0.6,0.2-0.7,0.5-0.7,0.6
					C86.2,162.6,86.7,162.9,87.4,162.4z"/>
			</g>
		</g>
		<g>
			<g>
				<path class="st0" d="M81.7,166.2c0,0-0.8-0.7-1.3-0.2c-0.1,0.1,0,0.1,0.1,0.1s0.5,0.2,0.9,0.8c0.3,0.5,0.6,0.6,0.8,0.6
					C82.2,167.3,82.4,166.8,81.7,166.2z"/>
			</g>
			<g>
				<path class="st0" d="M80.6,167.6c0,0,0.8,0.7,1.3,0.2c0.1-0.1,0-0.1-0.1-0.1s-0.5-0.2-0.9-0.8c-0.3-0.5-0.6-0.6-0.8-0.6
					C80.1,166.4,79.9,167,80.6,167.6z"/>
			</g>
		</g>
		<g>
			<g>
				<path class="st0" d="M84.6,164.9c0,0,1,0,1.1-0.8c0-0.1-0.1-0.1-0.2-0.1c-0.1,0-0.6,0.2-1.2,0.1c-0.6-0.2-0.9,0-0.9,0.1
					C83.4,164.4,83.6,164.9,84.6,164.9z"/>
			</g>
			<g>
				<path class="st0" d="M84.4,163.1c0,0-1,0-1.1,0.8c0,0.1,0.1,0.1,0.2,0.1c0.1,0,0.5-0.2,1.2-0.1c0.6,0.1,0.9,0,0.9-0.1
					C85.5,163.6,85.3,163,84.4,163.1z"/>
			</g>
		</g>
		<g>
			<g>
				<path class="st0" d="M85.9,169.8c0,0-1-0.4-1.3,0.3c0,0.1,0,0.1,0.1,0.1s0.6,0,1.1,0.4c0.5,0.4,0.8,0.4,0.9,0.2
					C86.8,170.7,86.7,170.1,85.9,169.8z"/>
			</g>
			<g>
				<path class="st0" d="M85.3,171.5c0,0,1,0.4,1.3-0.3c0-0.1,0-0.1-0.1-0.1s-0.6,0-1.1-0.4c-0.5-0.4-0.8-0.4-0.9-0.2
					C84.5,170.6,84.5,171.2,85.3,171.5z"/>
			</g>
		</g>
		<g>
			<g>
				<path class="st0" d="M83.4,168.5c0,0,0.5,0.9,1.2,0.7c0.1,0,0.1-0.1,0-0.2c-0.1-0.1-0.4-0.4-0.5-1c-0.1-0.6-0.3-0.8-0.5-0.8
					C83.4,167.2,83,167.7,83.4,168.5z"/>
			</g>
			<g>
				<path class="st0" d="M85,167.6c0,0-0.5-0.9-1.2-0.7c-0.1,0-0.1,0.1,0,0.2c0.1,0.1,0.4,0.4,0.5,1c0.1,0.6,0.3,0.8,0.5,0.8
					C85,168.9,85.4,168.4,85,167.6z"/>
			</g>
		</g>
		<g>
			<g>
				<path class="st0" d="M100.6,161.8c0,0-0.6,0.8-0.1,1.3c0.1,0.1,0.1,0,0.1-0.1c0-0.1,0.2-0.6,0.7-0.9c0.5-0.4,0.6-0.7,0.5-0.8
					C101.7,161.2,101.1,161.1,100.6,161.8z"/>
			</g>
			<g>
				<path class="st0" d="M102.1,162.8c0,0,0.6-0.9,0.1-1.4c-0.1-0.1-0.1,0-0.1,0.1c0,0.1-0.2,0.6-0.7,0.9s-0.6,0.7-0.5,0.8
					C101,163.4,101.6,163.5,102.1,162.8z"/>
			</g>
		</g>
		<g>
			<g>
				<path class="st0" d="M87.5,165.2c0,0-1-0.4-1.3,0.3c0,0.1,0,0.1,0.1,0.1s0.6,0,1.1,0.4c0.5,0.4,0.8,0.4,0.9,0.2
					C88.4,166.1,88.4,165.5,87.5,165.2z"/>
			</g>
			<g>
				<path class="st0" d="M87,166.9c0,0,1,0.4,1.3-0.3c0-0.1,0-0.1-0.1-0.1s-0.6,0-1.1-0.4c-0.5-0.4-0.8-0.4-0.9-0.2
					C86.1,166,86.1,166.6,87,166.9z"/>
			</g>
		</g>
		<g>
			<g>
				<path class="st0" d="M90.4,168.3c0,0-1-0.4-1.3,0.3c0,0.1,0,0.1,0.1,0.1s0.6,0,1.1,0.4c0.5,0.4,0.8,0.4,0.9,0.2
					C91.3,169.2,91.2,168.7,90.4,168.3z"/>
			</g>
			<g>
				<path class="st0" d="M89.8,170.1c0,0,1,0.4,1.3-0.3c0-0.1,0-0.1-0.1-0.1s-0.6,0-1.1-0.4c-0.5-0.4-0.8-0.4-0.9-0.2
					C89,169.2,89,169.7,89.8,170.1z"/>
			</g>
		</g>
		<g>
			<g>
				<path class="st0" d="M89.3,171.7c0,0-1-0.4-1.3,0.3c0,0.1,0,0.1,0.1,0.1s0.6,0,1.1,0.4c0.5,0.4,0.8,0.4,0.9,0.2
					C90.1,172.6,90.1,172,89.3,171.7z"/>
			</g>
			<g>
				<path class="st0" d="M88.7,173.4c0,0,1,0.4,1.3-0.3c0-0.1,0-0.1-0.1-0.1s-0.6,0-1.1-0.4c-0.5-0.4-0.8-0.4-0.9-0.2
					C87.8,172.5,87.9,173.1,88.7,173.4z"/>
			</g>
		</g>
		<g>
			<g>
				<path class="st0" d="M93.7,169c0,0-0.5-0.9-1.2-0.7c-0.1,0,0,0.1,0,0.2c0.1,0.1,0.4,0.4,0.5,1c0.1,0.6,0.3,0.8,0.5,0.8
					C93.7,170.3,94.1,169.9,93.7,169z"/>
			</g>
			<g>
				<path class="st0" d="M92.1,169.9c0,0,0.5,0.9,1.2,0.7c0.1,0,0.1-0.1,0-0.2c-0.1-0.1-0.4-0.4-0.5-1s-0.3-0.8-0.5-0.8
					C92.1,168.7,91.7,169.1,92.1,169.9z"/>
			</g>
		</g>
		<g>
			<g>
				<path class="st0" d="M86.6,169.7c0,0,0.5,0.9,1.2,0.6c0.1,0,0.1-0.1,0-0.1c-0.1-0.1-0.4-0.4-0.6-1c-0.1-0.6-0.4-0.8-0.5-0.8
					C86.5,168.4,86.1,168.9,86.6,169.7z"/>
			</g>
			<g>
				<path class="st0" d="M88.1,168.7c0,0-0.5-0.9-1.2-0.6c-0.1,0,0,0.1,0,0.2c0.1,0.1,0.4,0.4,0.6,1s0.4,0.8,0.5,0.8
					C88.2,170,88.5,169.5,88.1,168.7z"/>
			</g>
		</g>
		<g>
			<g>
				<path class="st0" d="M90.2,165.7c0,0-0.8,0.6-0.5,1.3c0,0.1,0.1,0,0.2,0c0-0.1,0.3-0.5,0.9-0.7c0.6-0.2,0.7-0.5,0.7-0.6
					C91.4,165.4,91,165.1,90.2,165.7z"/>
			</g>
			<g>
				<path class="st0" d="M91.4,167.1c0,0,0.8-0.6,0.5-1.3c0-0.1-0.1,0-0.2,0c0,0.1-0.3,0.5-0.9,0.7c-0.6,0.2-0.7,0.5-0.7,0.6
					C90.1,167.3,90.6,167.6,91.4,167.1z"/>
			</g>
		</g>
		<g>
			<g>
				<path class="st0" d="M116.2,133.2c0,0-0.8,0.6-0.5,1.3c0,0.1,0.1,0,0.2,0c0-0.1,0.3-0.5,0.9-0.7c0.6-0.2,0.7-0.5,0.7-0.6
					C117.4,133,116.9,132.7,116.2,133.2z"/>
			</g>
			<g>
				<path class="st0" d="M117.3,134.6c0,0,0.8-0.6,0.5-1.3c0-0.1-0.1,0-0.2,0c0,0.1-0.3,0.5-0.9,0.7c-0.6,0.2-0.7,0.5-0.7,0.6
					C116.1,134.9,116.6,135.2,117.3,134.6z"/>
			</g>
		</g>
		<g>
			<g>
				<path class="st0" d="M96.9,169.8c0,0,0.2-1-0.5-1.3c-0.1,0-0.1,0.1-0.1,0.1c0,0.1,0.1,0.6-0.2,1.1c-0.3,0.6-0.2,0.8-0.1,0.9
					C96.2,170.8,96.8,170.7,96.9,169.8z"/>
			</g>
			<g>
				<path class="st0" d="M95.2,169.5c0,0-0.2,1,0.5,1.3c0.1,0,0.1-0.1,0.1-0.1c0-0.1,0-0.6,0.2-1.1c0.3-0.6,0.2-0.8,0.1-0.9
					C95.9,168.5,95.4,168.6,95.2,169.5z"/>
			</g>
		</g>
		<g>
			<g>
				<path class="st0" d="M93.9,173.1c0,0,0.2-1-0.5-1.3c-0.1,0-0.1,0.1-0.1,0.1c0,0.1,0,0.6-0.2,1.1c-0.3,0.6-0.2,0.8-0.1,0.9
					S93.7,174,93.9,173.1z"/>
			</g>
			<g>
				<path class="st0" d="M92.1,172.8c0,0-0.2,1,0.5,1.3c0.1,0,0.1-0.1,0.1-0.1c0-0.1-0.1-0.6,0.2-1.1c0.3-0.6,0.2-0.8,0.1-0.9
					S92.3,171.9,92.1,172.8z"/>
			</g>
		</g>
		<g>
			<g>
				<path class="st0" d="M77.6,160.8c0,0-0.6,0.8-0.1,1.3c0.1,0.1,0.1,0,0.1-0.1c0-0.1,0.2-0.6,0.7-0.9s0.6-0.7,0.5-0.8
					C78.7,160.2,78.2,160,77.6,160.8z"/>
			</g>
			<g>
				<path class="st0" d="M79.2,161.7c0,0,0.6-0.8,0.1-1.3c-0.1-0.1-0.1,0-0.1,0.1c0,0.1-0.2,0.6-0.7,0.9c-0.5,0.4-0.6,0.7-0.5,0.8
					C78.1,162.3,78.6,162.5,79.2,161.7z"/>
			</g>
		</g>
		<g>
			<g>
				<path class="st0" d="M78.2,164c0,0-0.5-0.9-1.2-0.7c-0.1,0-0.1,0.1,0,0.2c0.1,0.1,0.4,0.4,0.5,1c0.1,0.6,0.3,0.8,0.5,0.8
					C78.2,165.3,78.6,164.9,78.2,164z"/>
			</g>
			<g>
				<path class="st0" d="M76.7,164.9c0,0,0.5,0.9,1.2,0.7c0.1,0,0-0.1,0-0.2c-0.1-0.1-0.4-0.4-0.5-1c-0.1-0.6-0.3-0.8-0.5-0.8
					C76.6,163.7,76.2,164.1,76.7,164.9z"/>
			</g>
		</g>
		<g>
			<g>
				<path class="st0" d="M79.4,162.9c0,0-0.8,0.6-0.5,1.3c0,0.1,0.1,0,0.2,0c0-0.1,0.3-0.5,0.9-0.7c0.6-0.2,0.7-0.5,0.7-0.6
					C80.7,162.7,80.2,162.4,79.4,162.9z"/>
			</g>
			<g>
				<path class="st0" d="M80.6,164.3c0,0,0.8-0.6,0.5-1.3c0-0.1-0.1,0-0.2,0c0,0.1-0.3,0.5-0.9,0.7c-0.6,0.2-0.7,0.5-0.7,0.6
					C79.3,164.6,79.8,164.9,80.6,164.3z"/>
			</g>
		</g>
		<g>
			<g>
				<path class="st0" d="M122.7,130.2c0,0-0.8,0.6-0.5,1.3c0,0.1,0.1,0,0.2,0c0-0.1,0.3-0.5,0.9-0.7c0.6-0.2,0.7-0.5,0.7-0.6
					C124,130,123.5,129.7,122.7,130.2z"/>
			</g>
			<g>
				<path class="st0" d="M123.9,131.6c0,0,0.8-0.6,0.5-1.3c0-0.1-0.1,0-0.2,0c0,0.1-0.3,0.5-0.9,0.7c-0.6,0.2-0.7,0.5-0.7,0.6
					C122.6,131.9,123.1,132.2,123.9,131.6z"/>
			</g>
		</g>
		<g>
			<g>
				<path class="st0" d="M92.8,144.6c0,0,0.2-1-0.6-1.2c-0.1,0-0.1,0.1-0.1,0.1c0,0.1,0.1,0.6-0.2,1.1c-0.3,0.6-0.2,0.8,0,0.9
					S92.7,145.5,92.8,144.6z"/>
			</g>
			<g>
				<path class="st0" d="M91,144.4c0,0-0.2,1,0.6,1.2c0.1,0,0.1-0.1,0.1-0.1c0-0.1-0.1-0.6,0.2-1.1c0.3-0.6,0.2-0.9,0-0.9
					C91.7,143.4,91.2,143.5,91,144.4z"/>
			</g>
		</g>
		<g>
			<g>
				<path class="st0" d="M98.5,166.6c0,0,0.2-1-0.5-1.2c-0.1,0-0.1,0.1-0.1,0.1c0,0.1,0.1,0.6-0.2,1.1c-0.3,0.6-0.2,0.9-0.1,0.9
					C97.8,167.6,98.3,167.5,98.5,166.6z"/>
			</g>
			<g>
				<path class="st0" d="M96.7,166.4c0,0-0.2,1,0.6,1.2c0.1,0,0.1-0.1,0.1-0.1c0-0.1-0.1-0.6,0.2-1.1c0.3-0.6,0.2-0.9,0-0.9
					C97.4,165.4,96.8,165.5,96.7,166.4z"/>
			</g>
		</g>
		<g>
			<g>
				<path class="st0" d="M93.9,142c0,0-0.8,0.6-0.5,1.3c0,0.1,0.1,0,0.2,0c0-0.1,0.3-0.5,0.9-0.7s0.7-0.5,0.7-0.6
					C95.2,141.8,94.7,141.5,93.9,142z"/>
			</g>
			<g>
				<path class="st0" d="M95.1,143.4c0,0,0.8-0.6,0.5-1.3c0-0.1-0.1,0-0.2,0c0,0.1-0.3,0.5-0.9,0.7c-0.6,0.2-0.7,0.5-0.7,0.6
					C93.9,143.7,94.4,144,95.1,143.4z"/>
			</g>
		</g>
		<g>
			<g>
				<path class="st0" d="M91.9,158.1c0,0-0.8,0.6-0.5,1.3c0,0.1,0.1,0,0.2,0c0-0.1,0.3-0.5,0.9-0.7c0.6-0.2,0.7-0.5,0.7-0.6
					C93.1,157.9,92.6,157.6,91.9,158.1z"/>
			</g>
			<g>
				<path class="st0" d="M93.1,159.5c0,0,0.8-0.6,0.5-1.3c0-0.1-0.1,0-0.2,0c0,0.1-0.3,0.5-0.9,0.7c-0.6,0.2-0.7,0.5-0.7,0.6
					C91.8,159.8,92.3,160.1,93.1,159.5z"/>
			</g>
		</g>
		<g>
			<g>
				<path class="st0" d="M100.4,154.1c0,0-1-0.4-1.3,0.2c0,0.1,0,0.1,0.1,0.1s0.6,0.1,1.1,0.4c0.5,0.4,0.8,0.4,0.9,0.3
					C101.3,155.1,101.3,154.5,100.4,154.1z"/>
			</g>
			<g>
				<path class="st0" d="M99.8,155.8c0,0,1,0.4,1.3-0.2c0-0.1,0-0.1-0.1-0.1s-0.6-0.1-1.1-0.4c-0.5-0.4-0.8-0.4-0.9-0.3
					C99,154.9,99,155.5,99.8,155.8z"/>
			</g>
		</g>
		<g>
			<g>
				<path class="st0" d="M99.3,147.1c0,0,0.2-1-0.5-1.2c-0.1,0-0.1,0.1-0.1,0.1c0,0.1,0.1,0.6-0.2,1.1c-0.3,0.6-0.2,0.9-0.1,0.9
					C98.6,148.2,99.2,148,99.3,147.1z"/>
			</g>
			<g>
				<path class="st0" d="M97.5,147c0,0-0.2,1,0.5,1.2c0.1,0,0.1-0.1,0.1-0.1c0-0.1-0.1-0.6,0.2-1.1c0.3-0.6,0.2-0.9,0.1-0.9
					S97.7,146.1,97.5,147z"/>
			</g>
		</g>
		<g>
			<g>
				<path class="st0" d="M91.8,155.8c0,0-0.8,0.6-0.5,1.3c0,0.1,0.1,0,0.2,0c0-0.1,0.3-0.5,0.9-0.7c0.6-0.2,0.7-0.5,0.7-0.6
					C93,155.5,92.5,155.2,91.8,155.8z"/>
			</g>
			<g>
				<path class="st0" d="M93,157.2c0,0,0.8-0.6,0.5-1.3c0-0.1-0.1,0-0.2,0c0,0.1-0.3,0.5-0.9,0.7c-0.6,0.2-0.7,0.5-0.7,0.6
					C91.8,157.4,92.3,157.7,93,157.2z"/>
			</g>
		</g>
		<g>
			<g>
				<path class="st0" d="M95.7,159.6c0,0,0.2-1-0.5-1.2c-0.1,0-0.1,0.1-0.1,0.1c0,0.1,0.1,0.6-0.2,1.1c-0.3,0.6-0.2,0.9-0.1,0.9
					C95,160.6,95.5,160.5,95.7,159.6z"/>
			</g>
			<g>
				<path class="st0" d="M93.9,159.4c0,0-0.2,1,0.6,1.2c0.1,0,0.1-0.1,0.1-0.1c0-0.1-0.1-0.6,0.2-1.1c0.3-0.6,0.2-0.8,0-0.9
					C94.6,158.4,94,158.5,93.9,159.4z"/>
			</g>
		</g>
		<g>
			<g>
				<path class="st0" d="M95.8,163.2c0,0,0.2-1-0.6-1.2c-0.1,0-0.1,0.1-0.1,0.1c0,0.1,0.1,0.6-0.2,1.1c-0.3,0.6-0.2,0.9,0,0.9
					C95.1,164.2,95.7,164.1,95.8,163.2z"/>
			</g>
			<g>
				<path class="st0" d="M94,163c0,0-0.2,1,0.6,1.2c0.1,0,0.1-0.1,0.1-0.1c0-0.1-0.1-0.6,0.2-1.1c0.3-0.6,0.2-0.8,0-0.9
					S94.2,162.1,94,163z"/>
			</g>
		</g>
		<g>
			<g>
				<path class="st0" d="M99.1,162.7c0,0,0.2-1-0.5-1.2c-0.1,0-0.1,0.1-0.1,0.1c0,0.1,0.1,0.6-0.2,1.1c-0.3,0.6-0.2,0.9-0.1,0.9
					C98.4,163.7,99,163.6,99.1,162.7z"/>
			</g>
			<g>
				<path class="st0" d="M97.3,162.5c0,0-0.2,1,0.5,1.2c0.1,0,0.1-0.1,0.1-0.1c0-0.1-0.1-0.6,0.2-1.1c0.3-0.6,0.2-0.8,0.1-0.9
					S97.5,161.6,97.3,162.5z"/>
			</g>
		</g>
		<g>
			<g>
				<path class="st0" d="M95.2,150.6c0,0,0.2-1-0.6-1.2c-0.1,0-0.1,0.1-0.1,0.1c0,0.1,0.1,0.6-0.2,1.1c-0.3,0.6-0.2,0.9,0,0.9
					S95.1,151.6,95.2,150.6z"/>
			</g>
			<g>
				<path class="st0" d="M93.4,150.5c0,0-0.2,1,0.6,1.2c0.1,0,0.1-0.1,0.1-0.1c0-0.1-0.1-0.6,0.2-1.1c0.3-0.6,0.2-0.9,0-0.9
					S93.6,149.6,93.4,150.5z"/>
			</g>
		</g>
		<g>
			<g>
				<path class="st0" d="M97.3,157.3c0,0,0.8-0.6,0.4-1.3c0-0.1-0.1,0-0.2,0c0,0.1-0.3,0.5-0.9,0.7c-0.6,0.2-0.7,0.5-0.7,0.6
					C96,157.6,96.5,157.9,97.3,157.3z"/>
			</g>
			<g>
				<path class="st0" d="M96.1,156c0,0-0.8,0.6-0.5,1.3c0,0.1,0.1,0,0.2,0c0-0.1,0.3-0.5,0.9-0.7c0.6-0.2,0.7-0.5,0.7-0.6
					C97.3,155.7,96.8,155.4,96.1,156z"/>
			</g>
		</g>
		<g>
			<g>
				<path class="st0" d="M95.2,154.1c0,0-0.4-1-1.1-0.8c-0.1,0,0,0.1,0,0.2c0.1,0.1,0.4,0.4,0.5,1.1c0.1,0.6,0.3,0.8,0.5,0.8
					C95.2,155.3,95.6,154.9,95.2,154.1z"/>
			</g>
			<g>
				<path class="st0" d="M93.6,154.9c0,0,0.4,1,1.1,0.8c0.1,0,0-0.1,0-0.2c-0.1-0.1-0.4-0.4-0.5-1.1c-0.1-0.6-0.3-0.8-0.5-0.8
					C93.6,153.7,93.2,154.1,93.6,154.9z"/>
			</g>
		</g>
		<g>
			<g>
				<path class="st0" d="M94.2,146.5c0,0-0.8,0.7-0.4,1.3c0.1,0.1,0.1,0,0.2-0.1c0-0.1,0.3-0.5,0.9-0.8c0.6-0.3,0.7-0.5,0.6-0.7
					C95.5,146.1,94.9,145.9,94.2,146.5z"/>
			</g>
			<g>
				<path class="st0" d="M95.5,147.7c0,0,0.8-0.7,0.4-1.3c-0.1-0.1-0.1,0-0.2,0.1c0,0.1-0.3,0.5-0.9,0.8c-0.6,0.3-0.7,0.5-0.6,0.7
					C94.3,148.1,94.8,148.3,95.5,147.7z"/>
			</g>
		</g>
		<g>
			<g>
				<path class="st0" d="M98.5,150.4c0,0-0.8-0.7-1.3-0.2c-0.1,0.1,0,0.1,0.1,0.1c0.1,0,0.5,0.2,0.9,0.8s0.6,0.6,0.8,0.6
					C99,151.6,99.2,151.1,98.5,150.4z"/>
			</g>
			<g>
				<path class="st0" d="M97.4,151.9c0,0,0.8,0.7,1.3,0.2c0.1-0.1,0-0.1-0.1-0.1c-0.1,0-0.5-0.2-0.9-0.8s-0.6-0.6-0.8-0.6
					S96.7,151.3,97.4,151.9z"/>
			</g>
		</g>
		<g>
			<g>
				<path class="st0" d="M90,162.9c0,0-0.8-0.7-1.3-0.2c-0.1,0.1,0,0.1,0.1,0.1c0.1,0,0.5,0.2,0.9,0.8s0.6,0.6,0.8,0.6
					C90.4,164.1,90.6,163.5,90,162.9z"/>
			</g>
			<g>
				<path class="st0" d="M88.8,164.3c0,0,0.8,0.7,1.3,0.2c0.1-0.1,0-0.1-0.1-0.1c-0.1,0-0.5-0.2-0.9-0.8s-0.6-0.6-0.8-0.6
					C88.3,163.2,88.1,163.7,88.8,164.3z"/>
			</g>
		</g>
		<g>
			<g>
				<path class="st0" d="M98.7,158.7c0,0-0.8-0.7-1.3-0.2c-0.1,0.1,0,0.1,0.1,0.1c0.1,0,0.5,0.2,0.9,0.8s0.6,0.6,0.8,0.6
					C99.2,159.8,99.4,159.3,98.7,158.7z"/>
			</g>
			<g>
				<path class="st0" d="M97.6,160.1c0,0,0.8,0.7,1.3,0.2c0.1-0.1,0-0.1-0.1-0.1c-0.1,0-0.5-0.2-0.9-0.8s-0.6-0.6-0.8-0.6
					C97.1,158.9,96.9,159.5,97.6,160.1z"/>
			</g>
		</g>
		<g>
			<g>
				<path class="st0" d="M88.7,159c0,0-0.5,0.9,0,1.3c0.1,0.1,0.1,0,0.1-0.1s0.1-0.6,0.6-1s0.5-0.7,0.4-0.8
					C89.8,158.3,89.2,158.2,88.7,159z"/>
			</g>
			<g>
				<path class="st0" d="M90.3,159.9c0,0,0.5-0.9,0-1.4c-0.1-0.1-0.1,0-0.1,0.1c0,0.1-0.1,0.6-0.6,1c-0.5,0.4-0.5,0.7-0.4,0.8
					C89.3,160.6,89.8,160.7,90.3,159.9z"/>
			</g>
		</g>
		<g>
			<g>
				<path class="st0" d="M86.9,160.3c0,0,1-0.3,0.9-1c0-0.1-0.1-0.1-0.2,0c-0.1,0.1-0.5,0.3-1.1,0.3c-0.6,0-0.9,0.2-0.9,0.3
					C85.6,160.1,86,160.5,86.9,160.3z"/>
			</g>
			<g>
				<path class="st0" d="M86.3,158.6c0,0-1,0.3-0.9,1c0,0.1,0.1,0.1,0.2,0c0.1-0.1,0.5-0.3,1.1-0.3c0.6,0,0.9-0.2,0.9-0.3
					C87.6,158.8,87.2,158.3,86.3,158.6z"/>
			</g>
		</g>
		<g>
			<g>
				<path class="st0" d="M91.3,162.6c0,0,0.7,0.8,1.3,0.3c0.1-0.1,0-0.1-0.1-0.2c-0.1,0-0.5-0.3-0.8-0.8s-0.6-0.7-0.7-0.6
					C90.9,161.4,90.7,161.9,91.3,162.6z"/>
			</g>
			<g>
				<path class="st0" d="M92.6,161.2c0,0-0.7-0.8-1.3-0.3c-0.1,0.1,0,0.1,0.1,0.1c0.1,0,0.5,0.3,0.8,0.8s0.6,0.7,0.7,0.6
					S93.2,161.9,92.6,161.2z"/>
			</g>
		</g>
		<g>
			<g>
				<path class="st0" d="M98.4,170.8c0,0,0.7,0.8,1.3,0.3c0.1-0.1,0-0.1-0.1-0.1c-0.1,0-0.5-0.3-0.8-0.8s-0.6-0.7-0.7-0.6
					S97.7,170.2,98.4,170.8z"/>
			</g>
			<g>
				<path class="st0" d="M99.6,169.5c0,0-0.7-0.8-1.3-0.3c-0.1,0.1,0,0.1,0.1,0.1c0.1,0,0.5,0.3,0.8,0.8s0.6,0.7,0.7,0.6
					C100,170.7,100.2,170.2,99.6,169.5z"/>
			</g>
		</g>
		<g>
			<g>
				<path class="st0" d="M85.8,153.4c0,0-0.6,0.9,0,1.3c0.1,0.1,0.1,0,0.1-0.1c0-0.1,0.1-0.6,0.6-1s0.5-0.7,0.4-0.8
					C86.9,152.7,86.3,152.6,85.8,153.4z"/>
			</g>
			<g>
				<path class="st0" d="M87.4,154.2c0,0,0.6-0.9,0-1.4c-0.1-0.1-0.1,0-0.1,0.1c0,0.1-0.1,0.6-0.6,1c-0.5,0.4-0.5,0.7-0.4,0.8
					C86.4,154.9,87,155,87.4,154.2z"/>
			</g>
		</g>
		<g>
			<g>
				<path class="st0" d="M89,153.1c0,0,0.3,1,1,0.9c0.1,0,0.1-0.1,0-0.2c0-0.1-0.3-0.5-0.3-1.1c0-0.6-0.2-0.9-0.3-0.9
					C89.2,151.9,88.7,152.3,89,153.1z"/>
			</g>
			<g>
				<path class="st0" d="M90.7,152.5c0,0-0.3-1-1-0.9c-0.1,0-0.1,0.1,0,0.2c0.1,0.1,0.3,0.5,0.3,1.1c0,0.6,0.2,0.9,0.3,0.9
					C90.5,153.8,90.9,153.4,90.7,152.5z"/>
			</g>
		</g>
		<g>
			<g>
				<path class="st0" d="M89.1,148.6c0,0-0.6,0.9,0,1.4c0.1,0.1,0.1,0,0.1-0.1c0-0.1,0.1-0.6,0.6-1c0.5-0.4,0.5-0.7,0.4-0.8
					C90.2,147.9,89.6,147.8,89.1,148.6z"/>
			</g>
			<g>
				<path class="st0" d="M90.7,149.4c0,0,0.6-0.9,0-1.3c-0.1-0.1-0.1,0-0.1,0.1c0,0.1-0.1,0.6-0.6,1s-0.5,0.7-0.4,0.8
					C89.7,150.1,90.2,150.2,90.7,149.4z"/>
			</g>
		</g>
		<g>
			<g>
				<path class="st0" d="M100.2,165.7c0,0-1,0.3-0.9,1c0,0.1,0.1,0.1,0.2,0c0.1-0.1,0.5-0.3,1.1-0.3c0.6,0,0.9-0.2,0.9-0.3
					C101.4,165.9,101.1,165.4,100.2,165.7z"/>
			</g>
			<g>
				<path class="st0" d="M100.8,167.4c0,0,1-0.3,0.9-1c0-0.1-0.1-0.1-0.2,0c-0.1,0.1-0.5,0.3-1.1,0.3c-0.6,0-0.9,0.2-0.9,0.3
					C99.5,167.2,99.9,167.6,100.8,167.4z"/>
			</g>
		</g>
		<g>
			<g>
				<path class="st0" d="M73.9,161c0,0-1,0.3-0.9,1c0,0.1,0.1,0.1,0.2,0c0.1-0.1,0.5-0.3,1.1-0.3c0.6,0,0.9-0.2,0.9-0.3
					C75.1,161.2,74.8,160.8,73.9,161z"/>
			</g>
			<g>
				<path class="st0" d="M74.5,162.7c0,0,1-0.3,0.9-1c0-0.1-0.1-0.1-0.1,0s-0.5,0.3-1.1,0.3c-0.6,0-0.9,0.2-0.9,0.3
					S73.6,163,74.5,162.7z"/>
			</g>
		</g>
		<g>
			<g>
				<path class="st0" d="M84.3,150.7c0,0-1,0.3-0.9,1c0,0.1,0.1,0.1,0.2,0c0.1-0.1,0.5-0.3,1.1-0.3c0.6,0,0.9-0.2,0.9-0.3
					C85.5,150.9,85.2,150.5,84.3,150.7z"/>
			</g>
			<g>
				<path class="st0" d="M84.9,152.4c0,0,1-0.3,0.9-1c0-0.1-0.1-0.1-0.2,0c-0.1,0.1-0.5,0.3-1.1,0.3c-0.6,0-0.9,0.2-0.9,0.3
					C83.6,152.2,84,152.7,84.9,152.4z"/>
			</g>
		</g>
		<g>
			<g>
				<path class="st0" d="M74.2,158.6c0,0,0.2-1-0.5-1.3c-0.1,0-0.1,0.1-0.1,0.1c0,0.1,0.1,0.6-0.2,1.1c-0.3,0.6-0.2,0.8-0.1,0.9
					S74,159.5,74.2,158.6z"/>
			</g>
			<g>
				<path class="st0" d="M72.4,158.3c0,0-0.2,1,0.5,1.3c0.1,0,0.1-0.1,0.1-0.1c0-0.1-0.1-0.6,0.2-1.1c0.3-0.6,0.2-0.8,0.1-0.9
					C73.1,157.4,72.6,157.4,72.4,158.3z"/>
			</g>
		</g>
		<g>
			<g>
				<path class="st0" d="M75.7,155.4c0,0,0.2-1-0.5-1.2c-0.1,0-0.1,0.1-0.1,0.1c0,0.1,0.1,0.6-0.2,1.1c-0.3,0.6-0.2,0.8-0.1,0.9
					S75.5,156.3,75.7,155.4z"/>
			</g>
			<g>
				<path class="st0" d="M73.9,155.3c0,0-0.2,1,0.6,1.2c0.1,0,0.1-0.1,0.1-0.1c0-0.1-0.1-0.6,0.2-1.1c0.3-0.6,0.2-0.9,0.1-0.9
					C74.6,154.2,74,154.4,73.9,155.3z"/>
			</g>
		</g>
		<g>
			<g>
				<path class="st0" d="M77.4,154.5c0,0-1,0.3-0.9,1c0,0.1,0.1,0.1,0.2,0c0.1-0.1,0.5-0.3,1.1-0.3c0.6,0,0.9-0.2,0.9-0.3
					C78.6,154.7,78.3,154.3,77.4,154.5z"/>
			</g>
			<g>
				<path class="st0" d="M78,156.2c0,0,1-0.3,0.9-1c0-0.1-0.1-0.1-0.2,0c-0.1,0.1-0.5,0.3-1.1,0.3c-0.6,0-0.9,0.2-0.9,0.3
					C76.7,156,77.1,156.5,78,156.2z"/>
			</g>
		</g>
		<g>
			<g>
				<path class="st0" d="M88.6,157.4c0,0,1-0.3,0.9-1.1c0-0.1-0.1-0.1-0.2,0c-0.1,0.1-0.5,0.3-1.1,0.4c-0.6,0-0.8,0.2-0.8,0.4
					C87.4,157.3,87.8,157.7,88.6,157.4z"/>
			</g>
			<g>
				<path class="st0" d="M88,155.7c0,0-1,0.3-0.9,1.1c0,0.1,0.1,0.1,0.2,0c0.1-0.1,0.5-0.3,1.1-0.4c0.6,0,0.8-0.2,0.8-0.4
					S88.9,155.4,88,155.7z"/>
			</g>
		</g>
		<g>
			<g>
				<path class="st0" d="M100.1,144.7c0,0,0.4,0.9,1.1,0.7c0.1,0,0.1-0.1,0-0.2c-0.1-0.1-0.4-0.4-0.5-1c-0.1-0.6-0.3-0.8-0.5-0.8
					C100.1,143.4,99.7,143.8,100.1,144.7z"/>
			</g>
			<g>
				<path class="st0" d="M101.7,143.8c0,0-0.4-0.9-1.1-0.7c-0.1,0-0.1,0.1,0,0.2c0.1,0.1,0.4,0.4,0.5,1c0.1,0.6,0.3,0.8,0.5,0.8
					C101.7,145,102.1,144.6,101.7,143.8z"/>
			</g>
		</g>
		<g>
			<g>
				<path class="st0" d="M101.7,157.7c0,0,0.4,0.9,1.1,0.7c0.1,0,0-0.1,0-0.2c-0.1-0.1-0.4-0.4-0.5-1s-0.3-0.8-0.5-0.8
					C101.7,156.5,101.3,156.9,101.7,157.7z"/>
			</g>
			<g>
				<path class="st0" d="M103.3,156.9c0,0-0.4-0.9-1.1-0.7c-0.1,0,0,0.1,0,0.2c0.1,0.1,0.4,0.4,0.5,1s0.3,0.8,0.5,0.8
					C103.3,158.1,103.7,157.7,103.3,156.9z"/>
			</g>
		</g>
		<g>
			<g>
				<path class="st0" d="M99.6,150.8c0,0,0.4,0.9,1.1,0.7c0.1,0,0.1-0.1,0-0.2c-0.1-0.1-0.4-0.4-0.5-1c-0.1-0.6-0.3-0.8-0.5-0.8
					C99.6,149.6,99.2,150,99.6,150.8z"/>
			</g>
			<g>
				<path class="st0" d="M101.2,150c0,0-0.4-0.9-1.1-0.7c-0.1,0-0.1,0.1,0,0.2c0.1,0.1,0.4,0.4,0.5,1c0.1,0.6,0.3,0.8,0.5,0.8
					C101.2,151.2,101.6,150.8,101.2,150z"/>
			</g>
		</g>
	</g>
	<g>
		<path class="st0" d="M107.9,155.2c-0.1,0-0.2,0-0.3-0.1l-21-16.3c-0.2-0.2-0.2-0.5-0.1-0.7c0.2-0.2,0.5-0.2,0.7-0.1l21,16.3
			c0.2,0.2,0.2,0.5,0.1,0.7C108.2,155.1,108.1,155.2,107.9,155.2z"/>
	</g>
</g>
</svg>
