<?xml version="1.0" encoding="utf-8"?>
<!-- Generator: Adobe Illustrator 25.2.3, SVG Export Plug-In . SVG Version: 6.00 Build 0)  -->
<svg version="1.1" id="圖層_1" xmlns="http://www.w3.org/2000/svg" xmlns:xlink="http://www.w3.org/1999/xlink" x="0px" y="0px"
	 viewBox="0 0 240 240" style="enable-background:new 0 0 240 240;" xml:space="preserve">
<style type="text/css">
	.st0{fill:#FFFFFF;}
</style>
<g>
	<path class="st0" d="M55.4,122.3c0,12.5,5.3,29.6,17.1,37.6c6.8,4.7,14.8,5.6,23.1,2.8c2.9,1,5.8,1.5,8.6,1.6
		c3.3,4.4,8,7.6,13.9,9.2c5.1,7.1,12.2,10.9,20.5,11c0.1,0,0.3,0,0.4,0c14.3,0,28.4-11,35.6-21.2c16.4-23.5,7.7-74,7.3-76.1
		c-0.4-2.2-2.5-3.7-4.7-3.3c-1.5,0.3-26.6,4.8-47.1,15.6c-10.3-21.8-30.1-41.9-31.3-43c-1.6-1.6-4.1-1.6-5.7,0
		C91.6,58.1,55.5,93.9,55.4,122.3z M63.5,122.3c0.1-20.8,24.1-48.1,32.5-57.1c8.3,9,32.2,36.6,32.1,57.3c0,10.7-4.8,24.8-13.8,30.8
		c-4.3,2.9-9.2,3.6-14.5,2.2v-5.2l22.4-14.9c1.8-1.2,2.3-3.7,1.1-5.6c-1.2-1.8-3.7-2.4-5.6-1.1l-17.9,12v-14.4l18.2-10.9
		c1.9-1.2,2.5-3.6,1.4-5.5s-3.6-2.5-5.5-1.4l-14.1,8.4V106l10.3-6.9c1.8-1.2,2.3-3.7,1.1-5.6c-1.2-1.9-3.7-2.4-5.6-1.1l-5.8,3.9
		v-8.6c0-2.2-1.8-4-4-4c-2.2,0-4,1.8-4,4v67.8c-5.4,1.5-10.3,0.8-14.7-2.2C68.1,147.1,63.4,133.1,63.5,122.3z M113.9,162.6
		c1.7-0.7,3.3-1.5,4.9-2.5c11.9-8,17.3-25.1,17.3-37.5c0-5-1.1-10.2-3-15.5c15-7.9,33.4-12.6,41.4-14.3c1.7,12.2,5.4,48.8-6.6,66
		c-6.2,8.9-18.1,17.8-29,17.8c-0.1,0-0.2,0-0.3,0c-5.7-0.1-10.4-2.7-14-7.7l3.2-4.4c0,0,0.1,0,0.1,0h28.2c2.2,0,4-1.8,4-4
		c0-2.2-1.8-4-4-4h-22.4l6-8.1c0.1,0,0.2,0.1,0.3,0.1h24.2c2.2,0,4-1.8,4-4c0-2.2-1.8-4-4-4h-18.7l6-8.2c0.2,0,0.4,0.1,0.6,0.1h16.1
		c2.2,0,4-1.8,4-4c0-2.2-1.8-4-4-4h-10.9l10.1-13.8c1.3-1.8,0.9-4.3-0.9-5.6s-4.3-0.9-5.6,0.9l-43.5,59.3
		C116.3,164.2,115,163.5,113.9,162.6z"/>
</g>
</svg>
