<?xml version="1.0" encoding="utf-8"?>
<!-- Generator: Adobe Illustrator 25.2.1, SVG Export Plug-In . SVG Version: 6.00 Build 0)  -->
<svg version="1.1" id="圖層_1" xmlns="http://www.w3.org/2000/svg" xmlns:xlink="http://www.w3.org/1999/xlink" x="0px" y="0px"
	 viewBox="0 0 240 240" style="enable-background:new 0 0 240 240;" xml:space="preserve">
<style type="text/css">
	.st0{fill:#1B3372;}
</style>
<g>
	<path class="st0" d="M79.7,85.6c1.5,23,4.3,38.9,6.8,53c2.2,12.3,4.3,23.9,5.2,38.4c0.3,4.2,3.7,7.6,7.7,7.6h41.1
		c4,0,7.4-3.3,7.7-7.6c0.9-14.6,3-26.3,5.2-38.7c2.5-14.1,5.3-30,6.8-52.7c0.5-8.2-2.2-16.2-7.7-22c-4.9-5.3-11.5-8.2-18.4-8.2
		h-28.4c-6.9,0-13.5,2.9-18.4,8.2C82,69.4,79.2,77.4,79.7,85.6z M99.9,176.5c-1-15.1-3.1-26.9-5.3-39.4c-2.5-14-5.1-28.4-6.5-49.4
		h51.9c-0.3,4.3-0.7,8.3-1.1,12.1h-43v4h42.6c-1.4,11.8-3.1,21.5-4.8,30.9c-1.7,9.7-3.4,18.9-4.5,29.6h-21.8c-2.2,0-4,1.8-4,4
		s1.8,4,4,4h25.5c2.1,0,3.8-1.6,4-3.7c1.1-11.9,2.9-22,4.8-32.6c2.4-13.8,5-28.1,6.5-48.5h4.1c-1.5,20.8-4.1,35.2-6.5,49.2
		c-2.2,12.6-4.4,24.5-5.3,39.6c0,0,0,0,0,0L99.9,176.5L99.9,176.5z M105.8,63.5h28.4c4.7,0,9.1,2,12.5,5.6c2.7,2.9,4.4,6.6,5.1,10.5
		H88.1c0.7-4,2.5-7.7,5.2-10.5C96.7,65.5,101.1,63.5,105.8,63.5z"/>
	<path class="st0" d="M111.9,120c-2.2,0-4-1.8-4-4s1.8-4,4-4c2.2,0,4,1.8,4,4C116,118.2,114.2,120,111.9,120z"/>
	<circle class="st0" cx="120" cy="128.1" r="4"/>
	<circle class="st0" cx="116" cy="156.3" r="4"/>
	<path class="st0" d="M109.9,136.1c3.3,0,6,2.7,6,6.1s-2.7,6.1-6,6.1c-3.3,0-6.1-2.7-6.1-6.1C103.9,138.9,106.6,136.1,109.9,136.1z"
		/>
</g>
</svg>
