<?xml version="1.0" encoding="utf-8"?>
<!-- Generator: Adobe Illustrator 25.2.3, SVG Export Plug-In . SVG Version: 6.00 Build 0)  -->
<svg version="1.1" id="圖層_1" xmlns="http://www.w3.org/2000/svg" xmlns:xlink="http://www.w3.org/1999/xlink" x="0px" y="0px"
	 viewBox="0 0 240 240" style="enable-background:new 0 0 240 240;" xml:space="preserve">
<style type="text/css">
	.st0{fill:#FFFFFF;}
</style>
<path class="st0" d="M105.1,75.7c9,0,17.7,3.2,24.9,9.6c6.5-12.3,16.8-25.2,24.4-29.4c1.9-1.1,4.4-0.4,5.5,1.6
	c1.1,1.9,0.4,4.4-1.6,5.5c-3.9,2.2-8.8,7.4-13.2,13.5c13.7-2.7,28.1,1.4,37.7,7.9c1.4,1,2.1,2.7,1.6,4.4
	c-2.9,11.5-16.1,24.2-24,29.5c8,16.1,3,36.4-12.6,51.6c-9.9,9.6-22.4,14.9-34.6,14.9c-10.3,0-20.4-3.7-28.5-11.5
	c-3.3-3.1-5.8-6.7-7.7-10.5c-3.7-1.8-7.1-4.2-10.2-7.3c-17-17.1-14.4-44.3,3.4-63.2C80.3,81.3,93,75.7,105.1,75.7z M73.4,150.4
	c-1.8-13.8,3.3-29.1,14.7-40.4c9.7-9.7,21.8-14.3,33.6-14.3c2.5,0,4.9,0.2,7.4,0.7c-0.6-0.8-1.1-1.5-1.7-2.2
	c-5.8-6.7-13.6-10.2-22.2-10.2c-10.2,0-20.8,5.1-29,13.8c-15.3,16.3-16.8,38.6-3.5,51.9C72.9,149.9,73.2,150.1,73.4,150.4z
	 M90.3,167.3c6.3,6,14.3,9.2,23,9.2c10.3,0,20.8-4.6,29-12.6c9.2-9,14.2-20.1,13.9-30.6c-0.2-8.1-3.8-15.3-10.1-20.8
	c-6.8-5.8-15.4-9-24.3-9c-10.3,0-20.2,4.2-27.9,11.9c-8.2,8.2-12.8,19-12.6,29.7C81.3,154,84.5,161.8,90.3,167.3z M159.9,87.7
	c2.2-0.2,4.2,1.3,4.5,3.5c0.2,2.2-1.3,4.2-3.5,4.5c-6,0.7-12.1,2.4-18.2,5c3,1.6,5.9,3.5,8.6,5.8c1.8,1.5,3.3,3.2,4.7,4.9
	c6.1-4,16.1-13.5,19.7-22c-10.2-5.7-25-8.4-37.5-2.3c-0.8,1.6-1.6,3.1-2.3,4.6c0.6,0.8,1.1,1.7,1.7,2.5
	C145,90.9,152.4,88.7,159.9,87.7z M92.9,158.6c-1.5,1.6-1.5,4.2,0.1,5.7c5.6,5.3,12.6,8.1,20.2,8.1c9.2,0,18.8-4.1,26.2-11.4
	c8.4-8.1,13-18.2,12.7-27.5c-0.2-7-3.1-13-8.7-17.8c-1.7-1.4-4.2-1.2-5.7,0.4c-1.4,1.7-1.3,4.2,0.4,5.7c3.9,3.3,5.8,7.2,6,11.9
	c0.2,7.1-3.6,14.9-10.3,21.5c-5.9,5.8-13.4,9.1-20.5,9.1c-5.5,0-10.6-2-14.6-5.8C97,157,94.5,157,92.9,158.6z"/>
</svg>
