<?xml version="1.0" encoding="utf-8"?>
<!-- Generator: Adobe Illustrator 25.2.3, SVG Export Plug-In . SVG Version: 6.00 Build 0)  -->
<svg version="1.1" id="圖層_1" xmlns="http://www.w3.org/2000/svg" xmlns:xlink="http://www.w3.org/1999/xlink" x="0px" y="0px"
	 viewBox="0 0 240 240" style="enable-background:new 0 0 240 240;" xml:space="preserve">
<style type="text/css">
	.st0{fill:#FFFFFF;}
</style>
<g>
	<g>
		<path class="st0" d="M59.5,137.9c0,0,9.6,27.7,29.8,23.6c2.1-0.6,1.8-2.7,0.3-4.4c-1.5-1.6-9.7-13.1-10.7-30.5
			c-1-17.5-6.4-23.7-10.9-23.7C63.3,102.8,51,113.6,59.5,137.9z"/>
		<path class="st0" d="M106.4,118.5c0,0-9.6-27.7-29.8-23.6c-2.1,0.6-1.8,2.7-0.3,4.4c1.5,1.7,9.7,13,10.7,30.5
			c1,17.4,6.4,23.6,10.9,23.7C102.5,153.5,114.8,142.7,106.4,118.5z"/>
	</g>
	<g>
		<path class="st0" d="M139.6,60.5c-4.2,1.5-7.3,9.2-2.6,26c4.8,16.8,0.7,30.3-0.2,32.3c-0.9,2.1-0.5,4.2,1.7,4
			c20.4-2.7,20.5-32,20.5-32C159.2,65.1,144,58.9,139.6,60.5z"/>
		<path class="st0" d="M127.8,120.5c4.2-1.5,7.3-9.2,2.6-26c-4.8-16.8-0.7-30.3,0.2-32.3c0.9-2,0.5-4.2-1.7-4
			c-20.4,2.7-20.5,32-20.5,32C108.3,115.9,123.5,122.1,127.8,120.5z"/>
	</g>
	<g>
		<path class="st0" d="M181.9,148.1c-3.1-3.3-11.3-3.1-24.8,8c-13.5,11.1-27.4,12.8-29.7,12.8s-4,1.2-3,3.1
			c10.6,17.6,37.5,5.9,37.5,5.9C185.5,167.9,185,151.5,181.9,148.1z"/>
		<path class="st0" d="M122.2,161.3c3.1,3.3,11.3,3.1,24.8-8.1s27.4-12.8,29.7-12.8s4-1.2,3-3.1c-10.6-17.7-37.6-5.9-37.6-5.9
			C118.5,141.6,119,158,122.2,161.3z"/>
	</g>
</g>
</svg>
