<?xml version="1.0" encoding="utf-8"?>
<!-- Generator: Adobe Illustrator 25.2.1, SVG Export Plug-In . SVG Version: 6.00 Build 0)  -->
<svg version="1.1" id="圖層_1" xmlns="http://www.w3.org/2000/svg" xmlns:xlink="http://www.w3.org/1999/xlink" x="0px" y="0px"
	 viewBox="0 0 240 240" style="enable-background:new 0 0 240 240;" xml:space="preserve">
<style type="text/css">
	.st0{fill:#1B3372;}
</style>
<path class="st0" d="M58.4,87.8l121.1-32.3c1.3-0.4,2.8,0,3.8,1c1,1,1.4,2.4,1.1,3.8l-28.2,121.1c-0.2,1.1-0.9,2-1.9,2.5
	c-0.6,0.4-1.4,0.6-2.1,0.6c-0.3,0-0.7,0-1-0.1c-18.2-4.7-37.6-16.6-57.8-35.4C74.9,131.6,61,111.2,55.6,92.9
	c-0.3-1.1-0.2-2.2,0.3-3.2C56.5,88.8,57.3,88.1,58.4,87.8z M99,143.1c17.6,16.5,34.5,27.4,50.3,32.4l2.8-12.2
	c-2.6-0.8-5.2-1.8-7.8-2.9c0,0-0.1,0-0.2,0c-0.3,0-0.7,0-1-0.1c-0.9-0.2-1.6-0.8-2.1-1.4c-27-13.4-54-43.3-64.3-67.5l-12.1,3.2
	C70.4,110.3,83,128.2,99,143.1z M141.7,150l18.8-71.4c0.6-2.1,2.7-3.4,4.9-2.9c2.1,0.6,3.4,2.8,2.9,4.9l-19.2,72.9
	c1.6,0.7,3.3,1.3,4.9,1.8l21.1-90.3L84.7,89.2C94.2,110.5,118,137.1,141.7,150z M98,92.1c-2,1-2.8,3.4-1.8,5.4
	c0.7,1.4,2.1,2.2,3.6,2.2c0.6,0,1.2-0.1,1.8-0.4l8.1-4c2-1,2.8-3.4,1.8-5.4c-1-2-3.4-2.8-5.4-1.8L98,92.1z M110.1,108.3
	c-2,1-2.8,3.4-1.8,5.4c0.7,1.4,2.1,2.2,3.6,2.2c0.6,0,1.2-0.1,1.8-0.4l8.1-4c2-1,2.8-3.4,1.8-5.4c-1-2-3.4-2.8-5.4-1.8L110.1,108.3z
	 M122.2,88.1c-2,1-2.8,3.4-1.8,5.4c0.7,1.4,2.1,2.2,3.6,2.2c0.6,0,1.2-0.1,1.8-0.4l8.1-4c2-1,2.8-3.4,1.8-5.4c-1-2-3.4-2.8-5.4-1.8
	L122.2,88.1z M126.3,124.4c-2,1-2.8,3.4-1.8,5.4c0.7,1.4,2.1,2.2,3.6,2.2c0.6,0,1.2-0.1,1.8-0.4l8.1-4c2-1,2.8-3.4,1.8-5.4
	c-1-2-3.4-2.8-5.4-1.8L126.3,124.4z M134.4,104.3c-2,1-2.8,3.4-1.8,5.4c0.7,1.4,2.1,2.2,3.6,2.2c0.6,0,1.2-0.1,1.8-0.4l8.1-4
	c2-1,2.8-3.4,1.8-5.4c-1-2-3.4-2.8-5.4-1.8L134.4,104.3z M142.4,80c-2,1-2.8,3.4-1.8,5.4c0.7,1.4,2.1,2.2,3.6,2.2
	c0.6,0,1.2-0.1,1.8-0.4l8.1-4c2-1,2.8-3.4,1.8-5.4c-1-2-3.4-2.8-5.4-1.8L142.4,80z"/>
</svg>
