<?xml version="1.0" encoding="utf-8"?>
<!-- Generator: Adobe Illustrator 25.2.1, SVG Export Plug-In . SVG Version: 6.00 Build 0)  -->
<svg version="1.1" id="圖層_1" xmlns="http://www.w3.org/2000/svg" xmlns:xlink="http://www.w3.org/1999/xlink" x="0px" y="0px"
	 viewBox="0 0 240 240" style="enable-background:new 0 0 240 240;" xml:space="preserve">
<style type="text/css">
	.st0{fill:#1B3372;}
</style>
<g>
	<path class="st0" d="M55.4,128.1v48.4c0,1.7,0.5,3.2,1.4,4.5c0.6,0.9,1.3,1.6,2.2,2.2c1.3,0.9,2.8,1.4,4.5,1.4h7.9h40.7h15.8h40.7
		h7.9c4.5,0,8.1-3.6,8.1-8.1v-48.4c0-1.7-0.5-3.2-1.4-4.5c-0.6-0.9-1.3-1.6-2.2-2.2c-0.1-0.1-0.3-0.2-0.5-0.3V120
		c0-13.6-6.5-22.4-12-27.3c-2.6-2.4-4.1-5.7-4.1-9.1V63.8c0-4.6-3.8-8.4-8.4-8.4h-15.5c-4.6,0-8.4,3.8-8.4,8.4v19.8
		c0,3.4-1.5,6.8-4.2,9.2c-2.7,2.4-5.6,5.8-7.9,10.2c-2.3-4.4-5.3-7.8-8-10.2c-2.6-2.4-4.1-5.7-4.1-9.1V63.8c0-4.6-3.8-8.4-8.4-8.4
		H84c-4.6,0-8.4,3.8-8.4,8.4v19.8c0,3.4-1.5,6.8-4.2,9.2c-5.5,4.9-12,13.7-12,27.3v1.1c-0.2,0.1-0.3,0.2-0.5,0.3
		c-0.4,0.3-0.8,0.6-1.2,1c-0.4,0.4-0.7,0.8-1,1.2C55.9,124.8,55.4,126.4,55.4,128.1z M63.5,176.5v-3.9v-44.6h113v44.6v3.9h-7.9
		h-40.7h-15.8H71.4H63.5z M172.5,120h-4l0,0c0-6.7-3.5-13.9-9.4-19.2c-1.6-1.5-4.2-1.4-5.7,0.3c-1.5,1.7-1.4,4.2,0.3,5.7
		c3.3,2.9,6.7,7.9,6.7,13.2l0,0H124c0-10.6,5.1-17.4,9.3-21.3c4.4-3.9,6.9-9.5,6.9-15.2v-12h16.1v12.1c0,5.7,2.5,11.2,6.8,15.1
		C167.4,102.5,172.5,109.3,172.5,120z M156.3,63.8v3.7h-16.2v-3.7c0-0.2,0.1-0.3,0.3-0.3H156C156.2,63.5,156.3,63.6,156.3,63.8z
		 M116,120h-4l0,0c0-6.7-3.5-13.9-9.4-19.2c-1.6-1.5-4.2-1.4-5.7,0.3c-1.5,1.7-1.4,4.2,0.3,5.7c3.3,2.9,6.7,7.9,6.7,13.2l0,0H67.5
		c0-10.6,5.1-17.4,9.3-21.3c4.3-3.9,6.8-9.5,6.8-15.2v-12h16.1v12.1c0,5.7,2.5,11.2,6.8,15.1C110.9,102.5,116,109.3,116,120z
		 M99.8,63.8v3.7H83.7v-3.7c0-0.2,0.1-0.3,0.3-0.3h15.5C99.7,63.5,99.8,63.6,99.8,63.8z"/>
	<path class="st0" d="M71.6,152.3c2.2,0,4,1.8,4,4v8.1h28.2h28.2h28.2h4v-20.2c0-2.2,1.8-4,4-4c2.2,0,4,1.8,4,4v24.2
		c0,2.2-1.8,4-4,4h-4h-32.3h-24.2H75.6h-4c-2.2,0-4-1.8-4-4v-12.1C67.5,154.1,69.3,152.3,71.6,152.3z"/>
	<path class="st0" d="M148.3,142.2c0-5.6-4.5-10.1-10.1-10.1h-36.3c-5.6,0-10.1,4.5-10.1,10.1s4.5,10.1,10.1,10.1h36.3
		C143.7,152.3,148.3,147.8,148.3,142.2z M140.2,142.2c0,1.1-0.9,2-2,2h-36.3c-1.1,0-2-0.9-2-2c0-1.1,0.9-2,2-2h36.3
		C139.3,140.2,140.2,141.1,140.2,142.2z"/>
</g>
</svg>
