<?xml version="1.0" encoding="utf-8"?>
<!-- Generator: Adobe Illustrator 25.2.1, SVG Export Plug-In . SVG Version: 6.00 Build 0)  -->
<svg version="1.1" id="圖層_1" xmlns="http://www.w3.org/2000/svg" xmlns:xlink="http://www.w3.org/1999/xlink" x="0px" y="0px"
	 viewBox="0 0 240 240" style="enable-background:new 0 0 240 240;" xml:space="preserve">
<style type="text/css">
	.st0{fill:#1B3372;}
</style>
<g>
	<g>
		<path class="st0" d="M119.2,175.9c-9.9,0-18.7-2.7-26.2-8.2c-7.7-5.6-11.5-13.5-11.2-23.5l0-0.3l0.7-2.2h24v2.1
			c0,3.4,1.1,6.1,3.5,8.4c2.4,2.3,5.4,3.4,9.2,3.4c4.3,0,7.6-1.2,10.2-3.7c2.6-2.4,3.8-5.4,3.8-9.2c0-4.9-1.2-8.5-3.5-10.7
			c-2.4-2.3-6-3.4-10.8-3.4h-13.7v-19.9h13.7c4.3,0,7.6-1.1,9.6-3.2c2-2.2,3.1-5.4,3.1-9.5c0-3.4-1-6.1-3.2-8.3
			c-2.1-2.2-5.1-3.2-9.1-3.2c-3.3,0-6,1-8.3,3c-2.2,1.9-3.2,4.4-3.2,7.4V97H83.9l-0.7-2.2l0-0.3c-0.3-8.8,3.1-16.2,10.3-22
			c7-5.6,15.6-8.4,25.8-8.4c11.3,0,20.4,2.7,27.1,8.1c6.9,5.5,10.3,13.4,10.3,23.6c0,5.2-1.5,10-4.5,14.4c-2.2,3.2-5,5.9-8.4,8
			c4,2.1,7.2,4.9,9.7,8.4c3.2,4.5,4.8,10,4.8,16.4c0,10.2-3.8,18.3-11.2,24.2C139.8,172.9,130.4,175.9,119.2,175.9z M86,145.9
			c0.2,7.9,3.3,13.9,9.5,18.4c6.7,4.9,14.7,7.4,23.7,7.4c10.3,0,18.8-2.6,25.3-7.8c6.4-5.1,9.6-12,9.6-20.9c0-5.5-1.4-10.2-4.1-14
			c-2.7-3.8-6.6-6.7-11.7-8.6l-4.6-1.7l4.4-2.1c4.4-2.1,8-5.1,10.5-8.7c2.5-3.6,3.8-7.7,3.8-12c0-8.9-2.9-15.6-8.8-20.3
			c-6-4.8-14.2-7.2-24.5-7.2c-9.2,0-17,2.5-23.2,7.5c-5.7,4.6-8.5,10.1-8.7,16.9h16.3c0.4-3.3,1.9-6.2,4.5-8.4
			c3-2.7,6.7-4.1,11.1-4.1c5.1,0,9.2,1.5,12.1,4.5c2.9,3,4.4,6.8,4.4,11.2c0,5.2-1.4,9.4-4.2,12.3c-2.8,3-7.1,4.5-12.6,4.5h-9.5
			v11.5h9.5c5.9,0,10.5,1.5,13.7,4.6c3.2,3.1,4.8,7.7,4.8,13.8c0,4.9-1.7,9-5.1,12.2c-3.4,3.2-7.8,4.8-13.1,4.8
			c-4.9,0-9-1.5-12.1-4.6c-2.7-2.6-4.2-5.7-4.6-9.3H86z"/>
	</g>
</g>
</svg>
