<?xml version="1.0" encoding="utf-8"?>
<!-- Generator: Adobe Illustrator 25.2.3, SVG Export Plug-In . SVG Version: 6.00 Build 0)  -->
<svg version="1.1" id="圖層_1" xmlns="http://www.w3.org/2000/svg" xmlns:xlink="http://www.w3.org/1999/xlink" x="0px" y="0px"
	 viewBox="0 0 240 240" style="enable-background:new 0 0 240 240;" xml:space="preserve">
<style type="text/css">
	.st0{fill:#FFFFFF;}
</style>
<g>
	<g>
		<g>
			<g>
				<path class="st0" d="M180,183.2H59.8c-0.4,0-0.7-0.2-0.9-0.5c-2-3.3-3.1-7.1-3.1-11.1c0-1.2,0.1-2.5,0.3-3.7
					c1.8-10.3,10.7-17.7,21.1-17.7c2.8,0,5.5,0.5,8,1.6c2.2-6.8,8.5-11.4,15.7-11.4c6.2,0,11.7,3.4,14.6,8.8
					c2.9-2.4,6.6-3.7,10.4-3.7c4.3,0,8.4,1.7,11.4,4.6c5.1-5.1,12.1-7.9,19.3-7.9c15.2,0,27.5,12.3,27.5,27.5c0,4.6-1.1,9.1-3.3,13
					C180.7,183,180.4,183.2,180,183.2z M60.4,181.1h119c1.8-3.5,2.7-7.5,2.7-11.5c0-14-11.4-25.4-25.4-25.4c-7,0-13.8,2.9-18.5,8
					c-0.2,0.2-0.5,0.3-0.8,0.3h0c-0.3,0-0.6-0.1-0.8-0.3c-2.7-3-6.6-4.7-10.7-4.7c-3.8,0-7.3,1.4-10,4.1c-0.2,0.2-0.6,0.3-0.9,0.3
					c-0.3-0.1-0.6-0.3-0.8-0.6c-2.2-5.4-7.4-8.8-13.2-8.8c-6.7,0-12.4,4.5-14,11c-0.1,0.3-0.3,0.6-0.6,0.7c-0.3,0.1-0.6,0.1-0.9,0
					c-2.6-1.2-5.4-1.9-8.3-1.9c-9.4,0-17.4,6.7-19,16c-0.2,1.1-0.3,2.3-0.3,3.4C57.9,175,58.8,178.2,60.4,181.1z"/>
			</g>
			<g>
				<path class="st0" d="M146.6,169.2H57.2c-0.6,0-1.1-0.5-1.1-1.1s0.5-1.1,1.1-1.1h89.5c0.6,0,1.1,0.5,1.1,1.1
					S147.2,169.2,146.6,169.2z"/>
			</g>
			<g>
				<path class="st0" d="M133.7,134.7c-3.7,0-7.7-0.4-12-1.3c-0.4-0.1-0.7-0.4-0.8-0.8c-3-15-0.7-26.7,6.6-34
					c5.2-5.2,12.6-7.9,22-7.9c3.7,0,7.8,0.4,12,1.3c0.4,0.1,0.7,0.4,0.8,0.8c3,15,0.7,26.7-6.6,34
					C150.6,132.1,143.1,134.7,133.7,134.7z M122.9,131.5c3.8,0.7,7.5,1.1,10.9,1.1c8.8,0,15.7-2.4,20.6-7.3
					c6.7-6.7,8.8-17.5,6.2-31.4c-3.8-0.7-7.5-1.1-10.9-1.1c-8.8,0-15.7,2.4-20.6,7.3C122.4,106.8,120.2,117.6,122.9,131.5z"/>
			</g>
			<g>
				<path class="st0" d="M111,135L111,135c-6.5,0-11.7-1.8-15.3-5.5c-5.1-5.1-6.7-13.3-4.6-23.6c0.1-0.4,0.4-0.8,0.8-0.8
					c2.9-0.6,5.7-0.9,8.3-0.9c6.5,0,11.7,1.8,15.3,5.5c5.1,5.1,6.7,13.3,4.6,23.6c-0.1,0.4-0.4,0.8-0.8,0.8
					C116.4,134.7,113.6,135,111,135z M93,107c-1.7,9.3-0.3,16.6,4.2,21c3.2,3.2,7.9,4.9,13.8,4.9l0,0c2.2,0,4.6-0.2,7.2-0.7
					c1.7-9.3,0.3-16.6-4.2-21C109.5,106.7,102.3,105.3,93,107z"/>
			</g>
			<g>
				<path class="st0" d="M122,133.5c-0.3,0-0.5-0.1-0.7-0.3c-0.4-0.4-0.4-1.1,0-1.5l26.4-27.5c0.4-0.4,1.1-0.4,1.5,0s0.4,1.1,0,1.5
					l-26.4,27.5C122.5,133.4,122.2,133.5,122,133.5z"/>
			</g>
			<g>
				<path class="st0" d="M120.2,148c-0.6,0-1.1-0.5-1.1-1.1V86.2c0-0.6,0.5-1,1.1-1c0.6,0,1.1,0.5,1.1,1v60.7
					C121.3,147.5,120.8,148,120.2,148z"/>
			</g>
			<g>
				<path class="st0" d="M138.3,116.4c-0.5,0-1-0.4-1.1-1l-1.2-15.1c-0.1-0.6,0.4-1.1,1-1.1c0.6,0,1.1,0.4,1.1,1l1.2,15.1
					C139.4,115.9,139,116.4,138.3,116.4C138.4,116.4,138.3,116.4,138.3,116.4z"/>
			</g>
			<g>
				<path class="st0" d="M128.2,127c-0.5,0-1-0.4-1-0.9c-0.1-0.6,0.3-1.1,0.9-1.2l16.2-2.6c0.6-0.1,1.1,0.3,1.2,0.9
					c0.1,0.6-0.3,1.1-0.9,1.2l-16.2,2.6C128.3,127,128.3,127,128.2,127z"/>
			</g>
			<g>
				<path class="st0" d="M119.1,134.1c-0.3,0-0.6-0.1-0.8-0.3l-18.2-19c-0.4-0.4-0.4-1.1,0-1.5s1.1-0.4,1.5,0l18.2,19
					c0.4,0.4,0.4,1.1,0,1.5C119.6,134,119.3,134.1,119.1,134.1z"/>
			</g>
			<g>
				<path class="st0" d="M98.9,123.2c-0.4,0-0.8-0.3-1-0.7c-0.2-0.5,0.1-1.2,0.6-1.4l6.7-2.6c0.5-0.2,1.2,0.1,1.4,0.6
					c0.2,0.5-0.1,1.2-0.6,1.4l-6.7,2.6C99.1,123.2,99,123.2,98.9,123.2z"/>
			</g>
			<g>
				<path class="st0" d="M113,127.8C113,127.8,113,127.8,113,127.8c-0.7,0-1.1-0.5-1.1-1.1l0.7-10.1c0-0.6,0.5-1,1.1-1
					c0.6,0,1,0.5,1,1.1l-0.7,10.1C114.1,127.4,113.6,127.8,113,127.8z"/>
			</g>
			<g>
				<path class="st0" d="M120.2,87.3c-8.4,0-15.2-6.8-15.2-15.2c0-8.4,6.8-15.3,15.2-15.3c8.4,0,15.2,6.8,15.2,15.3
					C135.5,80.4,128.6,87.3,120.2,87.3z M120.2,58.9c-7.2,0-13.1,5.9-13.1,13.1c0,7.2,5.9,13.1,13.1,13.1s13.1-5.9,13.1-13.1
					C133.4,64.8,127.5,58.9,120.2,58.9z"/>
			</g>
			<path class="st0" d="M121.1,77.6c0.6-0.1,1-0.4,1.4-0.8c0.4-0.4,0.5-0.9,0.5-1.5c0-0.5-0.2-0.9-0.5-1.3c-0.3-0.4-0.8-0.7-1.5-0.8
				L121.1,77.6L121.1,77.6z M119.4,65.5c-0.4,0.2-0.8,0.4-1.1,0.8c-0.3,0.4-0.4,0.8-0.4,1.2c0,0.4,0.1,0.8,0.3,1.1
				c0.2,0.3,0.6,0.6,1.1,0.8L119.4,65.5L119.4,65.5z M119.4,77.4v-4.8c-1.5-0.4-2.6-1.1-3.2-1.9c-0.7-0.9-1-1.9-1-3.1
				c0-1.2,0.4-2.3,1.2-3.1c0.8-0.9,1.8-1.3,3.1-1.5v-1.1h1.7V63c1.2,0.1,2.2,0.5,2.9,1.2c0.7,0.7,1.2,1.6,1.4,2.7l-2.9,0.4
				c-0.2-0.9-0.6-1.5-1.4-1.8v4.4c1.8,0.5,3.1,1.1,3.7,1.9c0.7,0.8,1,1.8,1,3c0,1.4-0.4,2.5-1.2,3.5c-0.8,0.9-2,1.5-3.5,1.8v2.1
				h-1.7v-2.1c-1.3-0.2-2.3-0.6-3.2-1.4c-0.8-0.8-1.3-2-1.6-3.4l2.9-0.3c0.1,0.6,0.3,1.1,0.7,1.6C118.7,76.9,119,77.2,119.4,77.4z"
				/>
			<g>
				<path class="st0" d="M80.6,95c-2.7,0-4.8-2.2-4.8-4.9c0-2.7,2.2-4.8,4.8-4.8c2.7,0,4.9,2.2,4.9,4.8C85.5,92.8,83.3,95,80.6,95z
					 M80.6,87.4c-1.5,0-2.7,1.2-2.7,2.7c0,1.5,1.2,2.8,2.7,2.8c1.5,0,2.8-1.2,2.8-2.8C83.4,88.6,82.1,87.4,80.6,87.4z"/>
			</g>
			<g>
				<path class="st0" d="M158.4,78.9c-2.7,0-4.9-2.2-4.9-4.9c0-2.7,2.2-4.8,4.9-4.8c2.7,0,4.9,2.2,4.9,4.8S161.1,78.9,158.4,78.9z
					 M158.4,71.3c-1.5,0-2.7,1.2-2.7,2.7c0,1.5,1.2,2.8,2.7,2.8c1.5,0,2.8-1.2,2.8-2.8C161.2,72.5,160,71.3,158.4,71.3z"/>
			</g>
		</g>
	</g>
</g>
</svg>
