<?xml version="1.0" encoding="utf-8"?>
<!-- Generator: Adobe Illustrator 25.2.1, SVG Export Plug-In . SVG Version: 6.00 Build 0)  -->
<svg version="1.1" id="圖層_1" xmlns="http://www.w3.org/2000/svg" xmlns:xlink="http://www.w3.org/1999/xlink" x="0px" y="0px"
	 viewBox="0 0 240 240" style="enable-background:new 0 0 240 240;" xml:space="preserve">
<style type="text/css">
	.st0{fill:#1B3372;}
</style>
<g>
	<g>
		<path class="st0" d="M120.8,175.9c-11.4,0-20.9-2.9-28.3-8.5c-7.5-5.8-11.4-13.9-11.4-24.2c0-6.1,1.9-11.6,5.7-16.3
			c2.9-3.6,6.6-6.6,11-8.9c-3.5-2.2-6.3-4.8-8.6-8c-3-4.3-4.6-9.4-4.6-15c0-9.8,3.4-17.5,10.2-22.9c6.6-5.2,15.3-7.9,25.8-7.9
			c10.1,0,18.4,2.7,24.8,7.9c6.5,5.3,9.8,13,9.8,22.8c0,5.6-1.5,10.6-4.4,14.9c-2.1,3.2-4.9,5.9-8.2,8c4.3,2.3,7.9,5.3,10.7,9
			c3.6,4.7,5.5,10.2,5.5,16.3c0,10.3-3.7,18.4-10.9,24.2C140.9,173,131.7,175.9,120.8,175.9z M120.7,68.3c-9.5,0-17.3,2.3-23.2,7
			c-5.8,4.6-8.6,11-8.6,19.6c0,4.7,1.3,8.9,3.8,12.5c2.6,3.7,6.2,6.6,10.7,8.7l4.5,2l-4.6,1.8c-5.6,2.2-10,5.4-13.2,9.4
			c-3.2,4-4.8,8.5-4.8,13.7c0,9.1,3.2,15.9,9.7,20.9c6.6,5.1,15.3,7.6,25.7,7.6c9.9,0,18.2-2.6,24.5-7.6c6.3-5,9.3-11.9,9.3-20.9
			c0-5.2-1.5-9.7-4.6-13.8c-3.1-4.1-7.4-7.2-12.7-9.4l-4.4-1.8l4.3-2c4.3-2.1,7.8-5,10.2-8.6c2.4-3.6,3.7-7.9,3.7-12.6
			c0-8.6-2.7-15-8.3-19.6C137.2,70.7,129.8,68.3,120.7,68.3z M120.8,159.8c-5.4,0-9.8-1.6-13.3-4.8c-3.5-3.2-5.3-7.6-5.3-12.9
			c0-5.2,1.8-9.6,5.3-13c3.5-3.4,7.9-5.1,13.2-5.1c4.8,0,8.9,1.7,12.2,5.1c3.3,3.4,4.9,7.7,4.9,12.9c0,5.3-1.6,9.6-4.9,12.8
			C129.8,158.2,125.7,159.8,120.8,159.8z M120.7,128.3c-4.2,0-7.5,1.3-10.2,3.9c-2.7,2.6-4,5.9-4,9.9c0,4.2,1.3,7.4,3.9,9.8
			c2.7,2.5,6.1,3.7,10.5,3.7c3.8,0,6.8-1.2,9.2-3.6c2.4-2.4,3.6-5.7,3.6-9.9c0-4.1-1.2-7.4-3.8-10
			C127.4,129.5,124.4,128.3,120.7,128.3z M120.8,112.1c-4.5,0-8.2-1.5-11-4.6c-2.7-3-4.1-6.9-4.1-11.7c0-4.8,1.4-8.6,4.1-11.3
			c2.7-2.8,6.4-4.2,10.9-4.2c4.1,0,7.4,1.5,10,4.3c2.5,2.8,3.8,6.6,3.8,11.2c0,4.8-1.2,8.7-3.6,11.7
			C128.3,110.6,124.9,112.1,120.8,112.1z M120.7,84.5c-3.4,0-6,1-7.9,2.9c-2,2-2.9,4.7-2.9,8.4c0,3.7,1,6.7,3,8.9
			c2,2.2,4.6,3.2,7.9,3.2c2.8,0,5-1,6.7-3.1c1.8-2.2,2.7-5.2,2.7-9c0-3.6-0.9-6.4-2.7-8.4C125.8,85.4,123.5,84.5,120.7,84.5z"/>
	</g>
</g>
</svg>
